<svg xmlns="http://www.w3.org/2000/svg" xml:space="preserve" id="Camada_1" x="0" y="0" viewBox="0 0 888.1 151.8"><style>.st8{fill:#fff}</style><path d="m54.6 93.8-33-39.3H0v97.3h20.9V86.7l33.7 39.8 33.5-40v65.3h21.1V54.5H87.4zM209.9 57.2q-4.5-2.7-9.9-2.7h-57.3c-3.6 0-6.9.9-10 2.7s-5.5 4.2-7.3 7.2-2.7 6.4-2.7 10.1v57.3c0 3.6.9 6.9 2.7 10s4.2 5.5 7.3 7.3 6.4 2.7 10 2.7H200q5.4 0 9.9-2.7c3-1.8 5.5-4.2 7.3-7.3s2.8-6.4 2.8-10V74.5c0-3.7-.9-7-2.8-10.1-1.9-3-4.3-5.4-7.3-7.2m-11.2 73.5h-55.1V75.6h55.1zM286.6 93.8l-33-39.3H232v97.3h20.9V86.7l33.7 39.8 33.5-40v65.3h21.1V54.5h-21.8zM354.9 151.8h89.9v-21.1h-68.7v-17h55.3V92.6h-55.3v-17h68.7V54.5h-89.9zM531.5 119.4l-54.4-64.9h-21.6v97.3h20.9V86.7l54.7 65.1h21.7V54.5h-21.3zM562.5 75.6h38.2v76.2h21V75.6h38.1V54.5h-97.3zM745.5 130.7h-55.1V54.5h-20.9v77.3c0 3.6.9 6.9 2.7 10s4.2 5.5 7.3 7.3 6.4 2.7 10 2.7h57.3q5.4 0 9.9-2.7c3-1.8 5.4-4.2 7.3-7.3 1.8-3.1 2.8-6.4 2.8-10V54.5h-21.2v76.2zM866.3 54.5l-32.8 39.3-33-39.3h-21.6v97.3h20.9V86.7l33.7 39.8 33.5-40v65.3h21.1V54.5z"/><linearGradient id="SVGID_1_" x1="444.026" x2="444.026" y1="58.83" y2="150.425" gradientUnits="userSpaceOnUse"><stop offset=".228" style="stop-color:#86cdff"/><stop offset="1" style="stop-color:#409df5"/></linearGradient><path d="m54.6 93.8-33-39.3H0v97.3h20.9V86.7l33.7 39.8 33.5-40v65.3h21.1V54.5H87.4z" style="fill:url(#SVGID_1_)"/><linearGradient id="SVGID_00000133519831641528835010000001252785234054490255_" x1="444.026" x2="444.026" y1="58.83" y2="150.425" gradientUnits="userSpaceOnUse"><stop offset=".228" style="stop-color:#86cdff"/><stop offset="1" style="stop-color:#409df5"/></linearGradient><path d="M209.9 57.2q-4.5-2.7-9.9-2.7h-57.3c-3.6 0-6.9.9-10 2.7s-5.5 4.2-7.3 7.2-2.7 6.4-2.7 10.1v57.3c0 3.6.9 6.9 2.7 10s4.2 5.5 7.3 7.3 6.4 2.7 10 2.7H200q5.4 0 9.9-2.7c3-1.8 5.5-4.2 7.3-7.3s2.8-6.4 2.8-10V74.5c0-3.7-.9-7-2.8-10.1-1.9-3-4.3-5.4-7.3-7.2m-11.2 73.5h-55.1V75.6h55.1z" style="fill:url(#SVGID_00000133519831641528835010000001252785234054490255_)"/><linearGradient id="SVGID_00000046338644410529916820000017147312948598192031_" x1="444.026" x2="444.026" y1="58.83" y2="150.425" gradientUnits="userSpaceOnUse"><stop offset=".228" style="stop-color:#86cdff"/><stop offset="1" style="stop-color:#409df5"/></linearGradient><path d="m286.6 93.8-33-39.3H232v97.3h20.9V86.7l33.7 39.8 33.5-40v65.3h21.1V54.5h-21.8z" style="fill:url(#SVGID_00000046338644410529916820000017147312948598192031_)"/><linearGradient id="SVGID_00000080167719850007848580000000636052608544820133_" x1="444.026" x2="444.026" y1="58.83" y2="150.425" gradientUnits="userSpaceOnUse"><stop offset=".228" style="stop-color:#86cdff"/><stop offset="1" style="stop-color:#409df5"/></linearGradient><path d="M354.9 151.8h89.9v-21.1h-68.7v-17h55.3V92.6h-55.3v-17h68.7V54.5h-89.9z" style="fill:url(#SVGID_00000080167719850007848580000000636052608544820133_)"/><linearGradient id="SVGID_00000021095922154385917110000003757632554086093985_" x1="444.026" x2="444.026" y1="58.83" y2="150.425" gradientUnits="userSpaceOnUse"><stop offset=".228" style="stop-color:#86cdff"/><stop offset="1" style="stop-color:#409df5"/></linearGradient><path d="m531.5 119.4-54.4-64.9h-21.6v97.3h20.9V86.7l54.7 65.1h21.7V54.5h-21.3z" style="fill:url(#SVGID_00000021095922154385917110000003757632554086093985_)"/><linearGradient id="SVGID_00000159427888462830505550000017391278087130578048_" x1="444.026" x2="444.026" y1="58.83" y2="150.425" gradientUnits="userSpaceOnUse"><stop offset=".228" style="stop-color:#86cdff"/><stop offset="1" style="stop-color:#409df5"/></linearGradient><path d="M562.5 75.6h38.2v76.2h21V75.6h38.1V54.5h-97.3z" style="fill:url(#SVGID_00000159427888462830505550000017391278087130578048_)"/><linearGradient id="SVGID_00000141425625921348604530000004252765331542678930_" x1="444.026" x2="444.026" y1="58.83" y2="150.425" gradientUnits="userSpaceOnUse"><stop offset=".228" style="stop-color:#86cdff"/><stop offset="1" style="stop-color:#409df5"/></linearGradient><path d="M745.5 130.7h-55.1V54.5h-20.9v77.3c0 3.6.9 6.9 2.7 10s4.2 5.5 7.3 7.3 6.4 2.7 10 2.7h57.3q5.4 0 9.9-2.7c3-1.8 5.4-4.2 7.3-7.3 1.8-3.1 2.8-6.4 2.8-10V54.5h-21.2v76.2z" style="fill:url(#SVGID_00000141425625921348604530000004252765331542678930_)"/><linearGradient id="SVGID_00000157273731178364494280000011259864368622236604_" x1="444.026" x2="444.026" y1="58.83" y2="150.425" gradientUnits="userSpaceOnUse"><stop offset=".228" style="stop-color:#86cdff"/><stop offset="1" style="stop-color:#409df5"/></linearGradient><path d="m866.3 54.5-32.8 39.3-33-39.3h-21.6v97.3h20.9V86.7l33.7 39.8 33.5-40v65.3h21.1V54.5z" style="fill:url(#SVGID_00000157273731178364494280000011259864368622236604_)"/><path d="M0 33.3h30.4v-3.7H3.7v-11h21.5v-3.8H3.7V3.7h26.7V0H0zM78.8 16.5 65 0h-5.2v33.3h3.8v-29l15.2 18.1L94 4.3v29h3.8V0h-5.2zM157.8.8C157 .3 156 0 155 0h-27.8v33.3h3.7V20.9h24c1 0 2-.3 2.8-.8s1.5-1.2 2-2 .7-1.8.7-2.8V5.6c0-1-.2-1.9-.7-2.8-.4-.8-1-1.5-1.9-2m-1 14.6c0 .5-.2.9-.5 1.3-.4.3-.8.5-1.3.5h-22.2c-.5 0-.9-.2-1.3-.5s-.5-.8-.5-1.3V5.6c0-.5.2-.9.5-1.3.4-.4.8-.5 1.3-.5H155c.5 0 .9.2 1.3.5.4.4.5.8.5 1.3zM189.4 0h3.8v33.3h-3.8zM253.5.8c-.8-.5-1.8-.8-2.8-.8H223v33.3h3.7V20.9h14l10.4 12.4h5l-10.5-12.4h5.1c1 0 2-.3 2.8-.8s1.5-1.2 2-2 .7-1.8.7-2.8V5.6c0-1-.2-1.9-.7-2.8-.5-.8-1.1-1.5-2-2m-1 14.6c0 .5-.2.9-.5 1.3-.4.3-.8.5-1.3.5h-22.2c-.5 0-.9-.2-1.3-.5s-.5-.8-.5-1.3V5.6c0-.5.2-.9.5-1.3.4-.4.8-.5 1.3-.5h22.2c.5 0 .9.2 1.3.5.4.4.5.8.5 1.3zM285.8 0h3.8v33.3h-3.8zM322.1.7c-.8.5-1.5 1.2-2 2s-.7 1.8-.7 2.8v22.2c0 1 .2 2 .7 2.8s1.2 1.5 2 2 1.8.7 2.8.7h27.7v-3.7h-27.7c-.5 0-.9-.2-1.3-.5-.4-.4-.5-.8-.5-1.3V5.6c0-.5.2-.9.5-1.3.4-.4.8-.5 1.3-.5h27.7V0h-27.7c-1 0-1.9.2-2.8.7M411.5 27.8c0 .5-.2.9-.5 1.3-.4.4-.8.5-1.3.5h-22.2c-.5 0-.9-.2-1.3-.5-.4-.4-.5-.8-.5-1.3V0H382v27.8c0 1 .2 2 .7 2.8s1.2 1.5 2 2 1.8.7 2.8.7h22.2c1 0 2-.2 2.8-.7s1.5-1.2 2-2 .7-1.8.7-2.8V0h-3.7zM475.2.7c-.8-.5-1.8-.7-2.8-.7h-22.2c-1 0-2 .2-2.8.7s-1.5 1.2-2 2-.7 1.8-.7 2.8V13c0 1 .2 1.9.7 2.8.5.8 1.2 1.5 2 2s1.8.8 2.8.8h22.2c.5 0 .9.2 1.3.5s.5.8.5 1.2v7.5c0 .5-.2.9-.5 1.3-.4.4-.8.5-1.3.5h-22.2c-.5 0-.9-.2-1.3-.5-.4-.4-.5-.8-.5-1.3v-1.3h-3.7v1.3c0 1 .2 2 .7 2.8s1.2 1.5 2 2 1.8.7 2.8.7h22.2c1 0 2-.2 2.8-.7s1.5-1.2 2-2 .7-1.8.7-2.8v-7.5c0-1-.2-1.9-.7-2.8-.5-.8-1.2-1.5-2-2s-1.8-.8-2.8-.8h-22.2c-.5 0-.9-.2-1.3-.5s-.5-.8-.5-1.2V5.6c0-.5.2-.9.5-1.3.4-.4.8-.5 1.3-.5h22.2c.5 0 .9.2 1.3.5.4.4.5.8.5 1.3v1.3h3.7V5.6c0-1-.2-2-.7-2.8-.5-.9-1.2-1.6-2-2.1M547.7.7c-.8.5-1.5 1.2-2 2s-.7 1.8-.7 2.8v22.2c0 1 .2 2 .7 2.8s1.2 1.5 2 2 1.8.7 2.8.7h27.7v-3.7h-27.7c-.5 0-.9-.2-1.3-.5-.4-.4-.5-.8-.5-1.3V5.6c0-.5.2-.9.5-1.3.4-.4.8-.5 1.3-.5h27.7V0h-27.7c-1.1 0-2 .2-2.8.7M638 .8c-.8-.5-1.8-.8-2.8-.8h-27.8v33.3h3.7V20.9h14l10.4 12.4h5L630 20.9h5.1c1 0 2-.3 2.8-.8s1.5-1.2 2-2 .7-1.8.7-2.8V5.6c0-1-.2-1.9-.7-2.8-.3-.8-1-1.5-1.9-2m-1 14.6c0 .5-.2.9-.5 1.3-.4.3-.8.5-1.3.5H613c-.5 0-.9-.2-1.3-.5s-.5-.8-.5-1.3V5.6c0-.5.2-.9.5-1.3.4-.4.8-.5 1.3-.5h22.2c.5 0 .9.2 1.3.5.4.4.5.8.5 1.3zM685.7 16.3 672.8 0h-4.3l15.3 20.8v12.5h3.8V20.8L702.9 0h-4.4zM762.2.8c-.8-.5-1.8-.8-2.8-.8h-27.8v33.3h3.7V20.9h24c1 0 2-.3 2.8-.8s1.5-1.2 2-2 .7-1.8.7-2.8V5.6c0-1-.2-1.9-.7-2.8-.3-.8-1-1.5-1.9-2m-1 14.6c0 .5-.2.9-.5 1.3-.4.3-.8.5-1.3.5h-22.2c-.5 0-.9-.2-1.3-.5s-.5-.8-.5-1.3V5.6c0-.5.2-.9.5-1.3.4-.4.8-.5 1.3-.5h22.2c.5 0 .9.2 1.3.5.4.4.5.8.5 1.3zM792.8 3.7h14.8v29.6h3.7V3.7h14.8V0h-33.3zM887.3 2.8c-.5-.8-1.2-1.5-2-2s-1.8-.7-2.8-.7h-22.2c-1 0-2 .2-2.8.7s-1.5 1.2-2 2-.7 1.8-.7 2.8v22.2c0 1 .2 2 .7 2.8s1.2 1.5 2 2 1.8.7 2.8.7h22.2c1 0 2-.2 2.8-.7s1.5-1.2 2-2 .7-1.8.7-2.8V5.6c.1-1.1-.2-2-.7-2.8m-3 25c0 .5-.2.9-.5 1.3-.4.4-.8.5-1.3.5h-22.2c-.5 0-.9-.2-1.3-.5-.4-.4-.5-.8-.5-1.3V5.6c0-.5.2-.9.5-1.3.4-.4.8-.5 1.3-.5h22.2c.5 0 .9.2 1.3.5.4.4.5.8.5 1.3z" class="st8"/></svg>