<svg xmlns="http://www.w3.org/2000/svg" xml:space="preserve" id="Camada_1" x="0" y="0" viewBox="0 0 300.8 172.4"><style>.st1{fill:#6e7788}.st2{fill:#585759}.st4{fill:#80bb42}.st7{fill:#f6f4f4}</style><path d="M299.2 2H9.7c-4.5 0-8.1 3.6-8.1 8.1v93.7h297.6z" style="fill:#fff"/><path d="M54.1 34.7s3.9 5.8 8.5 12.7L43.5 76.5h3s7.6.9 12.2-5.8c.9-1.4 5.1-7.7 9.8-14.6l-5.8-8.7 5.8-8.9 5.8 8.8c4.6-6.9 8.5-12.7 8.5-12.7L98 76.5h10l-17.3-49h-15l-7.3 11.1-7.3-11.1h-15l-17.3 49h10z" class="st1"/><path d="M68.4 56.1c4.7 7 8.9 13.3 9.8 14.6 4.6 6.6 12.2 5.8 12.2 5.8h3L74.2 47.4z" class="st1"/><path d="M199 64.7q-.75-.45-1.8-.6c.5-.2 1-.4 1.3-.7.4-.3.7-.7 1-1.1s.5-.8.6-1.3.2-1 .2-1.6c0-1-.2-1.8-.5-2.6q-.6-1.05-1.5-1.8c-.7-.5-1.5-.8-2.5-1.1-1-.2-2.2-.4-3.5-.4h-5.7c-.4 0-.7.1-1 .4-.3.2-.4.6-.4 1.1v20c0 .5.1.9.4 1.1s.6.3 1 .3h6.1c.9 0 1.7-.1 2.5-.2s1.5-.3 2.1-.5q1.05-.3 1.8-.9c.5-.4 1-.8 1.4-1.3s.7-1.1.9-1.7c.2-.7.3-1.4.3-2.2s-.1-1.5-.4-2.1c-.2-.6-.6-1.2-1-1.6-.2-.5-.7-.9-1.3-1.2m-9.2-7.6h2.3c.7 0 1.3.1 1.7.2s.8.3 1.1.6q.45.3.6.9c.1.4.2.8.2 1.2s-.1.8-.2 1.2-.3.7-.6 1-.6.5-1 .7-.9.2-1.6.2h-2.6v-6zm6.9 14c-.2.4-.4.7-.8 1q-.45.45-1.2.6c-.4.1-1 .2-1.6.2h-3.4v-6.5h2.8c.9 0 1.5.1 2.1.2.5.2 1 .4 1.3.6.3.3.6.6.8 1.1.2.4.3.9.3 1.4 0 .6-.1 1-.3 1.4M210.2 53.5c-.5 0-.8 0-1.1.1-.3 0-.5.1-.7.1-.2.1-.3.1-.4.2s-.1.2-.1.3v21.6c0 .1 0 .2.1.3s.2.2.4.2c.2.1.4.1.7.1s.7.1 1.1.1c.5 0 .8 0 1.1-.1.3 0 .5-.1.7-.1.2-.1.3-.1.4-.2s.1-.2.1-.3V54.3c0-.1 0-.2-.1-.3s-.2-.2-.4-.2c-.2-.1-.4-.1-.7-.1-.2-.2-.6-.2-1.1-.2M220.7 54.1c-.3.3-.5.8-.5 1.4v20.4c0 .1 0 .2.1.3s.2.2.4.2c.2.1.4.1.7.1s.6.1 1.1.1c.4 0 .8 0 1.1-.1.3 0 .5-.1.7-.1.2-.1.3-.1.4-.2s.1-.2.1-.3V57.3l6.4 18.6c0 .1.1.2.2.3s.2.2.4.3.4.1.7.1.6.1 1 .1h1c.3 0 .5 0 .7-.1s.3-.1.4-.2.2-.2.2-.4l6.7-18.6V76c0 .1 0 .2.1.3s.2.2.4.2c.2.1.4.1.7.1s.6.1 1.1.1c.4 0 .8 0 1.1-.1.3 0 .5-.1.7-.1.2-.1.3-.1.4-.2s.1-.2.1-.3V55.5c0-.3-.1-.5-.1-.8l-.3-.6c-.1-.2-.3-.3-.6-.4-.2-.1-.5-.1-.8-.1h-3.1c-.4 0-.8 0-1.2.1-.3.1-.6.2-.9.4-.2.2-.5.5-.6.8-.2.3-.3.8-.5 1.3l-5.2 13.6-4.9-13.6c-.1-.5-.3-.9-.5-1.2s-.4-.6-.7-.8-.6-.4-1-.4c-.4-.1-.9-.1-1.4-.1h-3c-.9-.1-1.3.1-1.6.4M164.8 54.1c-.2-.2-.5-.3-.8-.4s-.7-.1-1.1-.1h-2.5c-.5 0-.9.1-1.2.4s-.5.7-.5 1.2v20.5c0 .1 0 .2.1.3s.2.2.3.2c.2.1.4.1.6.1.3 0 .6.1 1 .1s.8 0 1-.1c.3 0 .5-.1.6-.1.2-.1.3-.1.3-.2.1-.1.1-.2.1-.3V61.3c0-.8-.1-1.7-.1-2.5.3.7.6 1.4.9 2.2.3.7.7 1.4 1 2l5.7 10.7c.3.6.6 1.1.8 1.4.2.4.5.7.7.9.3.2.5.4.8.4.3.1.7.1 1.1.1h2c.2 0 .4 0 .7-.1l.6-.3c.2-.1.3-.3.4-.5s.1-.4.1-.7V54.3c0-.1 0-.2-.1-.3s-.2-.2-.3-.2c-.1-.1-.3-.1-.6-.1s-.6-.1-1-.1-.8 0-1 .1c-.3 0-.5.1-.7.1-.2.1-.3.2-.4.2-.1.1-.1.2-.1.3v13.3c0 .9.1 1.8.1 2.6-.2-.5-.4-.9-.6-1.4l-.7-1.4c-.2-.5-.5-1-.7-1.5l-.7-1.5-4.5-8.3c-.2-.5-.4-.8-.6-1.1-.2-.5-.4-.7-.7-.9M252.2 75.7c0 .2 0 .4.1.6.1.1.3.2.6.2s.7.1 1.3.1h1.2c.3 0 .6-.1.7-.1.2-.1.3-.2.4-.3s.1-.3.2-.4l1.4-4.5h8.6l1.5 4.6c0 .2.1.3.2.4s.2.2.4.2c.2.1.4.1.8.1h1.4c.6 0 1 0 1.4-.1.3 0 .6-.1.7-.2s.2-.3.1-.6c0-.3-.1-.6-.3-1l-7.1-20.2c-.1-.2-.2-.4-.3-.5s-.3-.2-.5-.3-.5-.1-1-.1h-3.2c-.4 0-.7.1-.9.1-.2.1-.4.1-.4.3-.1.1-.2.3-.2.5l-7 20.3c0 .3-.1.6-.1.9M262.4 58l3.2 9.7h-6.5zM133 76.5c.3 0 .7.1 1.3.1h1.2c.3 0 .6-.1.7-.1.2-.1.3-.2.4-.3s.1-.3.2-.4l1.4-4.5h8.6l1.5 4.6c0 .2.1.3.2.4s.2.2.4.2c.2.1.4.1.8.1h1.4c.6 0 1 0 1.4-.1.3 0 .6-.1.7-.2s.2-.3.1-.6c0-.3-.1-.6-.3-1l-7.1-20.2c-.1-.2-.2-.4-.3-.5s-.3-.2-.5-.3-.5-.1-1-.1H141c-.4 0-.7.1-.9.1-.2.1-.3.1-.4.3-.1.1-.2.3-.2.5l-7 20.3c-.1.4-.2.7-.3 1 0 .2 0 .4.1.6.2 0 .4.1.7.1m9.5-18.5 3.2 9.7h-6.5zM138 38.7h5.7l1.3 4.1h2.2L142.3 27h-2.7l-4.9 15.8h2.2zm2.8-9.3 2.4 7.6h-4.8zM151.7 43c1.4 0 2.7-.5 3.6-1.6l.1 1.4h1.7V31.3h-1.8v7.5c0 1.7-1.6 2.7-3 2.7s-2.4-.8-2.4-2.1v-8.1h-1.8v8.2c.1 2.1 1.3 3.5 3.6 3.5M160.2 40.4c0 1.4.6 2.7 2.8 2.7.8 0 1.3-.1 2.3-.4v-1.2h-1.9c-.9 0-1.3-.3-1.3-1.2v-7.5h3.2v-1.5H162v-3.2h-1.1l-.8 3.2-1.9.3v1.1h1.9v7.7zM171 43c3.7 0 5-2.4 5-6 0-3.5-1.3-6-5-6s-5 2.4-5 6 1.4 6 5 6m0-10.3c2.4 0 3.1 1.9 3.1 4.4s-.7 4.4-3.1 4.4-3.1-1.9-3.1-4.4c.1-2.5.8-4.4 3.1-4.4M179.8 35.9c0-1.6 1.3-3 3.3-3h.5V31c-1.4 0-3 .6-3.7 2.2l-.1-1.9H178v11.5h1.8zM186.9 35.9c0-1.6 1.3-3 3.3-3h.5V31c-1.4 0-3 .6-3.7 2.2l-.1-1.9H185v11.5h1.8v-6.9zM196.6 43c1.1 0 2.3-.1 3.8-.4v-1.2h-3.8c-2.2 0-3-1.7-3-3.8h4.2c2.7 0 3.4-1.6 3.4-3.1 0-1.7-1.4-3.4-4.3-3.4-3.7 0-5.3 2.4-5.3 6 0 3.5 1.3 5.9 5 5.9m.2-10.3c1.6 0 2.5.9 2.5 1.9 0 .9-.4 1.8-2 1.8h-3.7c.1-2.1 1-3.7 3.2-3.7M206.9 43c1.4 0 2.4-.5 3.3-1.6v.4c0 2.3-.7 4.2-3.1 4.2h-3.7v1.2c1.5.3 2.5.4 3.6.4 3.7 0 5-2.4 5-6V31.3h-4.5c-3.5 0-5.1 2.2-5.1 5.8.1 3.6 1.3 5.9 4.5 5.9m.8-10.1h2.5v6c0 1.8-1.4 2.7-2.7 2.7-2.5 0-3-2-3-4.4-.1-2.5.8-4.3 3.2-4.3M217.8 43c1.4 0 2.7-.5 3.6-1.6l.1 1.4h1.7V31.3h-1.8v7.5c0 1.7-1.6 2.7-3 2.7s-2.4-.8-2.4-2.1v-8.1h-1.8v8.2c0 2.1 1.3 3.5 3.6 3.5M229.1 42.9v-1.5c-1.5 0-1.7-.2-1.7-1.2V26.7h-1.8v13.5c-.1 2.2.4 3 3.5 2.7M233.2 43c1.5 0 2.5-.3 3.5-1.6l.1 1.4h1.7v-8c0-2.9-1.5-3.7-4.1-3.7-1.2 0-2.6.2-4.1.4v1.2h4c1.9 0 2.4.8 2.4 2.2v1.3h-3.2c-2.2 0-3.9.9-3.9 3.4.1 2.1 1.4 3.4 3.6 3.4m.8-5.4h2.8v1.3c0 1.8-1.6 2.7-2.9 2.7-1.4 0-2.4-.6-2.4-2s.9-2 2.5-2M244.9 43v1.7c1.1.1 1.4.5 1.4 1s-.4.8-1 .8h-1.4v.7c.6.2 1.1.2 1.6.2 1.4 0 2.2-.7 2.2-1.8s-1.1-1.6-1.9-1.7V43c1 0 1.8-.1 3.2-.4v-1.2h-3.4c-2.4 0-3.1-1.9-3.1-4.4s.7-4.4 3.1-4.4h3.4v-1.2c-1.4-.3-2.3-.4-3.4-.4-3.7 0-5 2.4-5 6 0 3.4 1.1 5.7 4.3 6M253.4 43c1.5 0 2.5-.3 3.5-1.6l.1 1.4h1.7v-8c0-2.9-1.5-3.7-4.1-3.7-1.2 0-2.6.2-4.1.4v1.2h4c1.9 0 2.4.8 2.4 2.2v1.3h-3.2c-2.2 0-3.9.9-3.9 3.4 0 2.1 1.4 3.4 3.6 3.4m.8-5.4h2.8v1.3c0 1.8-1.6 2.7-2.9 2.7-1.4 0-2.4-.6-2.4-2s.9-2 2.5-2M253.4 28.7c.7 0 1.8.8 2.6.8.9 0 1.6-.4 2.3-1.2l-.5-1c-.5.5-1.2.8-1.8.8-.8 0-1.6-.8-2.6-.8-.9 0-1.6.3-2.3 1.2l.5 1c.5-.5 1.2-.8 1.8-.8M265.8 43c3.7 0 5-2.4 5-6 0-3.5-1.3-6-5-6s-5 2.4-5 6c.1 3.6 1.4 6 5 6m0-10.3c2.4 0 3.1 1.9 3.1 4.4s-.7 4.4-3.1 4.4-3.1-1.9-3.1-4.4c.1-2.5.8-4.4 3.1-4.4" class="st2"/><path d="M68.4 56.1c4.7 7 8.9 13.3 9.8 14.6 4.6 6.6 12.2 5.8 12.2 5.8h3L74.2 47.4z" style="fill:#f6b019"/><path d="M74.2 47.4c4.6-6.9 8.5-12.7 8.5-12.7L98 76.5h10l-17.3-49h-15l-7.3 11.1z" class="st4"/><path d="m68.4 38.6-7.3-11.1H46l-17.3 49h10L54 34.7s3.9 5.8 8.5 12.7z" style="fill:#f8ad1b"/><path d="M62.6 47.4 43.5 76.5h3s7.6.9 12.2-5.8c.9-1.4 5.1-7.7 9.8-14.6z" class="st4"/><path d="m68.4 38.6 5.8 8.8-5.8 8.7-5.8-8.7z" style="fill:#1b91d0"/><path d="M10.8 0C4.9 0 0 4.9 0 10.8v161.5h290c6 0 10.8-4.9 10.8-10.8V0zm287 97.5H3V10.8C3 6.5 6.5 3 10.8 3h287z" class="st2"/><path d="M36.6 113.5v15.6h5.5c5.2 0 6.3-3.9 6.3-7.8s-1.1-7.8-6.3-7.8zm8.8 7.8c0 2.5-.5 5.3-3.6 5.3h-2.3V116h2.3c3.1 0 3.6 2.9 3.6 5.3M50.4 117.7h2.8v11.5h-2.8zM50.4 113.1h2.8v3.1h-2.8zM59.3 127.1H55v1.8c1.5.4 3.1.5 4.4.5 2.7 0 4.7-1 4.7-3.6s-2.2-3.2-4.3-3.6c-1.5-.3-1.8-.8-1.8-1.4 0-.5.4-1.1 1.9-1.1h3.6v-1.8c-1.6-.4-2.4-.5-3.7-.5-2.7 0-4.8 1-4.8 3.4 0 2.8 2.2 3.3 4.3 3.7 1.5.3 1.8.7 1.8 1.3.1.5-.3 1.3-1.8 1.3M72.2 119.8v-2.1h-2.9v-3.2h-1.5l-1.3 3.2-1.7.5v1.7h1.7v6.5c0 1.7.8 3.1 3.2 3.1.9 0 1.5-.2 2.4-.5v-1.8h-1.7c-.8 0-1.1-.3-1.1-1v-6.3h2.9zM79.2 120.1h.7v-2.7c-1.4 0-2.9.6-3.6 2.1l-.2-1.9h-2.5v11.5h2.8v-6.7c-.1-1.2.7-2.3 2.8-2.3M81.3 117.7h2.8v11.5h-2.8zM81.3 113.1h2.8v3.1h-2.8zM86.1 113.1v16.1H91c3.6 0 5.2-2.2 5.2-5.8s-1.3-5.9-4.3-5.9c-1.3 0-2.2.5-3 1.6v-5.9h-2.8zm4.9 6.5c1.9 0 2.3 1.6 2.3 3.7s-.6 3.6-2.5 3.6h-2v-5.2c.1-1.4 1.3-2.1 2.2-2.1M107.8 117.7H105v7.5c0 1.4-1.3 2.1-2.3 2.1s-1.9-.5-1.9-1.7v-7.9H98v8.2c0 2.1 1.1 3.6 3.4 3.6 1.4 0 2.5-.5 3.4-1.5l.2 1.3h2.5v-11.6zM109.8 117.7h2.8v11.5h-2.8zM109.8 113.1h2.8v3.1h-2.8zM122 131.9c0-1.2-1.2-1.6-2-1.7v-.9c1 0 1.8-.2 3.3-.5V127h-3.6c-1.9 0-2.4-1.4-2.4-3.7 0-2.2.5-3.7 2.4-3.7h3.6v-1.8c-1.6-.4-2.4-.5-3.6-.5-3.9 0-5.3 2.4-5.3 6 0 3.3 1.2 5.5 4.3 5.9v1.7c.8.1 1.3.4 1.3.9s-.4.6-.9.6h-1.2v1c.6.1 1.1.2 1.7.2 1.6.1 2.4-.6 2.4-1.7M130.8 127.8l.3 1.3h2.5v-7.9c0-3-1.6-3.8-4.4-3.8-1.3 0-2.9.2-4.4.5v1.8h4.1c1.5 0 1.9.6 1.9 1.6v1H128c-1.9 0-3.9.8-3.9 3.5 0 2 1.3 3.5 3.4 3.5 1.4.1 2.4-.2 3.3-1.5m-2.1-.6c-1 0-1.8-.4-1.8-1.5s.7-1.6 1.9-1.6h2.1v1c0 1.5-1.3 2.1-2.2 2.1M130.7 116.1q1.35 0 2.4-1.2l-.5-1.5c-.5.4-1.2.8-1.9.8-.8 0-1.7-.8-2.8-.8-1 0-1.7.4-2.4 1.2l.5 1.5c.5-.4 1.2-.8 1.9-.8.8.1 1.9.8 2.8.8M146.2 123.4c0-3.6-1.4-6-5.3-6s-5.3 2.4-5.3 6 1.4 6 5.3 6 5.3-2.4 5.3-6m-7.7 0c0-2.2.5-3.7 2.4-3.7s2.4 1.5 2.4 3.7c0 2.3-.5 3.7-2.4 3.7s-2.4-1.4-2.4-3.7M161.9 113.1h-2.8v4.6c-.9-.1-1.4-.2-2.3-.2-3.6 0-5.1 2.4-5.1 6s1.3 6 4.3 6c1.3 0 2.2-.5 3-1.5l.2 1.3h2.5v-16.2zm-2.8 12c0 1.4-1.2 2.1-2.1 2.1-1.9 0-2.3-1.6-2.3-3.8s.6-3.7 2.5-3.7h2v5.4zM173.8 121c0-1.8-1.4-3.6-4.6-3.6-3.9 0-5.6 2.4-5.6 6s1.4 6 5.3 6c1.2 0 2.5-.1 4-.5v-1.8h-4c-1.7 0-2.3-1.2-2.4-2.9h3.8c2.8 0 3.5-1.6 3.5-3.2m-7.1 1.5c.2-1.6.9-2.8 2.6-2.8 1.2 0 1.8.7 1.8 1.4s-.4 1.3-1.5 1.3h-2.9zM182.7 123.4h2.9c3.1 0 4.9-1.8 4.9-4.9 0-3-1.8-4.9-4.9-4.9h-5.9v15.6h2.9v-5.8zm0-7.4h2.5c1.4 0 2.3.8 2.3 2.4 0 1.7-.9 2.4-2.3 2.4h-2.5zM195.2 122.5c0-1.3.9-2.3 3-2.3h.7v-2.7c-1.4 0-2.9.6-3.6 2.1l-.2-1.9h-2.5v11.5h2.8v-6.7zM210.4 123.4c0-3.6-1.4-6-5.3-6s-5.3 2.4-5.3 6 1.4 6 5.3 6 5.3-2.4 5.3-6m-5.3 3.7c-1.9 0-2.4-1.5-2.4-3.7s.5-3.7 2.4-3.7 2.4 1.5 2.4 3.7c0 2.3-.5 3.7-2.4 3.7M219.3 127.8l.3 1.3h2.5V113h-2.8v4.6c-.9-.1-1.4-.2-2.3-.2-3.6 0-5.1 2.4-5.1 6s1.3 6 4.3 6c1.4 0 2.3-.5 3.1-1.6m-4.4-4.4c0-2.2.6-3.7 2.5-3.7h2v5.4c0 1.4-1.2 2.1-2.1 2.1-2 0-2.4-1.6-2.4-3.8M231 127.8l.3 1.3h2.5v-11.5H231v7.5c0 1.4-1.3 2.1-2.3 2.1s-1.9-.5-1.9-1.7v-7.9H224v8.2c0 2.1 1.1 3.6 3.4 3.6 1.6 0 2.8-.5 3.6-1.6M242.4 119.8v-2.1h-2.9v-3.2H238l-1.3 3.2-1.7.5v1.7h1.7v6.5c0 1.7.8 3.1 3.2 3.1.9 0 1.5-.2 2.4-.5v-1.8h-1.7c-.8 0-1.1-.3-1.1-1v-6.3h2.9zM243.3 123.4c0 3.6 1.4 6 5.3 6s5.3-2.4 5.3-6-1.4-6-5.3-6-5.3 2.4-5.3 6m7.7 0c0 2.3-.5 3.7-2.4 3.7s-2.4-1.5-2.4-3.7.5-3.7 2.4-3.7c1.8 0 2.4 1.5 2.4 3.7M259.7 127.1h-4.3v1.8c1.5.4 3.1.5 4.4.5 2.7 0 4.7-1 4.7-3.6s-2.2-3.2-4.3-3.6c-1.5-.3-1.8-.8-1.8-1.4 0-.5.4-1.1 1.9-1.1h3.6v-1.8c-1.6-.4-2.4-.5-3.7-.5-2.7 0-4.8 1-4.8 3.4 0 2.8 2.2 3.3 4.3 3.7 1.5.3 1.8.7 1.8 1.3.1.5-.3 1.3-1.8 1.3M79.8 155.4c1.3 0 2.2-.5 3-1.5l.2 1.3h2.5v-16.1h-2.8v4.6c-.9-.1-1.4-.2-2.3-.2-3.6 0-5.1 2.4-5.1 6s1.5 5.9 4.5 5.9m1.1-9.7h2v5.4c0 1.4-1.2 2.1-2.1 2.1-1.9 0-2.3-1.6-2.3-3.8s.6-3.7 2.4-3.7M97.6 147c0-1.8-1.4-3.6-4.6-3.6-3.9 0-5.6 2.4-5.6 6s1.4 6 5.3 6c1.2 0 2.5-.1 4-.5v-1.8h-4c-1.7 0-2.3-1.2-2.4-2.9h3.8c2.8 0 3.5-1.6 3.5-3.2m-7.1 1.5c.2-1.6.9-2.8 2.6-2.8 1.2 0 1.8.7 1.8 1.4s-.4 1.3-1.5 1.3h-2.9zM103.6 139.5h2.9v15.6h-2.9zM118.5 155.2V147c0-2.1-1.1-3.6-3.4-3.6-1.4 0-2.5.5-3.4 1.6l-.2-1.3H109v11.5h2.8v-7.5c0-1.4 1.3-2.1 2.2-2.1 1 0 1.9.5 1.9 1.6v7.9h2.6zM126.3 155.3l4-11.6h-3l-2.6 8.3-2.5-8.3h-3.1l3.8 11.6zM140.6 147c0-1.8-1.4-3.6-4.6-3.6-3.9 0-5.6 2.4-5.6 6s1.4 6 5.3 6c1.2 0 2.5-.1 4-.5v-1.8h-4c-1.7 0-2.3-1.2-2.4-2.9h3.8c2.8 0 3.5-1.6 3.5-3.2m-7.2 1.5c.2-1.6.9-2.8 2.6-2.8 1.2 0 1.8.7 1.8 1.4s-.4 1.3-1.5 1.3h-2.9zM151.3 151.8c0-2.6-2.2-3.2-4.3-3.6-1.5-.3-1.8-.8-1.8-1.4 0-.5.4-1.1 1.9-1.1h3.6v-1.8c-1.6-.4-2.4-.5-3.7-.5-2.7 0-4.8 1-4.8 3.4 0 2.8 2.2 3.3 4.3 3.7 1.5.3 1.8.7 1.8 1.3 0 .5-.4 1.3-1.9 1.3h-4.3v1.8c1.5.4 3.1.5 4.4.5 2.8 0 4.8-1 4.8-3.6M159.3 145.8v-2.1h-2.9v-3.2H155l-1.3 3.2-1.7.5v1.7h1.7v6.5c0 1.7.8 3.1 3.2 3.1.9 0 1.5-.2 2.4-.5v-1.8h-1.7c-.8 0-1.1-.3-1.1-1v-6.3h2.8zM160.6 139.1h2.8v3.1h-2.8zM160.6 143.7h2.8v11.5h-2.8zM182 155.2V147c0-2.1-1.1-3.6-3.4-3.6-1.4 0-2.7.5-3.7 1.9h-.1c-.5-1.2-1.5-1.9-3.2-1.9-1.4 0-2.5.5-3.4 1.6l-.2-1.3h-2.5v11.5h2.8v-7.5c0-1.4 1.3-2.1 2.2-2.1 1 0 1.9.5 1.9 1.6v7.9h2.8v-7.6c.1-1.3 1.3-2 2.2-2 1 0 1.9.5 1.9 1.6v7.9h2.7zM194 147c0-1.8-1.4-3.6-4.6-3.6-3.9 0-5.6 2.4-5.6 6s1.4 6 5.3 6c1.2 0 2.5-.1 4-.5v-1.8h-4c-1.7 0-2.3-1.2-2.4-2.9h3.8c2.8 0 3.5-1.6 3.5-3.2m-7.2 1.5c.2-1.6.9-2.8 2.6-2.8 1.2 0 1.8.7 1.8 1.4s-.4 1.3-1.5 1.3h-2.9zM205.3 155.2V147c0-2.1-1.1-3.6-3.4-3.6-1.4 0-2.5.5-3.4 1.6l-.2-1.3h-2.5v11.5h2.8v-7.5c0-1.4 1.3-2.1 2.2-2.1 1 0 1.9.5 1.9 1.6v7.9h2.6zM213.7 145.8v-2.1h-2.9v-3.2h-1.5l-1.3 3.2-1.7.5v1.7h1.7v6.5c0 1.7.8 3.1 3.2 3.1.9 0 1.5-.2 2.4-.5v-1.8H212c-.8 0-1.1-.3-1.1-1v-6.3h2.8zM220 155.4c3.9 0 5.3-2.4 5.3-6s-1.4-6-5.3-6-5.3 2.4-5.3 6 1.4 6 5.3 6m0-9.7c1.9 0 2.4 1.5 2.4 3.7 0 2.3-.5 3.7-2.4 3.7s-2.4-1.5-2.4-3.7.5-3.7 2.4-3.7" class="st7"/></svg>