<?xml version="1.0" encoding="utf-8"?>
<!-- Generator: Adobe Illustrator 27.9.0, SVG Export Plug-In . SVG Version: 6.00 Build 0)  -->
<svg version="1.1" id="Camada_2_00000044872232087746013140000009913142926976115100_"
	 xmlns="http://www.w3.org/2000/svg" xmlns:xlink="http://www.w3.org/1999/xlink" x="0px" y="0px" viewBox="0 0 20.5 20.5"
	 style="enable-background:new 0 0 20.5 20.5;" xml:space="preserve">
<style type="text/css">
	.st0{fill:#3A3A3A;}
	.st1{fill:#FFFFFF;}
</style>
<g>
	<g id="empiricus-ico_00000142875898172351645530000014437458105229204133_">
		<g>
			<path class="st0" d="M18.5,0H2.1C0.9,0,0,0.9,0,2.1v16.4c0,1.1,0.9,2.1,2.1,2.1h16.4c1.1,0,2.1-0.9,2.1-2.1V2.1
				C20.5,0.9,19.6,0,18.5,0L18.5,0z"/>
		</g>
	</g>
	<g id="empiricus-ico">
		<g>
			<path d="M18.3,0.3h-16c-1.1,0-2,0.9-2,2v16c0,1.1,0.9,2,2,2h16c1.1,0,2-0.9,2-2v-16C20.3,1.2,19.4,0.3,18.3,0.3L18.3,0.3z"/>
		</g>
	</g>
	<g>
		<path class="st1" d="M10.3,5.5c1.7,0,3.2,0.9,4,2.3c0,0.1,0.1,0.1,0.2,0l1.6-0.9c0.1,0,0.1-0.1,0-0.2c-1.2-2-3.3-3.3-5.8-3.3
			c-3.8-0.1-6.9,3.1-6.9,6.8c0,3.8,3.1,6.9,6.8,6.9c2.5,0,4.7-1.3,5.9-3.3h0c0-0.1,0-0.1,0-0.2l-1.6-0.9c-0.1,0-0.1,0-0.2,0
			c-0.8,1.4-2.3,2.3-4,2.3c-2.6,0-4.7-2.1-4.7-4.7C5.5,7.7,7.6,5.5,10.3,5.5z"/>
		<path class="st1" d="M16.9,9.2H7.8c-0.1,0-0.1,0-0.1,0.1c0,0.3-0.1,0.6-0.1,1s0,0.6,0.1,1c0,0,0.1,0.1,0.1,0.1h9.1
			c0.1,0,0.1,0,0.1-0.1c0-0.3,0.1-0.6,0.1-1s0-0.6-0.1-1C17,9.3,17,9.2,16.9,9.2z"/>
	</g>
</g>
</svg>
