<svg xmlns="http://www.w3.org/2000/svg" xmlns:xlink="http://www.w3.org/1999/xlink" width="96" zoomAndPan="magnify" viewBox="0 0 72 225" height="300" preserveAspectRatio="xMidYMid meet" version="1.2"><defs><clipPath id="6d3107df68"><path d="M 9 0.480469 L 31.398438 0.480469 L 31.398438 9.839844 L 9 9.839844 Z M 9 0.480469 "/></clipPath><clipPath id="de1be3d569"><path d="M 0.558594 2 L 6 2 L 6 8 L 0.558594 8 Z M 0.558594 2 "/></clipPath><clipPath id="a1e7323b46"><rect x="0" width="23" y="0" height="10"/></clipPath><clipPath id="7eb0243f24"><path d="M 4 7 L 6 7 L 6 9.175781 L 4 9.175781 Z M 4 7 "/></clipPath><clipPath id="027ca2e7fc"><path d="M 4 6 L 6 6 L 6 9.175781 L 4 9.175781 Z M 4 6 "/></clipPath><clipPath id="ced5a4142f"><path d="M 0.199219 5 L 3 5 L 3 9 L 0.199219 9 Z M 0.199219 5 "/></clipPath><clipPath id="14869e3136"><path d="M 4 3 L 7.28125 3 L 7.28125 6 L 4 6 Z M 4 3 "/></clipPath><clipPath id="15090e5b4a"><path d="M 0.199219 0.910156 L 7 0.910156 L 7 9.175781 L 0.199219 9.175781 Z M 0.199219 0.910156 "/></clipPath><clipPath id="75288d239c"><rect x="0" width="32" y="0" height="10"/></clipPath></defs><g id="e786043d62"><g transform="matrix(1,0,0,1,7,-0.000000000000008549)"><g clip-path="url(#75288d239c)"><g clip-rule="nonzero" clip-path="url(#6d3107df68)"><g transform="matrix(1,0,0,1,9,-0.000000000000008549)"><g id="70accaa348" clip-path="url(#a1e7323b46)"><g clip-rule="nonzero" clip-path="url(#de1be3d569)"><g style="fill:#d9d9d9;fill-opacity:1;"><g transform="translate(0.813853, 7.380925)"><path style="stroke:none" d="M 1.75 0.078125 C 1.414062 0.078125 1.125 0.0078125 0.875 -0.125 C 0.632812 -0.257812 0.445312 -0.441406 0.3125 -0.671875 C 0.1875 -0.910156 0.125 -1.179688 0.125 -1.484375 C 0.125 -1.554688 0.125 -1.625 0.125 -1.6875 C 0.132812 -1.75 0.144531 -1.816406 0.15625 -1.890625 L 0.375 -1.890625 C 0.363281 -1.828125 0.351562 -1.765625 0.34375 -1.703125 C 0.34375 -1.640625 0.34375 -1.582031 0.34375 -1.53125 C 0.34375 -1.125 0.46875 -0.789062 0.71875 -0.53125 C 0.976562 -0.28125 1.335938 -0.15625 1.796875 -0.15625 C 2.117188 -0.15625 2.425781 -0.21875 2.71875 -0.34375 C 3.007812 -0.476562 3.257812 -0.671875 3.46875 -0.921875 C 3.675781 -1.179688 3.8125 -1.5 3.875 -1.875 L 4.40625 -4.90625 L 2.328125 -4.90625 L 2.359375 -5.140625 L 4.671875 -5.140625 L 4.109375 -1.875 C 4.035156 -1.457031 3.878906 -1.101562 3.640625 -0.8125 C 3.410156 -0.519531 3.128906 -0.296875 2.796875 -0.140625 C 2.472656 0.00390625 2.125 0.078125 1.75 0.078125 Z M 1.75 0.078125 "/></g></g></g><g style="fill:#d9d9d9;fill-opacity:1;"><g transform="translate(5.948653, 7.380925)"><path style="stroke:none" d="M 2.609375 0.078125 C 2.117188 0.078125 1.710938 -0.0234375 1.390625 -0.234375 C 1.078125 -0.441406 0.84375 -0.710938 0.6875 -1.046875 C 0.53125 -1.390625 0.453125 -1.753906 0.453125 -2.140625 C 0.453125 -2.492188 0.515625 -2.847656 0.640625 -3.203125 C 0.773438 -3.566406 0.96875 -3.898438 1.21875 -4.203125 C 1.476562 -4.503906 1.800781 -4.742188 2.1875 -4.921875 C 2.570312 -5.109375 3.023438 -5.203125 3.546875 -5.203125 C 4.035156 -5.203125 4.441406 -5.109375 4.765625 -4.921875 C 5.085938 -4.734375 5.320312 -4.476562 5.46875 -4.15625 C 5.625 -3.832031 5.703125 -3.484375 5.703125 -3.109375 C 5.703125 -2.929688 5.6875 -2.753906 5.65625 -2.578125 C 5.601562 -2.234375 5.492188 -1.898438 5.328125 -1.578125 C 5.160156 -1.265625 4.945312 -0.984375 4.6875 -0.734375 C 4.425781 -0.492188 4.117188 -0.296875 3.765625 -0.140625 C 3.421875 0.00390625 3.035156 0.078125 2.609375 0.078125 Z M 2.65625 -0.15625 C 3.039062 -0.15625 3.390625 -0.222656 3.703125 -0.359375 C 4.015625 -0.492188 4.289062 -0.671875 4.53125 -0.890625 C 4.769531 -1.117188 4.960938 -1.378906 5.109375 -1.671875 C 5.265625 -1.960938 5.367188 -2.265625 5.421875 -2.578125 C 5.441406 -2.660156 5.457031 -2.742188 5.46875 -2.828125 C 5.476562 -2.921875 5.484375 -3.007812 5.484375 -3.09375 C 5.484375 -3.445312 5.410156 -3.765625 5.265625 -4.046875 C 5.117188 -4.328125 4.898438 -4.550781 4.609375 -4.71875 C 4.316406 -4.894531 3.945312 -4.984375 3.5 -4.984375 C 3.050781 -4.984375 2.648438 -4.898438 2.296875 -4.734375 C 1.953125 -4.578125 1.660156 -4.363281 1.421875 -4.09375 C 1.191406 -3.820312 1.015625 -3.519531 0.890625 -3.1875 C 0.765625 -2.851562 0.703125 -2.523438 0.703125 -2.203125 C 0.703125 -1.929688 0.738281 -1.675781 0.8125 -1.4375 C 0.882812 -1.195312 1 -0.976562 1.15625 -0.78125 C 1.3125 -0.582031 1.507812 -0.425781 1.75 -0.3125 C 2 -0.207031 2.300781 -0.15625 2.65625 -0.15625 Z M 2.65625 -0.15625 "/></g></g><g style="fill:#d9d9d9;fill-opacity:1;"><g transform="translate(12.236759, 7.380925)"><path style="stroke:none" d="M 2.5 -4.90625 L 0.578125 -4.90625 L 0.609375 -5.140625 L 4.703125 -5.140625 L 4.65625 -4.90625 L 2.734375 -4.90625 L 1.859375 0 L 1.625 0 Z M 2.5 -4.90625 "/></g></g><g style="fill:#d9d9d9;fill-opacity:1;"><g transform="translate(16.798579, 7.380925)"><path style="stroke:none" d="M 3.359375 -5.140625 L 3.609375 -5.140625 L 5.109375 0 L 0.0625 0 Z M 4.796875 -0.21875 L 3.453125 -4.890625 L 0.453125 -0.21875 Z M 4.796875 -0.21875 "/></g></g></g></g></g><g clip-rule="nonzero" clip-path="url(#7eb0243f24)"><path style=" stroke:none;fill-rule:nonzero;fill:#919191;fill-opacity:1;" d="M 5.152344 7.035156 C 4.972656 7.011719 4.734375 6.988281 4.546875 7.050781 C 4.8125 7.25 5.019531 7.519531 4.917969 7.804688 C 4.734375 8.328125 4.359375 8.457031 4.550781 8.558594 C 4.550781 8.558594 4.03125 8.796875 4.03125 9.167969 L 4.890625 9.167969 C 4.890625 9.167969 4.996094 8.976562 4.890625 8.722656 C 4.890625 8.722656 5.097656 8.738281 5.128906 8.542969 C 5.160156 8.351562 5.089844 7.894531 5.511719 7.773438 C 5.664062 7.730469 5.6875 7.652344 5.699219 7.5625 C 5.472656 7.453125 5.277344 7.257812 5.152344 7.035156 "/></g><g clip-rule="nonzero" clip-path="url(#027ca2e7fc)"><path style=" stroke:none;fill-rule:nonzero;fill:#000000;fill-opacity:1;" d="M 5.152344 7.035156 L 5.15625 7.011719 L 5.152344 7.035156 L 5.15625 7.011719 C 5.0625 7 4.949219 6.988281 4.835938 6.988281 C 4.734375 6.988281 4.632812 6.996094 4.539062 7.03125 C 4.53125 7.03125 4.527344 7.039062 4.523438 7.046875 C 4.523438 7.058594 4.527344 7.066406 4.535156 7.070312 C 4.640625 7.152344 4.738281 7.242188 4.808594 7.34375 C 4.878906 7.441406 4.921875 7.546875 4.921875 7.65625 C 4.921875 7.703125 4.914062 7.746094 4.898438 7.796875 C 4.824219 8.003906 4.71875 8.148438 4.632812 8.253906 C 4.589844 8.308594 4.550781 8.351562 4.523438 8.386719 C 4.507812 8.40625 4.496094 8.425781 4.488281 8.441406 C 4.480469 8.457031 4.472656 8.476562 4.472656 8.492188 C 4.472656 8.511719 4.480469 8.527344 4.492188 8.542969 C 4.503906 8.558594 4.519531 8.570312 4.539062 8.582031 L 4.550781 8.558594 L 4.539062 8.539062 C 4.539062 8.539062 4.410156 8.597656 4.277344 8.707031 C 4.210938 8.761719 4.144531 8.824219 4.09375 8.902344 C 4.042969 8.980469 4.007812 9.070312 4.007812 9.167969 C 4.007812 9.175781 4.011719 9.179688 4.015625 9.183594 C 4.019531 9.1875 4.023438 9.191406 4.03125 9.191406 L 4.890625 9.191406 C 4.898438 9.191406 4.910156 9.1875 4.914062 9.179688 C 4.914062 9.175781 4.960938 9.085938 4.960938 8.949219 C 4.960938 8.882812 4.949219 8.800781 4.914062 8.714844 L 4.890625 8.722656 L 4.890625 8.746094 C 4.890625 8.746094 4.894531 8.746094 4.902344 8.746094 C 4.925781 8.746094 4.976562 8.746094 5.03125 8.71875 C 5.058594 8.703125 5.085938 8.6875 5.105469 8.65625 C 5.128906 8.628906 5.144531 8.59375 5.152344 8.546875 C 5.160156 8.496094 5.160156 8.433594 5.164062 8.363281 C 5.171875 8.253906 5.183594 8.132812 5.234375 8.03125 C 5.257812 7.980469 5.292969 7.933594 5.335938 7.890625 C 5.382812 7.851562 5.441406 7.820312 5.519531 7.796875 C 5.558594 7.785156 5.589844 7.769531 5.617188 7.753906 C 5.65625 7.730469 5.679688 7.699219 5.695312 7.667969 C 5.710938 7.632812 5.71875 7.601562 5.722656 7.566406 C 5.722656 7.554688 5.71875 7.546875 5.707031 7.539062 C 5.488281 7.4375 5.296875 7.242188 5.171875 7.023438 C 5.167969 7.015625 5.164062 7.011719 5.15625 7.011719 L 5.152344 7.035156 L 5.132812 7.046875 C 5.257812 7.273438 5.457031 7.472656 5.6875 7.582031 L 5.699219 7.5625 L 5.675781 7.558594 C 5.667969 7.605469 5.660156 7.640625 5.640625 7.671875 C 5.628906 7.6875 5.613281 7.703125 5.589844 7.714844 C 5.570312 7.726562 5.542969 7.742188 5.503906 7.75 C 5.394531 7.78125 5.316406 7.835938 5.257812 7.902344 C 5.175781 8.003906 5.144531 8.128906 5.128906 8.246094 C 5.121094 8.304688 5.117188 8.359375 5.113281 8.410156 C 5.113281 8.460938 5.109375 8.507812 5.105469 8.542969 C 5.097656 8.578125 5.085938 8.605469 5.070312 8.628906 C 5.042969 8.660156 5.011719 8.679688 4.976562 8.6875 C 4.945312 8.699219 4.914062 8.699219 4.902344 8.699219 C 4.898438 8.699219 4.898438 8.699219 4.894531 8.699219 C 4.886719 8.699219 4.878906 8.703125 4.871094 8.707031 C 4.867188 8.714844 4.867188 8.722656 4.871094 8.730469 C 4.902344 8.8125 4.914062 8.886719 4.914062 8.949219 C 4.914062 9.011719 4.902344 9.066406 4.890625 9.101562 C 4.886719 9.121094 4.882812 9.132812 4.875 9.144531 C 4.875 9.148438 4.875 9.152344 4.871094 9.152344 L 4.871094 9.15625 L 4.890625 9.167969 L 4.890625 9.144531 L 4.03125 9.144531 L 4.03125 9.167969 L 4.054688 9.167969 C 4.054688 9.082031 4.085938 9 4.132812 8.929688 C 4.203125 8.820312 4.308594 8.734375 4.398438 8.675781 C 4.445312 8.644531 4.484375 8.621094 4.515625 8.605469 C 4.527344 8.597656 4.539062 8.589844 4.546875 8.585938 C 4.550781 8.585938 4.554688 8.582031 4.558594 8.582031 C 4.570312 8.578125 4.574219 8.570312 4.574219 8.5625 C 4.574219 8.550781 4.570312 8.542969 4.5625 8.539062 C 4.542969 8.53125 4.535156 8.519531 4.527344 8.511719 C 4.523438 8.507812 4.519531 8.5 4.519531 8.492188 C 4.519531 8.488281 4.523438 8.476562 4.53125 8.464844 C 4.542969 8.441406 4.566406 8.410156 4.597656 8.375 C 4.6875 8.265625 4.84375 8.09375 4.941406 7.8125 C 4.960938 7.757812 4.96875 7.707031 4.96875 7.65625 C 4.96875 7.535156 4.921875 7.417969 4.847656 7.316406 C 4.773438 7.210938 4.671875 7.117188 4.5625 7.03125 L 4.546875 7.050781 L 4.554688 7.074219 C 4.640625 7.042969 4.738281 7.035156 4.835938 7.035156 C 4.945312 7.035156 5.054688 7.046875 5.148438 7.058594 L 5.152344 7.058594 L 5.152344 7.035156 L 5.132812 7.046875 L 5.152344 7.035156 "/></g><g clip-rule="nonzero" clip-path="url(#ced5a4142f)"><path style=" stroke:none;fill-rule:nonzero;fill:#919191;fill-opacity:1;" d="M 1.714844 6.839844 C 1.882812 6.839844 2.027344 6.777344 2.125 6.71875 C 2.066406 6.691406 2.011719 6.664062 1.957031 6.628906 C 1.847656 6.554688 1.738281 6.484375 1.640625 6.394531 C 1.496094 6.269531 1.378906 6.125 1.296875 5.957031 C 0.867188 5.964844 0.324219 6.246094 0.269531 6.402344 C 0.203125 6.59375 0.46875 6.875 0.605469 7.128906 C 0.738281 7.382812 0.613281 7.453125 0.640625 7.601562 C 0.671875 7.75 0.820312 7.730469 0.820312 7.730469 C 0.714844 8.152344 1.011719 8.328125 1.011719 8.328125 C 1.277344 8.203125 1.425781 7.8125 1.425781 7.8125 C 1.335938 7.675781 1.085938 7.542969 1.085938 7.542969 C 1.167969 7.433594 1.128906 7.292969 1.128906 7.292969 C 0.9375 7.210938 0.820312 6.800781 0.820312 6.800781 C 0.820312 6.800781 0.90625 6.773438 1.078125 6.75 C 1.25 6.726562 1.40625 6.839844 1.714844 6.839844 "/><path style=" stroke:none;fill-rule:nonzero;fill:#000000;fill-opacity:1;" d="M 1.714844 6.839844 L 1.714844 6.863281 C 1.886719 6.863281 2.035156 6.796875 2.136719 6.738281 C 2.144531 6.734375 2.152344 6.722656 2.148438 6.714844 C 2.148438 6.707031 2.144531 6.699219 2.136719 6.695312 C 2.078125 6.671875 2.023438 6.644531 1.96875 6.609375 C 1.859375 6.535156 1.75 6.464844 1.65625 6.378906 C 1.515625 6.253906 1.398438 6.109375 1.320312 5.945312 C 1.316406 5.9375 1.304688 5.933594 1.296875 5.933594 C 1.074219 5.9375 0.832031 6.007812 0.632812 6.101562 C 0.53125 6.148438 0.445312 6.199219 0.378906 6.25 C 0.34375 6.273438 0.316406 6.296875 0.292969 6.324219 C 0.273438 6.347656 0.257812 6.371094 0.246094 6.394531 C 0.238281 6.417969 0.234375 6.441406 0.234375 6.46875 C 0.234375 6.519531 0.25 6.574219 0.273438 6.628906 C 0.3125 6.710938 0.367188 6.796875 0.421875 6.882812 C 0.480469 6.96875 0.539062 7.058594 0.582031 7.140625 C 0.628906 7.230469 0.644531 7.292969 0.644531 7.34375 C 0.644531 7.382812 0.636719 7.414062 0.628906 7.449219 C 0.621094 7.484375 0.613281 7.515625 0.613281 7.554688 C 0.613281 7.574219 0.613281 7.589844 0.617188 7.609375 C 0.625 7.640625 0.636719 7.664062 0.648438 7.683594 C 0.671875 7.714844 0.703125 7.734375 0.726562 7.742188 C 0.753906 7.753906 0.78125 7.753906 0.796875 7.753906 C 0.8125 7.753906 0.820312 7.753906 0.824219 7.753906 L 0.820312 7.730469 L 0.796875 7.722656 C 0.78125 7.789062 0.773438 7.847656 0.773438 7.902344 C 0.773438 8.058594 0.828125 8.167969 0.886719 8.242188 C 0.941406 8.316406 0.996094 8.347656 1 8.351562 C 1.007812 8.355469 1.015625 8.355469 1.023438 8.351562 C 1.164062 8.285156 1.269531 8.152344 1.339844 8.035156 C 1.410156 7.917969 1.449219 7.820312 1.449219 7.820312 C 1.453125 7.8125 1.449219 7.804688 1.445312 7.796875 C 1.398438 7.726562 1.3125 7.65625 1.234375 7.605469 C 1.160156 7.554688 1.097656 7.523438 1.097656 7.523438 L 1.085938 7.542969 L 1.105469 7.558594 C 1.152344 7.492188 1.164062 7.421875 1.164062 7.371094 C 1.164062 7.320312 1.152344 7.289062 1.152344 7.285156 C 1.152344 7.277344 1.144531 7.273438 1.140625 7.269531 C 1.097656 7.253906 1.054688 7.214844 1.019531 7.167969 C 0.964844 7.09375 0.917969 7 0.886719 6.925781 C 0.875 6.890625 0.863281 6.855469 0.855469 6.832031 C 0.851562 6.820312 0.847656 6.8125 0.84375 6.804688 C 0.84375 6.800781 0.84375 6.800781 0.84375 6.796875 L 0.839844 6.796875 L 0.820312 6.800781 L 0.828125 6.824219 C 0.835938 6.820312 0.921875 6.792969 1.082031 6.773438 C 1.097656 6.773438 1.109375 6.773438 1.125 6.773438 C 1.195312 6.769531 1.273438 6.792969 1.367188 6.816406 C 1.460938 6.839844 1.570312 6.863281 1.714844 6.863281 L 1.714844 6.816406 C 1.578125 6.816406 1.46875 6.792969 1.378906 6.769531 C 1.285156 6.746094 1.207031 6.722656 1.125 6.722656 C 1.109375 6.722656 1.09375 6.726562 1.074219 6.726562 C 0.902344 6.75 0.8125 6.78125 0.8125 6.78125 C 0.800781 6.785156 0.792969 6.796875 0.796875 6.808594 C 0.796875 6.808594 0.828125 6.914062 0.882812 7.027344 C 0.910156 7.085938 0.941406 7.144531 0.980469 7.195312 C 1.019531 7.246094 1.066406 7.289062 1.121094 7.3125 L 1.128906 7.292969 L 1.105469 7.296875 C 1.109375 7.300781 1.113281 7.328125 1.113281 7.371094 C 1.113281 7.417969 1.105469 7.476562 1.066406 7.53125 C 1.0625 7.535156 1.0625 7.542969 1.0625 7.550781 C 1.0625 7.554688 1.070312 7.5625 1.074219 7.566406 L 1.078125 7.566406 C 1.089844 7.574219 1.152344 7.609375 1.222656 7.65625 C 1.292969 7.703125 1.367188 7.765625 1.40625 7.824219 L 1.425781 7.8125 L 1.40625 7.800781 L 1.40625 7.804688 C 1.398438 7.8125 1.363281 7.910156 1.292969 8.019531 C 1.222656 8.128906 1.125 8.25 1 8.308594 L 1.011719 8.328125 L 1.023438 8.308594 L 1.023438 8.3125 L 1.023438 8.308594 L 1.023438 8.3125 L 1.023438 8.308594 C 1.023438 8.308594 0.972656 8.277344 0.921875 8.210938 C 0.871094 8.144531 0.820312 8.042969 0.820312 7.902344 C 0.820312 7.851562 0.828125 7.796875 0.84375 7.734375 C 0.84375 7.726562 0.84375 7.71875 0.835938 7.714844 C 0.832031 7.707031 0.824219 7.703125 0.816406 7.707031 C 0.816406 7.707031 0.808594 7.707031 0.796875 7.707031 C 0.78125 7.707031 0.75 7.703125 0.722656 7.6875 C 0.710938 7.683594 0.699219 7.671875 0.6875 7.65625 C 0.679688 7.644531 0.667969 7.625 0.664062 7.597656 C 0.660156 7.582031 0.660156 7.570312 0.660156 7.554688 C 0.660156 7.523438 0.667969 7.492188 0.675781 7.460938 C 0.683594 7.425781 0.691406 7.386719 0.691406 7.34375 C 0.691406 7.285156 0.675781 7.210938 0.625 7.117188 C 0.5625 7.003906 0.476562 6.882812 0.40625 6.773438 C 0.371094 6.714844 0.339844 6.660156 0.320312 6.609375 C 0.296875 6.558594 0.285156 6.511719 0.285156 6.46875 C 0.285156 6.445312 0.285156 6.429688 0.292969 6.410156 C 0.296875 6.394531 0.308594 6.375 0.328125 6.355469 C 0.363281 6.316406 0.417969 6.273438 0.488281 6.234375 C 0.691406 6.105469 1.019531 5.984375 1.296875 5.980469 L 1.296875 5.957031 L 1.277344 5.96875 C 1.359375 6.136719 1.480469 6.285156 1.625 6.414062 C 1.722656 6.503906 1.832031 6.574219 1.941406 6.648438 C 2 6.683594 2.058594 6.714844 2.117188 6.738281 L 2.125 6.71875 L 2.113281 6.695312 C 2.015625 6.753906 1.875 6.816406 1.714844 6.816406 L 1.714844 6.839844 "/></g><g clip-rule="nonzero" clip-path="url(#14869e3136)"><path style=" stroke:none;fill-rule:nonzero;fill:#919191;fill-opacity:1;" d="M 6.535156 4.347656 C 6.007812 4.347656 5.957031 4.496094 5.488281 4.496094 C 5.210938 4.496094 5.039062 4.457031 4.945312 4.425781 C 4.972656 4.308594 4.925781 4.164062 4.765625 4.09375 C 4.609375 4.027344 4.378906 4.113281 4.296875 3.917969 C 4.300781 4.070312 4.355469 4.226562 4.46875 4.332031 C 4.414062 4.308594 4.367188 4.265625 4.328125 4.21875 C 4.328125 4.222656 4.398438 4.445312 4.585938 4.542969 C 4.707031 4.609375 4.804688 4.59375 4.867188 4.542969 C 5.015625 4.625 5.273438 4.695312 5.519531 4.695312 C 5.824219 4.695312 6.203125 4.570312 6.5 4.570312 C 6.796875 4.570312 6.921875 4.75 6.921875 4.890625 C 6.921875 5.03125 6.855469 5.570312 6.105469 5.570312 C 5.972656 5.570312 5.839844 5.558594 5.714844 5.53125 C 5.820312 5.585938 5.929688 5.632812 6.042969 5.671875 C 6.222656 5.730469 6.398438 5.800781 6.542969 5.917969 C 7.070312 5.8125 7.261719 5.207031 7.261719 4.960938 C 7.261719 4.691406 7.0625 4.347656 6.535156 4.347656 "/><path style=" stroke:none;fill-rule:nonzero;fill:#000000;fill-opacity:1;" d="M 6.535156 4.347656 L 6.535156 4.324219 C 6.269531 4.324219 6.121094 4.363281 5.984375 4.398438 C 5.847656 4.4375 5.722656 4.472656 5.488281 4.472656 C 5.214844 4.472656 5.042969 4.433594 4.953125 4.402344 L 4.945312 4.425781 L 4.96875 4.429688 C 4.972656 4.410156 4.976562 4.382812 4.976562 4.359375 C 4.976562 4.304688 4.960938 4.25 4.925781 4.199219 C 4.894531 4.148438 4.84375 4.105469 4.773438 4.074219 C 4.730469 4.054688 4.683594 4.046875 4.640625 4.042969 C 4.570312 4.035156 4.503906 4.035156 4.445312 4.019531 C 4.417969 4.011719 4.394531 4 4.371094 3.980469 C 4.351562 3.964844 4.332031 3.941406 4.316406 3.910156 C 4.3125 3.898438 4.300781 3.894531 4.292969 3.894531 C 4.28125 3.898438 4.273438 3.90625 4.273438 3.917969 C 4.277344 4.074219 4.332031 4.238281 4.453125 4.347656 L 4.46875 4.332031 L 4.476562 4.308594 C 4.429688 4.289062 4.382812 4.25 4.347656 4.203125 C 4.339844 4.195312 4.332031 4.195312 4.320312 4.199219 C 4.3125 4.203125 4.304688 4.210938 4.304688 4.222656 L 4.308594 4.226562 C 4.308594 4.234375 4.316406 4.25 4.324219 4.277344 C 4.339844 4.3125 4.367188 4.367188 4.410156 4.421875 C 4.449219 4.472656 4.503906 4.527344 4.574219 4.566406 C 4.632812 4.597656 4.691406 4.613281 4.738281 4.613281 C 4.796875 4.613281 4.84375 4.59375 4.882812 4.5625 L 4.867188 4.542969 L 4.859375 4.566406 C 4.933594 4.605469 5.035156 4.644531 5.152344 4.671875 C 5.265625 4.703125 5.394531 4.71875 5.519531 4.71875 C 5.675781 4.71875 5.847656 4.6875 6.015625 4.65625 C 6.1875 4.625 6.351562 4.59375 6.5 4.59375 C 6.640625 4.59375 6.742188 4.636719 6.804688 4.695312 C 6.867188 4.753906 6.898438 4.828125 6.898438 4.890625 C 6.898438 4.957031 6.878906 5.121094 6.773438 5.269531 C 6.722656 5.34375 6.644531 5.414062 6.539062 5.464844 C 6.429688 5.515625 6.289062 5.546875 6.105469 5.546875 C 5.972656 5.546875 5.84375 5.535156 5.71875 5.507812 C 5.707031 5.507812 5.695312 5.515625 5.691406 5.523438 C 5.6875 5.535156 5.691406 5.546875 5.703125 5.554688 C 5.8125 5.605469 5.921875 5.652344 6.035156 5.691406 C 6.214844 5.753906 6.386719 5.820312 6.527344 5.9375 C 6.535156 5.941406 6.539062 5.945312 6.546875 5.941406 C 6.683594 5.914062 6.796875 5.855469 6.894531 5.777344 C 7.035156 5.660156 7.132812 5.503906 7.195312 5.351562 C 7.257812 5.203125 7.285156 5.058594 7.285156 4.960938 C 7.285156 4.820312 7.234375 4.660156 7.113281 4.535156 C 6.992188 4.410156 6.804688 4.324219 6.535156 4.324219 L 6.535156 4.371094 C 6.792969 4.371094 6.96875 4.457031 7.078125 4.570312 C 7.191406 4.683594 7.238281 4.832031 7.238281 4.960938 C 7.238281 5.019531 7.226562 5.101562 7.199219 5.191406 C 7.164062 5.328125 7.09375 5.488281 6.984375 5.621094 C 6.875 5.75 6.730469 5.859375 6.539062 5.894531 L 6.542969 5.917969 L 6.558594 5.902344 C 6.40625 5.777344 6.230469 5.710938 6.050781 5.648438 C 5.9375 5.609375 5.832031 5.5625 5.726562 5.511719 L 5.714844 5.53125 L 5.710938 5.554688 C 5.835938 5.582031 5.96875 5.59375 6.105469 5.59375 C 6.296875 5.59375 6.445312 5.5625 6.558594 5.507812 C 6.730469 5.425781 6.828125 5.296875 6.882812 5.175781 C 6.933594 5.058594 6.945312 4.945312 6.945312 4.890625 C 6.945312 4.8125 6.910156 4.726562 6.835938 4.660156 C 6.761719 4.59375 6.652344 4.546875 6.5 4.546875 C 6.347656 4.546875 6.175781 4.578125 6.007812 4.609375 C 5.839844 4.640625 5.667969 4.671875 5.519531 4.671875 C 5.398438 4.671875 5.273438 4.65625 5.164062 4.628906 C 5.050781 4.597656 4.953125 4.5625 4.878906 4.523438 C 4.871094 4.519531 4.863281 4.519531 4.855469 4.527344 C 4.824219 4.550781 4.785156 4.5625 4.738281 4.5625 C 4.699219 4.5625 4.652344 4.550781 4.597656 4.523438 C 4.507812 4.476562 4.449219 4.402344 4.410156 4.335938 C 4.390625 4.300781 4.375 4.269531 4.367188 4.25 C 4.359375 4.238281 4.359375 4.230469 4.355469 4.222656 C 4.355469 4.21875 4.351562 4.21875 4.351562 4.214844 L 4.347656 4.214844 L 4.351562 4.214844 L 4.347656 4.214844 L 4.351562 4.214844 L 4.335938 4.21875 L 4.351562 4.214844 L 4.335938 4.21875 L 4.351562 4.214844 L 4.332031 4.21875 L 4.351562 4.21875 L 4.351562 4.214844 L 4.332031 4.21875 L 4.351562 4.21875 L 4.328125 4.21875 L 4.3125 4.234375 C 4.351562 4.28125 4.398438 4.328125 4.460938 4.351562 C 4.46875 4.355469 4.484375 4.351562 4.488281 4.34375 C 4.496094 4.332031 4.492188 4.320312 4.484375 4.3125 C 4.378906 4.210938 4.324219 4.0625 4.320312 3.917969 L 4.296875 3.917969 L 4.273438 3.925781 C 4.296875 3.980469 4.332031 4.015625 4.371094 4.039062 C 4.429688 4.074219 4.5 4.078125 4.566406 4.085938 C 4.636719 4.089844 4.703125 4.09375 4.753906 4.117188 C 4.816406 4.144531 4.859375 4.183594 4.886719 4.226562 C 4.914062 4.265625 4.929688 4.316406 4.929688 4.359375 C 4.929688 4.378906 4.925781 4.402344 4.921875 4.417969 C 4.917969 4.429688 4.925781 4.445312 4.9375 4.449219 C 5.035156 4.480469 5.210938 4.519531 5.488281 4.519531 C 5.726562 4.519531 5.859375 4.484375 5.996094 4.445312 C 6.132812 4.410156 6.273438 4.371094 6.535156 4.371094 L 6.535156 4.347656 "/></g><g clip-rule="nonzero" clip-path="url(#15090e5b4a)"><path style=" stroke:none;fill-rule:nonzero;fill:#919191;fill-opacity:1;" d="M 6.660156 8.054688 C 6.796875 7.878906 7.03125 7.449219 6.484375 7.0625 C 6.484375 7.0625 6.867188 6.21875 6.378906 5.933594 C 5.890625 5.652344 4.007812 5.253906 3.53125 3.5625 C 3.53125 3.5625 3.65625 3.5625 3.859375 3.28125 C 4.066406 3 4.171875 2.878906 4.332031 2.878906 C 4.496094 2.878906 4.542969 3.042969 4.644531 2.878906 C 4.75 2.71875 4.75 2.539062 4.6875 2.421875 C 4.628906 2.300781 4.570312 2.152344 4.183594 2.152344 C 3.835938 2.152344 3.488281 1.863281 3.207031 1.894531 C 3.183594 1.867188 3.160156 1.84375 3.140625 1.824219 C 3.140625 1.824219 3.015625 1.460938 3.425781 0.9375 C 3.425781 0.9375 2.90625 1.15625 2.757812 1.390625 C 2.625 1.601562 2.621094 1.902344 2.800781 2.121094 C 2.78125 2.136719 2.757812 2.152344 2.738281 2.171875 C 2.6875 2.179688 2.628906 2.1875 2.566406 2.199219 C 2.402344 2.230469 2.242188 2.367188 2.140625 2.476562 L 2.136719 2.476562 L 2.136719 2.480469 C 2.039062 2.589844 1.980469 2.691406 1.980469 2.691406 C 2.015625 2.679688 2.105469 2.683594 2.214844 2.699219 C 1.746094 3.269531 1.277344 4.140625 1.277344 5.296875 C 1.277344 6.207031 2.167969 6.691406 2.167969 6.691406 C 2.167969 6.691406 2.285156 7.164062 1.902344 7.476562 C 1.515625 7.789062 1.21875 8.457031 1.410156 8.558594 C 1.410156 8.558594 0.894531 8.796875 0.894531 9.167969 L 1.753906 9.167969 C 1.753906 9.167969 1.855469 8.976562 1.753906 8.722656 C 1.753906 8.722656 1.960938 8.738281 1.992188 8.542969 C 2.019531 8.351562 1.753906 8.21875 2.078125 7.921875 C 2.40625 7.625 2.554688 7.535156 2.671875 7.359375 C 2.683594 7.34375 2.691406 7.328125 2.703125 7.316406 C 2.746094 7.238281 2.8125 7.183594 2.878906 7.128906 C 2.96875 7.054688 3.058594 6.984375 3.148438 6.914062 C 3.308594 6.796875 3.488281 6.714844 3.667969 6.636719 C 3.421875 6.78125 3.15625 6.933594 3.019531 7.179688 C 3.019531 7.179688 3.140625 7.253906 3.519531 7.253906 C 3.984375 7.253906 4.351562 6.867188 5.101562 6.953125 C 4.992188 6.75 4.898438 6.53125 4.921875 6.296875 C 4.9375 6.363281 4.945312 6.429688 4.960938 6.492188 C 4.980469 6.578125 5.019531 6.65625 5.058594 6.730469 C 5.144531 6.890625 5.246094 7.046875 5.363281 7.183594 C 5.421875 7.257812 5.488281 7.324219 5.558594 7.386719 C 5.582031 7.410156 5.605469 7.433594 5.632812 7.453125 C 5.675781 7.484375 5.726562 7.496094 5.765625 7.527344 C 5.796875 7.554688 5.820312 7.589844 5.851562 7.613281 C 5.886719 7.644531 5.925781 7.675781 5.960938 7.707031 C 5.960938 7.707031 6.117188 7.804688 6.214844 7.789062 C 6.214844 7.789062 6.5 8.1875 6.214844 8.589844 C 6.214844 8.589844 5.816406 8.8125 5.859375 9.167969 L 6.558594 9.167969 L 6.558594 8.722656 C 6.558594 8.722656 6.734375 8.765625 6.734375 8.558594 C 6.734375 8.351562 6.527344 8.230469 6.660156 8.054688 "/><path style=" stroke:none;fill-rule:nonzero;fill:#000000;fill-opacity:1;" d="M 6.660156 8.054688 L 6.679688 8.070312 C 6.75 7.972656 6.851562 7.808594 6.851562 7.613281 C 6.851562 7.523438 6.832031 7.425781 6.773438 7.332031 C 6.71875 7.234375 6.628906 7.136719 6.496094 7.042969 L 6.484375 7.0625 L 6.503906 7.070312 C 6.503906 7.070312 6.542969 6.992188 6.578125 6.871094 C 6.613281 6.753906 6.652344 6.59375 6.652344 6.4375 C 6.652344 6.335938 6.636719 6.234375 6.597656 6.144531 C 6.558594 6.050781 6.492188 5.972656 6.390625 5.914062 C 6.265625 5.84375 6.058594 5.765625 5.804688 5.660156 C 5.425781 5.507812 4.949219 5.292969 4.527344 4.964844 C 4.105469 4.632812 3.730469 4.183594 3.554688 3.554688 L 3.53125 3.5625 L 3.53125 3.585938 C 3.539062 3.585938 3.574219 3.585938 3.632812 3.546875 C 3.691406 3.511719 3.777344 3.4375 3.878906 3.292969 C 3.984375 3.152344 4.058594 3.054688 4.128906 2.992188 C 4.164062 2.960938 4.195312 2.9375 4.230469 2.925781 C 4.261719 2.910156 4.296875 2.902344 4.332031 2.902344 C 4.382812 2.902344 4.417969 2.921875 4.453125 2.9375 C 4.46875 2.945312 4.484375 2.957031 4.5 2.964844 C 4.519531 2.96875 4.535156 2.976562 4.554688 2.976562 C 4.574219 2.976562 4.59375 2.96875 4.613281 2.957031 C 4.628906 2.941406 4.648438 2.921875 4.664062 2.894531 C 4.726562 2.796875 4.753906 2.695312 4.753906 2.601562 C 4.753906 2.53125 4.738281 2.464844 4.710938 2.410156 C 4.695312 2.378906 4.679688 2.347656 4.660156 2.316406 C 4.628906 2.265625 4.582031 2.21875 4.507812 2.183594 C 4.433594 2.152344 4.332031 2.128906 4.183594 2.128906 C 4.027344 2.128906 3.863281 2.066406 3.707031 2 C 3.546875 1.9375 3.394531 1.867188 3.25 1.867188 C 3.234375 1.867188 3.21875 1.871094 3.203125 1.871094 L 3.207031 1.894531 L 3.222656 1.878906 C 3.203125 1.851562 3.179688 1.828125 3.15625 1.804688 L 3.140625 1.824219 L 3.160156 1.816406 L 3.15625 1.820312 L 3.160156 1.816406 L 3.15625 1.820312 L 3.160156 1.816406 C 3.160156 1.816406 3.144531 1.765625 3.144531 1.683594 C 3.144531 1.535156 3.191406 1.277344 3.445312 0.953125 C 3.453125 0.945312 3.453125 0.933594 3.445312 0.921875 C 3.4375 0.914062 3.425781 0.910156 3.417969 0.917969 C 3.417969 0.917969 3.285156 0.972656 3.136719 1.054688 C 3.058594 1.097656 2.980469 1.148438 2.910156 1.203125 C 2.839844 1.257812 2.777344 1.316406 2.738281 1.378906 C 2.671875 1.480469 2.636719 1.605469 2.636719 1.730469 C 2.636719 1.871094 2.683594 2.015625 2.78125 2.136719 L 2.800781 2.121094 L 2.785156 2.101562 C 2.765625 2.117188 2.742188 2.136719 2.722656 2.152344 L 2.738281 2.171875 L 2.734375 2.148438 C 2.683594 2.15625 2.625 2.164062 2.5625 2.175781 C 2.476562 2.191406 2.390625 2.234375 2.316406 2.289062 C 2.242188 2.339844 2.171875 2.402344 2.121094 2.460938 L 2.140625 2.476562 L 2.125 2.457031 L 2.117188 2.464844 C 2.109375 2.472656 2.109375 2.488281 2.117188 2.496094 C 2.125 2.503906 2.140625 2.507812 2.148438 2.496094 L 2.152344 2.496094 L 2.136719 2.480469 L 2.117188 2.464844 C 2.019531 2.578125 1.960938 2.679688 1.960938 2.679688 C 1.957031 2.6875 1.957031 2.699219 1.960938 2.707031 C 1.96875 2.714844 1.980469 2.71875 1.988281 2.714844 C 1.996094 2.710938 2.015625 2.707031 2.042969 2.707031 C 2.082031 2.707031 2.144531 2.714844 2.210938 2.722656 L 2.214844 2.699219 L 2.195312 2.683594 C 1.722656 3.257812 1.253906 4.132812 1.253906 5.296875 C 1.253906 5.761719 1.480469 6.113281 1.707031 6.351562 C 1.929688 6.589844 2.15625 6.710938 2.15625 6.710938 L 2.167969 6.691406 L 2.144531 6.695312 L 2.144531 6.699219 C 2.148438 6.703125 2.160156 6.769531 2.160156 6.863281 C 2.160156 6.945312 2.152344 7.046875 2.109375 7.152344 C 2.070312 7.257812 2.003906 7.363281 1.886719 7.457031 C 1.730469 7.582031 1.59375 7.761719 1.492188 7.941406 C 1.441406 8.03125 1.402344 8.117188 1.371094 8.199219 C 1.34375 8.285156 1.328125 8.359375 1.328125 8.421875 C 1.328125 8.457031 1.332031 8.488281 1.34375 8.515625 C 1.355469 8.542969 1.375 8.566406 1.402344 8.582031 L 1.410156 8.558594 L 1.402344 8.539062 C 1.402344 8.539062 1.269531 8.597656 1.136719 8.707031 C 1.070312 8.761719 1.003906 8.824219 0.953125 8.902344 C 0.902344 8.980469 0.871094 9.070312 0.871094 9.167969 C 0.871094 9.175781 0.871094 9.179688 0.875 9.183594 C 0.878906 9.1875 0.886719 9.191406 0.894531 9.191406 L 1.753906 9.191406 C 1.761719 9.191406 1.769531 9.1875 1.773438 9.179688 C 1.773438 9.175781 1.824219 9.085938 1.824219 8.949219 C 1.824219 8.882812 1.8125 8.800781 1.773438 8.714844 L 1.753906 8.722656 L 1.75 8.746094 C 1.753906 8.746094 1.757812 8.746094 1.761719 8.746094 C 1.785156 8.746094 1.839844 8.742188 1.894531 8.71875 C 1.921875 8.703125 1.945312 8.6875 1.96875 8.65625 C 1.992188 8.628906 2.007812 8.59375 2.015625 8.546875 C 2.015625 8.535156 2.015625 8.523438 2.015625 8.515625 C 2.015625 8.457031 1.996094 8.40625 1.976562 8.355469 C 1.957031 8.304688 1.9375 8.257812 1.9375 8.207031 C 1.9375 8.171875 1.949219 8.132812 1.972656 8.089844 C 1.996094 8.046875 2.035156 7.996094 2.09375 7.941406 C 2.257812 7.792969 2.375 7.695312 2.46875 7.613281 C 2.5625 7.53125 2.632812 7.464844 2.691406 7.371094 C 2.703125 7.355469 2.710938 7.34375 2.722656 7.328125 C 2.730469 7.320312 2.726562 7.304688 2.71875 7.296875 C 2.707031 7.289062 2.695312 7.289062 2.6875 7.300781 L 2.703125 7.316406 L 2.722656 7.328125 C 2.761719 7.257812 2.828125 7.203125 2.894531 7.148438 C 2.984375 7.074219 3.070312 7.003906 3.164062 6.933594 C 3.320312 6.820312 3.496094 6.738281 3.675781 6.660156 L 3.667969 6.636719 L 3.65625 6.617188 C 3.53125 6.6875 3.402344 6.761719 3.289062 6.851562 C 3.171875 6.941406 3.070312 7.042969 2.996094 7.167969 C 2.992188 7.179688 2.996094 7.195312 3.003906 7.203125 C 3.011719 7.203125 3.136719 7.277344 3.519531 7.277344 C 3.734375 7.277344 3.925781 7.199219 4.140625 7.121094 C 4.351562 7.042969 4.585938 6.964844 4.882812 6.964844 C 4.953125 6.964844 5.023438 6.96875 5.097656 6.976562 C 5.105469 6.980469 5.113281 6.976562 5.121094 6.96875 C 5.125 6.960938 5.125 6.949219 5.121094 6.941406 C 5.023438 6.757812 4.941406 6.5625 4.941406 6.363281 C 4.941406 6.339844 4.941406 6.320312 4.945312 6.300781 L 4.921875 6.296875 L 4.898438 6.304688 C 4.914062 6.367188 4.921875 6.433594 4.9375 6.5 C 4.957031 6.585938 5 6.667969 5.039062 6.742188 C 5.125 6.90625 5.226562 7.0625 5.34375 7.199219 C 5.40625 7.273438 5.472656 7.339844 5.539062 7.402344 C 5.566406 7.425781 5.589844 7.449219 5.621094 7.472656 C 5.640625 7.488281 5.667969 7.5 5.691406 7.511719 C 5.710938 7.523438 5.734375 7.535156 5.75 7.546875 C 5.777344 7.570312 5.800781 7.605469 5.835938 7.632812 C 5.871094 7.664062 5.910156 7.695312 5.949219 7.726562 C 5.949219 7.726562 5.984375 7.75 6.03125 7.769531 C 6.078125 7.792969 6.136719 7.8125 6.191406 7.8125 C 6.203125 7.8125 6.210938 7.8125 6.21875 7.8125 L 6.214844 7.789062 L 6.195312 7.800781 L 6.199219 7.800781 C 6.203125 7.8125 6.320312 7.980469 6.316406 8.203125 C 6.316406 8.316406 6.289062 8.445312 6.195312 8.574219 L 6.214844 8.589844 L 6.203125 8.570312 C 6.203125 8.570312 6.113281 8.621094 6.019531 8.714844 C 5.972656 8.757812 5.925781 8.816406 5.890625 8.882812 C 5.855469 8.949219 5.832031 9.027344 5.832031 9.113281 C 5.832031 9.132812 5.835938 9.152344 5.835938 9.171875 C 5.839844 9.183594 5.847656 9.191406 5.859375 9.191406 L 6.558594 9.191406 C 6.5625 9.191406 6.570312 9.1875 6.574219 9.183594 C 6.578125 9.179688 6.582031 9.175781 6.582031 9.167969 L 6.582031 8.722656 L 6.558594 8.722656 L 6.550781 8.746094 C 6.554688 8.746094 6.570312 8.75 6.597656 8.75 C 6.625 8.75 6.667969 8.746094 6.699219 8.714844 C 6.71875 8.703125 6.734375 8.683594 6.742188 8.65625 C 6.753906 8.628906 6.757812 8.597656 6.757812 8.558594 C 6.757812 8.476562 6.726562 8.40625 6.699219 8.34375 C 6.683594 8.3125 6.667969 8.285156 6.65625 8.253906 C 6.648438 8.226562 6.640625 8.203125 6.640625 8.175781 C 6.640625 8.140625 6.652344 8.109375 6.679688 8.070312 L 6.640625 8.039062 C 6.609375 8.085938 6.59375 8.132812 6.59375 8.175781 C 6.59375 8.210938 6.601562 8.242188 6.613281 8.273438 C 6.628906 8.320312 6.65625 8.363281 6.675781 8.410156 C 6.695312 8.457031 6.710938 8.503906 6.710938 8.558594 C 6.710938 8.59375 6.707031 8.621094 6.699219 8.636719 C 6.6875 8.667969 6.671875 8.683594 6.652344 8.691406 C 6.632812 8.699219 6.613281 8.703125 6.597656 8.703125 C 6.585938 8.703125 6.578125 8.703125 6.570312 8.703125 C 6.570312 8.699219 6.566406 8.699219 6.566406 8.699219 L 6.5625 8.699219 L 6.5625 8.707031 L 6.5625 8.699219 L 6.5625 8.707031 L 6.5625 8.699219 C 6.554688 8.699219 6.546875 8.699219 6.542969 8.703125 C 6.539062 8.707031 6.535156 8.714844 6.535156 8.722656 L 6.535156 9.144531 L 5.859375 9.144531 L 5.859375 9.167969 L 5.882812 9.164062 C 5.882812 9.148438 5.882812 9.128906 5.882812 9.113281 C 5.882812 9.035156 5.902344 8.96875 5.933594 8.90625 C 5.984375 8.8125 6.054688 8.738281 6.117188 8.6875 C 6.148438 8.664062 6.175781 8.644531 6.195312 8.628906 C 6.207031 8.625 6.214844 8.617188 6.21875 8.613281 C 6.222656 8.613281 6.226562 8.613281 6.226562 8.609375 C 6.230469 8.609375 6.234375 8.605469 6.234375 8.601562 C 6.332031 8.464844 6.367188 8.328125 6.367188 8.203125 C 6.363281 7.957031 6.238281 7.777344 6.234375 7.773438 C 6.230469 7.765625 6.222656 7.765625 6.210938 7.765625 C 6.207031 7.765625 6.199219 7.765625 6.191406 7.765625 C 6.148438 7.765625 6.09375 7.746094 6.050781 7.726562 C 6.027344 7.71875 6.011719 7.707031 5.996094 7.699219 C 5.988281 7.695312 5.984375 7.691406 5.980469 7.691406 L 5.976562 7.6875 L 5.960938 7.707031 L 5.976562 7.6875 C 5.941406 7.660156 5.902344 7.628906 5.867188 7.597656 C 5.839844 7.574219 5.816406 7.539062 5.78125 7.511719 C 5.757812 7.492188 5.734375 7.480469 5.710938 7.46875 C 5.6875 7.457031 5.664062 7.445312 5.648438 7.433594 C 5.621094 7.414062 5.597656 7.390625 5.574219 7.367188 C 5.503906 7.304688 5.441406 7.238281 5.378906 7.167969 C 5.265625 7.035156 5.164062 6.878906 5.082031 6.722656 C 5.042969 6.644531 5 6.566406 4.984375 6.488281 C 4.96875 6.425781 4.960938 6.359375 4.945312 6.292969 C 4.941406 6.28125 4.929688 6.273438 4.917969 6.273438 C 4.90625 6.273438 4.898438 6.285156 4.898438 6.296875 C 4.894531 6.316406 4.894531 6.339844 4.894531 6.363281 C 4.894531 6.578125 4.980469 6.78125 5.078125 6.964844 L 5.101562 6.953125 L 5.101562 6.929688 C 5.027344 6.921875 4.953125 6.917969 4.882812 6.917969 C 4.574219 6.917969 4.335938 6.996094 4.121094 7.074219 C 3.910156 7.15625 3.722656 7.230469 3.519531 7.230469 C 3.332031 7.230469 3.207031 7.210938 3.132812 7.195312 C 3.09375 7.1875 3.066406 7.175781 3.050781 7.171875 C 3.042969 7.167969 3.039062 7.164062 3.035156 7.164062 L 3.03125 7.160156 L 3.023438 7.171875 L 3.03125 7.160156 L 3.023438 7.171875 L 3.03125 7.160156 L 3.019531 7.179688 L 3.039062 7.191406 C 3.105469 7.074219 3.203125 6.976562 3.316406 6.890625 C 3.429688 6.804688 3.558594 6.730469 3.679688 6.660156 C 3.691406 6.652344 3.695312 6.640625 3.6875 6.628906 C 3.683594 6.617188 3.671875 6.613281 3.660156 6.617188 C 3.476562 6.691406 3.296875 6.777344 3.136719 6.898438 C 3.042969 6.964844 2.953125 7.039062 2.863281 7.109375 C 2.796875 7.164062 2.726562 7.222656 2.683594 7.304688 C 2.675781 7.3125 2.679688 7.328125 2.691406 7.335938 C 2.699219 7.339844 2.714844 7.339844 2.722656 7.332031 L 2.683594 7.300781 C 2.675781 7.316406 2.664062 7.328125 2.652344 7.34375 C 2.59375 7.433594 2.53125 7.496094 2.4375 7.578125 C 2.347656 7.660156 2.226562 7.757812 2.0625 7.90625 C 2 7.964844 1.957031 8.015625 1.929688 8.066406 C 1.902344 8.117188 1.890625 8.164062 1.890625 8.207031 C 1.890625 8.269531 1.914062 8.324219 1.933594 8.371094 C 1.953125 8.421875 1.96875 8.46875 1.96875 8.515625 C 1.96875 8.523438 1.96875 8.53125 1.96875 8.542969 C 1.960938 8.578125 1.949219 8.605469 1.929688 8.628906 C 1.90625 8.660156 1.871094 8.679688 1.839844 8.6875 C 1.808594 8.699219 1.777344 8.699219 1.761719 8.699219 C 1.761719 8.699219 1.757812 8.699219 1.757812 8.699219 L 1.753906 8.699219 C 1.746094 8.699219 1.738281 8.703125 1.734375 8.707031 C 1.730469 8.714844 1.726562 8.722656 1.730469 8.730469 C 1.765625 8.8125 1.777344 8.886719 1.777344 8.949219 C 1.777344 9.011719 1.765625 9.066406 1.753906 9.101562 C 1.746094 9.121094 1.742188 9.132812 1.738281 9.144531 C 1.738281 9.148438 1.734375 9.152344 1.734375 9.152344 L 1.734375 9.15625 L 1.730469 9.15625 L 1.753906 9.167969 L 1.753906 9.144531 L 0.894531 9.144531 L 0.894531 9.167969 L 0.917969 9.167969 C 0.917969 9.082031 0.945312 9 0.992188 8.929688 C 1.0625 8.820312 1.171875 8.734375 1.261719 8.675781 C 1.304688 8.644531 1.347656 8.621094 1.375 8.605469 C 1.390625 8.597656 1.402344 8.589844 1.410156 8.585938 C 1.414062 8.585938 1.417969 8.582031 1.417969 8.582031 L 1.421875 8.582031 C 1.429688 8.578125 1.433594 8.570312 1.4375 8.5625 C 1.4375 8.550781 1.429688 8.542969 1.421875 8.539062 C 1.40625 8.53125 1.394531 8.515625 1.386719 8.5 C 1.378906 8.480469 1.375 8.453125 1.375 8.421875 C 1.375 8.367188 1.390625 8.296875 1.417969 8.214844 C 1.5 7.980469 1.695312 7.675781 1.917969 7.496094 C 2.039062 7.398438 2.113281 7.28125 2.15625 7.167969 C 2.199219 7.054688 2.210938 6.949219 2.210938 6.863281 C 2.210938 6.757812 2.191406 6.6875 2.191406 6.6875 C 2.191406 6.679688 2.183594 6.671875 2.179688 6.671875 L 2.175781 6.667969 C 2.152344 6.65625 1.933594 6.527344 1.71875 6.296875 C 1.507812 6.066406 1.300781 5.730469 1.300781 5.296875 C 1.300781 4.148438 1.765625 3.28125 2.230469 2.714844 C 2.238281 2.707031 2.238281 2.699219 2.234375 2.691406 C 2.234375 2.683594 2.226562 2.679688 2.21875 2.675781 C 2.148438 2.667969 2.085938 2.660156 2.042969 2.660156 C 2.011719 2.660156 1.992188 2.664062 1.972656 2.667969 L 1.980469 2.691406 L 2 2.703125 L 2.003906 2.703125 C 2.007812 2.691406 2.0625 2.597656 2.152344 2.496094 C 2.160156 2.484375 2.160156 2.472656 2.152344 2.460938 C 2.144531 2.453125 2.128906 2.453125 2.121094 2.460938 L 2.136719 2.480469 L 2.152344 2.496094 L 2.15625 2.492188 L 2.136719 2.476562 L 2.152344 2.496094 L 2.152344 2.492188 L 2.15625 2.492188 C 2.207031 2.4375 2.273438 2.378906 2.34375 2.328125 C 2.414062 2.277344 2.496094 2.238281 2.570312 2.222656 C 2.632812 2.210938 2.691406 2.203125 2.742188 2.195312 C 2.746094 2.195312 2.75 2.191406 2.753906 2.1875 C 2.773438 2.171875 2.792969 2.15625 2.8125 2.140625 C 2.820312 2.136719 2.820312 2.128906 2.824219 2.125 C 2.824219 2.117188 2.820312 2.113281 2.816406 2.105469 C 2.726562 1.996094 2.683594 1.863281 2.683594 1.730469 C 2.683594 1.613281 2.71875 1.5 2.777344 1.402344 C 2.8125 1.347656 2.871094 1.292969 2.9375 1.238281 C 3.039062 1.160156 3.164062 1.089844 3.265625 1.039062 C 3.3125 1.015625 3.355469 0.996094 3.386719 0.980469 C 3.402344 0.972656 3.414062 0.96875 3.421875 0.964844 C 3.429688 0.960938 3.433594 0.960938 3.433594 0.960938 L 3.425781 0.9375 L 3.40625 0.921875 C 3.148438 1.253906 3.097656 1.523438 3.097656 1.683594 C 3.097656 1.777344 3.117188 1.828125 3.117188 1.832031 C 3.117188 1.835938 3.121094 1.839844 3.125 1.84375 C 3.144531 1.859375 3.164062 1.882812 3.1875 1.910156 C 3.191406 1.914062 3.199219 1.917969 3.207031 1.917969 C 3.222656 1.917969 3.234375 1.917969 3.25 1.917969 C 3.378906 1.914062 3.527344 1.980469 3.6875 2.046875 C 3.847656 2.109375 4.011719 2.175781 4.183594 2.175781 C 4.28125 2.175781 4.355469 2.1875 4.414062 2.203125 C 4.5 2.222656 4.550781 2.261719 4.585938 2.300781 C 4.625 2.339844 4.644531 2.386719 4.667969 2.429688 C 4.691406 2.480469 4.707031 2.539062 4.707031 2.601562 C 4.707031 2.683594 4.679688 2.777344 4.625 2.867188 C 4.609375 2.894531 4.59375 2.910156 4.582031 2.917969 C 4.570312 2.925781 4.5625 2.929688 4.554688 2.929688 C 4.546875 2.929688 4.535156 2.925781 4.519531 2.917969 C 4.480469 2.902344 4.421875 2.855469 4.332031 2.855469 C 4.289062 2.855469 4.25 2.863281 4.210938 2.882812 C 4.152344 2.90625 4.097656 2.949219 4.039062 3.015625 C 3.980469 3.078125 3.917969 3.160156 3.839844 3.265625 C 3.742188 3.40625 3.660156 3.472656 3.605469 3.507812 C 3.582031 3.523438 3.5625 3.53125 3.546875 3.535156 C 3.542969 3.539062 3.539062 3.539062 3.535156 3.539062 L 3.53125 3.539062 L 3.53125 3.550781 L 3.53125 3.539062 L 3.53125 3.550781 L 3.53125 3.539062 C 3.523438 3.539062 3.519531 3.542969 3.511719 3.546875 C 3.507812 3.554688 3.507812 3.5625 3.507812 3.570312 C 3.628906 3.996094 3.839844 4.339844 4.089844 4.621094 C 4.472656 5.046875 4.949219 5.328125 5.378906 5.527344 C 5.59375 5.628906 5.796875 5.710938 5.96875 5.777344 C 6.136719 5.847656 6.277344 5.902344 6.367188 5.957031 C 6.457031 6.007812 6.515625 6.078125 6.554688 6.164062 C 6.589844 6.246094 6.605469 6.339844 6.605469 6.4375 C 6.605469 6.585938 6.570312 6.742188 6.53125 6.859375 C 6.515625 6.917969 6.496094 6.964844 6.484375 7 C 6.476562 7.015625 6.472656 7.03125 6.46875 7.039062 C 6.464844 7.042969 6.464844 7.046875 6.464844 7.046875 C 6.460938 7.050781 6.460938 7.050781 6.460938 7.050781 C 6.457031 7.0625 6.460938 7.074219 6.46875 7.082031 C 6.597656 7.171875 6.683594 7.265625 6.734375 7.355469 C 6.785156 7.445312 6.804688 7.53125 6.804688 7.613281 C 6.804688 7.792969 6.710938 7.949219 6.640625 8.039062 L 6.660156 8.054688 "/></g><path style=" stroke:none;fill-rule:nonzero;fill:#000000;fill-opacity:1;" d="M 3.054688 2.339844 C 3.046875 2.351562 3.039062 2.367188 3.023438 2.382812 C 3.011719 2.398438 2.996094 2.414062 2.976562 2.429688 C 2.957031 2.445312 2.929688 2.457031 2.902344 2.46875 C 2.890625 2.472656 2.875 2.476562 2.863281 2.480469 C 2.847656 2.484375 2.832031 2.484375 2.816406 2.488281 C 2.785156 2.488281 2.753906 2.492188 2.722656 2.488281 C 2.691406 2.488281 2.660156 2.484375 2.625 2.484375 C 2.59375 2.480469 2.5625 2.476562 2.535156 2.472656 C 2.503906 2.46875 2.472656 2.464844 2.441406 2.460938 C 2.386719 2.457031 2.332031 2.449219 2.285156 2.449219 C 2.238281 2.445312 2.199219 2.449219 2.175781 2.457031 C 2.164062 2.460938 2.152344 2.464844 2.148438 2.46875 L 2.144531 2.472656 C 2.15625 2.460938 2.167969 2.449219 2.171875 2.449219 C 2.195312 2.433594 2.234375 2.417969 2.285156 2.414062 C 2.332031 2.40625 2.386719 2.40625 2.449219 2.410156 C 2.476562 2.410156 2.507812 2.414062 2.539062 2.417969 C 2.570312 2.417969 2.601562 2.421875 2.632812 2.421875 C 2.664062 2.425781 2.695312 2.429688 2.726562 2.429688 C 2.753906 2.433594 2.785156 2.4375 2.8125 2.433594 C 2.828125 2.433594 2.839844 2.433594 2.851562 2.433594 C 2.867188 2.429688 2.878906 2.429688 2.890625 2.425781 C 2.914062 2.417969 2.9375 2.410156 2.957031 2.402344 C 2.976562 2.390625 2.996094 2.378906 3.007812 2.367188 C 3.023438 2.355469 3.035156 2.34375 3.042969 2.335938 C 3.0625 2.3125 3.070312 2.300781 3.070312 2.300781 C 3.070312 2.300781 3.066406 2.316406 3.054688 2.339844 "/><path style=" stroke:none;fill-rule:nonzero;fill:#000000;fill-opacity:1;" d="M 2.402344 6.375 C 2.378906 6.375 2.347656 6.371094 2.304688 6.363281 C 2.285156 6.359375 2.261719 6.355469 2.238281 6.347656 C 2.214844 6.335938 2.1875 6.328125 2.160156 6.316406 C 2.105469 6.292969 2.050781 6.253906 1.992188 6.210938 C 1.933594 6.167969 1.875 6.113281 1.820312 6.050781 C 1.765625 5.992188 1.710938 5.921875 1.660156 5.847656 C 1.648438 5.828125 1.632812 5.808594 1.621094 5.789062 L 1.605469 5.761719 L 1.585938 5.726562 C 1.578125 5.707031 1.566406 5.6875 1.554688 5.667969 C 1.546875 5.644531 1.535156 5.621094 1.527344 5.597656 C 1.488281 5.507812 1.460938 5.414062 1.445312 5.316406 C 1.429688 5.21875 1.421875 5.121094 1.421875 5.027344 C 1.425781 4.933594 1.433594 4.839844 1.445312 4.75 C 1.457031 4.660156 1.476562 4.578125 1.496094 4.496094 C 1.507812 4.457031 1.515625 4.417969 1.527344 4.382812 C 1.539062 4.34375 1.546875 4.3125 1.5625 4.277344 C 1.574219 4.242188 1.585938 4.210938 1.597656 4.179688 C 1.609375 4.152344 1.621094 4.121094 1.632812 4.097656 C 1.65625 4.042969 1.683594 4 1.703125 3.964844 C 1.722656 3.925781 1.742188 3.902344 1.753906 3.882812 C 1.765625 3.863281 1.773438 3.855469 1.773438 3.855469 C 1.773438 3.855469 1.757812 3.898438 1.730469 3.976562 C 1.722656 3.996094 1.714844 4.015625 1.710938 4.039062 C 1.703125 4.0625 1.691406 4.089844 1.6875 4.117188 C 1.679688 4.140625 1.671875 4.171875 1.664062 4.199219 C 1.65625 4.234375 1.652344 4.265625 1.644531 4.300781 C 1.628906 4.367188 1.617188 4.441406 1.605469 4.519531 C 1.59375 4.597656 1.585938 4.679688 1.574219 4.765625 C 1.570312 4.851562 1.566406 4.9375 1.566406 5.027344 C 1.570312 5.113281 1.578125 5.203125 1.589844 5.292969 C 1.605469 5.378906 1.628906 5.464844 1.660156 5.546875 C 1.667969 5.566406 1.675781 5.585938 1.683594 5.605469 C 1.691406 5.625 1.703125 5.644531 1.710938 5.664062 L 1.722656 5.691406 L 1.738281 5.722656 C 1.75 5.742188 1.761719 5.757812 1.769531 5.777344 C 1.8125 5.851562 1.859375 5.917969 1.90625 5.980469 C 1.953125 6.042969 2 6.101562 2.046875 6.148438 C 2.058594 6.160156 2.074219 6.171875 2.085938 6.179688 C 2.097656 6.191406 2.109375 6.203125 2.121094 6.214844 C 2.132812 6.222656 2.144531 6.234375 2.15625 6.242188 C 2.167969 6.25 2.179688 6.257812 2.1875 6.265625 C 2.210938 6.285156 2.234375 6.292969 2.253906 6.308594 C 2.277344 6.320312 2.296875 6.328125 2.3125 6.335938 C 2.332031 6.34375 2.347656 6.351562 2.363281 6.355469 C 2.378906 6.363281 2.390625 6.363281 2.402344 6.367188 C 2.425781 6.371094 2.433594 6.375 2.433594 6.375 C 2.433594 6.375 2.421875 6.375 2.402344 6.375 "/><path style=" stroke:none;fill-rule:nonzero;fill:#000000;fill-opacity:1;" d="M 3.640625 2.296875 C 3.640625 2.296875 3.605469 2.289062 3.585938 2.300781 C 3.585938 2.300781 3.46875 2.453125 3.269531 2.21875 C 3.269531 2.21875 3.453125 2.121094 3.640625 2.296875 "/><path style=" stroke:none;fill-rule:nonzero;fill:#000000;fill-opacity:1;" d="M 3.320312 3.238281 C 3.300781 3.234375 3.285156 3.222656 3.269531 3.214844 C 3.253906 3.203125 3.238281 3.195312 3.230469 3.183594 C 3.222656 3.179688 3.21875 3.171875 3.214844 3.167969 C 3.207031 3.160156 3.203125 3.152344 3.199219 3.148438 C 3.195312 3.140625 3.191406 3.136719 3.191406 3.132812 C 3.1875 3.125 3.183594 3.121094 3.179688 3.113281 C 3.171875 3.09375 3.167969 3.070312 3.160156 3.054688 C 3.160156 3.039062 3.160156 3.027344 3.15625 3.019531 C 3.15625 3.007812 3.15625 3.003906 3.15625 3.003906 C 3.15625 3 3.160156 2.996094 3.164062 2.996094 C 3.167969 2.996094 3.171875 2.996094 3.171875 3 C 3.171875 3 3.175781 3 3.179688 3.007812 C 3.1875 3.015625 3.191406 3.027344 3.203125 3.039062 C 3.214844 3.050781 3.222656 3.0625 3.238281 3.078125 C 3.246094 3.082031 3.25 3.089844 3.261719 3.097656 C 3.265625 3.097656 3.269531 3.101562 3.273438 3.105469 C 3.277344 3.109375 3.28125 3.113281 3.285156 3.113281 C 3.304688 3.125 3.324219 3.132812 3.347656 3.136719 C 3.367188 3.140625 3.394531 3.140625 3.421875 3.136719 C 3.449219 3.132812 3.476562 3.125 3.507812 3.113281 C 3.535156 3.101562 3.566406 3.089844 3.59375 3.074219 C 3.625 3.058594 3.65625 3.039062 3.683594 3.023438 C 3.710938 3.003906 3.738281 2.988281 3.765625 2.96875 C 3.792969 2.949219 3.816406 2.933594 3.84375 2.914062 C 3.867188 2.894531 3.890625 2.878906 3.910156 2.863281 C 3.953125 2.832031 3.988281 2.804688 4.011719 2.785156 C 4.035156 2.765625 4.050781 2.757812 4.050781 2.757812 C 4.054688 2.753906 4.058594 2.753906 4.0625 2.757812 C 4.066406 2.761719 4.066406 2.765625 4.0625 2.765625 C 4.0625 2.765625 4.054688 2.78125 4.035156 2.808594 C 4.015625 2.832031 3.988281 2.867188 3.953125 2.910156 C 3.917969 2.949219 3.875 2.996094 3.820312 3.039062 C 3.769531 3.085938 3.710938 3.128906 3.648438 3.167969 C 3.617188 3.1875 3.582031 3.203125 3.546875 3.21875 C 3.511719 3.234375 3.472656 3.242188 3.433594 3.25 C 3.398438 3.253906 3.355469 3.25 3.320312 3.238281 "/><path style=" stroke:none;fill-rule:nonzero;fill:#919191;fill-opacity:1;" d="M 4.054688 1.289062 C 4.03125 1.792969 3.78125 1.945312 3.78125 1.945312 C 3.761719 1.945312 3.738281 1.945312 3.714844 1.953125 C 3.78125 1.984375 3.847656 2.015625 3.917969 2.042969 C 3.992188 2.070312 4.0625 2.082031 4.136719 2.085938 C 4.179688 2.023438 4.207031 1.953125 4.21875 1.882812 C 4.25 1.671875 4.054688 1.289062 4.054688 1.289062 "/><path style=" stroke:none;fill-rule:nonzero;fill:#000000;fill-opacity:1;" d="M 4.054688 1.289062 L 4.03125 1.289062 C 4.019531 1.535156 3.953125 1.695312 3.890625 1.792969 C 3.859375 1.839844 3.828125 1.875 3.804688 1.894531 C 3.792969 1.90625 3.785156 1.914062 3.777344 1.917969 C 3.773438 1.921875 3.773438 1.921875 3.769531 1.921875 L 3.769531 1.925781 L 3.773438 1.929688 L 3.769531 1.925781 L 3.773438 1.929688 L 3.769531 1.925781 L 3.78125 1.945312 L 3.78125 1.921875 C 3.757812 1.921875 3.734375 1.921875 3.710938 1.929688 C 3.699219 1.929688 3.691406 1.9375 3.691406 1.949219 C 3.6875 1.957031 3.695312 1.96875 3.703125 1.972656 C 3.769531 2.003906 3.835938 2.039062 3.910156 2.066406 C 3.984375 2.09375 4.058594 2.105469 4.136719 2.109375 C 4.144531 2.109375 4.152344 2.105469 4.15625 2.097656 C 4.199219 2.035156 4.230469 1.960938 4.242188 1.886719 C 4.242188 1.867188 4.246094 1.851562 4.246094 1.832031 C 4.246094 1.71875 4.203125 1.582031 4.160156 1.472656 C 4.117188 1.359375 4.074219 1.277344 4.074219 1.277344 C 4.070312 1.269531 4.058594 1.261719 4.050781 1.265625 C 4.039062 1.265625 4.03125 1.277344 4.03125 1.289062 L 4.054688 1.289062 L 4.03125 1.300781 C 4.03125 1.300781 4.035156 1.300781 4.035156 1.300781 C 4.042969 1.320312 4.085938 1.40625 4.125 1.507812 C 4.160156 1.613281 4.199219 1.738281 4.195312 1.832031 C 4.195312 1.847656 4.195312 1.863281 4.195312 1.878906 C 4.183594 1.945312 4.15625 2.011719 4.117188 2.070312 L 4.136719 2.085938 L 4.136719 2.0625 C 4.066406 2.058594 3.996094 2.046875 3.925781 2.019531 C 3.855469 1.996094 3.792969 1.960938 3.726562 1.929688 L 3.714844 1.949219 L 3.71875 1.972656 C 3.742188 1.96875 3.761719 1.96875 3.78125 1.96875 C 3.785156 1.96875 3.789062 1.96875 3.792969 1.964844 C 3.796875 1.964844 3.863281 1.921875 3.929688 1.820312 C 3.996094 1.714844 4.066406 1.546875 4.078125 1.289062 L 4.054688 1.289062 L 4.03125 1.300781 L 4.054688 1.289062 "/></g></g></g></svg>