<svg xmlns="http://www.w3.org/2000/svg" xmlns:xlink="http://www.w3.org/1999/xlink" width="192" zoomAndPan="magnify" viewBox="0 0 144 449.999984" height="600" preserveAspectRatio="xMidYMid meet" version="1.2"><defs><clipPath id="e41e191064"><path d="M 19 0.199219 L 64 0.199219 L 64 19.160156 L 19 19.160156 Z M 19 0.199219 "/></clipPath><clipPath id="67ee65fad7"><rect x="0" width="45" y="0" height="20"/></clipPath><clipPath id="caca6275a8"><path d="M 8 13 L 12 13 L 12 17.855469 L 8 17.855469 Z M 8 13 "/></clipPath><clipPath id="606d912578"><path d="M 0.398438 11 L 5 11 L 5 17 L 0.398438 17 Z M 0.398438 11 "/></clipPath><clipPath id="dd77ece6e3"><path d="M 8 7 L 14.902344 7 L 14.902344 12 L 8 12 Z M 8 7 "/></clipPath><clipPath id="aeb3d05dac"><path d="M 1 0.9375 L 14 0.9375 L 14 17.855469 L 1 17.855469 Z M 1 0.9375 "/></clipPath><clipPath id="9d9bbd48a1"><path d="M 1 0.9375 L 14.902344 0.9375 L 14.902344 17.855469 L 1 17.855469 Z M 1 0.9375 "/></clipPath><clipPath id="bcd3c6290b"><rect x="0" width="64" y="0" height="20"/></clipPath></defs><g id="96200b7513"><g transform="matrix(1,0,0,1,14,1)"><g clip-path="url(#bcd3c6290b)"><g clip-rule="nonzero" clip-path="url(#e41e191064)"><g transform="matrix(1,0,0,1,19,-0.000000000000000222)"><g id="c2fc15f90f" clip-path="url(#67ee65fad7)"><g style="fill:#d9d9d9;fill-opacity:1;"><g transform="translate(1.083589, 14.181735)"><path style="stroke:none" d="M 3.59375 0.15625 C 2.914062 0.15625 2.320312 0.0195312 1.8125 -0.25 C 1.3125 -0.519531 0.925781 -0.894531 0.65625 -1.375 C 0.382812 -1.863281 0.25 -2.421875 0.25 -3.046875 C 0.25 -3.191406 0.253906 -3.328125 0.265625 -3.453125 C 0.285156 -3.585938 0.304688 -3.722656 0.328125 -3.859375 L 0.765625 -3.859375 C 0.742188 -3.734375 0.726562 -3.609375 0.71875 -3.484375 C 0.707031 -3.367188 0.703125 -3.25 0.703125 -3.125 C 0.703125 -2.289062 0.960938 -1.613281 1.484375 -1.09375 C 2.003906 -0.570312 2.738281 -0.3125 3.6875 -0.3125 C 4.34375 -0.3125 4.96875 -0.441406 5.5625 -0.703125 C 6.164062 -0.972656 6.675781 -1.367188 7.09375 -1.890625 C 7.519531 -2.410156 7.796875 -3.0625 7.921875 -3.84375 L 9.03125 -10.0625 L 4.765625 -10.0625 L 4.84375 -10.53125 L 9.578125 -10.53125 L 8.40625 -3.84375 C 8.257812 -3 7.945312 -2.273438 7.46875 -1.671875 C 6.988281 -1.078125 6.410156 -0.625 5.734375 -0.3125 C 5.054688 0 4.34375 0.15625 3.59375 0.15625 Z M 3.59375 0.15625 "/></g></g><g style="fill:#d9d9d9;fill-opacity:1;"><g transform="translate(11.596676, 14.181735)"><path style="stroke:none" d="M 5.359375 0.15625 C 4.359375 0.15625 3.523438 -0.0546875 2.859375 -0.484375 C 2.203125 -0.910156 1.71875 -1.46875 1.40625 -2.15625 C 1.09375 -2.851562 0.9375 -3.597656 0.9375 -4.390625 C 0.9375 -5.109375 1.066406 -5.832031 1.328125 -6.5625 C 1.585938 -7.300781 1.976562 -7.976562 2.5 -8.59375 C 3.03125 -9.21875 3.691406 -9.71875 4.484375 -10.09375 C 5.273438 -10.476562 6.195312 -10.671875 7.25 -10.671875 C 8.269531 -10.671875 9.109375 -10.472656 9.765625 -10.078125 C 10.429688 -9.691406 10.914062 -9.171875 11.21875 -8.515625 C 11.53125 -7.859375 11.6875 -7.140625 11.6875 -6.359375 C 11.6875 -6.015625 11.65625 -5.648438 11.59375 -5.265625 C 11.476562 -4.578125 11.25 -3.90625 10.90625 -3.25 C 10.570312 -2.601562 10.132812 -2.023438 9.59375 -1.515625 C 9.0625 -1.003906 8.441406 -0.597656 7.734375 -0.296875 C 7.023438 0.00390625 6.234375 0.15625 5.359375 0.15625 Z M 5.4375 -0.3125 C 6.226562 -0.3125 6.945312 -0.445312 7.59375 -0.71875 C 8.238281 -1 8.804688 -1.375 9.296875 -1.84375 C 9.785156 -2.3125 10.179688 -2.835938 10.484375 -3.421875 C 10.796875 -4.015625 11.007812 -4.628906 11.125 -5.265625 C 11.164062 -5.453125 11.191406 -5.632812 11.203125 -5.8125 C 11.210938 -6 11.21875 -6.175781 11.21875 -6.34375 C 11.21875 -7.0625 11.070312 -7.707031 10.78125 -8.28125 C 10.5 -8.863281 10.054688 -9.328125 9.453125 -9.671875 C 8.859375 -10.023438 8.09375 -10.203125 7.15625 -10.203125 C 6.25 -10.203125 5.4375 -10.035156 4.71875 -9.703125 C 4.007812 -9.367188 3.410156 -8.925781 2.921875 -8.375 C 2.441406 -7.820312 2.070312 -7.207031 1.8125 -6.53125 C 1.550781 -5.851562 1.421875 -5.175781 1.421875 -4.5 C 1.421875 -3.957031 1.492188 -3.4375 1.640625 -2.9375 C 1.796875 -2.445312 2.035156 -2.003906 2.359375 -1.609375 C 2.679688 -1.210938 3.09375 -0.894531 3.59375 -0.65625 C 4.101562 -0.425781 4.71875 -0.3125 5.4375 -0.3125 Z M 5.4375 -0.3125 "/></g></g><g style="fill:#d9d9d9;fill-opacity:1;"><g transform="translate(24.471065, 14.181735)"><path style="stroke:none" d="M 5.109375 -10.0625 L 1.171875 -10.0625 L 1.25 -10.53125 L 9.625 -10.53125 L 9.5625 -10.0625 L 5.59375 -10.0625 L 3.828125 0 L 3.34375 0 Z M 5.109375 -10.0625 "/></g></g><g style="fill:#d9d9d9;fill-opacity:1;"><g transform="translate(33.811023, 14.181735)"><path style="stroke:none" d="M 6.890625 -10.53125 L 7.390625 -10.53125 L 10.453125 0 L 0.125 0 Z M 9.84375 -0.453125 L 7.078125 -10.015625 L 0.9375 -0.453125 Z M 9.84375 -0.453125 "/></g></g></g></g></g><g clip-rule="nonzero" clip-path="url(#caca6275a8)"><path style=" stroke:none;fill-rule:nonzero;fill:#919191;fill-opacity:1;" d="M 10.539062 13.472656 C 10.175781 13.429688 9.683594 13.375 9.300781 13.507812 C 9.839844 13.914062 10.269531 14.460938 10.0625 15.046875 C 9.683594 16.125 8.914062 16.382812 9.308594 16.59375 C 9.308594 16.59375 8.246094 17.082031 8.246094 17.839844 L 10.003906 17.839844 C 10.003906 17.839844 10.21875 17.445312 10.003906 16.929688 C 10.003906 16.929688 10.429688 16.960938 10.492188 16.566406 C 10.550781 16.171875 10.410156 15.238281 11.277344 14.984375 C 11.585938 14.898438 11.636719 14.738281 11.65625 14.554688 C 11.195312 14.332031 10.792969 13.925781 10.539062 13.472656 "/><path style=" stroke:none;fill-rule:nonzero;fill:#000000;fill-opacity:1;" d="M 10.539062 13.472656 L 10.546875 13.425781 L 10.542969 13.425781 L 10.539062 13.472656 L 10.546875 13.425781 C 10.351562 13.402344 10.125 13.375 9.890625 13.375 C 9.683594 13.375 9.472656 13.398438 9.285156 13.460938 C 9.269531 13.46875 9.257812 13.484375 9.253906 13.5 C 9.25 13.519531 9.257812 13.535156 9.273438 13.546875 C 9.492188 13.710938 9.691406 13.902344 9.835938 14.105469 C 9.980469 14.304688 10.066406 14.523438 10.066406 14.742188 C 10.066406 14.835938 10.050781 14.933594 10.015625 15.03125 C 9.867188 15.457031 9.652344 15.753906 9.476562 15.96875 C 9.390625 16.078125 9.308594 16.167969 9.25 16.242188 C 9.222656 16.28125 9.195312 16.316406 9.179688 16.351562 C 9.160156 16.386719 9.148438 16.421875 9.148438 16.460938 C 9.148438 16.496094 9.160156 16.53125 9.1875 16.5625 C 9.210938 16.589844 9.242188 16.617188 9.285156 16.636719 L 9.308594 16.59375 L 9.285156 16.550781 C 9.285156 16.550781 9.015625 16.675781 8.746094 16.894531 C 8.609375 17.003906 8.472656 17.140625 8.371094 17.296875 C 8.265625 17.457031 8.195312 17.640625 8.195312 17.839844 C 8.195312 17.851562 8.203125 17.867188 8.210938 17.875 C 8.21875 17.882812 8.230469 17.890625 8.246094 17.890625 L 10.003906 17.890625 C 10.023438 17.890625 10.039062 17.878906 10.046875 17.863281 C 10.050781 17.859375 10.148438 17.675781 10.148438 17.394531 C 10.148438 17.253906 10.125 17.089844 10.050781 16.910156 L 10.003906 16.929688 L 10.003906 16.976562 C 10.003906 16.976562 10.011719 16.976562 10.027344 16.976562 C 10.074219 16.976562 10.183594 16.972656 10.292969 16.917969 C 10.347656 16.890625 10.402344 16.851562 10.445312 16.796875 C 10.492188 16.738281 10.523438 16.664062 10.539062 16.574219 C 10.554688 16.46875 10.558594 16.335938 10.566406 16.191406 C 10.578125 15.972656 10.605469 15.722656 10.707031 15.511719 C 10.757812 15.40625 10.824219 15.308594 10.917969 15.226562 C 11.011719 15.144531 11.132812 15.078125 11.289062 15.03125 C 11.371094 15.007812 11.4375 14.980469 11.488281 14.949219 C 11.570312 14.898438 11.621094 14.835938 11.652344 14.769531 C 11.683594 14.699219 11.699219 14.628906 11.703125 14.558594 C 11.707031 14.539062 11.695312 14.519531 11.675781 14.507812 C 11.226562 14.292969 10.832031 13.894531 10.582031 13.449219 C 10.574219 13.4375 10.5625 13.425781 10.546875 13.425781 L 10.539062 13.472656 L 10.5 13.496094 C 10.757812 13.957031 11.160156 14.371094 11.636719 14.597656 L 11.65625 14.554688 L 11.609375 14.546875 C 11.597656 14.636719 11.582031 14.714844 11.535156 14.777344 C 11.511719 14.808594 11.480469 14.839844 11.4375 14.867188 C 11.394531 14.894531 11.335938 14.917969 11.261719 14.9375 C 11.039062 15.003906 10.875 15.117188 10.757812 15.25 C 10.585938 15.457031 10.519531 15.710938 10.488281 15.953125 C 10.472656 16.070312 10.46875 16.1875 10.464844 16.292969 C 10.457031 16.394531 10.453125 16.488281 10.441406 16.558594 C 10.429688 16.636719 10.40625 16.691406 10.371094 16.734375 C 10.320312 16.800781 10.25 16.835938 10.183594 16.859375 C 10.117188 16.878906 10.054688 16.882812 10.027344 16.882812 C 10.019531 16.882812 10.015625 16.882812 10.011719 16.882812 L 10.007812 16.878906 C 9.992188 16.878906 9.976562 16.886719 9.964844 16.902344 C 9.957031 16.914062 9.953125 16.933594 9.960938 16.949219 C 10.027344 17.113281 10.050781 17.265625 10.050781 17.394531 C 10.050781 17.523438 10.027344 17.628906 10.007812 17.703125 C 9.996094 17.742188 9.984375 17.769531 9.976562 17.789062 C 9.972656 17.800781 9.96875 17.804688 9.964844 17.8125 L 9.964844 17.816406 L 9.960938 17.816406 L 10.003906 17.839844 L 10.003906 17.792969 L 8.246094 17.792969 L 8.246094 17.839844 L 8.292969 17.839844 C 8.292969 17.660156 8.355469 17.5 8.453125 17.351562 C 8.59375 17.132812 8.8125 16.953125 9 16.828125 C 9.089844 16.769531 9.171875 16.71875 9.230469 16.6875 C 9.261719 16.671875 9.285156 16.660156 9.300781 16.652344 C 9.3125 16.648438 9.316406 16.644531 9.320312 16.640625 L 9.328125 16.640625 C 9.34375 16.632812 9.355469 16.617188 9.355469 16.597656 C 9.355469 16.578125 9.347656 16.5625 9.332031 16.550781 C 9.296875 16.535156 9.273438 16.515625 9.261719 16.5 C 9.25 16.484375 9.246094 16.476562 9.246094 16.460938 C 9.246094 16.445312 9.25 16.425781 9.265625 16.398438 C 9.289062 16.351562 9.335938 16.289062 9.398438 16.214844 C 9.589844 15.988281 9.90625 15.640625 10.109375 15.0625 C 10.144531 14.957031 10.164062 14.847656 10.164062 14.742188 C 10.164062 14.496094 10.066406 14.261719 9.914062 14.046875 C 9.761719 13.832031 9.554688 13.640625 9.332031 13.46875 L 9.300781 13.507812 L 9.316406 13.554688 C 9.492188 13.492188 9.691406 13.472656 9.890625 13.472656 C 10.117188 13.472656 10.34375 13.5 10.535156 13.523438 L 10.539062 13.472656 L 10.5 13.496094 L 10.539062 13.472656 "/></g><g clip-rule="nonzero" clip-path="url(#606d912578)"><path style=" stroke:none;fill-rule:nonzero;fill:#919191;fill-opacity:1;" d="M 3.503906 13.074219 C 3.84375 13.074219 4.140625 12.945312 4.34375 12.824219 C 4.226562 12.773438 4.109375 12.714844 3.992188 12.640625 C 3.769531 12.492188 3.546875 12.34375 3.347656 12.164062 C 3.054688 11.90625 2.816406 11.609375 2.648438 11.265625 C 1.761719 11.277344 0.65625 11.859375 0.542969 12.179688 C 0.40625 12.574219 0.953125 13.148438 1.226562 13.664062 C 1.5 14.183594 1.242188 14.332031 1.304688 14.636719 C 1.363281 14.941406 1.667969 14.894531 1.667969 14.894531 C 1.453125 15.761719 2.0625 16.125 2.0625 16.125 C 2.609375 15.867188 2.910156 15.0625 2.910156 15.0625 C 2.730469 14.785156 2.214844 14.515625 2.214844 14.515625 C 2.378906 14.289062 2.304688 14 2.304688 14 C 1.910156 13.832031 1.667969 12.996094 1.667969 12.996094 C 1.667969 12.996094 1.847656 12.9375 2.199219 12.890625 C 2.546875 12.847656 2.867188 13.074219 3.503906 13.074219 "/><path style=" stroke:none;fill-rule:nonzero;fill:#000000;fill-opacity:1;" d="M 3.503906 13.074219 L 3.503906 13.121094 C 3.855469 13.121094 4.160156 12.988281 4.367188 12.863281 C 4.382812 12.855469 4.394531 12.835938 4.390625 12.820312 C 4.390625 12.800781 4.378906 12.785156 4.363281 12.777344 C 4.246094 12.726562 4.132812 12.671875 4.019531 12.597656 C 3.796875 12.453125 3.574219 12.304688 3.378906 12.128906 C 3.09375 11.871094 2.859375 11.578125 2.691406 11.242188 C 2.683594 11.226562 2.664062 11.214844 2.644531 11.214844 C 2.195312 11.222656 1.691406 11.375 1.285156 11.5625 C 1.082031 11.65625 0.902344 11.761719 0.765625 11.863281 C 0.699219 11.914062 0.640625 11.964844 0.59375 12.015625 C 0.546875 12.0625 0.515625 12.113281 0.496094 12.160156 C 0.480469 12.210938 0.472656 12.261719 0.472656 12.3125 C 0.472656 12.417969 0.503906 12.527344 0.554688 12.640625 C 0.625 12.808594 0.738281 12.984375 0.855469 13.164062 C 0.972656 13.339844 1.09375 13.519531 1.183594 13.6875 C 1.28125 13.871094 1.304688 14 1.304688 14.105469 C 1.304688 14.183594 1.292969 14.253906 1.277344 14.320312 C 1.261719 14.390625 1.246094 14.460938 1.246094 14.539062 C 1.246094 14.574219 1.246094 14.609375 1.253906 14.648438 C 1.269531 14.710938 1.292969 14.761719 1.320312 14.804688 C 1.367188 14.867188 1.425781 14.902344 1.480469 14.921875 C 1.539062 14.941406 1.589844 14.945312 1.625 14.945312 C 1.652344 14.945312 1.671875 14.945312 1.675781 14.941406 L 1.667969 14.894531 L 1.621094 14.882812 C 1.585938 15.015625 1.574219 15.136719 1.574219 15.25 C 1.574219 15.566406 1.6875 15.796875 1.804688 15.945312 C 1.917969 16.09375 2.035156 16.164062 2.035156 16.167969 C 2.050781 16.175781 2.066406 16.175781 2.082031 16.167969 C 2.371094 16.03125 2.585938 15.757812 2.734375 15.523438 C 2.878906 15.285156 2.957031 15.082031 2.957031 15.078125 C 2.964844 15.066406 2.960938 15.046875 2.953125 15.035156 C 2.851562 14.886719 2.675781 14.75 2.519531 14.644531 C 2.367188 14.539062 2.238281 14.472656 2.234375 14.472656 L 2.214844 14.515625 L 2.253906 14.542969 C 2.347656 14.414062 2.371094 14.265625 2.371094 14.15625 C 2.371094 14.058594 2.351562 13.988281 2.351562 13.988281 C 2.347656 13.972656 2.335938 13.960938 2.324219 13.953125 C 2.238281 13.917969 2.152344 13.839844 2.078125 13.742188 C 1.964844 13.597656 1.871094 13.40625 1.808594 13.253906 C 1.777344 13.175781 1.753906 13.109375 1.738281 13.058594 C 1.730469 13.035156 1.722656 13.015625 1.71875 13.003906 C 1.71875 12.996094 1.714844 12.992188 1.714844 12.988281 L 1.714844 12.984375 L 1.667969 12.996094 L 1.683594 13.042969 C 1.703125 13.039062 1.878906 12.980469 2.203125 12.941406 C 2.234375 12.9375 2.265625 12.933594 2.292969 12.933594 C 2.441406 12.933594 2.59375 12.980469 2.789062 13.027344 C 2.980469 13.074219 3.207031 13.121094 3.503906 13.121094 L 3.503906 13.023438 C 3.21875 13.023438 3 12.980469 2.8125 12.933594 C 2.621094 12.886719 2.460938 12.835938 2.292969 12.835938 C 2.261719 12.835938 2.226562 12.839844 2.191406 12.84375 C 1.839844 12.890625 1.65625 12.949219 1.652344 12.953125 C 1.628906 12.960938 1.613281 12.984375 1.621094 13.011719 C 1.621094 13.011719 1.683594 13.222656 1.792969 13.457031 C 1.851562 13.574219 1.917969 13.695312 2 13.800781 C 2.082031 13.90625 2.175781 13.996094 2.285156 14.042969 L 2.304688 14 L 2.257812 14.011719 C 2.257812 14.015625 2.273438 14.078125 2.273438 14.15625 C 2.273438 14.253906 2.253906 14.378906 2.175781 14.488281 C 2.167969 14.5 2.164062 14.511719 2.167969 14.527344 C 2.167969 14.539062 2.179688 14.550781 2.191406 14.558594 L 2.195312 14.5625 C 2.222656 14.578125 2.351562 14.644531 2.496094 14.742188 C 2.636719 14.839844 2.792969 14.96875 2.871094 15.089844 L 2.910156 15.0625 L 2.867188 15.042969 L 2.867188 15.046875 C 2.855469 15.070312 2.777344 15.269531 2.636719 15.492188 C 2.496094 15.714844 2.292969 15.960938 2.042969 16.082031 L 2.0625 16.125 L 2.085938 16.082031 L 2.085938 16.085938 L 2.085938 16.082031 L 2.085938 16.085938 L 2.085938 16.082031 C 2.082031 16.082031 1.980469 16.015625 1.875 15.878906 C 1.773438 15.742188 1.671875 15.539062 1.671875 15.25 C 1.671875 15.144531 1.683594 15.03125 1.714844 14.90625 C 1.71875 14.890625 1.714844 14.875 1.703125 14.863281 C 1.691406 14.851562 1.675781 14.84375 1.660156 14.847656 C 1.660156 14.847656 1.644531 14.847656 1.625 14.847656 C 1.585938 14.847656 1.527344 14.84375 1.472656 14.8125 C 1.445312 14.796875 1.421875 14.777344 1.398438 14.746094 C 1.378906 14.71875 1.359375 14.679688 1.351562 14.628906 C 1.34375 14.597656 1.34375 14.566406 1.34375 14.539062 C 1.34375 14.472656 1.355469 14.414062 1.371094 14.34375 C 1.386719 14.273438 1.402344 14.199219 1.402344 14.105469 C 1.402344 13.984375 1.371094 13.835938 1.269531 13.644531 C 1.144531 13.40625 0.96875 13.164062 0.824219 12.933594 C 0.753906 12.820312 0.6875 12.707031 0.644531 12.601562 C 0.597656 12.496094 0.570312 12.398438 0.570312 12.3125 C 0.570312 12.269531 0.578125 12.230469 0.589844 12.195312 C 0.601562 12.164062 0.625 12.125 0.664062 12.082031 C 0.734375 12.003906 0.847656 11.917969 0.988281 11.832031 C 1.40625 11.574219 2.082031 11.320312 2.648438 11.3125 L 2.648438 11.265625 L 2.605469 11.285156 C 2.777344 11.636719 3.019531 11.9375 3.316406 12.203125 C 3.515625 12.382812 3.742188 12.535156 3.96875 12.679688 C 4.085938 12.757812 4.203125 12.816406 4.324219 12.867188 L 4.34375 12.824219 L 4.320312 12.78125 C 4.121094 12.898438 3.832031 13.023438 3.503906 13.023438 L 3.503906 13.074219 "/></g><g clip-rule="nonzero" clip-path="url(#dd77ece6e3)"><path style=" stroke:none;fill-rule:nonzero;fill:#919191;fill-opacity:1;" d="M 13.371094 7.972656 C 12.292969 7.972656 12.1875 8.277344 11.230469 8.277344 C 10.660156 8.277344 10.304688 8.195312 10.113281 8.128906 C 10.175781 7.894531 10.074219 7.597656 9.746094 7.453125 C 9.425781 7.316406 8.953125 7.488281 8.785156 7.09375 C 8.796875 7.402344 8.910156 7.71875 9.140625 7.9375 C 9.027344 7.890625 8.929688 7.804688 8.855469 7.710938 C 8.855469 7.714844 9 8.175781 9.378906 8.375 C 9.625 8.507812 9.828125 8.480469 9.957031 8.375 C 10.261719 8.535156 10.785156 8.6875 11.292969 8.6875 C 11.914062 8.6875 12.6875 8.429688 13.296875 8.429688 C 13.902344 8.429688 14.160156 8.792969 14.160156 9.082031 C 14.160156 9.371094 14.023438 10.476562 12.492188 10.476562 C 12.214844 10.476562 11.945312 10.445312 11.691406 10.398438 C 11.90625 10.503906 12.128906 10.601562 12.363281 10.679688 C 12.730469 10.804688 13.085938 10.945312 13.386719 11.1875 C 14.46875 10.972656 14.859375 9.730469 14.859375 9.226562 C 14.859375 8.671875 14.449219 7.972656 13.371094 7.972656 "/><path style=" stroke:none;fill-rule:nonzero;fill:#000000;fill-opacity:1;" d="M 13.371094 7.972656 L 13.371094 7.925781 C 12.828125 7.925781 12.523438 8 12.242188 8.078125 C 11.960938 8.152344 11.703125 8.226562 11.230469 8.226562 C 10.664062 8.226562 10.316406 8.148438 10.128906 8.085938 L 10.113281 8.128906 L 10.160156 8.140625 C 10.171875 8.097656 10.179688 8.046875 10.179688 7.996094 C 10.179688 7.886719 10.148438 7.769531 10.078125 7.667969 C 10.011719 7.5625 9.90625 7.472656 9.765625 7.410156 C 9.675781 7.371094 9.582031 7.355469 9.488281 7.347656 C 9.347656 7.332031 9.207031 7.332031 9.09375 7.296875 C 9.035156 7.28125 8.984375 7.257812 8.941406 7.222656 C 8.898438 7.1875 8.859375 7.140625 8.832031 7.074219 C 8.824219 7.050781 8.800781 7.039062 8.777344 7.042969 C 8.753906 7.050781 8.738281 7.070312 8.738281 7.09375 C 8.746094 7.414062 8.863281 7.742188 9.109375 7.972656 L 9.140625 7.9375 L 9.160156 7.890625 C 9.058594 7.847656 8.964844 7.769531 8.894531 7.679688 C 8.878906 7.664062 8.855469 7.65625 8.835938 7.664062 C 8.816406 7.671875 8.804688 7.691406 8.804688 7.710938 L 8.808594 7.71875 L 8.808594 7.726562 C 8.8125 7.738281 8.824219 7.773438 8.847656 7.824219 C 8.878906 7.902344 8.933594 8.011719 9.015625 8.121094 C 9.101562 8.230469 9.210938 8.339844 9.355469 8.417969 C 9.476562 8.484375 9.59375 8.511719 9.695312 8.511719 C 9.808594 8.511719 9.910156 8.472656 9.988281 8.410156 L 9.957031 8.375 L 9.9375 8.417969 C 10.089844 8.5 10.300781 8.578125 10.535156 8.636719 C 10.773438 8.695312 11.035156 8.734375 11.292969 8.734375 C 11.609375 8.734375 11.960938 8.667969 12.308594 8.605469 C 12.65625 8.539062 13 8.476562 13.296875 8.476562 C 13.589844 8.476562 13.792969 8.566406 13.921875 8.683594 C 14.054688 8.800781 14.113281 8.953125 14.113281 9.082031 C 14.113281 9.21875 14.078125 9.558594 13.859375 9.859375 C 13.753906 10.007812 13.597656 10.152344 13.378906 10.257812 C 13.15625 10.359375 12.867188 10.429688 12.492188 10.429688 C 12.21875 10.429688 11.953125 10.398438 11.699219 10.351562 C 11.675781 10.34375 11.652344 10.359375 11.644531 10.382812 C 11.636719 10.40625 11.648438 10.429688 11.667969 10.441406 C 11.886719 10.546875 12.113281 10.644531 12.347656 10.726562 C 12.714844 10.851562 13.0625 10.988281 13.355469 11.226562 C 13.367188 11.234375 13.382812 11.238281 13.394531 11.238281 C 13.675781 11.179688 13.910156 11.058594 14.101562 10.898438 C 14.394531 10.660156 14.59375 10.339844 14.722656 10.03125 C 14.851562 9.71875 14.90625 9.421875 14.90625 9.226562 C 14.90625 8.9375 14.800781 8.613281 14.554688 8.359375 C 14.308594 8.101562 13.921875 7.925781 13.371094 7.925781 L 13.371094 8.023438 C 13.898438 8.023438 14.257812 8.191406 14.484375 8.425781 C 14.710938 8.660156 14.808594 8.960938 14.808594 9.226562 C 14.808594 9.34375 14.785156 9.515625 14.734375 9.703125 C 14.65625 9.984375 14.511719 10.304688 14.289062 10.574219 C 14.066406 10.84375 13.769531 11.0625 13.378906 11.140625 L 13.386719 11.1875 L 13.417969 11.152344 C 13.109375 10.902344 12.746094 10.761719 12.378906 10.632812 C 12.148438 10.554688 11.925781 10.460938 11.710938 10.355469 L 11.691406 10.398438 L 11.679688 10.445312 C 11.941406 10.496094 12.210938 10.527344 12.492188 10.527344 C 12.878906 10.527344 13.183594 10.457031 13.417969 10.34375 C 13.773438 10.175781 13.972656 9.914062 14.082031 9.667969 C 14.191406 9.421875 14.210938 9.195312 14.210938 9.082031 C 14.210938 8.921875 14.136719 8.746094 13.988281 8.609375 C 13.839844 8.472656 13.609375 8.378906 13.296875 8.378906 C 12.984375 8.378906 12.636719 8.445312 12.289062 8.507812 C 11.941406 8.574219 11.597656 8.636719 11.292969 8.636719 C 11.042969 8.636719 10.789062 8.601562 10.558594 8.542969 C 10.332031 8.488281 10.128906 8.410156 9.980469 8.332031 C 9.964844 8.320312 9.945312 8.324219 9.929688 8.335938 C 9.867188 8.386719 9.789062 8.414062 9.695312 8.414062 C 9.609375 8.414062 9.511719 8.390625 9.402344 8.332031 C 9.222656 8.238281 9.097656 8.082031 9.015625 7.945312 C 8.976562 7.875 8.945312 7.816406 8.929688 7.769531 C 8.917969 7.746094 8.914062 7.726562 8.90625 7.714844 C 8.90625 7.710938 8.902344 7.703125 8.902344 7.703125 L 8.902344 7.699219 L 8.890625 7.703125 L 8.902344 7.699219 L 8.890625 7.703125 L 8.902344 7.699219 L 8.863281 7.707031 L 8.902344 7.699219 L 8.863281 7.707031 L 8.902344 7.699219 L 8.855469 7.710938 L 8.902344 7.707031 L 8.902344 7.699219 L 8.855469 7.710938 L 8.902344 7.707031 L 8.855469 7.710938 L 8.816406 7.738281 C 8.894531 7.839844 9 7.929688 9.121094 7.980469 C 9.144531 7.988281 9.167969 7.980469 9.183594 7.960938 C 9.195312 7.941406 9.191406 7.917969 9.175781 7.898438 C 8.953125 7.695312 8.84375 7.390625 8.835938 7.089844 L 8.785156 7.09375 L 8.742188 7.109375 C 8.789062 7.21875 8.855469 7.292969 8.9375 7.339844 C 9.0625 7.410156 9.203125 7.421875 9.34375 7.433594 C 9.480469 7.441406 9.617188 7.453125 9.726562 7.5 C 9.851562 7.554688 9.941406 7.632812 9.996094 7.71875 C 10.054688 7.808594 10.082031 7.902344 10.082031 7.996094 C 10.082031 8.039062 10.074219 8.078125 10.066406 8.117188 C 10.058594 8.144531 10.074219 8.167969 10.097656 8.175781 C 10.296875 8.242188 10.65625 8.324219 11.230469 8.324219 C 11.714844 8.324219 11.988281 8.246094 12.269531 8.171875 C 12.546875 8.097656 12.835938 8.023438 13.371094 8.023438 L 13.371094 7.972656 "/></g><g clip-rule="nonzero" clip-path="url(#aeb3d05dac)"><path style=" stroke:none;fill-rule:nonzero;fill:#919191;fill-opacity:1;" d="M 13.628906 15.5625 C 13.902344 15.199219 14.386719 14.316406 13.265625 13.527344 C 13.265625 13.527344 14.054688 11.796875 13.050781 11.222656 C 12.050781 10.644531 8.195312 9.824219 7.222656 6.363281 C 7.222656 6.363281 7.476562 6.363281 7.894531 5.785156 C 8.316406 5.210938 8.527344 4.96875 8.863281 4.96875 C 9.195312 4.96875 9.289062 5.300781 9.5 4.96875 C 9.710938 4.632812 9.710938 4.269531 9.589844 4.027344 C 9.46875 3.78125 9.347656 3.480469 8.558594 3.480469 C 7.847656 3.480469 7.132812 2.882812 6.554688 2.949219 C 6.507812 2.894531 6.464844 2.84375 6.417969 2.804688 C 6.417969 2.804688 6.167969 2.0625 7.003906 0.992188 C 7.003906 0.992188 5.9375 1.433594 5.636719 1.917969 C 5.367188 2.351562 5.355469 2.964844 5.722656 3.414062 C 5.679688 3.445312 5.640625 3.480469 5.597656 3.515625 C 5.492188 3.527344 5.375 3.546875 5.246094 3.574219 C 4.910156 3.636719 4.578125 3.914062 4.371094 4.136719 L 4.363281 4.144531 L 4.363281 4.148438 L 4.363281 4.144531 C 4.160156 4.375 4.046875 4.582031 4.046875 4.582031 C 4.117188 4.554688 4.296875 4.566406 4.523438 4.597656 C 3.5625 5.765625 2.609375 7.546875 2.609375 9.914062 C 2.609375 11.78125 4.429688 12.769531 4.429688 12.769531 C 4.429688 12.769531 4.671875 13.742188 3.882812 14.378906 C 3.09375 15.015625 2.488281 16.382812 2.882812 16.59375 C 2.882812 16.59375 1.820312 17.082031 1.820312 17.839844 L 3.578125 17.839844 C 3.578125 17.839844 3.792969 17.445312 3.578125 16.929688 C 3.578125 16.929688 4.003906 16.960938 4.066406 16.566406 C 4.125 16.171875 3.578125 15.898438 4.246094 15.289062 C 4.914062 14.683594 5.21875 14.5 5.460938 14.136719 C 5.484375 14.105469 5.503906 14.074219 5.527344 14.046875 C 5.609375 13.894531 5.75 13.777344 5.882812 13.667969 C 6.066406 13.519531 6.25 13.371094 6.441406 13.230469 C 6.765625 12.988281 7.128906 12.816406 7.5 12.660156 C 6.996094 12.953125 6.453125 13.265625 6.167969 13.773438 C 6.167969 13.773438 6.421875 13.921875 7.191406 13.921875 C 8.148438 13.921875 8.902344 13.128906 10.433594 13.308594 C 10.210938 12.890625 10.023438 12.4375 10.066406 11.964844 C 10.097656 12.09375 10.113281 12.230469 10.144531 12.363281 C 10.1875 12.535156 10.269531 12.699219 10.351562 12.855469 C 10.523438 13.179688 10.730469 13.5 10.96875 13.78125 C 11.09375 13.925781 11.226562 14.0625 11.367188 14.191406 C 11.417969 14.238281 11.46875 14.289062 11.523438 14.328125 C 11.609375 14.390625 11.714844 14.417969 11.796875 14.484375 C 11.859375 14.535156 11.90625 14.605469 11.972656 14.660156 C 12.046875 14.726562 12.121094 14.789062 12.199219 14.851562 C 12.199219 14.851562 12.515625 15.050781 12.71875 15.015625 C 12.71875 15.015625 13.296875 15.835938 12.71875 16.65625 C 12.71875 16.65625 11.898438 17.113281 11.988281 17.839844 L 13.417969 17.839844 L 13.417969 16.929688 C 13.417969 16.929688 13.78125 17.019531 13.78125 16.59375 C 13.78125 16.171875 13.355469 15.921875 13.628906 15.5625 "/></g><g clip-rule="nonzero" clip-path="url(#9d9bbd48a1)"><path style=" stroke:none;fill-rule:nonzero;fill:#000000;fill-opacity:1;" d="M 13.628906 15.5625 L 13.667969 15.589844 C 13.8125 15.398438 14.019531 15.058594 14.019531 14.660156 C 14.019531 14.472656 13.976562 14.277344 13.863281 14.078125 C 13.75 13.878906 13.566406 13.679688 13.292969 13.488281 L 13.265625 13.527344 L 13.308594 13.550781 C 13.308594 13.546875 13.382812 13.382812 13.460938 13.140625 C 13.535156 12.894531 13.609375 12.570312 13.609375 12.246094 C 13.609375 12.039062 13.578125 11.832031 13.496094 11.648438 C 13.414062 11.460938 13.28125 11.296875 13.078125 11.179688 C 12.820312 11.03125 12.390625 10.871094 11.875 10.660156 C 11.097656 10.34375 10.128906 9.910156 9.261719 9.230469 C 8.394531 8.554688 7.632812 7.636719 7.269531 6.351562 L 7.222656 6.363281 L 7.222656 6.414062 C 7.234375 6.414062 7.304688 6.410156 7.425781 6.332031 C 7.550781 6.257812 7.722656 6.109375 7.933594 5.816406 C 8.144531 5.527344 8.300781 5.324219 8.445312 5.195312 C 8.515625 5.132812 8.582031 5.085938 8.648438 5.058594 C 8.714844 5.03125 8.785156 5.015625 8.863281 5.015625 C 8.964844 5.015625 9.039062 5.046875 9.105469 5.085938 C 9.140625 5.101562 9.171875 5.121094 9.207031 5.136719 C 9.238281 5.152344 9.277344 5.164062 9.316406 5.164062 C 9.355469 5.164062 9.394531 5.148438 9.433594 5.121094 C 9.46875 5.09375 9.503906 5.050781 9.542969 4.992188 C 9.667969 4.796875 9.722656 4.585938 9.722656 4.394531 C 9.722656 4.25 9.691406 4.117188 9.636719 4.003906 C 9.605469 3.945312 9.574219 3.878906 9.53125 3.8125 C 9.464844 3.710938 9.375 3.613281 9.222656 3.542969 C 9.070312 3.472656 8.859375 3.429688 8.558594 3.429688 C 8.234375 3.429688 7.902344 3.300781 7.578125 3.167969 C 7.253906 3.035156 6.941406 2.894531 6.644531 2.894531 C 6.613281 2.894531 6.578125 2.898438 6.546875 2.902344 L 6.554688 2.949219 L 6.589844 2.917969 C 6.546875 2.863281 6.5 2.808594 6.449219 2.769531 L 6.417969 2.804688 L 6.464844 2.789062 L 6.453125 2.792969 L 6.464844 2.789062 L 6.453125 2.792969 L 6.464844 2.789062 C 6.464844 2.789062 6.429688 2.6875 6.429688 2.511719 C 6.429688 2.210938 6.527344 1.683594 7.042969 1.019531 C 7.054688 1.003906 7.058594 0.976562 7.042969 0.960938 C 7.03125 0.941406 7.007812 0.9375 6.984375 0.945312 C 6.984375 0.945312 6.714844 1.058594 6.410156 1.230469 C 6.257812 1.316406 6.09375 1.417969 5.949219 1.53125 C 5.804688 1.640625 5.675781 1.761719 5.597656 1.890625 C 5.464844 2.101562 5.390625 2.355469 5.390625 2.613281 C 5.390625 2.902344 5.484375 3.199219 5.683594 3.445312 L 5.722656 3.414062 L 5.691406 3.375 C 5.652344 3.40625 5.609375 3.441406 5.566406 3.476562 L 5.597656 3.515625 L 5.589844 3.464844 C 5.484375 3.480469 5.367188 3.5 5.238281 3.523438 C 5.058594 3.558594 4.886719 3.648438 4.734375 3.753906 C 4.578125 3.863281 4.441406 3.992188 4.335938 4.105469 L 4.371094 4.136719 L 4.339844 4.101562 L 4.328125 4.113281 C 4.308594 4.132812 4.308594 4.160156 4.328125 4.179688 C 4.34375 4.199219 4.375 4.199219 4.394531 4.183594 L 4.363281 4.148438 L 4.324219 4.113281 C 4.121094 4.347656 4.003906 4.554688 4.003906 4.558594 C 3.992188 4.574219 3.996094 4.597656 4.007812 4.613281 C 4.023438 4.628906 4.042969 4.632812 4.0625 4.625 C 4.078125 4.621094 4.117188 4.617188 4.171875 4.617188 C 4.257812 4.617188 4.378906 4.625 4.515625 4.648438 L 4.523438 4.597656 L 4.484375 4.566406 C 3.519531 5.738281 2.558594 7.53125 2.558594 9.914062 C 2.558594 10.863281 3.023438 11.589844 3.484375 12.074219 C 3.945312 12.5625 4.402344 12.8125 4.40625 12.8125 L 4.429688 12.769531 L 4.382812 12.78125 C 4.386719 12.796875 4.417969 12.929688 4.417969 13.121094 C 4.417969 13.285156 4.394531 13.496094 4.3125 13.710938 C 4.230469 13.929688 4.089844 14.148438 3.851562 14.339844 C 3.539062 14.597656 3.253906 14.960938 3.046875 15.328125 C 2.941406 15.507812 2.859375 15.691406 2.800781 15.859375 C 2.742188 16.03125 2.710938 16.183594 2.710938 16.316406 C 2.710938 16.386719 2.71875 16.453125 2.742188 16.507812 C 2.765625 16.5625 2.804688 16.609375 2.859375 16.636719 L 2.882812 16.59375 L 2.863281 16.550781 C 2.859375 16.550781 2.589844 16.675781 2.320312 16.894531 C 2.183594 17.003906 2.046875 17.140625 1.945312 17.296875 C 1.839844 17.457031 1.769531 17.640625 1.769531 17.839844 C 1.769531 17.851562 1.777344 17.867188 1.785156 17.875 C 1.792969 17.882812 1.804688 17.890625 1.820312 17.890625 L 3.578125 17.890625 C 3.597656 17.890625 3.613281 17.878906 3.621094 17.863281 C 3.625 17.859375 3.722656 17.675781 3.722656 17.394531 C 3.722656 17.253906 3.699219 17.089844 3.625 16.910156 L 3.578125 16.929688 L 3.578125 16.976562 C 3.578125 16.976562 3.585938 16.976562 3.601562 16.976562 C 3.648438 16.976562 3.757812 16.972656 3.867188 16.917969 C 3.921875 16.890625 3.976562 16.851562 4.019531 16.796875 C 4.066406 16.738281 4.097656 16.664062 4.113281 16.574219 C 4.117188 16.546875 4.121094 16.523438 4.121094 16.5 C 4.117188 16.382812 4.074219 16.277344 4.035156 16.175781 C 3.996094 16.074219 3.960938 15.976562 3.960938 15.871094 C 3.960938 15.800781 3.976562 15.722656 4.027344 15.632812 C 4.074219 15.542969 4.152344 15.441406 4.28125 15.324219 C 4.613281 15.023438 4.855469 14.828125 5.046875 14.660156 C 5.238281 14.492188 5.378906 14.351562 5.503906 14.164062 C 5.523438 14.132812 5.542969 14.101562 5.566406 14.074219 C 5.582031 14.054688 5.578125 14.023438 5.554688 14.007812 C 5.535156 13.992188 5.507812 13.996094 5.488281 14.015625 L 5.527344 14.046875 L 5.570312 14.070312 C 5.644531 13.925781 5.78125 13.8125 5.914062 13.703125 C 6.097656 13.554688 6.28125 13.40625 6.46875 13.269531 C 6.789062 13.03125 7.148438 12.863281 7.519531 12.707031 L 7.5 12.660156 L 7.476562 12.617188 C 7.222656 12.765625 6.960938 12.917969 6.722656 13.097656 C 6.484375 13.277344 6.273438 13.488281 6.125 13.75 C 6.113281 13.773438 6.121094 13.800781 6.144531 13.816406 C 6.152344 13.820312 6.414062 13.972656 7.191406 13.972656 C 7.636719 13.972656 8.03125 13.808594 8.464844 13.648438 C 8.898438 13.488281 9.375 13.332031 9.988281 13.332031 C 10.128906 13.332031 10.273438 13.339844 10.425781 13.355469 C 10.445312 13.359375 10.460938 13.351562 10.472656 13.335938 C 10.484375 13.320312 10.484375 13.300781 10.476562 13.285156 C 10.277344 12.910156 10.105469 12.511719 10.109375 12.097656 C 10.109375 12.054688 10.109375 12.011719 10.113281 11.96875 L 10.066406 11.964844 L 10.015625 11.976562 C 10.050781 12.101562 10.066406 12.238281 10.097656 12.375 C 10.140625 12.554688 10.226562 12.722656 10.308594 12.875 C 10.484375 13.207031 10.6875 13.527344 10.933594 13.8125 C 11.058594 13.960938 11.195312 14.097656 11.335938 14.226562 C 11.382812 14.273438 11.433594 14.324219 11.496094 14.367188 C 11.542969 14.402344 11.59375 14.425781 11.640625 14.449219 C 11.6875 14.472656 11.730469 14.492188 11.765625 14.523438 C 11.820312 14.566406 11.871094 14.636719 11.9375 14.699219 C 12.015625 14.761719 12.089844 14.824219 12.167969 14.886719 L 12.171875 14.890625 C 12.175781 14.890625 12.242188 14.933594 12.335938 14.980469 C 12.433594 15.023438 12.554688 15.070312 12.667969 15.070312 C 12.6875 15.070312 12.707031 15.066406 12.726562 15.066406 L 12.71875 15.015625 L 12.679688 15.042969 L 12.679688 15.046875 C 12.691406 15.0625 12.925781 15.414062 12.925781 15.867188 C 12.925781 16.101562 12.863281 16.363281 12.679688 16.628906 L 12.71875 16.65625 L 12.695312 16.613281 C 12.691406 16.613281 12.503906 16.71875 12.316406 16.910156 C 12.222656 17.003906 12.125 17.121094 12.054688 17.257812 C 11.984375 17.394531 11.933594 17.550781 11.933594 17.726562 C 11.933594 17.765625 11.9375 17.804688 11.941406 17.847656 C 11.945312 17.871094 11.964844 17.890625 11.988281 17.890625 L 13.417969 17.890625 C 13.429688 17.890625 13.441406 17.882812 13.449219 17.875 C 13.460938 17.867188 13.464844 17.851562 13.464844 17.839844 L 13.464844 16.929688 L 13.417969 16.929688 L 13.40625 16.976562 C 13.40625 16.976562 13.445312 16.984375 13.496094 16.984375 C 13.554688 16.984375 13.636719 16.972656 13.710938 16.914062 C 13.746094 16.886719 13.777344 16.84375 13.796875 16.792969 C 13.816406 16.738281 13.828125 16.675781 13.828125 16.59375 C 13.828125 16.421875 13.765625 16.277344 13.703125 16.152344 C 13.671875 16.089844 13.644531 16.027344 13.621094 15.972656 C 13.601562 15.914062 13.585938 15.863281 13.585938 15.808594 C 13.585938 15.742188 13.605469 15.671875 13.667969 15.589844 L 13.628906 15.5625 L 13.589844 15.53125 C 13.519531 15.625 13.488281 15.71875 13.488281 15.808594 C 13.488281 15.878906 13.507812 15.945312 13.53125 16.007812 C 13.566406 16.101562 13.617188 16.191406 13.660156 16.289062 C 13.699219 16.386719 13.734375 16.484375 13.734375 16.59375 C 13.734375 16.664062 13.722656 16.71875 13.707031 16.757812 C 13.683594 16.816406 13.648438 16.84375 13.609375 16.863281 C 13.574219 16.882812 13.53125 16.890625 13.496094 16.890625 C 13.476562 16.890625 13.457031 16.886719 13.445312 16.886719 C 13.441406 16.882812 13.433594 16.882812 13.433594 16.882812 L 13.429688 16.882812 L 13.425781 16.894531 L 13.429688 16.882812 L 13.425781 16.894531 L 13.429688 16.882812 C 13.414062 16.878906 13.398438 16.882812 13.386719 16.890625 C 13.375 16.898438 13.367188 16.914062 13.367188 16.929688 L 13.367188 17.792969 L 11.988281 17.792969 L 11.988281 17.839844 L 12.039062 17.835938 C 12.035156 17.796875 12.03125 17.761719 12.03125 17.726562 C 12.03125 17.570312 12.074219 17.429688 12.140625 17.304688 C 12.238281 17.113281 12.390625 16.960938 12.515625 16.859375 C 12.578125 16.804688 12.636719 16.765625 12.675781 16.738281 C 12.699219 16.726562 12.714844 16.714844 12.726562 16.707031 C 12.730469 16.703125 12.734375 16.703125 12.738281 16.699219 L 12.742188 16.699219 C 12.75 16.695312 12.753906 16.691406 12.757812 16.683594 C 12.957031 16.402344 13.023438 16.117188 13.023438 15.867188 C 13.023438 15.363281 12.761719 14.992188 12.757812 14.988281 C 12.746094 14.972656 12.730469 14.964844 12.710938 14.96875 C 12.699219 14.972656 12.683594 14.972656 12.667969 14.972656 C 12.582031 14.972656 12.46875 14.933594 12.378906 14.890625 C 12.332031 14.871094 12.296875 14.847656 12.269531 14.835938 C 12.253906 14.828125 12.242188 14.820312 12.234375 14.816406 L 12.226562 14.808594 L 12.199219 14.851562 L 12.230469 14.8125 C 12.152344 14.75 12.078125 14.6875 12.003906 14.625 C 11.945312 14.574219 11.898438 14.503906 11.828125 14.445312 C 11.78125 14.410156 11.730469 14.382812 11.683594 14.359375 C 11.636719 14.339844 11.589844 14.316406 11.550781 14.289062 C 11.5 14.253906 11.453125 14.203125 11.402344 14.15625 C 11.261719 14.027344 11.128906 13.890625 11.007812 13.75 C 10.769531 13.472656 10.566406 13.15625 10.394531 12.832031 C 10.3125 12.675781 10.230469 12.515625 10.195312 12.355469 C 10.164062 12.222656 10.148438 12.085938 10.113281 11.949219 C 10.105469 11.929688 10.085938 11.914062 10.0625 11.914062 C 10.035156 11.917969 10.019531 11.933594 10.015625 11.957031 C 10.011719 12.003906 10.011719 12.050781 10.011719 12.097656 C 10.011719 12.535156 10.1875 12.949219 10.390625 13.332031 L 10.433594 13.308594 L 10.4375 13.261719 C 10.28125 13.242188 10.132812 13.234375 9.988281 13.234375 C 9.359375 13.234375 8.867188 13.394531 8.429688 13.558594 C 7.992188 13.71875 7.609375 13.875 7.191406 13.875 C 6.808594 13.875 6.558594 13.835938 6.402344 13.800781 C 6.324219 13.78125 6.273438 13.765625 6.238281 13.75 C 6.222656 13.746094 6.210938 13.738281 6.203125 13.734375 L 6.195312 13.730469 L 6.179688 13.753906 L 6.195312 13.730469 L 6.179688 13.753906 L 6.195312 13.730469 L 6.167969 13.773438 L 6.210938 13.796875 C 6.347656 13.550781 6.550781 13.351562 6.78125 13.175781 C 7.011719 13 7.273438 12.851562 7.523438 12.703125 C 7.546875 12.691406 7.554688 12.664062 7.542969 12.640625 C 7.53125 12.617188 7.503906 12.605469 7.480469 12.617188 C 7.109375 12.773438 6.742188 12.945312 6.410156 13.191406 C 6.21875 13.332031 6.035156 13.480469 5.851562 13.628906 C 5.71875 13.738281 5.574219 13.859375 5.484375 14.023438 C 5.472656 14.046875 5.476562 14.074219 5.496094 14.085938 C 5.519531 14.101562 5.546875 14.097656 5.5625 14.078125 L 5.527344 14.046875 L 5.488281 14.015625 C 5.464844 14.046875 5.445312 14.078125 5.421875 14.109375 C 5.304688 14.285156 5.171875 14.417969 4.980469 14.585938 C 4.792969 14.75 4.550781 14.949219 4.214844 15.253906 C 4.082031 15.375 3.996094 15.484375 3.941406 15.585938 C 3.886719 15.6875 3.863281 15.785156 3.863281 15.871094 C 3.863281 16 3.90625 16.109375 3.945312 16.210938 C 3.984375 16.3125 4.023438 16.40625 4.023438 16.5 C 4.023438 16.519531 4.019531 16.539062 4.019531 16.558594 C 4.003906 16.636719 3.980469 16.691406 3.945312 16.734375 C 3.894531 16.800781 3.824219 16.835938 3.757812 16.859375 C 3.691406 16.878906 3.628906 16.882812 3.601562 16.882812 C 3.59375 16.882812 3.589844 16.882812 3.585938 16.882812 L 3.585938 16.878906 L 3.582031 16.878906 C 3.566406 16.878906 3.550781 16.886719 3.539062 16.902344 C 3.53125 16.914062 3.527344 16.933594 3.535156 16.949219 C 3.601562 17.113281 3.625 17.265625 3.625 17.394531 C 3.625 17.523438 3.601562 17.628906 3.582031 17.703125 C 3.570312 17.742188 3.558594 17.769531 3.550781 17.789062 C 3.546875 17.800781 3.542969 17.804688 3.539062 17.8125 L 3.539062 17.816406 L 3.578125 17.839844 L 3.578125 17.792969 L 1.820312 17.792969 L 1.820312 17.839844 L 1.867188 17.839844 C 1.867188 17.660156 1.929688 17.5 2.027344 17.351562 C 2.167969 17.132812 2.390625 16.953125 2.574219 16.828125 C 2.664062 16.769531 2.746094 16.71875 2.808594 16.6875 C 2.835938 16.671875 2.859375 16.660156 2.878906 16.652344 C 2.886719 16.648438 2.890625 16.644531 2.894531 16.640625 L 2.902344 16.640625 C 2.917969 16.632812 2.929688 16.617188 2.929688 16.597656 C 2.929688 16.578125 2.921875 16.5625 2.90625 16.550781 C 2.871094 16.535156 2.847656 16.507812 2.832031 16.46875 C 2.816406 16.429688 2.804688 16.378906 2.804688 16.316406 C 2.804688 16.199219 2.835938 16.054688 2.894531 15.890625 C 3.058594 15.40625 3.460938 14.785156 3.914062 14.417969 C 4.164062 14.214844 4.316406 13.976562 4.402344 13.746094 C 4.488281 13.515625 4.515625 13.296875 4.515625 13.121094 C 4.515625 12.90625 4.476562 12.761719 4.476562 12.757812 C 4.472656 12.746094 4.464844 12.734375 4.453125 12.726562 L 4.449219 12.722656 C 4.398438 12.695312 3.949219 12.4375 3.511719 11.964844 C 3.078125 11.488281 2.65625 10.804688 2.65625 9.914062 C 2.65625 7.558594 3.605469 5.789062 4.558594 4.628906 C 4.570312 4.617188 4.574219 4.597656 4.566406 4.582031 C 4.5625 4.566406 4.546875 4.554688 4.527344 4.550781 C 4.390625 4.53125 4.265625 4.519531 4.171875 4.519531 C 4.113281 4.519531 4.066406 4.523438 4.03125 4.535156 L 4.046875 4.582031 L 4.089844 4.605469 L 4.089844 4.601562 C 4.101562 4.582031 4.214844 4.386719 4.398438 4.179688 C 4.414062 4.160156 4.414062 4.128906 4.398438 4.113281 C 4.378906 4.09375 4.351562 4.09375 4.332031 4.109375 L 4.363281 4.148438 L 4.398438 4.179688 L 4.398438 4.175781 L 4.40625 4.171875 L 4.367188 4.140625 L 4.398438 4.175781 L 4.40625 4.171875 C 4.507812 4.0625 4.640625 3.9375 4.789062 3.835938 C 4.9375 3.730469 5.097656 3.648438 5.253906 3.621094 C 5.382812 3.59375 5.5 3.578125 5.601562 3.5625 C 5.613281 3.5625 5.621094 3.558594 5.628906 3.550781 C 5.671875 3.515625 5.710938 3.484375 5.75 3.453125 C 5.761719 3.445312 5.769531 3.433594 5.769531 3.417969 C 5.773438 3.40625 5.769531 3.394531 5.757812 3.382812 C 5.574219 3.15625 5.488281 2.882812 5.488281 2.613281 C 5.488281 2.375 5.554688 2.136719 5.679688 1.941406 C 5.75 1.828125 5.867188 1.714844 6.007812 1.605469 C 6.214844 1.445312 6.472656 1.300781 6.671875 1.199219 C 6.773438 1.148438 6.863281 1.105469 6.925781 1.078125 C 6.957031 1.066406 6.980469 1.054688 6.996094 1.046875 C 7.015625 1.039062 7.023438 1.035156 7.023438 1.035156 L 7.003906 0.992188 L 6.964844 0.960938 C 6.4375 1.636719 6.332031 2.191406 6.335938 2.511719 C 6.335938 2.707031 6.371094 2.816406 6.371094 2.820312 C 6.375 2.828125 6.378906 2.835938 6.386719 2.84375 C 6.429688 2.878906 6.472656 2.925781 6.515625 2.980469 C 6.527344 2.992188 6.542969 3 6.558594 2.996094 C 6.585938 2.996094 6.613281 2.992188 6.644531 2.992188 C 6.910156 2.992188 7.214844 3.121094 7.539062 3.257812 C 7.863281 3.390625 8.207031 3.527344 8.558594 3.527344 C 8.753906 3.527344 8.90625 3.546875 9.023438 3.578125 C 9.203125 3.625 9.308594 3.695312 9.382812 3.777344 C 9.457031 3.859375 9.5 3.957031 9.546875 4.046875 C 9.597656 4.144531 9.625 4.265625 9.625 4.394531 C 9.625 4.566406 9.574219 4.757812 9.460938 4.941406 C 9.425781 4.992188 9.398438 5.027344 9.371094 5.042969 C 9.347656 5.0625 9.332031 5.066406 9.316406 5.066406 C 9.296875 5.066406 9.273438 5.0625 9.246094 5.046875 C 9.164062 5.011719 9.046875 4.917969 8.863281 4.917969 C 8.773438 4.917969 8.691406 4.933594 8.609375 4.96875 C 8.492188 5.019531 8.382812 5.113281 8.261719 5.242188 C 8.144531 5.371094 8.015625 5.542969 7.855469 5.757812 C 7.648438 6.042969 7.484375 6.183594 7.375 6.25 C 7.320312 6.285156 7.28125 6.300781 7.253906 6.308594 C 7.242188 6.3125 7.234375 6.3125 7.226562 6.316406 L 7.222656 6.316406 L 7.222656 6.34375 L 7.222656 6.316406 L 7.222656 6.34375 L 7.222656 6.316406 C 7.207031 6.316406 7.195312 6.324219 7.183594 6.335938 C 7.175781 6.347656 7.171875 6.363281 7.175781 6.375 C 7.421875 7.25 7.847656 7.957031 8.367188 8.535156 C 9.144531 9.398438 10.125 9.976562 11.003906 10.386719 C 11.441406 10.59375 11.855469 10.757812 12.207031 10.902344 C 12.558594 11.042969 12.84375 11.160156 13.027344 11.261719 C 13.214844 11.371094 13.332031 11.515625 13.40625 11.6875 C 13.484375 11.855469 13.511719 12.050781 13.511719 12.246094 C 13.511719 12.554688 13.4375 12.875 13.367188 13.113281 C 13.328125 13.230469 13.292969 13.332031 13.265625 13.398438 C 13.253906 13.433594 13.242188 13.460938 13.234375 13.480469 C 13.230469 13.488281 13.226562 13.496094 13.222656 13.5 C 13.222656 13.507812 13.222656 13.507812 13.222656 13.507812 C 13.210938 13.53125 13.21875 13.554688 13.238281 13.570312 C 13.5 13.753906 13.671875 13.945312 13.777344 14.128906 C 13.882812 14.3125 13.921875 14.488281 13.921875 14.660156 C 13.921875 15.023438 13.730469 15.347656 13.589844 15.53125 L 13.628906 15.5625 "/></g><path style=" stroke:none;fill-rule:nonzero;fill:#000000;fill-opacity:1;" d="M 6.242188 3.863281 C 6.230469 3.886719 6.210938 3.917969 6.183594 3.949219 C 6.160156 3.980469 6.125 4.015625 6.082031 4.042969 C 6.042969 4.074219 5.992188 4.101562 5.9375 4.121094 C 5.910156 4.132812 5.878906 4.140625 5.847656 4.148438 C 5.820312 4.152344 5.789062 4.160156 5.753906 4.164062 C 5.691406 4.167969 5.628906 4.167969 5.5625 4.164062 C 5.5 4.164062 5.433594 4.15625 5.367188 4.152344 C 5.304688 4.144531 5.242188 4.140625 5.175781 4.132812 C 5.113281 4.128906 5.050781 4.117188 4.992188 4.113281 C 4.875 4.097656 4.761719 4.085938 4.667969 4.082031 C 4.574219 4.078125 4.496094 4.082031 4.445312 4.101562 C 4.417969 4.105469 4.398438 4.117188 4.386719 4.125 L 4.382812 4.128906 C 4.402344 4.109375 4.429688 4.085938 4.433594 4.082031 C 4.484375 4.050781 4.566406 4.023438 4.667969 4.011719 C 4.765625 4 4.878906 4 5 4.003906 C 5.0625 4.007812 5.125 4.011719 5.1875 4.015625 C 5.25 4.023438 5.316406 4.027344 5.378906 4.03125 C 5.441406 4.039062 5.507812 4.042969 5.570312 4.046875 C 5.632812 4.050781 5.691406 4.058594 5.75 4.054688 C 5.777344 4.054688 5.804688 4.050781 5.832031 4.050781 C 5.859375 4.046875 5.886719 4.042969 5.910156 4.035156 C 5.960938 4.023438 6.007812 4.007812 6.046875 3.984375 C 6.085938 3.964844 6.121094 3.941406 6.152344 3.917969 C 6.179688 3.894531 6.203125 3.871094 6.222656 3.847656 C 6.257812 3.808594 6.273438 3.777344 6.273438 3.777344 C 6.273438 3.777344 6.269531 3.808594 6.242188 3.863281 "/><path style=" stroke:none;fill-rule:nonzero;fill:#000000;fill-opacity:1;" d="M 4.90625 12.121094 C 4.863281 12.125 4.796875 12.117188 4.710938 12.101562 C 4.667969 12.089844 4.621094 12.078125 4.570312 12.0625 C 4.523438 12.046875 4.46875 12.027344 4.414062 12 C 4.304688 11.949219 4.1875 11.878906 4.070312 11.789062 C 3.949219 11.699219 3.832031 11.585938 3.71875 11.460938 C 3.605469 11.335938 3.492188 11.195312 3.390625 11.042969 C 3.363281 11.003906 3.335938 10.964844 3.3125 10.921875 L 3.277344 10.863281 L 3.242188 10.796875 C 3.21875 10.757812 3.195312 10.71875 3.175781 10.671875 C 3.15625 10.628906 3.132812 10.582031 3.113281 10.535156 C 3.039062 10.347656 2.984375 10.152344 2.949219 9.957031 C 2.917969 9.757812 2.902344 9.558594 2.902344 9.363281 C 2.90625 9.167969 2.921875 8.976562 2.949219 8.792969 C 2.976562 8.613281 3.011719 8.4375 3.054688 8.277344 C 3.074219 8.195312 3.097656 8.117188 3.117188 8.042969 C 3.140625 7.96875 3.160156 7.898438 3.1875 7.824219 C 3.210938 7.757812 3.234375 7.691406 3.257812 7.632812 C 3.285156 7.570312 3.3125 7.511719 3.335938 7.457031 C 3.382812 7.347656 3.4375 7.257812 3.476562 7.183594 C 3.519531 7.109375 3.558594 7.054688 3.582031 7.019531 C 3.605469 6.980469 3.621094 6.960938 3.621094 6.960938 C 3.621094 6.960938 3.589844 7.054688 3.53125 7.210938 C 3.519531 7.25 3.503906 7.292969 3.492188 7.339844 C 3.476562 7.390625 3.457031 7.441406 3.445312 7.496094 C 3.429688 7.550781 3.414062 7.609375 3.398438 7.671875 C 3.386719 7.734375 3.371094 7.804688 3.355469 7.871094 C 3.328125 8.007812 3.300781 8.164062 3.277344 8.324219 C 3.25 8.484375 3.234375 8.652344 3.214844 8.824219 C 3.203125 9 3.195312 9.179688 3.199219 9.359375 C 3.203125 9.542969 3.21875 9.726562 3.246094 9.90625 C 3.277344 10.082031 3.328125 10.257812 3.386719 10.425781 C 3.402344 10.464844 3.417969 10.503906 3.433594 10.542969 C 3.453125 10.585938 3.472656 10.628906 3.492188 10.667969 L 3.519531 10.726562 L 3.550781 10.785156 C 3.574219 10.824219 3.59375 10.859375 3.617188 10.898438 C 3.703125 11.046875 3.796875 11.191406 3.890625 11.316406 C 3.988281 11.441406 4.085938 11.558594 4.183594 11.65625 C 4.207031 11.683594 4.234375 11.703125 4.257812 11.726562 C 4.28125 11.75 4.304688 11.769531 4.332031 11.789062 C 4.355469 11.8125 4.378906 11.832031 4.402344 11.847656 C 4.425781 11.867188 4.449219 11.882812 4.472656 11.898438 C 4.515625 11.933594 4.566406 11.957031 4.605469 11.984375 C 4.648438 12.007812 4.691406 12.027344 4.726562 12.042969 C 4.765625 12.058594 4.800781 12.070312 4.828125 12.082031 C 4.859375 12.09375 4.886719 12.097656 4.910156 12.105469 C 4.953125 12.117188 4.976562 12.121094 4.976562 12.121094 C 4.976562 12.121094 4.953125 12.121094 4.90625 12.121094 "/><path style=" stroke:none;fill-rule:nonzero;fill:#000000;fill-opacity:1;" d="M 7.445312 3.773438 C 7.445312 3.773438 7.371094 3.753906 7.328125 3.78125 C 7.328125 3.78125 7.089844 4.09375 6.6875 3.609375 C 6.6875 3.609375 7.058594 3.414062 7.445312 3.773438 "/><path style=" stroke:none;fill-rule:nonzero;fill:#000000;fill-opacity:1;" d="M 6.789062 5.699219 C 6.75 5.691406 6.714844 5.671875 6.683594 5.652344 C 6.65625 5.632812 6.625 5.613281 6.601562 5.589844 C 6.589844 5.574219 6.582031 5.566406 6.570312 5.554688 C 6.558594 5.539062 6.550781 5.527344 6.542969 5.515625 C 6.535156 5.503906 6.527344 5.492188 6.519531 5.480469 C 6.515625 5.46875 6.511719 5.457031 6.503906 5.445312 C 6.484375 5.402344 6.472656 5.359375 6.464844 5.324219 C 6.457031 5.292969 6.457031 5.265625 6.457031 5.25 C 6.453125 5.230469 6.453125 5.222656 6.453125 5.222656 C 6.453125 5.210938 6.460938 5.203125 6.472656 5.203125 C 6.476562 5.203125 6.480469 5.207031 6.484375 5.207031 C 6.484375 5.207031 6.492188 5.214844 6.503906 5.230469 C 6.511719 5.242188 6.527344 5.265625 6.546875 5.289062 C 6.570312 5.3125 6.589844 5.339844 6.621094 5.367188 C 6.632812 5.382812 6.648438 5.398438 6.664062 5.410156 C 6.671875 5.414062 6.683594 5.421875 6.691406 5.429688 C 6.699219 5.433594 6.707031 5.441406 6.71875 5.445312 C 6.753906 5.46875 6.796875 5.484375 6.84375 5.492188 C 6.886719 5.5 6.9375 5.5 6.996094 5.488281 C 7.050781 5.480469 7.109375 5.46875 7.167969 5.441406 C 7.230469 5.421875 7.292969 5.394531 7.351562 5.363281 C 7.414062 5.332031 7.472656 5.296875 7.53125 5.257812 C 7.589844 5.222656 7.644531 5.1875 7.699219 5.148438 C 7.753906 5.109375 7.808594 5.070312 7.855469 5.035156 C 7.90625 5 7.953125 4.964844 7.996094 4.933594 C 8.082031 4.867188 8.152344 4.8125 8.203125 4.773438 C 8.253906 4.734375 8.285156 4.710938 8.285156 4.710938 C 8.292969 4.707031 8.300781 4.707031 8.308594 4.714844 C 8.3125 4.722656 8.3125 4.730469 8.308594 4.734375 C 8.308594 4.734375 8.289062 4.765625 8.25 4.820312 C 8.210938 4.871094 8.15625 4.945312 8.082031 5.027344 C 8.007812 5.109375 7.921875 5.203125 7.816406 5.292969 C 7.710938 5.386719 7.589844 5.476562 7.460938 5.558594 C 7.394531 5.597656 7.324219 5.632812 7.253906 5.660156 C 7.179688 5.6875 7.101562 5.710938 7.023438 5.71875 C 6.945312 5.730469 6.863281 5.726562 6.789062 5.699219 "/><path style=" stroke:none;fill-rule:nonzero;fill:#919191;fill-opacity:1;" d="M 8.292969 1.707031 C 8.246094 2.742188 7.730469 3.050781 7.730469 3.050781 C 7.691406 3.050781 7.644531 3.054688 7.59375 3.066406 C 7.730469 3.128906 7.867188 3.199219 8.011719 3.253906 C 8.160156 3.3125 8.308594 3.328125 8.460938 3.339844 C 8.546875 3.214844 8.605469 3.070312 8.625 2.921875 C 8.691406 2.496094 8.292969 1.707031 8.292969 1.707031 "/><path style=" stroke:none;fill-rule:nonzero;fill:#000000;fill-opacity:1;" d="M 8.292969 1.707031 L 8.242188 1.707031 C 8.21875 2.214844 8.082031 2.542969 7.953125 2.742188 C 7.890625 2.839844 7.828125 2.910156 7.78125 2.949219 C 7.757812 2.972656 7.738281 2.988281 7.726562 2.996094 C 7.71875 3 7.714844 3.003906 7.710938 3.007812 L 7.707031 3.007812 L 7.710938 3.019531 L 7.707031 3.007812 L 7.710938 3.019531 L 7.707031 3.007812 L 7.730469 3.050781 L 7.734375 3.003906 L 7.730469 3.003906 C 7.683594 3.003906 7.636719 3.007812 7.585938 3.015625 C 7.566406 3.019531 7.550781 3.039062 7.546875 3.058594 C 7.542969 3.078125 7.554688 3.097656 7.574219 3.109375 C 7.710938 3.175781 7.847656 3.242188 7.992188 3.300781 C 8.152344 3.359375 8.304688 3.378906 8.457031 3.386719 C 8.472656 3.386719 8.488281 3.378906 8.5 3.367188 C 8.589844 3.234375 8.652344 3.085938 8.671875 2.929688 C 8.679688 2.894531 8.679688 2.859375 8.679688 2.820312 C 8.679688 2.589844 8.59375 2.308594 8.507812 2.082031 C 8.421875 1.855469 8.335938 1.6875 8.335938 1.683594 C 8.324219 1.664062 8.300781 1.65625 8.28125 1.660156 C 8.257812 1.664062 8.242188 1.683594 8.242188 1.707031 L 8.292969 1.707031 L 8.246094 1.730469 C 8.246094 1.730469 8.25 1.730469 8.25 1.738281 C 8.269531 1.773438 8.351562 1.945312 8.433594 2.160156 C 8.511719 2.371094 8.585938 2.625 8.582031 2.820312 C 8.582031 2.855469 8.582031 2.886719 8.578125 2.914062 C 8.554688 3.054688 8.5 3.191406 8.417969 3.3125 L 8.460938 3.339844 L 8.460938 3.289062 C 8.3125 3.28125 8.171875 3.261719 8.027344 3.207031 C 7.886719 3.15625 7.753906 3.085938 7.617188 3.019531 L 7.59375 3.066406 L 7.605469 3.113281 C 7.648438 3.105469 7.691406 3.097656 7.730469 3.097656 C 7.742188 3.097656 7.75 3.097656 7.757812 3.09375 C 7.761719 3.089844 7.898438 3.007812 8.035156 2.792969 C 8.175781 2.582031 8.316406 2.234375 8.339844 1.710938 L 8.292969 1.707031 L 8.246094 1.730469 L 8.292969 1.707031 "/></g></g></g></svg>