<svg xmlns="http://www.w3.org/2000/svg" xmlns:xlink="http://www.w3.org/1999/xlink" width="96" zoomAndPan="magnify" viewBox="0 0 72 225" height="300" preserveAspectRatio="xMidYMid meet" version="1.2"><defs><clipPath id="c38cbf4a72"><path d="M 30 2 L 35.539062 2 L 35.539062 8 L 30 8 Z M 30 2 "/></clipPath><clipPath id="73ad7ec73f"><path d="M 11.207031 6.691406 L 12.910156 6.691406 L 12.910156 8.863281 L 11.207031 8.863281 Z M 11.207031 6.691406 "/></clipPath><clipPath id="3c57610eea"><path d="M 7.039062 5 L 10 5 L 10 9 L 7.039062 9 Z M 7.039062 5 "/></clipPath><clipPath id="04d7aa1182"><path d="M 7.597656 5.703125 L 9.507812 5.703125 L 9.507812 8.0625 L 7.597656 8.0625 Z M 7.597656 5.703125 "/></clipPath><clipPath id="81d432a0fd"><path d="M 11.484375 3.785156 L 14.375 3.785156 L 14.375 5.757812 L 11.484375 5.757812 Z M 11.484375 3.785156 "/></clipPath><clipPath id="0fbe6c5f9d"><path d="M 8.246094 0.9375 L 13.949219 0.9375 L 13.949219 8.828125 L 8.246094 8.828125 Z M 8.246094 0.9375 "/></clipPath><clipPath id="83f0d7e047"><path d="M 8.191406 0.9375 L 14 0.9375 L 14 8.863281 L 8.191406 8.863281 Z M 8.191406 0.9375 "/></clipPath></defs><g id="4fa253ebd6"><path style=" stroke:none;fill-rule:nonzero;fill:#d9d9d9;fill-opacity:1;" d="M 17.894531 7.113281 C 17.570312 7.113281 17.28125 7.050781 17.03125 6.929688 C 16.785156 6.808594 16.589844 6.636719 16.453125 6.410156 C 16.316406 6.183594 16.25 5.914062 16.25 5.601562 C 16.25 5.464844 16.261719 5.324219 16.289062 5.171875 L 16.847656 5.171875 C 16.839844 5.234375 16.832031 5.292969 16.824219 5.351562 C 16.816406 5.410156 16.8125 5.46875 16.8125 5.527344 C 16.8125 5.851562 16.910156 6.113281 17.105469 6.300781 C 17.300781 6.492188 17.585938 6.585938 17.960938 6.585938 C 18.246094 6.585938 18.5 6.527344 18.726562 6.40625 C 18.957031 6.285156 19.148438 6.117188 19.300781 5.898438 C 19.453125 5.683594 19.550781 5.429688 19.601562 5.144531 L 20.011719 2.859375 L 18.367188 2.859375 L 18.453125 2.320312 L 20.675781 2.320312 L 20.179688 5.144531 C 20.117188 5.539062 19.984375 5.882812 19.777344 6.179688 C 19.574219 6.472656 19.316406 6.703125 18.996094 6.867188 C 18.679688 7.03125 18.3125 7.113281 17.894531 7.113281 Z M 17.894531 7.113281 "/><path style=" stroke:none;fill-rule:nonzero;fill:#d9d9d9;fill-opacity:1;" d="M 23.398438 7.113281 C 23.035156 7.113281 22.726562 7.054688 22.46875 6.945312 C 22.214844 6.835938 22.007812 6.6875 21.847656 6.5 C 21.6875 6.3125 21.574219 6.097656 21.5 5.855469 C 21.425781 5.613281 21.386719 5.359375 21.386719 5.097656 C 21.386719 4.710938 21.457031 4.347656 21.601562 4.003906 C 21.742188 3.664062 21.9375 3.359375 22.195312 3.09375 C 22.449219 2.832031 22.753906 2.621094 23.105469 2.46875 C 23.457031 2.316406 23.84375 2.242188 24.261719 2.242188 C 24.714844 2.242188 25.089844 2.332031 25.382812 2.511719 C 25.679688 2.691406 25.898438 2.925781 26.042969 3.21875 C 26.1875 3.511719 26.257812 3.832031 26.257812 4.183594 C 26.257812 4.265625 26.253906 4.347656 26.246094 4.433594 C 26.242188 4.515625 26.226562 4.601562 26.210938 4.6875 C 26.15625 4.996094 26.054688 5.292969 25.90625 5.582031 C 25.753906 5.871094 25.5625 6.132812 25.324219 6.363281 C 25.085938 6.59375 24.808594 6.777344 24.484375 6.910156 C 24.160156 7.042969 23.800781 7.113281 23.398438 7.113281 Z M 23.457031 6.574219 C 23.765625 6.574219 24.042969 6.519531 24.289062 6.414062 C 24.535156 6.304688 24.75 6.160156 24.929688 5.980469 C 25.113281 5.796875 25.261719 5.597656 25.378906 5.371094 C 25.496094 5.148438 25.574219 4.917969 25.621094 4.6875 C 25.636719 4.605469 25.652344 4.523438 25.660156 4.445312 C 25.667969 4.363281 25.671875 4.285156 25.671875 4.210938 C 25.671875 3.949219 25.621094 3.710938 25.523438 3.496094 C 25.421875 3.277344 25.261719 3.101562 25.050781 2.96875 C 24.832031 2.832031 24.554688 2.765625 24.210938 2.765625 C 23.859375 2.765625 23.546875 2.832031 23.273438 2.960938 C 22.996094 3.089844 22.761719 3.265625 22.566406 3.484375 C 22.371094 3.703125 22.222656 3.949219 22.121094 4.226562 C 22.015625 4.503906 21.964844 4.785156 21.964844 5.078125 C 21.964844 5.335938 22.011719 5.582031 22.109375 5.808594 C 22.207031 6.035156 22.363281 6.222656 22.582031 6.363281 C 22.804688 6.503906 23.09375 6.574219 23.457031 6.574219 Z M 23.457031 6.574219 "/><path style=" stroke:none;fill-rule:nonzero;fill:#d9d9d9;fill-opacity:1;" d="M 28.089844 7.023438 L 28.828125 2.847656 L 27.226562 2.847656 L 27.320312 2.320312 L 31.105469 2.320312 L 31.011719 2.847656 L 29.40625 2.847656 L 28.667969 7.023438 Z M 28.089844 7.023438 "/><g clip-rule="nonzero" clip-path="url(#c38cbf4a72)"><path style=" stroke:none;fill-rule:nonzero;fill:#d9d9d9;fill-opacity:1;" d="M 30.777344 7.023438 L 33.714844 2.320312 L 34.371094 2.320312 L 35.652344 7.023438 L 35.0625 7.023438 L 34.773438 5.988281 L 32.066406 5.988281 L 31.429688 7.023438 Z M 32.390625 5.453125 L 34.640625 5.453125 L 33.96875 2.875 Z M 32.390625 5.453125 "/></g><path style=" stroke:none;fill-rule:nonzero;fill:#919191;fill-opacity:1;" d="M 12.332031 6.789062 L 12.328125 6.789062 C 12.160156 6.769531 11.929688 6.742188 11.753906 6.804688 C 12.003906 6.996094 12.203125 7.25 12.105469 7.523438 C 11.929688 8.027344 11.570312 8.148438 11.753906 8.246094 C 11.753906 8.246094 11.257812 8.472656 11.257812 8.828125 L 12.082031 8.828125 C 12.082031 8.828125 12.179688 8.644531 12.082031 8.402344 C 12.082031 8.402344 12.277344 8.417969 12.308594 8.234375 C 12.335938 8.046875 12.269531 7.613281 12.671875 7.496094 C 12.816406 7.453125 12.84375 7.378906 12.851562 7.292969 C 12.636719 7.191406 12.449219 7 12.332031 6.789062 "/><g clip-rule="nonzero" clip-path="url(#73ad7ec73f)"><path style=" stroke:none;fill-rule:nonzero;fill:#2a2a2a;fill-opacity:1;" d="M 12.332031 6.789062 L 12.332031 6.765625 L 12.328125 6.789062 L 12.332031 6.765625 C 12.242188 6.757812 12.136719 6.742188 12.027344 6.742188 C 11.929688 6.742188 11.832031 6.753906 11.746094 6.785156 C 11.738281 6.789062 11.730469 6.792969 11.730469 6.800781 C 11.726562 6.8125 11.730469 6.820312 11.738281 6.824219 C 11.839844 6.902344 11.933594 6.988281 12 7.082031 C 12.066406 7.179688 12.109375 7.277344 12.109375 7.382812 C 12.109375 7.425781 12.101562 7.472656 12.085938 7.515625 C 12.015625 7.714844 11.917969 7.855469 11.835938 7.953125 C 11.792969 8.003906 11.757812 8.046875 11.730469 8.082031 C 11.714844 8.101562 11.703125 8.117188 11.695312 8.132812 C 11.6875 8.148438 11.679688 8.167969 11.679688 8.183594 C 11.679688 8.199219 11.6875 8.21875 11.699219 8.230469 C 11.710938 8.246094 11.722656 8.257812 11.742188 8.265625 L 11.753906 8.246094 L 11.746094 8.226562 C 11.746094 8.226562 11.617188 8.285156 11.492188 8.386719 C 11.429688 8.4375 11.367188 8.5 11.316406 8.574219 C 11.269531 8.648438 11.234375 8.734375 11.234375 8.828125 C 11.234375 8.832031 11.238281 8.839844 11.242188 8.84375 C 11.246094 8.847656 11.253906 8.851562 11.257812 8.851562 L 12.082031 8.851562 C 12.089844 8.851562 12.097656 8.84375 12.101562 8.839844 C 12.101562 8.835938 12.148438 8.75 12.148438 8.621094 C 12.148438 8.554688 12.136719 8.476562 12.101562 8.394531 L 12.082031 8.402344 L 12.078125 8.425781 C 12.078125 8.425781 12.082031 8.425781 12.089844 8.425781 C 12.113281 8.425781 12.164062 8.421875 12.214844 8.398438 C 12.242188 8.386719 12.265625 8.367188 12.285156 8.339844 C 12.308594 8.3125 12.324219 8.277344 12.328125 8.234375 C 12.335938 8.1875 12.339844 8.125 12.34375 8.058594 C 12.347656 7.957031 12.359375 7.839844 12.40625 7.742188 C 12.429688 7.691406 12.464844 7.648438 12.507812 7.609375 C 12.550781 7.570312 12.605469 7.539062 12.679688 7.515625 C 12.71875 7.507812 12.75 7.492188 12.773438 7.476562 C 12.808594 7.453125 12.835938 7.425781 12.851562 7.394531 C 12.863281 7.363281 12.871094 7.328125 12.875 7.296875 C 12.875 7.285156 12.871094 7.277344 12.859375 7.273438 C 12.648438 7.171875 12.464844 6.984375 12.351562 6.777344 C 12.347656 6.773438 12.339844 6.769531 12.332031 6.765625 L 12.332031 6.789062 L 12.3125 6.800781 C 12.429688 7.015625 12.621094 7.207031 12.839844 7.3125 L 12.851562 7.292969 L 12.828125 7.292969 C 12.824219 7.332031 12.816406 7.367188 12.796875 7.398438 C 12.785156 7.414062 12.769531 7.425781 12.75 7.4375 C 12.730469 7.453125 12.703125 7.464844 12.667969 7.472656 C 12.5625 7.503906 12.488281 7.554688 12.433594 7.621094 C 12.351562 7.714844 12.320312 7.835938 12.304688 7.945312 C 12.300781 8.003906 12.296875 8.054688 12.292969 8.105469 C 12.292969 8.152344 12.289062 8.195312 12.285156 8.230469 C 12.28125 8.265625 12.265625 8.292969 12.25 8.3125 C 12.226562 8.34375 12.195312 8.359375 12.164062 8.371094 C 12.132812 8.378906 12.105469 8.378906 12.089844 8.378906 C 12.085938 8.378906 12.085938 8.378906 12.082031 8.378906 C 12.074219 8.378906 12.066406 8.382812 12.0625 8.390625 C 12.058594 8.394531 12.058594 8.402344 12.058594 8.410156 C 12.089844 8.488281 12.101562 8.558594 12.101562 8.621094 C 12.101562 8.679688 12.089844 8.730469 12.082031 8.765625 C 12.074219 8.78125 12.070312 8.796875 12.066406 8.804688 C 12.066406 8.808594 12.0625 8.8125 12.0625 8.8125 L 12.0625 8.816406 L 12.082031 8.828125 L 12.082031 8.804688 L 11.257812 8.804688 L 11.257812 8.828125 L 11.28125 8.828125 C 11.28125 8.746094 11.3125 8.667969 11.355469 8.601562 C 11.421875 8.496094 11.523438 8.414062 11.609375 8.355469 C 11.652344 8.328125 11.691406 8.304688 11.71875 8.289062 C 11.734375 8.28125 11.746094 8.277344 11.753906 8.273438 C 11.757812 8.269531 11.757812 8.269531 11.761719 8.269531 L 11.765625 8.265625 C 11.773438 8.265625 11.777344 8.257812 11.777344 8.246094 C 11.777344 8.238281 11.773438 8.230469 11.765625 8.226562 C 11.75 8.21875 11.738281 8.210938 11.734375 8.203125 C 11.726562 8.195312 11.726562 8.191406 11.726562 8.183594 C 11.726562 8.175781 11.730469 8.167969 11.734375 8.15625 C 11.746094 8.132812 11.769531 8.105469 11.796875 8.070312 C 11.886719 7.964844 12.035156 7.800781 12.128906 7.53125 C 12.144531 7.480469 12.152344 7.429688 12.152344 7.382812 C 12.152344 7.265625 12.109375 7.15625 12.039062 7.058594 C 11.96875 6.957031 11.871094 6.867188 11.765625 6.789062 L 11.753906 6.804688 L 11.757812 6.828125 C 11.839844 6.800781 11.933594 6.789062 12.027344 6.789062 C 12.132812 6.789062 12.238281 6.800781 12.328125 6.8125 L 12.332031 6.789062 L 12.3125 6.800781 L 12.332031 6.789062 "/></g><g clip-rule="nonzero" clip-path="url(#3c57610eea)"><path style=" stroke:none;fill-rule:nonzero;fill:#919191;fill-opacity:1;" d="M 9.046875 6.601562 C 9.207031 6.601562 9.34375 6.542969 9.4375 6.484375 C 9.382812 6.460938 9.328125 6.433594 9.273438 6.402344 C 9.171875 6.332031 9.066406 6.261719 8.972656 6.179688 C 8.835938 6.058594 8.726562 5.917969 8.644531 5.757812 C 8.234375 5.765625 7.714844 6.035156 7.664062 6.183594 C 7.601562 6.367188 7.855469 6.636719 7.984375 6.878906 C 8.109375 7.121094 7.992188 7.191406 8.019531 7.332031 C 8.046875 7.472656 8.1875 7.453125 8.1875 7.453125 C 8.089844 7.855469 8.371094 8.027344 8.371094 8.027344 C 8.628906 7.90625 8.769531 7.53125 8.769531 7.53125 C 8.683594 7.402344 8.445312 7.277344 8.445312 7.277344 C 8.523438 7.167969 8.488281 7.035156 8.488281 7.035156 C 8.300781 6.957031 8.1875 6.566406 8.1875 6.566406 C 8.1875 6.566406 8.273438 6.539062 8.4375 6.519531 C 8.601562 6.496094 8.75 6.601562 9.046875 6.601562 "/></g><g clip-rule="nonzero" clip-path="url(#04d7aa1182)"><path style=" stroke:none;fill-rule:nonzero;fill:#2a2a2a;fill-opacity:1;" d="M 9.046875 6.601562 L 9.046875 6.625 C 9.210938 6.625 9.351562 6.5625 9.449219 6.503906 C 9.457031 6.5 9.460938 6.492188 9.460938 6.484375 C 9.460938 6.476562 9.453125 6.46875 9.445312 6.464844 C 9.390625 6.441406 9.339844 6.414062 9.289062 6.382812 C 9.183594 6.3125 9.078125 6.242188 8.988281 6.164062 C 8.855469 6.042969 8.746094 5.90625 8.667969 5.75 C 8.664062 5.742188 8.65625 5.734375 8.644531 5.734375 C 8.433594 5.738281 8.199219 5.808594 8.011719 5.898438 C 7.914062 5.941406 7.832031 5.992188 7.769531 6.039062 C 7.734375 6.0625 7.710938 6.085938 7.6875 6.109375 C 7.667969 6.132812 7.652344 6.152344 7.644531 6.175781 C 7.636719 6.199219 7.632812 6.222656 7.632812 6.246094 C 7.632812 6.296875 7.644531 6.347656 7.667969 6.402344 C 7.703125 6.480469 7.753906 6.5625 7.808594 6.644531 C 7.863281 6.726562 7.921875 6.8125 7.964844 6.890625 C 8.007812 6.976562 8.019531 7.035156 8.019531 7.085938 C 8.019531 7.121094 8.015625 7.152344 8.007812 7.183594 C 8 7.21875 7.992188 7.25 7.992188 7.289062 C 7.992188 7.304688 7.992188 7.320312 7.996094 7.335938 C 8.003906 7.367188 8.011719 7.390625 8.027344 7.410156 C 8.046875 7.441406 8.078125 7.457031 8.101562 7.464844 C 8.128906 7.476562 8.152344 7.476562 8.167969 7.476562 C 8.183594 7.476562 8.191406 7.476562 8.191406 7.476562 L 8.1875 7.453125 L 8.167969 7.449219 C 8.152344 7.507812 8.144531 7.566406 8.144531 7.617188 C 8.144531 7.765625 8.199219 7.875 8.253906 7.945312 C 8.304688 8.011719 8.359375 8.046875 8.363281 8.046875 C 8.367188 8.050781 8.375 8.050781 8.382812 8.046875 C 8.515625 7.984375 8.617188 7.855469 8.6875 7.746094 C 8.753906 7.636719 8.789062 7.539062 8.789062 7.539062 C 8.792969 7.53125 8.792969 7.523438 8.789062 7.519531 C 8.742188 7.449219 8.660156 7.382812 8.585938 7.335938 C 8.515625 7.289062 8.453125 7.257812 8.453125 7.253906 L 8.445312 7.277344 L 8.460938 7.289062 C 8.507812 7.226562 8.515625 7.160156 8.515625 7.109375 C 8.515625 7.0625 8.507812 7.03125 8.507812 7.03125 C 8.507812 7.023438 8.5 7.015625 8.496094 7.015625 C 8.453125 6.996094 8.414062 6.960938 8.378906 6.914062 C 8.328125 6.847656 8.285156 6.757812 8.253906 6.6875 C 8.242188 6.652344 8.230469 6.617188 8.222656 6.597656 C 8.21875 6.585938 8.214844 6.578125 8.214844 6.570312 C 8.210938 6.566406 8.210938 6.566406 8.210938 6.5625 L 8.1875 6.566406 L 8.195312 6.589844 C 8.207031 6.585938 8.289062 6.558594 8.441406 6.539062 C 8.453125 6.539062 8.46875 6.539062 8.480469 6.539062 C 8.550781 6.539062 8.621094 6.558594 8.710938 6.582031 C 8.800781 6.601562 8.910156 6.625 9.046875 6.625 L 9.046875 6.582031 C 8.914062 6.582031 8.8125 6.558594 8.722656 6.535156 C 8.632812 6.515625 8.558594 6.492188 8.480469 6.492188 C 8.464844 6.492188 8.449219 6.492188 8.433594 6.496094 C 8.269531 6.515625 8.183594 6.546875 8.183594 6.546875 C 8.171875 6.550781 8.164062 6.5625 8.167969 6.574219 C 8.167969 6.574219 8.195312 6.671875 8.25 6.78125 C 8.273438 6.835938 8.304688 6.894531 8.34375 6.941406 C 8.382812 6.992188 8.425781 7.035156 8.476562 7.054688 L 8.488281 7.035156 L 8.464844 7.039062 C 8.464844 7.042969 8.472656 7.070312 8.472656 7.109375 C 8.472656 7.152344 8.460938 7.210938 8.425781 7.261719 C 8.421875 7.269531 8.421875 7.273438 8.421875 7.28125 C 8.421875 7.289062 8.425781 7.292969 8.433594 7.296875 L 8.4375 7.296875 C 8.449219 7.304688 8.507812 7.335938 8.574219 7.382812 C 8.640625 7.429688 8.714844 7.488281 8.75 7.542969 L 8.769531 7.53125 L 8.75 7.523438 C 8.746094 7.535156 8.707031 7.628906 8.640625 7.730469 C 8.574219 7.835938 8.480469 7.953125 8.363281 8.007812 L 8.371094 8.027344 L 8.386719 8.007812 L 8.382812 8.007812 L 8.386719 8.007812 L 8.382812 8.007812 L 8.386719 8.007812 C 8.382812 8.007812 8.335938 7.976562 8.285156 7.914062 C 8.238281 7.847656 8.191406 7.753906 8.191406 7.617188 C 8.191406 7.570312 8.195312 7.515625 8.210938 7.457031 C 8.210938 7.453125 8.210938 7.445312 8.207031 7.4375 C 8.199219 7.433594 8.191406 7.429688 8.1875 7.429688 C 8.183594 7.429688 8.179688 7.429688 8.167969 7.429688 C 8.152344 7.433594 8.125 7.429688 8.097656 7.414062 C 8.085938 7.40625 8.074219 7.398438 8.0625 7.382812 C 8.054688 7.371094 8.046875 7.351562 8.042969 7.328125 C 8.039062 7.3125 8.035156 7.300781 8.035156 7.289062 C 8.035156 7.257812 8.042969 7.226562 8.050781 7.195312 C 8.058594 7.164062 8.066406 7.128906 8.066406 7.085938 C 8.066406 7.027344 8.050781 6.957031 8.003906 6.867188 C 7.945312 6.757812 7.863281 6.644531 7.796875 6.539062 C 7.761719 6.484375 7.730469 6.433594 7.710938 6.382812 C 7.6875 6.332031 7.675781 6.289062 7.675781 6.246094 C 7.675781 6.226562 7.679688 6.210938 7.6875 6.191406 C 7.691406 6.179688 7.703125 6.160156 7.722656 6.140625 C 7.753906 6.105469 7.804688 6.0625 7.871094 6.023438 C 8.066406 5.902344 8.382812 5.785156 8.648438 5.78125 L 8.644531 5.757812 L 8.625 5.769531 C 8.707031 5.933594 8.820312 6.074219 8.957031 6.195312 C 9.050781 6.28125 9.15625 6.351562 9.261719 6.417969 C 9.316406 6.457031 9.371094 6.484375 9.429688 6.507812 L 9.4375 6.484375 L 9.425781 6.464844 C 9.332031 6.523438 9.199219 6.582031 9.046875 6.582031 L 9.046875 6.601562 "/></g><g clip-rule="nonzero" clip-path="url(#81d432a0fd)"><path style=" stroke:none;fill-rule:nonzero;fill:#919191;fill-opacity:1;" d="M 13.652344 4.222656 C 13.148438 4.222656 13.097656 4.363281 12.652344 4.363281 C 12.386719 4.363281 12.222656 4.328125 12.132812 4.296875 C 12.160156 4.1875 12.113281 4.046875 11.957031 3.980469 C 11.808594 3.914062 11.589844 3.996094 11.511719 3.8125 C 11.515625 3.957031 11.570312 4.105469 11.675781 4.203125 C 11.625 4.183594 11.578125 4.144531 11.542969 4.097656 C 11.542969 4.101562 11.609375 4.316406 11.789062 4.410156 C 11.902344 4.472656 11.996094 4.457031 12.058594 4.410156 C 12.199219 4.484375 12.445312 4.554688 12.679688 4.554688 C 12.972656 4.554688 13.332031 4.433594 13.617188 4.433594 C 13.898438 4.433594 14.019531 4.605469 14.019531 4.738281 C 14.019531 4.875 13.957031 5.390625 13.242188 5.390625 C 13.113281 5.390625 12.988281 5.378906 12.867188 5.355469 C 12.96875 5.402344 13.070312 5.449219 13.179688 5.484375 C 13.351562 5.542969 13.519531 5.609375 13.660156 5.722656 C 14.164062 5.621094 14.347656 5.042969 14.347656 4.808594 C 14.347656 4.546875 14.15625 4.222656 13.652344 4.222656 "/><path style=" stroke:none;fill-rule:nonzero;fill:#2a2a2a;fill-opacity:1;" d="M 13.652344 4.222656 L 13.652344 4.199219 C 13.398438 4.199219 13.257812 4.234375 13.125 4.269531 C 12.992188 4.308594 12.875 4.339844 12.652344 4.339844 C 12.386719 4.339844 12.226562 4.304688 12.136719 4.273438 L 12.132812 4.296875 L 12.152344 4.300781 C 12.160156 4.28125 12.160156 4.257812 12.160156 4.234375 C 12.160156 4.179688 12.148438 4.128906 12.113281 4.078125 C 12.082031 4.03125 12.035156 3.988281 11.96875 3.960938 C 11.925781 3.941406 11.882812 3.933594 11.839844 3.929688 C 11.773438 3.921875 11.707031 3.921875 11.65625 3.90625 C 11.628906 3.898438 11.605469 3.890625 11.582031 3.871094 C 11.5625 3.855469 11.546875 3.835938 11.53125 3.800781 C 11.527344 3.792969 11.519531 3.785156 11.507812 3.789062 C 11.496094 3.792969 11.488281 3.800781 11.488281 3.8125 C 11.492188 3.960938 11.546875 4.117188 11.660156 4.222656 L 11.675781 4.203125 L 11.6875 4.183594 C 11.636719 4.164062 11.59375 4.128906 11.5625 4.085938 C 11.554688 4.078125 11.542969 4.074219 11.535156 4.078125 C 11.527344 4.082031 11.519531 4.089844 11.519531 4.101562 L 11.519531 4.105469 L 11.523438 4.105469 C 11.523438 4.113281 11.53125 4.128906 11.539062 4.152344 C 11.554688 4.1875 11.582031 4.238281 11.621094 4.289062 C 11.65625 4.34375 11.710938 4.394531 11.777344 4.429688 C 11.835938 4.460938 11.886719 4.472656 11.933594 4.472656 C 11.988281 4.472656 12.035156 4.457031 12.074219 4.425781 L 12.058594 4.410156 L 12.046875 4.429688 C 12.121094 4.46875 12.21875 4.503906 12.328125 4.53125 C 12.4375 4.558594 12.5625 4.578125 12.679688 4.578125 C 12.828125 4.578125 12.992188 4.546875 13.15625 4.515625 C 13.316406 4.488281 13.476562 4.457031 13.617188 4.457031 C 13.753906 4.457031 13.847656 4.5 13.910156 4.554688 C 13.96875 4.609375 13.996094 4.679688 13.996094 4.738281 C 13.996094 4.804688 13.980469 4.960938 13.878906 5.101562 C 13.828125 5.171875 13.757812 5.238281 13.65625 5.289062 C 13.550781 5.335938 13.417969 5.367188 13.242188 5.367188 C 13.113281 5.367188 12.988281 5.355469 12.871094 5.332031 C 12.859375 5.328125 12.847656 5.335938 12.84375 5.347656 C 12.839844 5.359375 12.847656 5.371094 12.855469 5.375 C 12.957031 5.425781 13.0625 5.46875 13.171875 5.507812 C 13.34375 5.566406 13.507812 5.628906 13.644531 5.742188 C 13.648438 5.746094 13.65625 5.746094 13.664062 5.746094 C 13.792969 5.71875 13.902344 5.664062 13.992188 5.589844 C 14.128906 5.476562 14.222656 5.328125 14.28125 5.183594 C 14.34375 5.039062 14.367188 4.898438 14.367188 4.808594 C 14.367188 4.671875 14.320312 4.519531 14.203125 4.402344 C 14.089844 4.28125 13.90625 4.199219 13.652344 4.199219 L 13.652344 4.246094 C 13.898438 4.246094 14.066406 4.324219 14.171875 4.433594 C 14.277344 4.542969 14.324219 4.683594 14.324219 4.808594 C 14.324219 4.863281 14.3125 4.941406 14.289062 5.027344 C 14.25 5.160156 14.183594 5.3125 14.082031 5.4375 C 13.976562 5.5625 13.835938 5.664062 13.65625 5.699219 L 13.660156 5.722656 L 13.671875 5.707031 C 13.53125 5.589844 13.359375 5.523438 13.1875 5.464844 C 13.082031 5.425781 12.976562 5.382812 12.875 5.332031 L 12.867188 5.355469 L 12.863281 5.375 C 12.984375 5.398438 13.109375 5.414062 13.242188 5.414062 C 13.421875 5.414062 13.5625 5.382812 13.675781 5.328125 C 13.839844 5.25 13.933594 5.128906 13.984375 5.015625 C 14.035156 4.898438 14.042969 4.792969 14.042969 4.738281 C 14.042969 4.664062 14.007812 4.582031 13.941406 4.519531 C 13.871094 4.457031 13.761719 4.410156 13.617188 4.410156 C 13.472656 4.410156 13.308594 4.441406 13.148438 4.472656 C 12.984375 4.503906 12.824219 4.53125 12.679688 4.53125 C 12.566406 4.53125 12.445312 4.515625 12.339844 4.488281 C 12.234375 4.460938 12.136719 4.425781 12.070312 4.390625 C 12.0625 4.386719 12.050781 4.386719 12.042969 4.390625 C 12.015625 4.414062 11.980469 4.429688 11.933594 4.429688 C 11.894531 4.429688 11.851562 4.417969 11.800781 4.390625 C 11.714844 4.347656 11.65625 4.273438 11.617188 4.210938 C 11.601562 4.175781 11.585938 4.148438 11.578125 4.128906 C 11.574219 4.117188 11.570312 4.109375 11.566406 4.101562 C 11.566406 4.097656 11.566406 4.097656 11.566406 4.09375 L 11.558594 4.097656 L 11.566406 4.09375 L 11.558594 4.097656 L 11.566406 4.09375 L 11.546875 4.097656 L 11.566406 4.09375 L 11.546875 4.097656 L 11.566406 4.09375 L 11.542969 4.097656 L 11.566406 4.097656 L 11.566406 4.09375 L 11.542969 4.097656 L 11.566406 4.097656 L 11.542969 4.097656 L 11.527344 4.113281 C 11.5625 4.160156 11.609375 4.203125 11.667969 4.226562 C 11.679688 4.230469 11.691406 4.226562 11.695312 4.21875 C 11.703125 4.207031 11.699219 4.195312 11.691406 4.1875 C 11.589844 4.09375 11.539062 3.949219 11.535156 3.808594 L 11.511719 3.8125 L 11.492188 3.820312 C 11.511719 3.871094 11.542969 3.90625 11.582031 3.925781 C 11.640625 3.960938 11.707031 3.964844 11.769531 3.96875 C 11.835938 3.976562 11.898438 3.980469 11.949219 4 C 12.007812 4.027344 12.050781 4.0625 12.078125 4.105469 C 12.101562 4.144531 12.117188 4.191406 12.117188 4.234375 C 12.117188 4.253906 12.113281 4.273438 12.109375 4.289062 C 12.105469 4.300781 12.113281 4.3125 12.125 4.316406 C 12.214844 4.347656 12.382812 4.386719 12.652344 4.386719 C 12.878906 4.386719 13.007812 4.351562 13.136719 4.316406 C 13.269531 4.28125 13.402344 4.246094 13.652344 4.246094 L 13.652344 4.222656 "/></g><g clip-rule="nonzero" clip-path="url(#0fbe6c5f9d)"><path style=" stroke:none;fill-rule:nonzero;fill:#919191;fill-opacity:1;" d="M 13.773438 7.765625 C 13.898438 7.59375 14.125 7.183594 13.601562 6.816406 C 13.601562 6.816406 13.96875 6.007812 13.503906 5.738281 C 13.035156 5.46875 11.234375 5.085938 10.78125 3.472656 C 10.78125 3.472656 10.898438 3.472656 11.097656 3.203125 C 11.292969 2.933594 11.390625 2.820312 11.546875 2.820312 C 11.703125 2.820312 11.746094 2.976562 11.84375 2.820312 C 11.945312 2.664062 11.945312 2.492188 11.886719 2.378906 C 11.832031 2.265625 11.773438 2.125 11.40625 2.125 C 11.074219 2.125 10.738281 1.847656 10.46875 1.878906 C 10.449219 1.851562 10.425781 1.828125 10.40625 1.808594 C 10.40625 1.808594 10.289062 1.464844 10.679688 0.964844 C 10.679688 0.964844 10.183594 1.171875 10.042969 1.394531 C 9.914062 1.597656 9.910156 1.886719 10.082031 2.09375 C 10.0625 2.109375 10.042969 2.125 10.023438 2.140625 C 9.972656 2.148438 9.917969 2.15625 9.859375 2.167969 C 9.703125 2.199219 9.546875 2.328125 9.449219 2.433594 L 9.445312 2.4375 C 9.351562 2.542969 9.300781 2.640625 9.300781 2.640625 C 9.332031 2.628906 9.417969 2.632812 9.523438 2.648438 C 9.074219 3.191406 8.628906 4.023438 8.628906 5.128906 C 8.628906 6 9.476562 6.460938 9.476562 6.460938 C 9.476562 6.460938 9.59375 6.914062 9.222656 7.210938 C 8.855469 7.511719 8.570312 8.148438 8.753906 8.246094 C 8.753906 8.246094 8.257812 8.472656 8.257812 8.828125 L 9.082031 8.828125 C 9.082031 8.828125 9.179688 8.644531 9.082031 8.402344 C 9.082031 8.402344 9.28125 8.417969 9.308594 8.234375 C 9.335938 8.046875 9.082031 7.921875 9.394531 7.636719 C 9.707031 7.355469 9.847656 7.269531 9.960938 7.097656 C 9.96875 7.085938 9.980469 7.070312 9.988281 7.058594 C 10.027344 6.984375 10.09375 6.929688 10.15625 6.878906 C 10.242188 6.808594 10.328125 6.742188 10.417969 6.675781 C 10.570312 6.5625 10.738281 6.484375 10.910156 6.410156 C 10.675781 6.546875 10.421875 6.691406 10.289062 6.929688 C 10.289062 6.929688 10.40625 7 10.769531 7 C 11.214844 7 11.566406 6.628906 12.28125 6.710938 C 12.175781 6.515625 12.089844 6.308594 12.109375 6.085938 C 12.125 6.144531 12.132812 6.210938 12.144531 6.273438 C 12.164062 6.351562 12.203125 6.429688 12.242188 6.5 C 12.324219 6.652344 12.417969 6.800781 12.53125 6.933594 C 12.589844 7 12.652344 7.0625 12.714844 7.125 C 12.738281 7.148438 12.761719 7.171875 12.789062 7.1875 C 12.828125 7.21875 12.878906 7.230469 12.917969 7.261719 C 12.945312 7.285156 12.96875 7.320312 12.996094 7.34375 C 13.03125 7.375 13.066406 7.402344 13.105469 7.433594 C 13.105469 7.433594 13.25 7.527344 13.347656 7.511719 C 13.347656 7.511719 13.617188 7.890625 13.347656 8.273438 C 13.347656 8.273438 12.964844 8.488281 13.007812 8.828125 L 13.671875 8.828125 L 13.671875 8.402344 C 13.671875 8.402344 13.84375 8.445312 13.84375 8.246094 C 13.84375 8.046875 13.644531 7.933594 13.773438 7.765625 "/></g><g clip-rule="nonzero" clip-path="url(#83f0d7e047)"><path style=" stroke:none;fill-rule:nonzero;fill:#2a2a2a;fill-opacity:1;" d="M 13.773438 7.765625 L 13.789062 7.777344 C 13.859375 7.6875 13.953125 7.53125 13.953125 7.34375 C 13.953125 7.257812 13.933594 7.164062 13.878906 7.070312 C 13.828125 6.980469 13.742188 6.886719 13.613281 6.796875 L 13.601562 6.816406 L 13.621094 6.824219 C 13.621094 6.824219 13.65625 6.746094 13.691406 6.632812 C 13.726562 6.519531 13.761719 6.367188 13.761719 6.21875 C 13.761719 6.121094 13.75 6.023438 13.710938 5.9375 C 13.671875 5.851562 13.609375 5.773438 13.515625 5.71875 C 13.394531 5.648438 13.195312 5.574219 12.953125 5.476562 C 12.589844 5.328125 12.136719 5.125 11.734375 4.808594 C 11.328125 4.492188 10.972656 4.066406 10.804688 3.464844 L 10.78125 3.472656 L 10.78125 3.492188 C 10.785156 3.492188 10.820312 3.492188 10.878906 3.457031 C 10.933594 3.421875 11.015625 3.351562 11.113281 3.214844 C 11.210938 3.082031 11.285156 2.984375 11.351562 2.925781 C 11.386719 2.898438 11.417969 2.875 11.449219 2.863281 C 11.480469 2.847656 11.511719 2.84375 11.546875 2.84375 C 11.59375 2.84375 11.628906 2.855469 11.660156 2.875 C 11.675781 2.882812 11.691406 2.890625 11.707031 2.898438 C 11.722656 2.90625 11.738281 2.910156 11.757812 2.910156 C 11.777344 2.910156 11.796875 2.90625 11.8125 2.890625 C 11.832031 2.878906 11.847656 2.859375 11.863281 2.832031 C 11.921875 2.738281 11.949219 2.640625 11.949219 2.550781 C 11.949219 2.484375 11.933594 2.421875 11.90625 2.371094 C 11.894531 2.34375 11.878906 2.3125 11.859375 2.28125 C 11.828125 2.234375 11.785156 2.1875 11.714844 2.15625 C 11.644531 2.121094 11.546875 2.101562 11.40625 2.101562 C 11.253906 2.101562 11.097656 2.042969 10.945312 1.980469 C 10.796875 1.917969 10.648438 1.851562 10.511719 1.851562 C 10.496094 1.851562 10.480469 1.851562 10.46875 1.855469 L 10.46875 1.878906 L 10.488281 1.863281 C 10.464844 1.835938 10.445312 1.8125 10.421875 1.792969 L 10.40625 1.808594 L 10.429688 1.804688 L 10.421875 1.804688 L 10.429688 1.804688 L 10.421875 1.804688 L 10.429688 1.804688 C 10.425781 1.800781 10.414062 1.753906 10.414062 1.675781 C 10.414062 1.53125 10.457031 1.285156 10.699219 0.976562 C 10.703125 0.96875 10.703125 0.957031 10.699219 0.949219 C 10.691406 0.941406 10.679688 0.9375 10.671875 0.941406 C 10.671875 0.941406 10.546875 0.996094 10.402344 1.074219 C 10.332031 1.117188 10.253906 1.164062 10.1875 1.214844 C 10.121094 1.265625 10.058594 1.324219 10.023438 1.382812 C 9.960938 1.484375 9.925781 1.601562 9.925781 1.722656 C 9.925781 1.855469 9.96875 1.992188 10.0625 2.109375 L 10.082031 2.09375 L 10.066406 2.078125 C 10.046875 2.089844 10.027344 2.105469 10.007812 2.125 L 10.023438 2.140625 L 10.019531 2.121094 C 9.96875 2.125 9.914062 2.132812 9.855469 2.144531 C 9.773438 2.160156 9.691406 2.203125 9.621094 2.253906 C 9.546875 2.304688 9.484375 2.363281 9.433594 2.417969 L 9.449219 2.433594 L 9.4375 2.414062 L 9.433594 2.414062 L 9.433594 2.417969 L 9.429688 2.421875 C 9.421875 2.429688 9.421875 2.441406 9.429688 2.453125 C 9.4375 2.460938 9.453125 2.460938 9.460938 2.453125 L 9.429688 2.421875 C 9.335938 2.53125 9.28125 2.628906 9.28125 2.628906 C 9.273438 2.636719 9.277344 2.648438 9.28125 2.652344 C 9.289062 2.660156 9.296875 2.664062 9.308594 2.660156 C 9.3125 2.65625 9.332031 2.65625 9.359375 2.65625 C 9.398438 2.65625 9.453125 2.660156 9.519531 2.667969 L 9.523438 2.648438 L 9.503906 2.632812 C 9.054688 3.179688 8.605469 4.015625 8.605469 5.128906 C 8.605469 5.570312 8.820312 5.910156 9.035156 6.136719 C 9.25 6.363281 9.464844 6.480469 9.46875 6.480469 L 9.476562 6.460938 L 9.457031 6.464844 L 9.457031 6.46875 C 9.457031 6.472656 9.472656 6.535156 9.472656 6.625 C 9.472656 6.703125 9.460938 6.800781 9.421875 6.902344 C 9.386719 7 9.320312 7.105469 9.207031 7.195312 C 9.0625 7.3125 8.929688 7.484375 8.832031 7.65625 C 8.785156 7.738281 8.746094 7.824219 8.71875 7.902344 C 8.691406 7.984375 8.675781 8.054688 8.675781 8.117188 C 8.675781 8.148438 8.679688 8.179688 8.691406 8.207031 C 8.703125 8.230469 8.71875 8.253906 8.746094 8.265625 L 8.753906 8.246094 L 8.746094 8.226562 C 8.746094 8.226562 8.621094 8.285156 8.492188 8.386719 C 8.429688 8.4375 8.367188 8.5 8.316406 8.574219 C 8.269531 8.648438 8.238281 8.734375 8.238281 8.828125 C 8.238281 8.832031 8.238281 8.839844 8.242188 8.84375 C 8.246094 8.847656 8.253906 8.851562 8.257812 8.851562 L 9.082031 8.851562 C 9.089844 8.851562 9.097656 8.84375 9.101562 8.839844 C 9.101562 8.835938 9.148438 8.75 9.148438 8.621094 C 9.148438 8.554688 9.136719 8.476562 9.101562 8.394531 L 9.082031 8.402344 L 9.078125 8.425781 C 9.082031 8.425781 9.085938 8.425781 9.089844 8.425781 C 9.113281 8.425781 9.164062 8.421875 9.214844 8.398438 C 9.242188 8.386719 9.265625 8.367188 9.289062 8.339844 C 9.308594 8.3125 9.324219 8.277344 9.332031 8.234375 C 9.332031 8.226562 9.332031 8.214844 9.332031 8.203125 C 9.332031 8.148438 9.3125 8.097656 9.292969 8.050781 C 9.277344 8.003906 9.257812 7.957031 9.257812 7.910156 C 9.257812 7.875 9.265625 7.839844 9.289062 7.796875 C 9.3125 7.753906 9.347656 7.707031 9.410156 7.652344 C 9.5625 7.511719 9.675781 7.421875 9.765625 7.34375 C 9.855469 7.265625 9.921875 7.199219 9.980469 7.113281 C 9.988281 7.097656 10 7.082031 10.007812 7.070312 C 10.015625 7.0625 10.011719 7.046875 10.003906 7.039062 C 9.996094 7.03125 9.980469 7.03125 9.972656 7.042969 L 9.988281 7.058594 L 10.011719 7.066406 C 10.046875 7 10.109375 6.949219 10.171875 6.898438 C 10.257812 6.828125 10.34375 6.757812 10.429688 6.695312 C 10.582031 6.582031 10.746094 6.503906 10.921875 6.429688 L 10.898438 6.390625 C 10.78125 6.460938 10.660156 6.53125 10.546875 6.613281 C 10.4375 6.699219 10.339844 6.796875 10.269531 6.917969 C 10.265625 6.929688 10.269531 6.941406 10.277344 6.949219 C 10.28125 6.953125 10.40625 7.023438 10.769531 7.023438 C 10.972656 7.023438 11.160156 6.945312 11.363281 6.871094 C 11.566406 6.796875 11.789062 6.722656 12.074219 6.722656 C 12.136719 6.722656 12.207031 6.726562 12.277344 6.734375 C 12.285156 6.734375 12.292969 6.730469 12.300781 6.726562 C 12.304688 6.71875 12.304688 6.710938 12.300781 6.703125 C 12.207031 6.527344 12.128906 6.339844 12.128906 6.148438 C 12.128906 6.125 12.128906 6.105469 12.132812 6.085938 L 12.109375 6.085938 L 12.085938 6.089844 C 12.101562 6.148438 12.109375 6.214844 12.125 6.277344 C 12.144531 6.359375 12.183594 6.4375 12.222656 6.511719 C 12.304688 6.664062 12.398438 6.816406 12.511719 6.949219 C 12.570312 7.015625 12.636719 7.082031 12.699219 7.140625 C 12.722656 7.164062 12.746094 7.1875 12.777344 7.207031 C 12.796875 7.222656 12.820312 7.234375 12.84375 7.246094 C 12.867188 7.253906 12.886719 7.265625 12.902344 7.277344 C 12.929688 7.300781 12.949219 7.332031 12.984375 7.359375 C 13.019531 7.390625 13.054688 7.421875 13.089844 7.449219 L 13.09375 7.449219 C 13.09375 7.453125 13.125 7.472656 13.167969 7.492188 C 13.214844 7.511719 13.269531 7.535156 13.324219 7.535156 C 13.332031 7.535156 13.339844 7.535156 13.351562 7.53125 L 13.347656 7.511719 L 13.328125 7.523438 C 13.335938 7.53125 13.445312 7.695312 13.445312 7.90625 C 13.445312 8.015625 13.414062 8.136719 13.328125 8.261719 L 13.347656 8.273438 L 13.335938 8.253906 C 13.335938 8.257812 13.246094 8.304688 13.160156 8.394531 C 13.113281 8.4375 13.070312 8.492188 13.035156 8.554688 C 13.003906 8.621094 12.980469 8.695312 12.980469 8.773438 C 12.980469 8.792969 12.980469 8.8125 12.984375 8.832031 C 12.984375 8.84375 12.996094 8.851562 13.007812 8.851562 L 13.671875 8.851562 C 13.679688 8.851562 13.683594 8.847656 13.6875 8.84375 C 13.691406 8.839844 13.695312 8.832031 13.695312 8.828125 L 13.695312 8.402344 L 13.671875 8.402344 L 13.667969 8.425781 C 13.667969 8.425781 13.6875 8.429688 13.710938 8.429688 C 13.738281 8.429688 13.777344 8.421875 13.808594 8.394531 C 13.824219 8.382812 13.839844 8.363281 13.851562 8.339844 C 13.859375 8.3125 13.867188 8.285156 13.867188 8.246094 C 13.867188 8.164062 13.835938 8.097656 13.804688 8.039062 C 13.792969 8.011719 13.777344 7.984375 13.769531 7.957031 C 13.757812 7.929688 13.753906 7.90625 13.753906 7.878906 C 13.753906 7.847656 13.761719 7.816406 13.789062 7.777344 L 13.773438 7.765625 L 13.753906 7.75 C 13.71875 7.792969 13.707031 7.839844 13.707031 7.878906 C 13.707031 7.910156 13.714844 7.941406 13.726562 7.972656 C 13.742188 8.015625 13.765625 8.058594 13.785156 8.105469 C 13.804688 8.148438 13.820312 8.195312 13.820312 8.246094 C 13.820312 8.277344 13.816406 8.304688 13.808594 8.320312 C 13.796875 8.347656 13.78125 8.363281 13.761719 8.371094 C 13.746094 8.382812 13.726562 8.382812 13.710938 8.382812 C 13.699219 8.382812 13.691406 8.382812 13.6875 8.382812 C 13.683594 8.382812 13.679688 8.382812 13.679688 8.382812 L 13.679688 8.378906 L 13.675781 8.386719 L 13.679688 8.378906 L 13.675781 8.386719 L 13.679688 8.378906 C 13.671875 8.378906 13.664062 8.378906 13.660156 8.382812 C 13.652344 8.390625 13.648438 8.394531 13.648438 8.402344 L 13.648438 8.804688 L 13.007812 8.804688 L 13.007812 8.828125 L 13.03125 8.824219 C 13.027344 8.808594 13.027344 8.792969 13.027344 8.773438 C 13.027344 8.703125 13.046875 8.636719 13.078125 8.578125 C 13.125 8.488281 13.195312 8.417969 13.253906 8.371094 C 13.28125 8.34375 13.308594 8.324219 13.328125 8.3125 C 13.335938 8.308594 13.34375 8.300781 13.351562 8.300781 C 13.351562 8.296875 13.355469 8.296875 13.355469 8.296875 L 13.359375 8.296875 L 13.359375 8.292969 C 13.359375 8.292969 13.363281 8.289062 13.367188 8.289062 C 13.457031 8.15625 13.488281 8.023438 13.488281 7.90625 C 13.488281 7.671875 13.367188 7.5 13.367188 7.496094 C 13.359375 7.488281 13.351562 7.484375 13.34375 7.488281 C 13.335938 7.488281 13.332031 7.488281 13.324219 7.488281 C 13.28125 7.488281 13.230469 7.46875 13.1875 7.453125 C 13.167969 7.441406 13.148438 7.433594 13.136719 7.425781 C 13.128906 7.421875 13.125 7.417969 13.121094 7.414062 L 13.117188 7.414062 L 13.105469 7.433594 L 13.117188 7.414062 C 13.082031 7.386719 13.046875 7.355469 13.011719 7.328125 C 12.984375 7.304688 12.964844 7.269531 12.929688 7.242188 C 12.910156 7.226562 12.886719 7.214844 12.863281 7.203125 C 12.839844 7.191406 12.820312 7.183594 12.800781 7.171875 C 12.777344 7.152344 12.753906 7.128906 12.730469 7.109375 C 12.667969 7.046875 12.605469 6.984375 12.546875 6.917969 C 12.4375 6.789062 12.34375 6.640625 12.261719 6.488281 C 12.222656 6.417969 12.1875 6.34375 12.167969 6.265625 C 12.152344 6.207031 12.148438 6.144531 12.128906 6.078125 C 12.128906 6.066406 12.117188 6.0625 12.105469 6.0625 C 12.09375 6.0625 12.085938 6.070312 12.085938 6.082031 C 12.082031 6.105469 12.082031 6.125 12.082031 6.148438 C 12.082031 6.351562 12.164062 6.546875 12.261719 6.722656 L 12.28125 6.710938 L 12.28125 6.691406 C 12.210938 6.679688 12.140625 6.675781 12.074219 6.675781 C 11.78125 6.675781 11.550781 6.753906 11.347656 6.828125 C 11.140625 6.902344 10.960938 6.976562 10.769531 6.976562 C 10.589844 6.976562 10.472656 6.960938 10.398438 6.941406 C 10.363281 6.933594 10.339844 6.925781 10.324219 6.917969 C 10.316406 6.917969 10.308594 6.914062 10.304688 6.910156 L 10.300781 6.910156 L 10.296875 6.921875 L 10.300781 6.910156 L 10.296875 6.921875 L 10.300781 6.910156 L 10.289062 6.929688 L 10.308594 6.941406 C 10.375 6.824219 10.46875 6.734375 10.574219 6.652344 C 10.683594 6.570312 10.804688 6.5 10.921875 6.429688 C 10.933594 6.425781 10.9375 6.410156 10.933594 6.398438 C 10.925781 6.390625 10.914062 6.382812 10.902344 6.390625 C 10.730469 6.464844 10.558594 6.542969 10.402344 6.65625 C 10.3125 6.722656 10.226562 6.792969 10.144531 6.863281 C 10.078125 6.914062 10.011719 6.96875 9.96875 7.046875 C 9.964844 7.054688 9.96875 7.070312 9.976562 7.074219 C 9.984375 7.082031 10 7.082031 10.007812 7.070312 L 9.988281 7.058594 L 9.972656 7.042969 C 9.960938 7.058594 9.953125 7.070312 9.941406 7.085938 C 9.886719 7.167969 9.824219 7.230469 9.734375 7.308594 C 9.648438 7.386719 9.535156 7.476562 9.378906 7.621094 C 9.316406 7.675781 9.273438 7.726562 9.25 7.773438 C 9.222656 7.824219 9.214844 7.867188 9.214844 7.910156 C 9.214844 7.96875 9.234375 8.019531 9.253906 8.066406 C 9.269531 8.113281 9.289062 8.160156 9.289062 8.203125 C 9.289062 8.210938 9.289062 8.21875 9.285156 8.230469 C 9.28125 8.265625 9.269531 8.292969 9.25 8.3125 C 9.226562 8.34375 9.195312 8.359375 9.164062 8.371094 C 9.132812 8.378906 9.105469 8.378906 9.089844 8.378906 C 9.089844 8.378906 9.085938 8.378906 9.085938 8.378906 L 9.082031 8.378906 C 9.074219 8.378906 9.066406 8.382812 9.0625 8.390625 C 9.058594 8.394531 9.058594 8.402344 9.0625 8.410156 C 9.09375 8.488281 9.101562 8.558594 9.101562 8.621094 C 9.101562 8.679688 9.09375 8.730469 9.082031 8.765625 C 9.078125 8.78125 9.070312 8.792969 9.066406 8.804688 C 9.066406 8.808594 9.0625 8.8125 9.0625 8.8125 L 9.0625 8.816406 L 9.082031 8.828125 L 9.082031 8.804688 L 8.257812 8.804688 L 8.257812 8.828125 L 8.28125 8.828125 C 8.28125 8.746094 8.3125 8.667969 8.355469 8.601562 C 8.421875 8.496094 8.527344 8.414062 8.613281 8.355469 C 8.65625 8.328125 8.691406 8.304688 8.722656 8.289062 C 8.734375 8.28125 8.746094 8.277344 8.753906 8.273438 C 8.757812 8.269531 8.761719 8.269531 8.761719 8.269531 L 8.765625 8.265625 C 8.773438 8.265625 8.777344 8.257812 8.777344 8.246094 C 8.777344 8.238281 8.773438 8.230469 8.765625 8.226562 C 8.75 8.21875 8.742188 8.207031 8.734375 8.1875 C 8.726562 8.167969 8.71875 8.144531 8.71875 8.117188 C 8.71875 8.0625 8.734375 7.996094 8.761719 7.917969 C 8.839844 7.691406 9.023438 7.402344 9.238281 7.230469 C 9.355469 7.136719 9.425781 7.023438 9.464844 6.917969 C 9.507812 6.808594 9.515625 6.707031 9.515625 6.625 C 9.515625 6.523438 9.5 6.457031 9.5 6.457031 C 9.5 6.449219 9.496094 6.445312 9.488281 6.441406 C 9.464844 6.425781 9.253906 6.304688 9.050781 6.085938 C 8.847656 5.863281 8.652344 5.542969 8.652344 5.128906 C 8.652344 4.03125 9.09375 3.203125 9.539062 2.660156 C 9.542969 2.65625 9.546875 2.648438 9.542969 2.640625 C 9.539062 2.632812 9.53125 2.625 9.523438 2.625 C 9.460938 2.617188 9.402344 2.609375 9.359375 2.609375 C 9.332031 2.609375 9.308594 2.613281 9.292969 2.617188 L 9.300781 2.640625 L 9.320312 2.648438 C 9.324219 2.640625 9.378906 2.550781 9.464844 2.453125 C 9.472656 2.441406 9.472656 2.429688 9.464844 2.421875 C 9.453125 2.410156 9.441406 2.410156 9.433594 2.417969 L 9.445312 2.4375 L 9.464844 2.453125 L 9.464844 2.449219 L 9.449219 2.433594 L 9.464844 2.449219 L 9.46875 2.449219 C 9.515625 2.398438 9.578125 2.339844 9.644531 2.289062 C 9.714844 2.242188 9.789062 2.203125 9.863281 2.191406 C 9.921875 2.179688 9.976562 2.171875 10.027344 2.164062 C 10.03125 2.164062 10.035156 2.160156 10.039062 2.160156 C 10.058594 2.140625 10.078125 2.128906 10.09375 2.113281 C 10.101562 2.109375 10.101562 2.101562 10.105469 2.097656 C 10.105469 2.089844 10.101562 2.085938 10.097656 2.078125 C 10.011719 1.972656 9.972656 1.847656 9.972656 1.722656 C 9.972656 1.609375 10.003906 1.5 10.0625 1.40625 C 10.09375 1.355469 10.148438 1.300781 10.214844 1.25 C 10.3125 1.175781 10.429688 1.109375 10.527344 1.0625 C 10.574219 1.035156 10.613281 1.019531 10.644531 1.003906 C 10.65625 0.996094 10.667969 0.992188 10.675781 0.988281 C 10.683594 0.984375 10.6875 0.984375 10.6875 0.984375 L 10.679688 0.964844 L 10.660156 0.949219 C 10.414062 1.265625 10.367188 1.523438 10.367188 1.675781 C 10.367188 1.765625 10.382812 1.816406 10.382812 1.816406 C 10.386719 1.820312 10.386719 1.824219 10.390625 1.828125 C 10.410156 1.84375 10.433594 1.867188 10.453125 1.890625 C 10.457031 1.898438 10.464844 1.902344 10.472656 1.898438 C 10.484375 1.898438 10.5 1.898438 10.511719 1.898438 C 10.636719 1.898438 10.777344 1.957031 10.929688 2.019531 C 11.082031 2.082031 11.242188 2.148438 11.40625 2.148438 C 11.496094 2.148438 11.566406 2.15625 11.621094 2.171875 C 11.707031 2.191406 11.753906 2.226562 11.789062 2.265625 C 11.824219 2.304688 11.84375 2.347656 11.867188 2.390625 C 11.890625 2.4375 11.902344 2.492188 11.902344 2.550781 C 11.902344 2.632812 11.878906 2.722656 11.824219 2.808594 C 11.808594 2.832031 11.796875 2.847656 11.785156 2.855469 C 11.773438 2.863281 11.765625 2.867188 11.757812 2.867188 C 11.75 2.867188 11.738281 2.863281 11.726562 2.855469 C 11.6875 2.839844 11.632812 2.796875 11.546875 2.796875 C 11.503906 2.796875 11.464844 2.804688 11.429688 2.820312 C 11.375 2.84375 11.324219 2.886719 11.265625 2.945312 C 11.210938 3.007812 11.152344 3.085938 11.078125 3.1875 C 10.980469 3.320312 10.902344 3.386719 10.851562 3.417969 C 10.828125 3.433594 10.808594 3.441406 10.796875 3.445312 C 10.789062 3.445312 10.785156 3.449219 10.785156 3.449219 L 10.78125 3.449219 L 10.78125 3.460938 L 10.78125 3.449219 L 10.78125 3.460938 L 10.78125 3.449219 C 10.773438 3.449219 10.769531 3.453125 10.765625 3.457031 C 10.761719 3.464844 10.757812 3.46875 10.761719 3.476562 C 10.875 3.882812 11.074219 4.214844 11.316406 4.484375 C 11.679688 4.886719 12.136719 5.15625 12.546875 5.347656 C 12.75 5.445312 12.945312 5.523438 13.109375 5.589844 C 13.273438 5.65625 13.40625 5.710938 13.492188 5.757812 C 13.578125 5.808594 13.632812 5.875 13.667969 5.957031 C 13.703125 6.035156 13.71875 6.125 13.71875 6.21875 C 13.71875 6.363281 13.683594 6.507812 13.648438 6.621094 C 13.632812 6.675781 13.613281 6.722656 13.601562 6.753906 C 13.597656 6.773438 13.589844 6.785156 13.585938 6.792969 C 13.585938 6.796875 13.582031 6.800781 13.582031 6.800781 C 13.582031 6.804688 13.582031 6.804688 13.582031 6.804688 C 13.578125 6.816406 13.578125 6.828125 13.589844 6.835938 C 13.710938 6.921875 13.792969 7.007812 13.839844 7.09375 C 13.890625 7.179688 13.910156 7.265625 13.910156 7.34375 C 13.910156 7.515625 13.820312 7.664062 13.753906 7.75 L 13.773438 7.765625 "/></g><path style=" stroke:none;fill-rule:nonzero;fill:#2a2a2a;fill-opacity:1;" d="M 10.324219 2.304688 C 10.316406 2.316406 10.308594 2.332031 10.296875 2.34375 C 10.285156 2.359375 10.269531 2.375 10.25 2.390625 C 10.230469 2.402344 10.207031 2.414062 10.179688 2.425781 C 10.167969 2.429688 10.15625 2.433594 10.140625 2.4375 C 10.125 2.441406 10.113281 2.441406 10.097656 2.445312 C 10.066406 2.445312 10.039062 2.445312 10.007812 2.445312 C 9.976562 2.445312 9.945312 2.441406 9.917969 2.4375 C 9.886719 2.4375 9.855469 2.433594 9.828125 2.429688 C 9.796875 2.425781 9.769531 2.421875 9.742188 2.421875 C 9.6875 2.414062 9.632812 2.40625 9.589844 2.40625 C 9.546875 2.40625 9.507812 2.40625 9.484375 2.414062 C 9.472656 2.417969 9.464844 2.421875 9.457031 2.425781 L 9.457031 2.429688 C 9.464844 2.421875 9.476562 2.410156 9.480469 2.40625 C 9.503906 2.390625 9.542969 2.378906 9.589844 2.375 C 9.632812 2.367188 9.6875 2.367188 9.746094 2.371094 C 9.773438 2.371094 9.804688 2.371094 9.832031 2.375 C 9.863281 2.378906 9.890625 2.378906 9.921875 2.382812 C 9.953125 2.386719 9.980469 2.386719 10.011719 2.390625 C 10.039062 2.390625 10.066406 2.394531 10.09375 2.394531 C 10.105469 2.394531 10.121094 2.390625 10.132812 2.390625 C 10.144531 2.390625 10.15625 2.386719 10.167969 2.386719 C 10.191406 2.378906 10.214844 2.371094 10.234375 2.359375 C 10.25 2.351562 10.269531 2.339844 10.28125 2.328125 C 10.296875 2.320312 10.304688 2.308594 10.316406 2.296875 C 10.332031 2.277344 10.339844 2.265625 10.339844 2.265625 C 10.339844 2.265625 10.335938 2.28125 10.324219 2.304688 "/><path style=" stroke:none;fill-rule:nonzero;fill:#2a2a2a;fill-opacity:1;" d="M 9.699219 6.160156 C 9.679688 6.160156 9.648438 6.15625 9.609375 6.148438 C 9.589844 6.144531 9.566406 6.140625 9.542969 6.132812 C 9.523438 6.121094 9.496094 6.117188 9.472656 6.101562 C 9.417969 6.078125 9.367188 6.042969 9.308594 6.003906 C 9.253906 5.960938 9.199219 5.910156 9.144531 5.851562 C 9.09375 5.792969 9.039062 5.726562 8.992188 5.65625 C 8.980469 5.636719 8.96875 5.617188 8.957031 5.597656 L 8.941406 5.570312 L 8.921875 5.539062 C 8.914062 5.519531 8.902344 5.503906 8.894531 5.484375 C 8.882812 5.460938 8.875 5.4375 8.863281 5.417969 C 8.828125 5.332031 8.804688 5.238281 8.785156 5.148438 C 8.773438 5.054688 8.765625 4.960938 8.765625 4.871094 C 8.765625 4.78125 8.773438 4.691406 8.789062 4.605469 C 8.800781 4.519531 8.816406 4.441406 8.835938 4.363281 C 8.847656 4.328125 8.855469 4.289062 8.867188 4.253906 C 8.878906 4.21875 8.886719 4.1875 8.898438 4.152344 C 8.910156 4.121094 8.921875 4.089844 8.929688 4.0625 C 8.945312 4.035156 8.957031 4.007812 8.96875 3.980469 C 8.988281 3.929688 9.015625 3.890625 9.035156 3.855469 C 9.054688 3.820312 9.070312 3.792969 9.082031 3.777344 C 9.09375 3.757812 9.101562 3.75 9.101562 3.75 C 9.101562 3.75 9.085938 3.792969 9.058594 3.867188 C 9.054688 3.882812 9.046875 3.90625 9.039062 3.925781 C 9.03125 3.949219 9.023438 3.972656 9.019531 4 C 9.011719 4.023438 9.003906 4.050781 8.996094 4.082031 C 8.992188 4.113281 8.984375 4.144531 8.976562 4.175781 C 8.964844 4.238281 8.953125 4.3125 8.941406 4.386719 C 8.929688 4.460938 8.921875 4.539062 8.910156 4.621094 C 8.90625 4.703125 8.902344 4.785156 8.902344 4.871094 C 8.90625 4.953125 8.914062 5.039062 8.925781 5.125 C 8.941406 5.207031 8.964844 5.289062 8.992188 5.367188 C 9 5.386719 9.007812 5.402344 9.011719 5.421875 C 9.023438 5.441406 9.03125 5.460938 9.042969 5.480469 L 9.054688 5.507812 L 9.070312 5.535156 C 9.078125 5.550781 9.089844 5.570312 9.097656 5.585938 C 9.140625 5.65625 9.183594 5.722656 9.226562 5.78125 C 9.273438 5.839844 9.316406 5.894531 9.363281 5.941406 C 9.375 5.953125 9.386719 5.964844 9.398438 5.972656 C 9.410156 5.984375 9.421875 5.996094 9.433594 6.003906 C 9.441406 6.011719 9.453125 6.023438 9.464844 6.03125 C 9.476562 6.039062 9.488281 6.046875 9.5 6.054688 C 9.519531 6.070312 9.542969 6.082031 9.5625 6.09375 C 9.582031 6.105469 9.601562 6.113281 9.617188 6.121094 C 9.636719 6.128906 9.652344 6.136719 9.664062 6.140625 C 9.679688 6.144531 9.691406 6.148438 9.703125 6.152344 C 9.722656 6.15625 9.734375 6.160156 9.734375 6.160156 C 9.734375 6.160156 9.722656 6.160156 9.699219 6.160156 "/><path style=" stroke:none;fill-rule:nonzero;fill:#2a2a2a;fill-opacity:1;" d="M 10.886719 2.261719 C 10.886719 2.261719 10.851562 2.253906 10.832031 2.265625 C 10.832031 2.265625 10.71875 2.414062 10.53125 2.1875 C 10.53125 2.1875 10.703125 2.09375 10.886719 2.261719 "/><path style=" stroke:none;fill-rule:nonzero;fill:#2a2a2a;fill-opacity:1;" d="M 10.578125 3.160156 C 10.5625 3.15625 10.546875 3.148438 10.53125 3.140625 C 10.515625 3.128906 10.503906 3.121094 10.492188 3.109375 C 10.488281 3.105469 10.480469 3.097656 10.476562 3.09375 C 10.472656 3.085938 10.46875 3.082031 10.464844 3.074219 C 10.460938 3.070312 10.457031 3.066406 10.453125 3.058594 C 10.453125 3.054688 10.449219 3.046875 10.445312 3.042969 C 10.4375 3.023438 10.433594 3 10.429688 2.984375 C 10.425781 2.972656 10.425781 2.957031 10.421875 2.949219 C 10.421875 2.941406 10.421875 2.9375 10.421875 2.9375 C 10.421875 2.933594 10.425781 2.929688 10.429688 2.929688 C 10.433594 2.929688 10.4375 2.929688 10.4375 2.933594 C 10.4375 2.933594 10.441406 2.9375 10.445312 2.941406 C 10.449219 2.949219 10.457031 2.957031 10.464844 2.96875 C 10.476562 2.980469 10.484375 2.992188 10.5 3.007812 C 10.507812 3.011719 10.511719 3.019531 10.523438 3.027344 C 10.527344 3.027344 10.527344 3.03125 10.535156 3.035156 C 10.539062 3.039062 10.542969 3.039062 10.546875 3.042969 C 10.5625 3.054688 10.582031 3.058594 10.605469 3.0625 C 10.625 3.066406 10.648438 3.066406 10.675781 3.0625 C 10.699219 3.058594 10.730469 3.050781 10.757812 3.042969 C 10.785156 3.03125 10.8125 3.019531 10.84375 3.003906 C 10.871094 2.988281 10.898438 2.972656 10.925781 2.957031 C 10.953125 2.9375 10.980469 2.921875 11.003906 2.902344 C 11.03125 2.886719 11.054688 2.867188 11.078125 2.851562 C 11.101562 2.835938 11.121094 2.820312 11.144531 2.804688 C 11.183594 2.773438 11.214844 2.746094 11.238281 2.730469 C 11.261719 2.710938 11.277344 2.699219 11.277344 2.699219 C 11.28125 2.699219 11.285156 2.699219 11.289062 2.703125 C 11.289062 2.703125 11.289062 2.707031 11.289062 2.710938 C 11.289062 2.710938 11.28125 2.726562 11.261719 2.75 C 11.242188 2.773438 11.21875 2.808594 11.183594 2.847656 C 11.148438 2.886719 11.109375 2.929688 11.058594 2.972656 C 11.011719 3.015625 10.953125 3.058594 10.894531 3.09375 C 10.863281 3.113281 10.828125 3.128906 10.796875 3.144531 C 10.761719 3.15625 10.726562 3.167969 10.6875 3.171875 C 10.652344 3.175781 10.613281 3.171875 10.578125 3.160156 "/><path style=" stroke:none;fill-rule:nonzero;fill:#919191;fill-opacity:1;" d="M 11.28125 1.296875 C 11.261719 1.78125 11.019531 1.925781 11.019531 1.925781 C 11 1.925781 10.976562 1.925781 10.957031 1.929688 C 11.019531 1.960938 11.082031 1.996094 11.148438 2.019531 C 11.21875 2.046875 11.289062 2.054688 11.359375 2.058594 C 11.398438 2 11.425781 1.933594 11.4375 1.863281 C 11.464844 1.664062 11.28125 1.296875 11.28125 1.296875 "/><path style=" stroke:none;fill-rule:nonzero;fill:#2a2a2a;fill-opacity:1;" d="M 11.28125 1.296875 L 11.257812 1.296875 C 11.246094 1.535156 11.183594 1.6875 11.125 1.78125 C 11.09375 1.828125 11.0625 1.859375 11.042969 1.878906 C 11.03125 1.886719 11.023438 1.894531 11.015625 1.898438 C 11.011719 1.902344 11.011719 1.902344 11.011719 1.902344 L 11.007812 1.90625 L 11.011719 1.910156 L 11.007812 1.90625 L 11.011719 1.910156 L 11.007812 1.90625 L 11.019531 1.925781 L 11.019531 1.902344 C 10.996094 1.902344 10.972656 1.90625 10.953125 1.910156 C 10.941406 1.910156 10.933594 1.917969 10.933594 1.929688 C 10.933594 1.9375 10.9375 1.949219 10.945312 1.953125 C 11.007812 1.984375 11.074219 2.015625 11.140625 2.039062 C 11.214844 2.070312 11.285156 2.078125 11.359375 2.082031 C 11.367188 2.082031 11.375 2.078125 11.378906 2.070312 C 11.421875 2.011719 11.449219 1.941406 11.460938 1.867188 C 11.460938 1.851562 11.460938 1.835938 11.460938 1.816406 C 11.460938 1.710938 11.421875 1.578125 11.382812 1.472656 C 11.339844 1.367188 11.300781 1.289062 11.300781 1.289062 C 11.296875 1.277344 11.285156 1.273438 11.277344 1.277344 C 11.265625 1.277344 11.257812 1.285156 11.257812 1.296875 L 11.28125 1.296875 L 11.261719 1.308594 C 11.261719 1.308594 11.261719 1.308594 11.261719 1.3125 C 11.269531 1.328125 11.308594 1.410156 11.347656 1.507812 C 11.382812 1.609375 11.417969 1.726562 11.417969 1.816406 C 11.417969 1.832031 11.417969 1.847656 11.414062 1.863281 C 11.40625 1.925781 11.378906 1.992188 11.339844 2.046875 L 11.359375 2.058594 L 11.359375 2.035156 C 11.289062 2.03125 11.226562 2.023438 11.15625 2 C 11.09375 1.972656 11.03125 1.941406 10.964844 1.910156 L 10.957031 1.929688 L 10.960938 1.953125 C 10.980469 1.949219 11 1.949219 11.019531 1.949219 C 11.023438 1.949219 11.027344 1.945312 11.03125 1.945312 C 11.035156 1.941406 11.097656 1.90625 11.160156 1.804688 C 11.226562 1.707031 11.292969 1.542969 11.304688 1.300781 L 11.28125 1.296875 L 11.261719 1.308594 L 11.28125 1.296875 "/></g></svg>