<svg version="1.1" id="svg" xmlns="http://www.w3.org/2000/svg" x="0" y="0" viewBox="0 0 180 565" xml:space="preserve"><style>.st0{fill:#5e5f5f}.st1{fill:#bf1718}.st5{fill:#fff}</style><path class="st0" d="M109.1 255.5H70.9c-2.9 0-5.3 2.4-5.3 5.3v24.4c0 .7.1 1.4.4 2l-.1.1.6.8.1.1.1.2.3.3c.1.1.2.3.4.4.1.1.3.2.4.4l.2.2c.2.2.5.3.7.4.1 0 .1.1.2.1.3.1.6.2.8.3h.1c.3.1.6.1 1 .1h38.1c.3 0 .6 0 .9-.1h.2c.3-.1.5-.1.8-.2.1 0 .2-.1.3-.1l.6-.3c.1-.1.2-.1.3-.2.2-.1.3-.2.5-.4l.2-.2c.2-.2.3-.3.4-.5l.1-.1s0-.1.1-.1l.6-.9-.1-.1c.2-.6.4-1.2.4-1.9V261.2c.1-3.3-2.2-5.7-5.1-5.7zm-40.5 5.3c0-1.3 1-2.3 2.3-2.3H109c1.3 0 2.3 1 2.3 2.3v1.9l-13.2 9.5L90 278l-8.1-5.8-13.3-9.6v-1.8zm0 5.5l11.1 8-11.1 10.4v-18.4zm2.3 21.2H70.3h-.1l12-11.2 7.8 5.6 7.8-5.6 11.9 11.2c-.1 0-.1 0-.2.1H70.9zm40.5-2.9l-11-10.3 11-7.9v18.2zM159.6 300.1h-19.3c-3.5 0-6.3-2.8-6.3-6.3v-41.6c0-3.5 2.8-6.3 6.3-6.3h19.4c3.5 0 6.2 2.8 6.2 6.3v41.6c0 3.5-2.8 6.3-6.3 6.3zm-19.2-51.2c-1.8 0-3.3 1.5-3.3 3.3v41.6c0 1.8 1.5 3.3 3.3 3.3h19.3c1.8 0 3.3-1.5 3.3-3.3v-41.6c0-1.9-1.4-3.3-3.2-3.3h-19.4z"/><path class="st0" d="M153.6 250.4h2.1c.4 0 .8.3.8.8s-.3.8-.8.8h-2.1c-.4 0-.8-.3-.8-.8s.4-.8.8-.8zM144.4 250.4h6.3c.4 0 .8.3.8.8s-.3.8-.8.8h-6.3c-.4 0-.8-.3-.8-.8s.4-.8.8-.8z"/><circle class="st0" cx="150.2" cy="293.1" r="2.1"/><path class="st0" d="M157 289.1h-13.8c-2 0-3.6-1.8-3.6-3.9v-26.6c0-2.2 1.6-3.9 3.6-3.9H157c2 0 3.6 1.8 3.6 3.9v26.6c0 2.1-1.6 3.9-3.6 3.9zm-13.9-31.4c-.4 0-.6.4-.6.9v26.6c0 .5.3.9.6.9H157c.4 0 .6-.4.6-.9v-26.6c0-.5-.3-.9-.6-.9h-13.9z"/><path class="st1" d="M109.1 315.5H70.9c-2.9 0-5.3 2.4-5.3 5.3v24.4c0 .7.1 1.4.4 2l-.1.1.6.8.1.1.1.2.3.3c.1.1.2.3.4.4.1.1.3.2.4.4l.2.2c.2.2.5.3.7.4.1 0 .1.1.2.1.3.1.6.2.8.3h.1c.3.1.6.1 1 .1h38.1c.3 0 .6 0 .9-.1h.2c.3-.1.5-.1.8-.2.1 0 .2-.1.3-.1l.6-.3c.1-.1.2-.1.3-.2.2-.1.3-.2.5-.4l.2-.2c.2-.2.3-.3.4-.5l.1-.1s0-.1.1-.1l.6-.9-.1-.1c.2-.6.4-1.2.4-1.9V321.2c.1-3.3-2.2-5.7-5.1-5.7zm-40.5 5.3c0-1.3 1-2.3 2.3-2.3H109c1.3 0 2.3 1 2.3 2.3v1.9l-13.2 9.5L90 338l-8.1-5.8-13.3-9.6v-1.8zm0 5.5l11.1 8-11.1 10.4v-18.4zm2.3 21.2H70.3h-.1l12-11.2 7.8 5.6 7.8-5.6 11.9 11.2c-.1 0-.1 0-.2.1H70.9zm40.5-2.9l-11-10.3 11-7.9v18.2zM159.6 360.1h-19.3c-3.5 0-6.3-2.8-6.3-6.3v-41.6c0-3.5 2.8-6.3 6.3-6.3h19.4c3.5 0 6.2 2.8 6.2 6.3v41.6c0 3.5-2.8 6.3-6.3 6.3zm-19.2-51.2c-1.8 0-3.3 1.5-3.3 3.3v41.6c0 1.8 1.5 3.3 3.3 3.3h19.3c1.8 0 3.3-1.5 3.3-3.3v-41.6c0-1.9-1.4-3.3-3.2-3.3h-19.4z"/><path class="st1" d="M153.6 310.4h2.1c.4 0 .8.3.8.8s-.3.8-.8.8h-2.1c-.4 0-.8-.3-.8-.8s.4-.8.8-.8zM144.4 310.4h6.3c.4 0 .8.3.8.8s-.3.8-.8.8h-6.3c-.4 0-.8-.3-.8-.8s.4-.8.8-.8z"/><circle class="st1" cx="150.2" cy="353.1" r="2.1"/><path class="st1" d="M157 349.1h-13.8c-2 0-3.6-1.8-3.6-3.9v-26.6c0-2.2 1.6-3.9 3.6-3.9H157c2 0 3.6 1.8 3.6 3.9v26.6c0 2.1-1.6 3.9-3.6 3.9zm-13.9-31.4c-.4 0-.6.4-.6.9v26.6c0 .5.3.9.6.9H157c.4 0 .6-.4.6-.9v-26.6c0-.5-.3-.9-.6-.9h-13.9z"/><path d="M10.2 355.4c-.7 0-1.3-.3-1.8-.8-.7-.7-.9-1.7-.6-2.6l2.8-8.4c-1.9-3.2-2.9-6.9-2.9-10.8v-1c.6-11.9 10.3-21.2 22.3-21.2 12.2 0 22 9.4 22.3 21.5v.7c0 12.2-10 22.1-22.2 22.1-3.7 0-7.1-.8-10.2-2.5l-8.8 2.8c-.3.1-.6.2-.9.2zM30 313.6c-10.4 0-18.8 8-19.2 18.3v.9c0 3.5 1 7 2.8 9.8l.4.6-3 8.9 9.2-2.9.6.3c2.8 1.6 6 2.4 9.4 2.4 10.6 0 19.2-8.6 19.2-19.1v-.7c-.4-10.3-8.9-18.5-19.4-18.5z" fill="#65b55e"/><path d="M41.6 340.9c-.5 1.2-2.8 2.5-3.8 2.6-.9.2-.9.9-6.8-1.4-5.8-2.2-9.4-8.1-9.7-8.4-.2-.3-1.4-1.8-2-3.8-.2-.6-.3-1.2-.3-1.8 0-2.8 1.5-4.1 2-4.8.6-.6 1.2-.8 1.5-.8h1.1c.3 0 .8-.2 1.2.9.5 1.1 1.5 3.8 1.7 4.1.2.2.2.6 0 .9-.2.2-.2.5-.3.6 0 .2-.2.2-.2.3l-.9.9c-.3.2-.6.5-.3 1.1.3.5 1.4 2.3 3.1 3.8 2.2 1.8 4 2.5 4.6 2.8.6.3.9.2 1.2-.2.3-.3 1.5-1.5 1.8-2.2.3-.6.8-.5 1.2-.3.5.2 3.2 1.5 3.8 1.8.5.3.9.5 1.2 1.1.4.3.4 1.4-.1 2.8z" fill-rule="evenodd" clip-rule="evenodd" fill="#65b55e"/><path class="st0" d="M10.2 295.4c-.7 0-1.3-.3-1.8-.8-.7-.7-.9-1.7-.6-2.6l2.8-8.4c-1.9-3.2-2.9-6.9-2.9-10.8v-1c.6-11.9 10.3-21.2 22.3-21.2 12.2 0 22 9.4 22.3 21.5v.7c0 12.2-10 22.1-22.2 22.1-3.7 0-7.1-.8-10.2-2.5l-8.8 2.8c-.3.1-.6.2-.9.2zM30 253.6c-10.4 0-18.8 8-19.2 18.3v.9c0 3.5 1 7 2.8 9.8l.4.6-3 8.9 9.2-2.9.6.3c2.8 1.6 6 2.4 9.4 2.4 10.6 0 19.2-8.6 19.2-19.1v-.7c-.4-10.3-8.9-18.5-19.4-18.5z"/><path d="M41.6 280.9c-.5 1.2-2.8 2.5-3.8 2.6-.9.2-.9.9-6.8-1.4-5.8-2.2-9.4-8.1-9.7-8.4-.2-.3-1.4-1.8-2-3.8-.2-.6-.3-1.2-.3-1.8 0-2.8 1.5-4.1 2-4.8.6-.6 1.2-.8 1.5-.8h1.1c.3 0 .8-.2 1.2.9.5 1.1 1.5 3.8 1.7 4.1.2.2.2.6 0 .9-.2.2-.2.5-.3.6 0 .2-.2.2-.2.3l-.9.9c-.3.2-.6.5-.3 1.1.3.5 1.4 2.3 3.1 3.8 2.2 1.8 4 2.5 4.6 2.8.6.3.9.2 1.2-.2.3-.3 1.5-1.5 1.8-2.2.3-.6.8-.5 1.2-.3.5.2 3.2 1.5 3.8 1.8.5.3.9.5 1.2 1.1.4.3.4 1.4-.1 2.8z" fill-rule="evenodd" clip-rule="evenodd" fill="#5e5f5f"/><g><path class="st0" d="M5.1 521.3c.8 0 1.4-.6 1.4-1.4v-6.6c0-1.6 1.3-2.9 2.9-2.9h7.4c1.6 0 2.9 1.3 2.9 2.9v5.1c0 .8.6 1.4 1.4 1.4.8 0 1.4-.6 1.4-1.4v-5.1c0-2.5-1.6-4.6-3.9-5.3.8-1 1.3-2.3 1.3-3.8 0-3.4-2.8-6.2-6.2-6.2s-6.2 2.8-6.2 6.2c0 1.3.4 2.5 1.1 3.6-2.7.4-4.7 2.7-4.7 5.5v6.6c-.1.8.5 1.4 1.2 1.4zm8.5-20.6c1.9 0 3.5 1.6 3.5 3.5s-1.6 3.5-3.5 3.5-3.5-1.6-3.5-3.5 1.6-3.5 3.5-3.5zM36.9 519.8c.8 0 1.4-.6 1.4-1.4v-5.1c0-1.6 1.3-2.9 2.9-2.9h7.4c1.6 0 2.9 1.3 2.9 2.9v5.1c0 .8.6 1.4 1.4 1.4s1.4-.6 1.4-1.4v-5.1c0-2.5-1.6-4.6-3.9-5.3.8-1 1.3-2.3 1.3-3.8 0-3.4-2.8-6.2-6.2-6.2-3.4 0-6.2 2.8-6.2 6.2 0 1.3.4 2.5 1.1 3.6-2.7.4-4.7 2.7-4.7 5.5v5.1c-.1.7.5 1.4 1.2 1.4zm8.5-19.1c1.9 0 3.5 1.6 3.5 3.5s-1.6 3.5-3.5 3.5-3.5-1.6-3.5-3.5 1.6-3.5 3.5-3.5zM82.1 508c.8-1 1.3-2.3 1.3-3.8 0-3.4-2.8-6.2-6.2-6.2-3.4 0-6.2 2.8-6.2 6.2 0 1.3.4 2.5 1.1 3.6-2.7.4-4.7 2.7-4.7 5.5v5.1c0 .8.6 1.4 1.4 1.4s1.4-.6 1.4-1.4v-5.1c0-1.6 1.3-2.9 2.9-2.9h7.4c1.6 0 2.9 1.3 2.9 2.9v6.6c0 .8.6 1.4 1.4 1.4.8 0 1.4-.6 1.4-1.4v-6.6c-.2-2.5-1.8-4.6-4.1-5.3zm-4.9-7.3c1.9 0 3.5 1.6 3.5 3.5s-1.6 3.5-3.5 3.5-3.5-1.6-3.5-3.5 1.6-3.5 3.5-3.5zM18.5 546.2c.8-1 1.3-2.3 1.3-3.8 0-3.4-2.8-6.2-6.2-6.2s-6.2 2.8-6.2 6.2c0 1.3.4 2.5 1.1 3.6-2.7.4-4.7 2.7-4.7 5.5v5.1c0 .8.6 1.4 1.4 1.4s1.4-.6 1.4-1.4v-5.1c0-1.6 1.3-2.9 2.9-2.9h7.4c1.6 0 2.9 1.3 2.9 2.9v5.1c0 .8.6 1.4 1.4 1.4.8 0 1.4-.6 1.4-1.4v-5.1c-.2-2.5-1.8-4.6-4.1-5.3zm-4.9-7.3c1.9 0 3.5 1.6 3.5 3.5s-1.6 3.5-3.5 3.5-3.5-1.6-3.5-3.5 1.6-3.5 3.5-3.5zM50.3 546.2c.8-1 1.3-2.3 1.3-3.8 0-3.4-2.8-6.2-6.2-6.2-3.4 0-6.2 2.8-6.2 6.2 0 1.3.4 2.5 1.1 3.6-2.7.4-4.7 2.7-4.7 5.5v5.1c0 .8.6 1.4 1.4 1.4s1.4-.6 1.4-1.4v-5.1c0-1.6 1.3-2.9 2.9-2.9h7.4c1.6 0 2.9 1.3 2.9 2.9v5.1c0 .8.6 1.4 1.4 1.4s1.4-.6 1.4-1.4v-5.1c-.2-2.5-1.8-4.6-4.1-5.3zm-4.9-7.3c1.9 0 3.5 1.6 3.5 3.5s-1.6 3.5-3.5 3.5-3.5-1.6-3.5-3.5 1.6-3.5 3.5-3.5zM82.1 546.2c.8-1 1.3-2.3 1.3-3.8 0-3.4-2.8-6.2-6.2-6.2-3.4 0-6.2 2.8-6.2 6.2 0 1.3.4 2.5 1.1 3.6-2.7.4-4.7 2.7-4.7 5.5v5.1c0 .8.6 1.4 1.4 1.4s1.4-.6 1.4-1.4v-5.1c0-1.6 1.3-2.9 2.9-2.9h7.4c1.6 0 2.9 1.3 2.9 2.9v5.1c0 .8.6 1.4 1.4 1.4.8 0 1.4-.6 1.4-1.4v-5.1c-.2-2.5-1.8-4.6-4.1-5.3zm-4.9-7.3c1.9 0 3.5 1.6 3.5 3.5s-1.6 3.5-3.5 3.5-3.5-1.6-3.5-3.5 1.6-3.5 3.5-3.5zM36 537.7c0 .8.6 1.4 1.4 1.4s1.4-.6 1.4-1.4v-5.4c0-2.5-1.6-4.6-3.9-5.3.8-1 1.3-2.3 1.3-3.8 0-3.4-2.8-6.2-6.2-6.2s-6.2 2.8-6.2 6.2c0 1.3.4 2.5 1.1 3.6-2.7.4-4.7 2.7-4.7 5.5v5.5c0 .8.6 1.4 1.4 1.4.8 0 1.4-.6 1.4-1.4v-5.5c0-1.6 1.3-2.9 2.9-2.9h7.4c1.6 0 2.9 1.3 2.9 2.9v5.4zm-6.1-17.9c1.9 0 3.5 1.6 3.5 3.5s-1.6 3.5-3.5 3.5-3.5-1.6-3.5-3.5c0-2 1.5-3.5 3.5-3.5zM68.4 539.2c.8 0 1.4-.6 1.4-1.4v-5.5c0-2.5-1.6-4.6-3.9-5.3.8-1 1.3-2.3 1.3-3.8 0-3.4-2.8-6.2-6.2-6.2-3.4 0-6.2 2.8-6.2 6.2 0 1.3.4 2.5 1.1 3.6-2.7.4-4.7 2.7-4.7 5.5v5.4c0 .8.6 1.4 1.4 1.4s1.4-.6 1.4-1.4v-5.4c0-1.6 1.3-2.9 2.9-2.9h7.4c1.6 0 2.9 1.3 2.9 2.9v5.5c-.2.8.4 1.4 1.2 1.4zm-7.5-19.5c1.9 0 3.5 1.6 3.5 3.5s-1.6 3.5-3.5 3.5-3.5-1.6-3.5-3.5 1.6-3.5 3.5-3.5z"/></g><g><path class="st0" d="M86.1 425.7l-14.8-14.8c2.7-3.1 4.3-7.1 4.3-11.4 0-4.2-1.5-8-3.9-10.9l6.5-6c.7.4 1.4.6 2.2.6 2.6 0 4.7-2.1 4.7-4.7s-2.1-4.7-4.7-4.7-4.7 2.1-4.7 4.7c0 .8.2 1.6.6 2.3l-6.4 5.9c-3.1-2.8-7.1-4.5-11.6-4.5-6 0-11.2 3-14.3 7.6l-5.4-2.8c.1-.3.1-.6.1-.9 0-2.6-2.1-4.7-4.7-4.7s-4.7 2.1-4.7 4.7c0 1.2.5 2.4 1.3 3.2l-16.5 25.3c-.2 0-.5-.1-.8-.1-2.6 0-4.7 2.1-4.7 4.7s2.1 4.7 4.7 4.7 4.7-2.1 4.7-4.7c0-1.4-.6-2.6-1.5-3.5l16.4-25.1c.4.1.7.2 1.1.2 1.3 0 2.5-.6 3.4-1.5l5.3 2.8c-1.1 2.2-1.7 4.7-1.7 7.4 0 9.6 7.8 17.3 17.3 17.3 4.2 0 8.1-1.5 11.1-4l14.8 14.8c.3.3.6.4.9.4s.7-.1.9-.4c.7-.5.7-1.4.1-1.9zm-72.7-4.4c-1.1 0-2-.9-2-2s.9-2 2-2 2 .9 2 2-.9 2-2 2zM34 388.1c-1.1 0-2-.9-2-2s.9-2 2-2 2 .9 2 2c.1 1.1-.8 2-2 2zm46.4-11.8c1.1 0 2 .9 2 2s-.9 2-2 2-2-.9-2-2c0-1 .9-2 2-2zm-22.1 8.5c3.7 0 7 1.4 9.6 3.6l-6.7 6.3c-.8-.6-1.8-1-2.9-1-1.5 0-2.8.7-3.6 1.7l-8.3-4.4c2.6-3.7 7-6.2 11.9-6.2zm-14.6 14.7c0-2.2.5-4.3 1.4-6.1l8.6 4.6c0 .2-.1.3-.1.5 0 2.6 2.1 4.7 4.7 4.7s4.7-2.1 4.7-4.7c0-.5-.1-1-.3-1.5l7-6.5c2 2.5 3.2 5.7 3.2 9.1 0 8.1-6.6 14.7-14.7 14.7-7.9-.2-14.5-6.7-14.5-14.8zM25.4 378.9c0-6-4.9-10.9-10.9-10.9s-10.9 4.9-10.9 10.9 4.9 10.9 10.9 10.9 10.9-4.9 10.9-10.9zm-19.2 0c0-4.6 3.7-8.3 8.3-8.3 4.6 0 8.3 3.7 8.3 8.3 0 4.6-3.7 8.3-8.3 8.3-4.6 0-8.3-3.7-8.3-8.3z"/><path class="st0" d="M15.7 384.6v-1.2c.6-.2 1.1-.5 1.5-.9.5-.5.7-1.2.7-2 0-.3 0-.6-.1-.9-.1-.3-.2-.6-.4-.8-.2-.2-.3-.4-.5-.5-.2-.2-.4-.3-.7-.4-.3-.1-.5-.2-.6-.3-.1-.1-.3-.1-.6-.3-.2-.1-.4-.1-.5-.2-.1 0-.2-.1-.4-.2s-.3-.1-.3-.2c-.1 0-.1-.1-.1-.2v-.2c0-.2.1-.4.2-.4.1-.1.3-.2.6-.2.5 0 .9.2 1.1.7l.1.3 2-.7-.1-.3c-.1-.5-.4-1-.8-1.3-.3-.3-.7-.5-1.1-.7v-1.1h-2.1v1.1c-.6.2-1.1.4-1.4.9-.4.5-.6 1-.6 1.7 0 .4.1.7.2 1 .1.3.3.5.4.7.2.2.4.4.7.5.3.2.5.3.7.4.2.1.4.2.7.3.3.1.5.2.7.3.1.1.3.1.5.3.1.1.3.2.3.3.1.1.1.2.1.4 0 .3-.1.5-.3.6-.4.3-1.1.3-1.6-.1-.3-.2-.5-.5-.6-.8l-.1-.3-2 .7.1.3c.2.6.5 1.1 1 1.6.4.4.8.6 1.4.8v1.2h1.9z"/></g><g><path class="st0" d="M59.6 438.8H30c-1.6 0-2.9 1.3-2.9 2.9v14.8c0 1.6 1.3 2.9 2.9 2.9h29.6c1.6 0 2.9-1.3 2.9-2.9v-14.8c0-1.6-1.3-2.9-2.9-2.9zm.2 17.6c0 .1-.1.2-.2.2H30c-.1 0-.2-.1-.2-.2v-14.8c0-.1.1-.2.2-.2h29.6c.1 0 .2.1.2.2v14.8zM32.8 466.1h23.3c.7 0 1.3-.6 1.3-1.3 0-.7-.6-1.3-1.3-1.3H32.8c-.7 0-1.3.6-1.3 1.3 0 .7.6 1.3 1.3 1.3zM32.8 472.2h18.4c.7 0 1.3-.6 1.3-1.3 0-.7-.6-1.3-1.3-1.3H32.8c-.7 0-1.3.6-1.3 1.3 0 .7.6 1.3 1.3 1.3z"/><path class="st0" d="M84.6 438.8H71.1c-.1 0-.3 0-.4.1V436c0-1.6-1.3-2.9-2.9-2.9H22c-1.6 0-2.9 1.3-2.9 2.9v2.9H5.4c-1.8 0-3.3 1.3-3.3 2.9v42.7c0 1.6 1.5 2.9 3.3 2.9h13.7v2.9c0 1.6 1.3 2.9 2.9 2.9h45.8c1.6 0 2.9-1.3 2.9-2.9v-2.9c.1 0 .3.1.4.1h13.6c1.8 0 3.3-1.3 3.3-2.9v-42.7c-.1-1.8-1.5-3.1-3.4-3.1zM19 484.6H5.4c-.4 0-.6-.2-.6-.2v-42.6c0-.1.3-.3.6-.3h13.7v10.9H9.8c-.7 0-1.3.6-1.3 1.3 0 .7.6 1.3 1.3 1.3H19.1v1.7H11.7c-.7 0-1.3.6-1.3 1.3 0 .7.6 1.3 1.3 1.3H19.1v25.2c0 .1-.1.1-.1.1zm49 5.5c0 .1-.1.2-.2.2H22c-.1 0-.2-.1-.2-.2v-54.2c0-.1.1-.2.2-.2h45.8c.1 0 .2.1.2.2v54.2zm16.6-5.5H71.1c-.1 0-.3 0-.4.1v-25.4c.1 0 .3.1.4.1h7.3c.7 0 1.3-.6 1.3-1.3 0-.7-.6-1.3-1.3-1.3h-7.3c-.1 0-.3 0-.4.1V455c.1 0 .3.1.4.1h9.2c.7 0 1.3-.6 1.3-1.3 0-.7-.6-1.3-1.3-1.3h-9.2c-.1 0-.3 0-.4.1v-11c.1 0 .3.1.4.1h13.6c.4 0 .6.2.6.2v42.6c0-.1-.3.1-.7.1z"/><path class="st0" d="M56.1 477.6l-23.3-.2c-.7 0-1.3.6-1.3 1.3 0 .7.6 1.3 1.3 1.3l23.3.2c.7 0 1.3-.6 1.3-1.3 0-.7-.6-1.3-1.3-1.3zM51.2 483.7l-18.4-.1c-.7 0-1.3.6-1.3 1.3 0 .7.6 1.3 1.3 1.3l18.4.1c.7 0 1.3-.6 1.3-1.3.1-.6-.5-1.2-1.3-1.3zM48.1 448l-5.6-3.4c-.5-.2-1.1-.2-1.5.1-.4.2-.6.6-.6 1v6.8c0 .4.2.8.6 1 .3.2.5.2.8.2.2 0 .5-.1.7-.2l5.5-3.4c.5-.2.8-.6.8-1.1 0-.4-.3-.8-.7-1zM28.4 472.7c1 0 1.7-.8 1.7-1.7 0-1-.8-1.7-1.7-1.7-1 0-1.7.8-1.7 1.7-.1.9.7 1.7 1.7 1.7zM28.4 466.3c1 0 1.7-.8 1.7-1.7 0-1-.8-1.7-1.7-1.7-1 0-1.7.8-1.7 1.7-.1.9.7 1.7 1.7 1.7zM28.4 483.4c-1 0-1.7.8-1.7 1.7 0 1 .8 1.7 1.7 1.7.5 0 .9-.2 1.2-.5.3-.3.5-.8.5-1.2 0-.5-.2-.9-.5-1.2s-.8-.5-1.2-.5zM28.4 477c-1 0-1.7.8-1.7 1.7 0 1 .8 1.7 1.7 1.7.5 0 .9-.2 1.2-.5.3-.3.5-.8.5-1.2 0-.5-.2-.9-.5-1.2-.3-.3-.7-.5-1.2-.5z"/></g><path class="st5" d="M155.9 17.1c-.2-1-.8-1.9-1.4-2.9-.2-.5-.5-.9-.7-1.3-.8-1.6-.8-2.8-.8-3.9 0-.8 0-1.6-.3-2.5-.6-1.7-1.5-2.8-3.1-3.7-.3-.2-.6-.3-.9-.4v-.3c0-1.2-1-2.1-2.1-2.1s-2 .9-2 2.1v.3c-.4.1-.7.2-1 .4-1.5.9-2.5 2.1-3.1 3.7-.5.9-.5 1.7-.5 2.5 0 1.1 0 2.3-.8 3.8-.2.5-.5.9-.7 1.3-.6 1-1.2 2-1.4 2.9-.2 1 0 1.5.3 1.8.3.4.7.6 1.3.6h5c0 1.4 1.2 2.6 2.8 2.6 1.5 0 2.8-1.2 2.8-2.6h5.1c.5 0 1-.2 1.2-.5.3-.3.5-.8.3-1.8zm-10.6-15c0-.6.5-1.2 1.2-1.2.6 0 1.2.5 1.2 1.2v.1c-.8-.1-1.7-.1-2.5 0v-.1zm1.2 19.1c-1 0-1.9-.8-1.9-1.8h3.9c-.1 1-1 1.8-2 1.8zm8.6-2.9c-.2.3-.5.3-.7.3h-15.6c-.2 0-.5-.1-.7-.3-.2-.2-.2-.6-.1-1.1.2-.9.7-1.8 1.3-2.7.2-.4.5-.9.7-1.3.9-1.7.9-3 .9-4.2 0-.8.1-1.5.3-2.2.5-1.5 1.4-2.5 2.7-3.3.6-.3 1.6-.5 2.7-.5s2 .2 2.8.6c1.3.7 2.1 1.8 2.7 3.2.3.7.3 1.4.3 2.2 0 1.1 0 2.5.9 4.2.2.5.5.9.7 1.3.6 1 1.1 1.9 1.3 2.7 0 .5 0 .9-.2 1.1z"/><g><path class="st5" d="M179.8 17.1c-.2-1-.8-1.9-1.4-2.9-.2-.5-.5-.9-.7-1.3-.8-1.6-.8-2.8-.8-3.9 0-.8 0-1.6-.3-2.5-.6-1.7-1.5-2.8-3.1-3.7-.3-.2-.6-.3-.9-.4v-.3c0-1.2-1-2.1-2.1-2.1s-2 .9-2 2.1v.3c-.4.1-.7.2-1 .4-1.5.9-2.4 2.1-3.1 3.7-.4.9-.4 1.7-.4 2.5 0 1.1 0 2.3-.8 3.8-.2.5-.5.9-.7 1.3-.6 1-1.2 2-1.4 2.9-.2 1 0 1.5.3 1.8.3.4.7.6 1.3.6h5c0 1.4 1.2 2.6 2.7 2.6s2.7-1.2 2.7-2.6h5.1c.5 0 1-.2 1.2-.5.4-.3.6-.8.4-1.8zm-10.6-15c0-.6.5-1.2 1.2-1.2.6 0 1.2.5 1.2 1.2v.1c-.8-.1-1.7-.1-2.4 0v-.1zm1.3 19.1c-1 0-1.9-.8-1.9-1.8h3.9c-.1 1-1 1.8-2 1.8zm8.5-2.9c-.2.3-.5.3-.7.3h-15.6c-.2 0-.5-.1-.7-.3-.2-.2-.2-.6-.1-1.1.2-.9.7-1.8 1.3-2.7.2-.4.5-.9.7-1.3.9-1.7.9-3 .9-4.2 0-.8.1-1.5.3-2.2.5-1.5 1.4-2.5 2.6-3.3.6-.3 1.6-.5 2.6-.5s2 .2 2.7.6c1.3.7 2.1 1.8 2.6 3.2.3.7.3 1.4.3 2.2 0 1.1 0 2.5.9 4.2.2.5.5.9.7 1.3.6 1 1.1 1.9 1.3 2.7.4.5.4.9.2 1.1z"/><circle cx="174.1" cy="10" fill="#e6353c" r="5.9"/><path class="st5" d="M173.8 7.7l-1.5.7-.4-1.4 2.1-.9h1.5v7.7h-1.7V7.7z"/></g><g><path class="st5" d="M37 104.8c-.8 0-1.5-.2-2.2-.6-1.5-.8-2.5-2.4-2.5-4.1V65.9c0-1.7.9-3.3 2.5-4.1 1.5-.8 3.4-.7 4.8.2l26 17.1c1.3.9 2.1 2.3 2.1 3.9s-.8 3.1-2.1 3.9l-26 17.1c-.8.5-1.7.8-2.6.8zm.1-40.6c-.3 0-.6.1-.8.2-.6.3-.9.9-.9 1.5v34.2c0 .6.3 1.2.9 1.5.6.3 1.2.3 1.7-.1l26-17.1c.5-.3.8-.8.8-1.4s-.3-1.1-.8-1.4L38 64.5c-.3-.2-.6-.3-.9-.3z"/></g><g><path class="st5" d="M144.1 166h-19.7c-1 0-2 .4-2.7 1.1-1.8 1.7-6.4 6.4-7.7 7.8-.7.7-1.1 1.7-1.1 2.7v29.2c0 1.7 1.4 3.1 3.1 3.1h28.2c1.7 0 3.1-1.4 3.1-3.1V169c-.2-1.6-1.5-3-3.2-3zm0 41l-28.3-.1v-29.2-.1h7.2c.7 0 1.3-.6 1.3-1.3v-7.2H144l.1.1V207z"/><path class="st5" d="M139 181.6h-18c-.8 0-1.5.7-1.5 1.5s.7 1.5 1.5 1.5h18c.8 0 1.5-.7 1.5-1.5s-.7-1.5-1.5-1.5zM139 187.6h-18c-.8 0-1.5.7-1.5 1.5s.7 1.5 1.5 1.5h18c.8 0 1.5-.7 1.5-1.5s-.7-1.5-1.5-1.5zM139 193.7h-18c-.8 0-1.5.7-1.5 1.5s.7 1.5 1.5 1.5h18c.8 0 1.5-.7 1.5-1.5s-.7-1.5-1.5-1.5zM139 199.8h-18c-.8 0-1.5.7-1.5 1.5s.7 1.5 1.5 1.5h18c.8 0 1.5-.7 1.5-1.5s-.7-1.5-1.5-1.5z"/></g><g><path class="st5" d="M52.7 19H51v-5.8c0-.9-.1-1.6-.2-2-.1-.4-.3-.8-.7-1.1-.4-.3-.9-.4-1.5-.4s-1.2.2-1.7.6c-.5.4-.9.9-1.1 1.6-.2.7-.3 1.7-.3 3V19H44v-5.4c0-1.1-.1-1.8-.2-2.3-.1-.5-.4-.8-.7-1.1-.4-.3-.8-.4-1.4-.4-.6 0-1.1.2-1.6.5-.5.4-.9.8-1.1 1.4-.2.6-.4 1.5-.4 2.9V19H37V8.4h1.6v1.5c.9-1.2 2-1.8 3.4-1.8.7 0 1.4.2 2 .6.6.4 1 1 1.3 1.7.4-.7 1-1.3 1.6-1.7.7-.4 1.4-.6 2.1-.6 1 0 1.9.4 2.6 1.1.7.7 1.1 2.1 1.1 4V19zM55.9 10c1-1.3 2.3-1.9 3.9-1.9 1.5 0 2.8.5 3.9 1.6s1.6 2.4 1.6 4c0 1.5-.5 2.9-1.6 4s-2.3 1.6-3.8 1.6-2.8-.6-4-1.9v5.3h-1.6V8.4h1.6V10zm3.9 7.9c1.1 0 2-.4 2.8-1.2.8-.8 1.2-1.8 1.2-2.9 0-1.1-.4-2.1-1.2-2.9-.8-.8-1.7-1.2-2.8-1.2-1.1 0-2 .4-2.8 1.2-.8.8-1.1 1.8-1.1 2.9 0 1.2.4 2.1 1.2 2.9.6.8 1.6 1.2 2.7 1.2zM75.3 8.6l-.8 1.4c-.2-.1-.4-.2-.6-.2-.4 0-.8.2-1.1.6-.3.4-.6.9-.7 1.6-.2.6-.2 1.8-.2 3.5V19h-1.6V8.4h1.6v1.1c.3-.5.7-.8 1-1.1.3-.2.7-.3 1.1-.3.3 0 .8.2 1.3.5zM90.9 16.8c-.6.8-1.3 1.4-2.2 1.9-.9.4-1.9.6-2.9.6-1.6 0-3-.5-4.1-1.6-1.1-1.1-1.6-2.4-1.6-3.9 0-1.6.5-2.9 1.6-4s2.5-1.7 4.3-1.7c1 0 2 .2 2.9.7.9.5 1.6 1.1 2 1.9l-1.3.8c-.9-1.2-2.2-1.8-3.7-1.8-1.2 0-2.2.4-3 1.2-.8.8-1.2 1.7-1.2 2.9 0 1.1.4 2.1 1.2 2.9.8.8 1.8 1.2 3 1.2 1.5 0 2.7-.6 3.7-1.9l1.3.8zM101.8 19h-1.6v-1.6c-1 1.2-2.3 1.9-3.7 1.9-.8 0-1.5-.2-2.1-.6-.6-.4-1.1-.9-1.4-1.6-.3-.7-.5-1.8-.5-3.2V8.4h1.6v5c0 1.2.1 2 .2 2.4.1.4.3.8.5 1.1.2.3.5.5.8.7.3.1.7.2 1.2.2s.9-.1 1.4-.3c.5-.2.8-.6 1.2-1 .3-.4.5-.9.7-1.3.1-.5.2-1.4.2-2.8v-4h1.6V19zM109.9 9.7l-1 1.1c-.8-.7-1.5-1.1-2.1-1.1-.4 0-.7.1-1 .4-.3.3-.4.6-.4.9 0 .4.2.7.5 1 .3.3.8.6 1.6 1s1.4.9 1.8 1.3c.4.5.6 1.1.6 1.8 0 .9-.3 1.7-.9 2.3-.6.6-1.4.9-2.3.9-1.3 0-2.3-.5-3.2-1.6l1-1.1c.7.8 1.4 1.2 2.1 1.2.5 0 .9-.2 1.3-.5.3-.3.5-.7.5-1.1 0-.4-.2-.8-.5-1.1-.3-.3-.9-.6-1.6-1-.8-.4-1.4-.8-1.7-1.3-.4-.5-.6-1.1-.6-1.9 0-.8.3-1.4.8-2 .6-.5 1.3-.8 2.2-.8.9 0 1.8.6 2.9 1.6zM68.2 19h-1.6V8.4h1.6V19zM67.4 5.3c.3 0 .5.1.7.3.2.2.3.4.3.7 0 .3-.1.5-.3.7-.2.2-.4.3-.7.3-.3 0-.5-.1-.7-.3-.2-.2-.3-.4-.3-.6 0-.2.1-.5.3-.6.3-.4.5-.5.7-.5zM78.4 19h-1.6V8.4h1.6V19zM77.6 5.3c.3 0 .5.1.7.3.2.2.3.4.3.7 0 .3-.1.5-.3.7-.2.2-.4.3-.7.3-.3 0-.5-.1-.7-.3-.2-.2-.3-.4-.3-.6 0-.2.1-.5.3-.6.2-.4.5-.5.7-.5zM.3 4.6v18.7c0 .6.5 1 1 1H20c.6 0 1-.5 1-1V4.6c0-.6-.5-1-1-1H1.3c-.5 0-1 .5-1 1z"/><g><path d="M7.7 12.9h9.9v2.2H7.7z"/><path d="M15.9 16.7c-.9 1.7-2.7 2.8-4.8 2.8-3 0-5.5-2.5-5.5-5.5s2.5-5.5 5.5-5.5c2.1 0 3.9 1.2 4.9 2.9l1.6-1.6c-1.4-2.1-3.7-3.5-6.4-3.5C7 6.3 3.5 9.7 3.5 14s3.4 7.7 7.7 7.7c2.7 0 5-1.4 6.4-3.4l-1.7-1.6z"/></g></g><path class="st5" d="M29.9 8.1c-3 0-5.5 2.5-5.5 5.6s2.4 5.6 5.5 5.6c2.2 0 4.2-1.4 5-3.4l-1.4-.7c-.6 1.5-2 2.6-3.6 2.6-2.2 0-3.9-1.8-3.9-4s1.8-4 3.9-4c1.8 0 3.2 1.2 3.7 2.9h-6V14h7.6v-.2c.2-3.1-2.3-5.7-5.3-5.7z"/><g><path class="st5" d="M124.5 0c-4.1 0-7.5 3.4-7.5 7.5s3.4 7.5 7.5 7.5 7.5-3.4 7.5-7.5-3.4-7.5-7.5-7.5zm-.7 11.3c0 .3-.3.6-.6.6h-1.6c-.3 0-.6-.3-.6-.6V3.7c0-.3.3-.6.6-.6h1.6c.3 0 .6.3.6.6v7.6zm4.2 0c0 .3-.3.6-.6.6h-1.6c-.3 0-.6-.3-.6-.6V3.7c0-.3.3-.6.6-.6h1.6c.3 0 .6.3.6.6v7.6z"/></g></svg>