<svg xmlns="http://www.w3.org/2000/svg" xmlns:xlink="http://www.w3.org/1999/xlink" width="3600" zoomAndPan="magnify" viewBox="0 0 2700 675.000002" height="900" preserveAspectRatio="xMidYMid meet" version="1.0"><defs><g/><clipPath id="6a93b2665a"><path d="M 170.21875 418.265625 L 339.445312 418.265625 L 339.445312 663.386719 L 170.21875 663.386719 Z M 170.21875 418.265625 " clip-rule="nonzero"/></clipPath><clipPath id="792de21158"><path d="M 294.207031 371 L 477.671875 371 L 477.671875 663.386719 L 294.207031 663.386719 Z M 294.207031 371 " clip-rule="nonzero"/></clipPath><clipPath id="8c9c1106de"><path d="M 21.9375 18.039062 L 537 18.039062 L 537 663.386719 L 21.9375 663.386719 Z M 21.9375 18.039062 " clip-rule="nonzero"/></clipPath><clipPath id="54023daaa6"><path d="M 503 386 L 767.523438 386 L 767.523438 663.386719 L 503 663.386719 Z M 503 386 " clip-rule="nonzero"/></clipPath><clipPath id="f7e83a564d"><path d="M 417.355469 177.964844 L 665.328125 177.964844 L 665.328125 663.386719 L 417.355469 663.386719 Z M 417.355469 177.964844 " clip-rule="nonzero"/></clipPath></defs><g fill="#2a2a2a" fill-opacity="1"><g transform="translate(1154.380909, 667.310511)"><g><path d="M 0 -334.589844 C 0 -274.703125 15.207031 -218.625 44.675781 -167.292969 C 74.140625 -115.964844 115.015625 -75.09375 166.34375 -45.625 C 217.671875 -15.207031 273.753906 0 333.636719 0 C 393.523438 0 449.601562 -15.207031 500.933594 -45.625 C 552.261719 -75.09375 593.132812 -115.964844 623.550781 -167.292969 C 653.019531 -218.625 668.226562 -274.703125 668.226562 -334.589844 C 668.226562 -394.472656 653.019531 -450.554688 623.550781 -500.933594 C 562.71875 -602.640625 455.304688 -665.375 333.636719 -665.375 C 272.804688 -665.375 216.722656 -651.117188 166.34375 -621.652344 C 64.636719 -562.71875 0 -454.355469 0 -334.589844 Z M 33.269531 -335.539062 C 33.269531 -389.71875 46.578125 -439.148438 74.140625 -484.773438 C 128.324219 -576.023438 225.277344 -633.058594 334.589844 -633.058594 C 388.769531 -633.058594 438.195312 -619.75 484.773438 -593.132812 C 576.023438 -539.90625 634.957031 -442.949219 634.957031 -335.539062 C 634.957031 -281.359375 621.652344 -230.980469 594.085938 -185.355469 C 539.90625 -93.152344 442 -34.21875 334.589844 -34.21875 C 280.40625 -34.21875 230.03125 -47.527344 184.402344 -75.09375 C 92.203125 -129.273438 33.269531 -226.226562 33.269531 -335.539062 Z M 33.269531 -335.539062 "/></g></g></g><g fill="#2a2a2a" fill-opacity="1"><g transform="translate(1696.185169, 667.310511)"><g><path d="M 500.933594 -665.375 L 0 -665.375 L 0 -637.808594 L 243.335938 -637.808594 L 243.335938 0 L 275.65625 0 L 275.65625 -637.808594 L 500.933594 -637.808594 Z M 500.933594 -665.375 "/></g></g></g><g fill="#2a2a2a" fill-opacity="1"><g transform="translate(2070.695244, 667.310511)"><g><path d="M 269.953125 -665.375 L 0 0 L 36.121094 0 L 269.953125 -583.628906 L 551.3125 0 L 586.480469 0 Z M 269.953125 -665.375 "/></g></g></g><g fill="#2a2a2a" fill-opacity="1"><g transform="translate(803.306902, 661.071076)"><g><path d="M 131.390625 3.734375 C 93.492188 3.734375 60.410156 -4.648438 32.140625 -21.421875 C 3.878906 -38.203125 -16.769531 -60.878906 -29.8125 -89.453125 L -4.65625 -107.171875 C 7.144531 -81.691406 25.160156 -61.648438 49.390625 -47.046875 C 73.617188 -32.453125 101.882812 -25.15625 134.1875 -25.15625 C 177.675781 -25.15625 212.3125 -37.425781 238.09375 -61.96875 C 263.875 -86.507812 282.359375 -127.664062 293.546875 -185.4375 L 381.140625 -623.421875 L 138.84375 -623.421875 L 144.4375 -652.3125 L 418.40625 -652.3125 L 324.296875 -181.71875 C 311.242188 -115.238281 289.1875 -67.707031 258.125 -39.125 C 227.0625 -10.550781 184.816406 3.734375 131.390625 3.734375 Z M 131.390625 3.734375 "/></g></g></g><g clip-path="url(#6a93b2665a)"><path fill="#28ffbb" d="M 170.933594 663.386719 L 244.058594 663.386719 L 339.308594 418.808594 L 266.1875 418.808594 L 170.933594 663.386719 " fill-opacity="1" fill-rule="nonzero"/></g><g clip-path="url(#792de21158)"><path fill="#28ffbb" d="M 294.242188 663.386719 L 367.367188 663.386719 L 477.648438 371.304688 L 404.523438 371.304688 L 294.242188 663.386719 " fill-opacity="1" fill-rule="nonzero"/></g><g clip-path="url(#8c9c1106de)"><path fill="#2a2a2a" d="M 251.078125 366.304688 L 394.730469 117.621094 L 503.644531 306.171875 L 536.550781 263.546875 L 394.730469 18.039062 L 21.9375 663.386719 L 150.457031 663.386719 L 169.308594 614.984375 L 107.425781 614.984375 L 251.078125 366.304688 " fill-opacity="1" fill-rule="nonzero"/></g><g clip-path="url(#54023daaa6)"><path fill="#28ffbb" d="M 607.332031 386.082031 L 584.648438 446.398438 L 682.039062 614.984375 L 521.25 614.984375 L 503.042969 663.386719 L 767.523438 663.386719 L 607.332031 386.082031 " fill-opacity="1" fill-rule="nonzero"/></g><g clip-path="url(#f7e83a564d)"><path fill="#28ffbb" d="M 617.414062 177.984375 L 493.984375 337.871094 L 545.710938 337.871094 L 417.550781 663.386719 L 490.675781 663.386719 L 612.359375 339.820312 L 665.207031 340.570312 L 617.414062 177.984375 " fill-opacity="1" fill-rule="nonzero"/></g></svg>