<svg id="Camada_1" data-name="Camada 1" xmlns="http://www.w3.org/2000/svg" viewBox="0 0 74.53 20"><defs><style>.cls-1{fill:#fff}.cls-2{fill:#36c}</style></defs><path class="cls-1" d="M33.26 16.37c-2.23 0-3.75-.89-3.75-3.87V6.4h-1.54V3.28h1.54V0h3.65v3.29h3.02v3.12h-3.02v5.5c0 .84.36 1.25 1.18 1.25h1.8v3.22h-2.88Z"/><path class="cls-2" d="M37.07 13.16h3.35v3.22h-3.35z"/><path class="cls-1" d="M22.12 16.4c-1.94 0-3.15-.89-4.01-1.92V20h-3.65V3.29h3.65v1.85c.89-1.2 2.11-2.09 4.01-2.09 3 0 5.86 2.35 5.86 6.65v.05c0 4.3-2.81 6.65-5.86 6.65Zm2.21-6.7c0-2.14-1.44-3.55-3.15-3.55s-3.12 1.42-3.12 3.55v.05c0 2.14 1.42 3.55 3.12 3.55s3.15-1.39 3.15-3.55V9.7ZM57.33 16.37V8.98c0-1.73-.77-2.62-2.14-2.62s-2.21.89-2.21 2.62v7.39h-3.65V8.98c0-1.73-.77-2.62-2.14-2.62s-2.21.89-2.21 2.62v7.39h-3.65V3.29h3.65v1.82c.84-1.08 1.94-2.06 3.79-2.06 1.68 0 2.95.74 3.63 2.04 1.13-1.32 2.47-2.04 4.23-2.04 2.71 0 4.35 1.63 4.35 4.73v8.6h-3.65ZM74.48 11h-8.96c.36 1.66 1.51 2.52 3.15 2.52 1.22 0 2.11-.38 3.12-1.32l2.09 1.85c-1.2 1.49-2.93 2.4-5.26 2.4-3.87 0-6.72-2.71-6.72-6.65v-.05c0-3.67 2.62-6.7 6.36-6.7 4.3 0 6.27 3.34 6.27 6.99v.05c0 .36-.02.58-.05.91Zm-6.22-5.02c-1.51 0-2.5 1.08-2.79 2.74h5.5c-.22-1.63-1.18-2.74-2.71-2.74Z"/><path class="cls-2" d="M7.96 9.63a.1.1 0 0 1-.1.1H5.51a.1.1 0 0 1-.1-.1V1.74c0-.05.04-.1.1-.1h2.35c.05 0 .1.04.1.1v7.89Z"/><path class="cls-1" d="M8.76 3.36v3.46a3.56 3.56 0 0 1 1.49 3.01c-.06 1.84-1.56 3.36-3.39 3.45-2.05.1-3.74-1.54-3.74-3.56 0-1.19.59-2.25 1.49-2.89V3.37C1.8 4.28-.19 7 .01 10.16c.22 3.32 2.9 6 6.22 6.22 3.9.26 7.14-2.83 7.14-6.67a6.67 6.67 0 0 0-4.61-6.35Z"/></svg>