<svg xmlns="http://www.w3.org/2000/svg" xmlns:xlink="http://www.w3.org/1999/xlink" width="300" zoomAndPan="magnify" viewBox="0 0 224.87999 52.499999" height="70" preserveAspectRatio="xMidYMid meet" version="1.0"><defs><g/><clipPath id="5d359f5127"><path d="M 1 0 L 53 0 L 53 52.003906 L 1 52.003906 Z M 1 0 " clip-rule="nonzero"/></clipPath><clipPath id="68864c2f4a"><path d="M 0 20.167969 L 10.410156 20.167969 L 10.410156 52.003906 L 0 52.003906 Z M 0 20.167969 " clip-rule="nonzero"/></clipPath><clipPath id="8087b82f49"><path d="M 0 30.132812 L 10.371094 20.167969 L 10.371094 52.003906 L 0 52.003906 Z M 0 30.132812 " clip-rule="nonzero"/></clipPath><clipPath id="ae31683fcd"><path d="M 0 0.167969 L 10.410156 0.167969 L 10.410156 32.003906 L 0 32.003906 Z M 0 0.167969 " clip-rule="nonzero"/></clipPath><clipPath id="64746bea45"><path d="M 0 10.132812 L 10.371094 0.167969 L 10.371094 32.003906 L 0 32.003906 Z M 0 10.132812 " clip-rule="nonzero"/></clipPath><clipPath id="90874635cb"><rect x="0" width="11" y="0" height="33"/></clipPath><clipPath id="8d7607c88a"><path d="M 20.335938 0 L 30.75 0 L 30.75 38.125 L 20.335938 38.125 Z M 20.335938 0 " clip-rule="nonzero"/></clipPath><clipPath id="d9e863ad1a"><path d="M 20.335938 27.984375 L 20.335938 10.238281 L 30.75 0 L 30.75 38.113281 Z M 20.335938 27.984375 " clip-rule="nonzero"/></clipPath><clipPath id="f41f13b8fe"><path d="M 0.335938 0 L 10.75 0 L 10.75 38.125 L 0.335938 38.125 Z M 0.335938 0 " clip-rule="nonzero"/></clipPath><clipPath id="8169ee1f1a"><path d="M 0.335938 27.984375 L 0.335938 10.238281 L 10.75 0 L 10.75 38.113281 Z M 0.335938 27.984375 " clip-rule="nonzero"/></clipPath><clipPath id="58a3514f5f"><rect x="0" width="11" y="0" height="39"/></clipPath><clipPath id="683364d49d"><path d="M 20.335938 41.472656 L 30.75 41.472656 L 30.75 52.003906 L 20.335938 52.003906 Z M 20.335938 41.472656 " clip-rule="nonzero"/></clipPath><clipPath id="5f6a65357c"><path d="M 20.335938 41.472656 L 20.335938 52.003906 L 30.75 52.003906 Z M 20.335938 41.472656 " clip-rule="nonzero"/></clipPath><clipPath id="041c71164a"><path d="M 0.335938 0.472656 L 10.75 0.472656 L 10.75 11.003906 L 0.335938 11.003906 Z M 0.335938 0.472656 " clip-rule="nonzero"/></clipPath><clipPath id="390355f42b"><path d="M 0.335938 0.472656 L 0.335938 11.003906 L 10.75 11.003906 Z M 0.335938 0.472656 " clip-rule="nonzero"/></clipPath><clipPath id="1abb330ded"><rect x="0" width="11" y="0" height="12"/></clipPath><clipPath id="02aafcfd4e"><path d="M 40.589844 9.089844 L 51 9.089844 L 51 52.003906 L 40.589844 52.003906 Z M 40.589844 9.089844 " clip-rule="nonzero"/></clipPath><clipPath id="84374b8e09"><path d="M 50.957031 19.054688 L 40.589844 9.089844 L 40.589844 52.003906 L 50.957031 52.003906 Z M 50.957031 19.054688 " clip-rule="nonzero"/></clipPath><clipPath id="037675dc07"><path d="M 0.589844 0.0898438 L 11 0.0898438 L 11 43 L 0.589844 43 Z M 0.589844 0.0898438 " clip-rule="nonzero"/></clipPath><clipPath id="c9bf75a0b1"><path d="M 10.957031 10.054688 L 0.589844 0.0898438 L 0.589844 43.003906 L 10.957031 43.003906 Z M 10.957031 10.054688 " clip-rule="nonzero"/></clipPath><clipPath id="dcb1082572"><rect x="0" width="11" y="0" height="44"/></clipPath><clipPath id="68517212cd"><rect x="0" width="52" y="0" height="53"/></clipPath><clipPath id="3748f242f3"><path d="M 57 0 L 223.761719 0 L 223.761719 52.003906 L 57 52.003906 Z M 57 0 " clip-rule="nonzero"/></clipPath><clipPath id="cc510973e8"><path d="M 1 35 L 166.761719 35 L 166.761719 52.003906 L 1 52.003906 Z M 1 35 " clip-rule="nonzero"/></clipPath><clipPath id="25f6052a70"><rect x="0" width="166" y="0" height="18"/></clipPath><clipPath id="6f0fa1183e"><path d="M 0.582031 0 L 166.761719 0 L 166.761719 51 L 0.582031 51 Z M 0.582031 0 " clip-rule="nonzero"/></clipPath><clipPath id="566785865c"><rect x="0" width="167" y="0" height="51"/></clipPath><clipPath id="1887be2ff4"><rect x="0" width="167" y="0" height="53"/></clipPath></defs><g clip-path="url(#5d359f5127)"><g transform="matrix(1, 0, 0, 1, 1, 0)"><g clip-path="url(#68517212cd)"><g clip-path="url(#68864c2f4a)"><g clip-path="url(#8087b82f49)"><g transform="matrix(1, 0, 0, 1, 0, 20)"><g clip-path="url(#90874635cb)"><g clip-path="url(#ae31683fcd)"><g clip-path="url(#64746bea45)"><path fill="#ffffff" d="M 0 0.167969 L 10.371094 0.167969 L 10.371094 32.003906 L 0 32.003906 Z M 0 0.167969 " fill-opacity="1" fill-rule="nonzero"/></g></g></g></g></g></g><g clip-path="url(#8d7607c88a)"><g clip-path="url(#d9e863ad1a)"><g transform="matrix(1, 0, 0, 1, 20, 0)"><g clip-path="url(#58a3514f5f)"><g clip-path="url(#f41f13b8fe)"><g clip-path="url(#8169ee1f1a)"><path fill="#ffffff" d="M 0.335938 0 L 10.75 0 L 10.75 38.125 L 0.335938 38.125 Z M 0.335938 0 " fill-opacity="1" fill-rule="nonzero"/></g></g></g></g></g></g><g clip-path="url(#683364d49d)"><g clip-path="url(#5f6a65357c)"><g transform="matrix(1, 0, 0, 1, 20, 41)"><g clip-path="url(#1abb330ded)"><g clip-path="url(#041c71164a)"><g clip-path="url(#390355f42b)"><path fill="#ffffff" d="M 0.335938 0.472656 L 10.75 0.472656 L 10.75 11.011719 L 0.335938 11.011719 Z M 0.335938 0.472656 " fill-opacity="1" fill-rule="nonzero"/></g></g></g></g></g></g><g clip-path="url(#02aafcfd4e)"><g clip-path="url(#84374b8e09)"><g transform="matrix(1, 0, 0, 1, 40, 9)"><g clip-path="url(#dcb1082572)"><g clip-path="url(#037675dc07)"><g clip-path="url(#c9bf75a0b1)"><path fill="#ffffff" d="M 0.589844 0.0898438 L 10.957031 0.0898438 L 10.957031 42.988281 L 0.589844 42.988281 Z M 0.589844 0.0898438 " fill-opacity="1" fill-rule="nonzero"/></g></g></g></g></g></g></g></g></g><g clip-path="url(#3748f242f3)"><g transform="matrix(1, 0, 0, 1, 57, 0)"><g clip-path="url(#1887be2ff4)"><g clip-path="url(#cc510973e8)"><g transform="matrix(1, 0, 0, 1, 1, 35)"><g clip-path="url(#25f6052a70)"><g fill="#ffffff" fill-opacity="1"><g transform="translate(0.157599, 16.397261)"><g><path d="M 3.609375 -8.765625 L 3.609375 -6.5625 L 7.171875 -6.5625 L 7.171875 -4.515625 L 3.609375 -4.515625 L 3.609375 -2.125 L 7.640625 -2.125 L 7.640625 0 L 0.96875 0 L 0.96875 -10.890625 L 7.640625 -10.890625 L 7.640625 -8.765625 Z M 3.609375 -8.765625 "/></g></g></g><g fill="#ffffff" fill-opacity="1"><g transform="translate(9.478879, 16.397261)"><g><path d="M 13.296875 -10.890625 L 13.296875 0 L 10.640625 0 L 10.640625 -6.53125 L 8.203125 0 L 6.0625 0 L 3.609375 -6.546875 L 3.609375 0 L 0.96875 0 L 0.96875 -10.890625 L 4.09375 -10.890625 L 7.15625 -3.34375 L 10.171875 -10.890625 Z M 13.296875 -10.890625 "/></g></g></g><g fill="#ffffff" fill-opacity="1"><g transform="translate(24.647225, 16.397261)"><g><path d="M 9.265625 -7.390625 C 9.265625 -6.753906 9.117188 -6.175781 8.828125 -5.65625 C 8.535156 -5.132812 8.085938 -4.710938 7.484375 -4.390625 C 6.890625 -4.066406 6.148438 -3.90625 5.265625 -3.90625 L 3.609375 -3.90625 L 3.609375 0 L 0.96875 0 L 0.96875 -10.890625 L 5.265625 -10.890625 C 6.128906 -10.890625 6.859375 -10.738281 7.453125 -10.4375 C 8.054688 -10.132812 8.507812 -9.71875 8.8125 -9.1875 C 9.113281 -8.664062 9.265625 -8.066406 9.265625 -7.390625 Z M 5.0625 -6.015625 C 5.5625 -6.015625 5.9375 -6.132812 6.1875 -6.375 C 6.4375 -6.613281 6.5625 -6.953125 6.5625 -7.390625 C 6.5625 -7.816406 6.4375 -8.148438 6.1875 -8.390625 C 5.9375 -8.628906 5.5625 -8.75 5.0625 -8.75 L 3.609375 -8.75 L 3.609375 -6.015625 Z M 5.0625 -6.015625 "/></g></g></g><g fill="#ffffff" fill-opacity="1"><g transform="translate(35.255791, 16.397261)"><g><path d="M 6.515625 0 L 4.25 -4.109375 L 3.609375 -4.109375 L 3.609375 0 L 0.96875 0 L 0.96875 -10.890625 L 5.421875 -10.890625 C 6.273438 -10.890625 7.003906 -10.738281 7.609375 -10.4375 C 8.210938 -10.132812 8.664062 -9.722656 8.96875 -9.203125 C 9.269531 -8.679688 9.421875 -8.101562 9.421875 -7.46875 C 9.421875 -6.738281 9.210938 -6.085938 8.796875 -5.515625 C 8.390625 -4.953125 7.789062 -4.550781 7 -4.3125 L 9.515625 0 Z M 3.609375 -5.984375 L 5.265625 -5.984375 C 5.742188 -5.984375 6.101562 -6.101562 6.34375 -6.34375 C 6.59375 -6.582031 6.71875 -6.921875 6.71875 -7.359375 C 6.71875 -7.765625 6.59375 -8.085938 6.34375 -8.328125 C 6.101562 -8.566406 5.742188 -8.6875 5.265625 -8.6875 L 3.609375 -8.6875 Z M 3.609375 -5.984375 "/></g></g></g><g fill="#ffffff" fill-opacity="1"><g transform="translate(46.29862, 16.397261)"><g><path d="M 3.609375 -8.765625 L 3.609375 -6.5625 L 7.171875 -6.5625 L 7.171875 -4.515625 L 3.609375 -4.515625 L 3.609375 -2.125 L 7.640625 -2.125 L 7.640625 0 L 0.96875 0 L 0.96875 -10.890625 L 7.640625 -10.890625 L 7.640625 -8.765625 Z M 3.609375 -8.765625 "/></g></g></g><g fill="#ffffff" fill-opacity="1"><g transform="translate(55.6199, 16.397261)"><g><path d="M 3.609375 -8.765625 L 3.609375 -6.5625 L 7.171875 -6.5625 L 7.171875 -4.515625 L 3.609375 -4.515625 L 3.609375 -2.125 L 7.640625 -2.125 L 7.640625 0 L 0.96875 0 L 0.96875 -10.890625 L 7.640625 -10.890625 L 7.640625 -8.765625 Z M 3.609375 -8.765625 "/></g></g></g><g fill="#ffffff" fill-opacity="1"><g transform="translate(64.941179, 16.397261)"><g><path d="M 10.703125 0 L 8.046875 0 L 3.609375 -6.71875 L 3.609375 0 L 0.96875 0 L 0.96875 -10.890625 L 3.609375 -10.890625 L 8.046875 -4.140625 L 8.046875 -10.890625 L 10.703125 -10.890625 Z M 10.703125 0 "/></g></g></g><g fill="#ffffff" fill-opacity="1"><g transform="translate(77.534956, 16.397261)"><g><path d="M 5.046875 -10.890625 C 6.191406 -10.890625 7.191406 -10.660156 8.046875 -10.203125 C 8.910156 -9.753906 9.578125 -9.117188 10.046875 -8.296875 C 10.515625 -7.472656 10.75 -6.523438 10.75 -5.453125 C 10.75 -4.378906 10.515625 -3.425781 10.046875 -2.59375 C 9.578125 -1.769531 8.910156 -1.128906 8.046875 -0.671875 C 7.179688 -0.222656 6.179688 0 5.046875 0 L 0.96875 0 L 0.96875 -10.890625 Z M 4.875 -2.296875 C 5.875 -2.296875 6.648438 -2.566406 7.203125 -3.109375 C 7.765625 -3.660156 8.046875 -4.441406 8.046875 -5.453125 C 8.046875 -6.453125 7.765625 -7.226562 7.203125 -7.78125 C 6.648438 -8.34375 5.875 -8.625 4.875 -8.625 L 3.609375 -8.625 L 3.609375 -2.296875 Z M 4.875 -2.296875 "/></g></g></g><g fill="#ffffff" fill-opacity="1"><g transform="translate(89.74099, 16.397261)"><g><path d="M 3.609375 -10.890625 L 3.609375 0 L 0.96875 0 L 0.96875 -10.890625 Z M 3.609375 -10.890625 "/></g></g></g><g fill="#ffffff" fill-opacity="1"><g transform="translate(95.246942, 16.397261)"><g><path d="M 13.296875 -10.890625 L 13.296875 0 L 10.640625 0 L 10.640625 -6.53125 L 8.203125 0 L 6.0625 0 L 3.609375 -6.546875 L 3.609375 0 L 0.96875 0 L 0.96875 -10.890625 L 4.09375 -10.890625 L 7.15625 -3.34375 L 10.171875 -10.890625 Z M 13.296875 -10.890625 "/></g></g></g><g fill="#ffffff" fill-opacity="1"><g transform="translate(110.415291, 16.397261)"><g><path d="M 3.609375 -8.765625 L 3.609375 -6.5625 L 7.171875 -6.5625 L 7.171875 -4.515625 L 3.609375 -4.515625 L 3.609375 -2.125 L 7.640625 -2.125 L 7.640625 0 L 0.96875 0 L 0.96875 -10.890625 L 7.640625 -10.890625 L 7.640625 -8.765625 Z M 3.609375 -8.765625 "/></g></g></g><g fill="#ffffff" fill-opacity="1"><g transform="translate(119.736571, 16.397261)"><g><path d="M 10.703125 0 L 8.046875 0 L 3.609375 -6.71875 L 3.609375 0 L 0.96875 0 L 0.96875 -10.890625 L 3.609375 -10.890625 L 8.046875 -4.140625 L 8.046875 -10.890625 L 10.703125 -10.890625 Z M 10.703125 0 "/></g></g></g><g fill="#ffffff" fill-opacity="1"><g transform="translate(132.330348, 16.397261)"><g><path d="M 8.796875 -10.890625 L 8.796875 -8.765625 L 5.90625 -8.765625 L 5.90625 0 L 3.265625 0 L 3.265625 -8.765625 L 0.375 -8.765625 L 0.375 -10.890625 Z M 8.796875 -10.890625 "/></g></g></g><g fill="#ffffff" fill-opacity="1"><g transform="translate(142.4271, 16.397261)"><g><path d="M 6.109375 0.109375 C 5.085938 0.109375 4.148438 -0.125 3.296875 -0.59375 C 2.441406 -1.070312 1.765625 -1.738281 1.265625 -2.59375 C 0.765625 -3.445312 0.515625 -4.410156 0.515625 -5.484375 C 0.515625 -6.546875 0.765625 -7.5 1.265625 -8.34375 C 1.765625 -9.195312 2.441406 -9.859375 3.296875 -10.328125 C 4.148438 -10.804688 5.085938 -11.046875 6.109375 -11.046875 C 7.140625 -11.046875 8.078125 -10.804688 8.921875 -10.328125 C 9.773438 -9.859375 10.445312 -9.195312 10.9375 -8.34375 C 11.4375 -7.5 11.6875 -6.546875 11.6875 -5.484375 C 11.6875 -4.410156 11.4375 -3.445312 10.9375 -2.59375 C 10.4375 -1.738281 9.765625 -1.070312 8.921875 -0.59375 C 8.078125 -0.125 7.140625 0.109375 6.109375 0.109375 Z M 6.109375 -2.3125 C 6.984375 -2.3125 7.679688 -2.597656 8.203125 -3.171875 C 8.722656 -3.753906 8.984375 -4.523438 8.984375 -5.484375 C 8.984375 -6.441406 8.722656 -7.207031 8.203125 -7.78125 C 7.679688 -8.351562 6.984375 -8.640625 6.109375 -8.640625 C 5.234375 -8.640625 4.535156 -8.351562 4.015625 -7.78125 C 3.492188 -7.21875 3.234375 -6.453125 3.234375 -5.484375 C 3.234375 -4.515625 3.492188 -3.742188 4.015625 -3.171875 C 4.535156 -2.597656 5.234375 -2.3125 6.109375 -2.3125 Z M 6.109375 -2.3125 "/></g></g></g><g fill="#ffffff" fill-opacity="1"><g transform="translate(155.548192, 16.397261)"><g><path d="M 4.90625 0.109375 C 4.101562 0.109375 3.382812 -0.0195312 2.75 -0.28125 C 2.125 -0.539062 1.625 -0.921875 1.25 -1.421875 C 0.875 -1.929688 0.675781 -2.546875 0.65625 -3.265625 L 3.46875 -3.265625 C 3.507812 -2.859375 3.648438 -2.546875 3.890625 -2.328125 C 4.128906 -2.117188 4.441406 -2.015625 4.828125 -2.015625 C 5.222656 -2.015625 5.53125 -2.101562 5.75 -2.28125 C 5.976562 -2.46875 6.09375 -2.722656 6.09375 -3.046875 C 6.09375 -3.304688 6 -3.523438 5.8125 -3.703125 C 5.632812 -3.878906 5.414062 -4.023438 5.15625 -4.140625 C 4.894531 -4.253906 4.519531 -4.382812 4.03125 -4.53125 C 3.332031 -4.75 2.757812 -4.96875 2.3125 -5.1875 C 1.863281 -5.40625 1.476562 -5.722656 1.15625 -6.140625 C 0.84375 -6.566406 0.6875 -7.117188 0.6875 -7.796875 C 0.6875 -8.816406 1.050781 -9.613281 1.78125 -10.1875 C 2.519531 -10.757812 3.476562 -11.046875 4.65625 -11.046875 C 5.851562 -11.046875 6.816406 -10.757812 7.546875 -10.1875 C 8.285156 -9.613281 8.679688 -8.8125 8.734375 -7.78125 L 5.859375 -7.78125 C 5.835938 -8.132812 5.707031 -8.410156 5.46875 -8.609375 C 5.238281 -8.816406 4.9375 -8.921875 4.5625 -8.921875 C 4.238281 -8.921875 3.976562 -8.832031 3.78125 -8.65625 C 3.582031 -8.488281 3.484375 -8.242188 3.484375 -7.921875 C 3.484375 -7.578125 3.648438 -7.304688 3.984375 -7.109375 C 4.316406 -6.910156 4.832031 -6.695312 5.53125 -6.46875 C 6.238281 -6.226562 6.8125 -6 7.25 -5.78125 C 7.6875 -5.570312 8.066406 -5.257812 8.390625 -4.84375 C 8.710938 -4.425781 8.875 -3.894531 8.875 -3.25 C 8.875 -2.625 8.710938 -2.054688 8.390625 -1.546875 C 8.078125 -1.046875 7.617188 -0.644531 7.015625 -0.34375 C 6.421875 -0.0390625 5.71875 0.109375 4.90625 0.109375 Z M 4.90625 0.109375 "/></g></g></g></g></g></g><g clip-path="url(#6f0fa1183e)"><g><g clip-path="url(#566785865c)"><g fill="#ffffff" fill-opacity="1"><g transform="translate(0.783264, 35.917889)"><g><path d="M 14.21875 -18.046875 L 14.328125 -18.046875 L 14.328125 -35.875 L 22.15625 -35.875 L 22.15625 0 L 14.328125 0 L 9.09375 -20.046875 L 8.9375 -20.046875 L 8.9375 0 L 1.109375 0 L 1.109375 -35.875 L 8.9375 -35.875 Z M 14.21875 -18.046875 "/></g></g></g><g fill="#ffffff" fill-opacity="1"><g transform="translate(24.049423, 35.917889)"><g><path d="M 11.65625 -30.203125 C 15.039062 -30.203125 17.644531 -29.335938 19.46875 -27.609375 C 21.289062 -25.890625 22.203125 -23.570312 22.203125 -20.65625 L 22.203125 -8.796875 C 22.203125 -5.878906 21.289062 -3.554688 19.46875 -1.828125 C 17.644531 -0.109375 15.039062 0.75 11.65625 0.75 C 8.269531 0.75 5.664062 -0.109375 3.84375 -1.828125 C 2.019531 -3.554688 1.109375 -5.878906 1.109375 -8.796875 L 1.109375 -20.65625 C 1.109375 -23.570312 2.019531 -25.890625 3.84375 -27.609375 C 5.664062 -29.335938 8.269531 -30.203125 11.65625 -30.203125 Z M 10.046875 -22.90625 L 10.046875 -7.140625 C 10.046875 -6.597656 10.195312 -6.148438 10.5 -5.796875 C 10.800781 -5.453125 11.1875 -5.28125 11.65625 -5.28125 C 12.125 -5.28125 12.507812 -5.453125 12.8125 -5.796875 C 13.113281 -6.148438 13.265625 -6.597656 13.265625 -7.140625 L 13.265625 -22.90625 C 13.265625 -23.445312 13.113281 -23.890625 12.8125 -24.234375 C 12.507812 -24.585938 12.125 -24.765625 11.65625 -24.765625 C 11.082031 -24.765625 10.671875 -24.554688 10.421875 -24.140625 C 10.171875 -23.722656 10.046875 -23.3125 10.046875 -22.90625 Z M 10.046875 -22.90625 "/></g></g></g><g fill="#ffffff" fill-opacity="1"><g transform="translate(47.365835, 35.917889)"><g><path d="M 15.625 -30.203125 L 15.625 -19.5 C 14.957031 -19.5625 14.457031 -19.59375 14.125 -19.59375 C 12.84375 -19.59375 11.882812 -19.21875 11.25 -18.46875 C 10.613281 -17.71875 10.296875 -16.835938 10.296875 -15.828125 L 10.296875 0 L 1.359375 0 L 1.359375 -29.453125 L 10 -29.453125 L 10 -25.671875 L 10.09375 -25.671875 C 10.363281 -26.785156 11.050781 -27.789062 12.15625 -28.6875 C 13.257812 -29.59375 14.414062 -30.097656 15.625 -30.203125 Z M 15.625 -30.203125 "/></g></g></g><g fill="#ffffff" fill-opacity="1"><g transform="translate(63.194865, 35.917889)"><g><path d="M 22.15625 -35.875 L 22.15625 0 L 12.765625 0 L 13.21875 -1.765625 L 13.109375 -1.765625 C 11.265625 -0.0859375 9.273438 0.75 7.140625 0.75 C 5.222656 0.75 3.738281 0.179688 2.6875 -0.953125 C 1.632812 -2.085938 1.109375 -3.710938 1.109375 -5.828125 L 1.109375 -23.3125 C 1.109375 -27.90625 3.25 -30.203125 7.53125 -30.203125 C 8.675781 -30.203125 9.738281 -29.957031 10.71875 -29.46875 C 11.707031 -28.988281 12.503906 -28.3125 13.109375 -27.4375 L 13.21875 -27.4375 L 13.21875 -35.875 Z M 10.046875 -22.3125 L 10.046875 -7.140625 C 10.046875 -5.898438 10.53125 -5.28125 11.5 -5.28125 C 12.101562 -5.28125 12.539062 -5.421875 12.8125 -5.703125 C 13.082031 -5.984375 13.21875 -6.441406 13.21875 -7.078125 L 13.21875 -22.359375 C 13.21875 -23.160156 13.082031 -23.710938 12.8125 -24.015625 C 12.539062 -24.316406 12.140625 -24.46875 11.609375 -24.46875 C 11.066406 -24.46875 10.671875 -24.304688 10.421875 -23.984375 C 10.171875 -23.671875 10.046875 -23.113281 10.046875 -22.3125 Z M 10.046875 -22.3125 "/></g></g></g><g fill="#ffffff" fill-opacity="1"><g transform="translate(86.46102, 35.917889)"><g><path d="M 11.65625 -30.203125 C 13.5 -30.203125 15.171875 -29.820312 16.671875 -29.0625 C 18.179688 -28.3125 19.378906 -27.21875 20.265625 -25.78125 C 21.160156 -24.34375 21.609375 -22.632812 21.609375 -20.65625 L 21.609375 -14.265625 L 10.046875 -14.265625 L 10.046875 -6.4375 C 10.046875 -5.257812 10.5 -4.671875 11.40625 -4.671875 C 12.445312 -4.671875 12.96875 -5.328125 12.96875 -6.640625 L 12.96875 -12.015625 L 21.609375 -12.015625 L 21.609375 -8.796875 C 21.609375 -5.910156 20.757812 -3.597656 19.0625 -1.859375 C 17.375 -0.117188 14.90625 0.75 11.65625 0.75 C 8.238281 0.75 5.625 -0.109375 3.8125 -1.828125 C 2.007812 -3.554688 1.109375 -5.878906 1.109375 -8.796875 L 1.109375 -20.65625 C 1.109375 -23.601562 2.03125 -25.929688 3.875 -27.640625 C 5.71875 -29.347656 8.3125 -30.203125 11.65625 -30.203125 Z M 10.046875 -23.015625 L 10.046875 -19.09375 L 12.96875 -19.09375 L 12.96875 -22.8125 C 12.96875 -24.113281 12.445312 -24.765625 11.40625 -24.765625 C 10.5 -24.765625 10.046875 -24.179688 10.046875 -23.015625 Z M 10.046875 -23.015625 "/></g></g></g><g fill="#ffffff" fill-opacity="1"><g transform="translate(108.772416, 35.917889)"><g><path d="M 10.90625 -30.203125 C 13.613281 -30.203125 15.863281 -29.570312 17.65625 -28.3125 C 19.445312 -27.0625 20.34375 -25.242188 20.34375 -22.859375 L 20.34375 -19.953125 L 12.0625 -19.953125 L 12.0625 -22.8125 C 12.0625 -23.914062 11.609375 -24.46875 10.703125 -24.46875 C 9.734375 -24.46875 9.25 -23.914062 9.25 -22.8125 L 9.25 -21.5 C 9.25 -20.90625 9.613281 -20.335938 10.34375 -19.796875 C 11.082031 -19.265625 12.15625 -18.628906 13.5625 -17.890625 L 14.578125 -17.390625 C 16.285156 -16.484375 17.554688 -15.648438 18.390625 -14.890625 C 19.222656 -14.140625 19.816406 -13.226562 20.171875 -12.15625 C 20.523438 -11.082031 20.703125 -9.644531 20.703125 -7.84375 C 20.703125 -4.894531 19.847656 -2.722656 18.140625 -1.328125 C 16.429688 0.0546875 13.75 0.75 10.09375 0.75 C 7.050781 0.75 4.722656 0.148438 3.109375 -1.046875 C 1.503906 -2.253906 0.703125 -4.300781 0.703125 -7.1875 L 0.703125 -10.609375 L 9 -10.609375 L 9 -6.53125 C 9 -6.0625 9.128906 -5.679688 9.390625 -5.390625 C 9.660156 -5.109375 10.015625 -4.96875 10.453125 -4.96875 C 10.953125 -4.96875 11.34375 -5.125 11.625 -5.4375 C 11.914062 -5.757812 12.0625 -6.140625 12.0625 -6.578125 L 12.0625 -8.296875 C 12.0625 -9.066406 11.742188 -9.707031 11.109375 -10.21875 C 10.472656 -10.738281 9.582031 -11.285156 8.4375 -11.859375 L 7.140625 -12.515625 C 5.085938 -13.546875 3.539062 -14.695312 2.5 -15.96875 C 1.46875 -17.25 0.953125 -18.945312 0.953125 -21.0625 C 0.953125 -24.207031 1.765625 -26.515625 3.390625 -27.984375 C 5.015625 -29.460938 7.519531 -30.203125 10.90625 -30.203125 Z M 10.90625 -30.203125 "/></g></g></g><g fill="#ffffff" fill-opacity="1"><g transform="translate(130.179293, 35.917889)"><g><path d="M 11.359375 -33.96875 L 11.359375 -29.453125 L 13.71875 -29.453125 L 13.71875 -24.625 L 11.359375 -24.625 L 11.359375 -5.921875 C 11.359375 -5.191406 11.691406 -4.828125 12.359375 -4.828125 L 13.71875 -4.828125 L 13.71875 0 L 8.546875 0 C 6.734375 0 5.359375 -0.25 4.421875 -0.75 C 3.484375 -1.25 2.863281 -1.957031 2.5625 -2.875 C 2.257812 -3.800781 2.109375 -5.035156 2.109375 -6.578125 L 2.109375 -24.625 L 0.25 -24.625 L 0.25 -29.453125 L 2.109375 -29.453125 L 2.109375 -33.96875 Z M 11.359375 -33.96875 "/></g></g></g><g fill="#ffffff" fill-opacity="1"><g transform="translate(144.149039, 35.917889)"><g><path d="M 11.65625 -30.203125 C 13.5 -30.203125 15.171875 -29.820312 16.671875 -29.0625 C 18.179688 -28.3125 19.378906 -27.21875 20.265625 -25.78125 C 21.160156 -24.34375 21.609375 -22.632812 21.609375 -20.65625 L 21.609375 -14.265625 L 10.046875 -14.265625 L 10.046875 -6.4375 C 10.046875 -5.257812 10.5 -4.671875 11.40625 -4.671875 C 12.445312 -4.671875 12.96875 -5.328125 12.96875 -6.640625 L 12.96875 -12.015625 L 21.609375 -12.015625 L 21.609375 -8.796875 C 21.609375 -5.910156 20.757812 -3.597656 19.0625 -1.859375 C 17.375 -0.117188 14.90625 0.75 11.65625 0.75 C 8.238281 0.75 5.625 -0.109375 3.8125 -1.828125 C 2.007812 -3.554688 1.109375 -5.878906 1.109375 -8.796875 L 1.109375 -20.65625 C 1.109375 -23.601562 2.03125 -25.929688 3.875 -27.640625 C 5.71875 -29.347656 8.3125 -30.203125 11.65625 -30.203125 Z M 10.046875 -23.015625 L 10.046875 -19.09375 L 12.96875 -19.09375 L 12.96875 -22.8125 C 12.96875 -24.113281 12.445312 -24.765625 11.40625 -24.765625 C 10.5 -24.765625 10.046875 -24.179688 10.046875 -23.015625 Z M 10.046875 -23.015625 "/></g></g></g></g></g></g></g></g></g></svg>