<svg xmlns="http://www.w3.org/2000/svg" xmlns:xlink="http://www.w3.org/1999/xlink" width="300" zoomAndPan="magnify" viewBox="0 0 224.87999 60.75" height="81" preserveAspectRatio="xMidYMid meet" version="1.2"><defs><clipPath id="b1159f4f0b"><path d="M 1.148438 5.414062 L 50.820312 5.414062 L 50.820312 54.703125 L 1.148438 54.703125 Z M 1.148438 5.414062 "/></clipPath><clipPath id="eb04062b2f"><path d="M 3.390625 5.414062 L 48.484375 5.414062 C 49.078125 5.414062 49.648438 5.648438 50.070312 6.070312 C 50.488281 6.488281 50.726562 7.058594 50.726562 7.652344 L 50.726562 52.460938 C 50.726562 53.054688 50.488281 53.625 50.070312 54.046875 C 49.648438 54.464844 49.078125 54.703125 48.484375 54.703125 L 3.390625 54.703125 C 2.792969 54.703125 2.222656 54.464844 1.804688 54.046875 C 1.382812 53.625 1.148438 53.054688 1.148438 52.460938 L 1.148438 7.652344 C 1.148438 7.058594 1.382812 6.488281 1.804688 6.070312 C 2.222656 5.648438 2.792969 5.414062 3.390625 5.414062 Z M 3.390625 5.414062 "/></clipPath><clipPath id="5506f5aea5"><path d="M 5.917969 13.527344 L 44.757812 13.527344 L 44.757812 46.394531 L 5.917969 46.394531 Z M 5.917969 13.527344 "/></clipPath><clipPath id="feb5253479"><path d="M 204 12 L 224.359375 12 L 224.359375 42 L 204 42 Z M 204 12 "/></clipPath></defs><g id="07bd9b597a"><g clip-rule="nonzero" clip-path="url(#b1159f4f0b)"><g clip-rule="nonzero" clip-path="url(#eb04062b2f)"><path style=" stroke:none;fill-rule:nonzero;fill:#eceff1;fill-opacity:1;" d="M 1.148438 5.414062 L 50.820312 5.414062 L 50.820312 54.703125 L 1.148438 54.703125 Z M 1.148438 5.414062 "/></g></g><g clip-rule="nonzero" clip-path="url(#5506f5aea5)"><path style=" stroke:none;fill-rule:nonzero;fill:#2a2a2a;fill-opacity:1;" d="M 28.75 23.449219 L 5.925781 46.277344 L 5.925781 36.371094 L 28.75 13.527344 Z M 21.726562 36.335938 L 21.726562 46.277344 L 37.53125 30.492188 L 37.53125 46.277344 L 44.554688 39.253906 L 44.554688 13.527344 Z M 21.726562 36.335938 "/></g><g style="fill:#ffffff;fill-opacity:1;"><g transform="translate(53.958987, 41.454061)"><path style="stroke:none" d="M 2.40625 0 L 2.40625 -18.984375 L 6.765625 -18.984375 L 6.765625 0 Z M 15.03125 0 L 15.03125 -11.3125 C 15.03125 -12.570312 14.632812 -13.550781 13.84375 -14.25 C 13.050781 -14.945312 12.078125 -15.296875 10.921875 -15.296875 C 10.128906 -15.296875 9.421875 -15.140625 8.796875 -14.828125 C 8.179688 -14.515625 7.6875 -14.0625 7.3125 -13.46875 C 6.945312 -12.875 6.765625 -12.15625 6.765625 -11.3125 L 5.0625 -12.265625 C 5.0625 -13.710938 5.375 -14.960938 6 -16.015625 C 6.632812 -17.066406 7.492188 -17.890625 8.578125 -18.484375 C 9.660156 -19.078125 10.875 -19.375 12.21875 -19.375 C 13.5625 -19.375 14.773438 -19.082031 15.859375 -18.5 C 16.941406 -17.925781 17.796875 -17.109375 18.421875 -16.046875 C 19.054688 -14.992188 19.375 -13.734375 19.375 -12.265625 L 19.375 0 Z M 27.640625 0 L 27.640625 -11.3125 C 27.640625 -12.570312 27.242188 -13.550781 26.453125 -14.25 C 25.660156 -14.945312 24.6875 -15.296875 23.53125 -15.296875 C 22.769531 -15.296875 22.070312 -15.140625 21.4375 -14.828125 C 20.800781 -14.515625 20.296875 -14.0625 19.921875 -13.46875 C 19.554688 -12.875 19.375 -12.15625 19.375 -11.3125 L 16.921875 -12.265625 C 17.054688 -13.710938 17.476562 -14.960938 18.1875 -16.015625 C 18.90625 -17.066406 19.820312 -17.890625 20.9375 -18.484375 C 22.0625 -19.078125 23.296875 -19.375 24.640625 -19.375 C 26.003906 -19.375 27.238281 -19.082031 28.34375 -18.5 C 29.457031 -17.925781 30.34375 -17.109375 31 -16.046875 C 31.664062 -14.992188 32 -13.734375 32 -12.265625 L 32 0 Z M 27.640625 0 "/></g></g><g style="fill:#ffffff;fill-opacity:1;"><g transform="translate(88.01065, 41.454061)"><path style="stroke:none" d="M 2.453125 0 L 2.453125 -18.984375 L 6.796875 -18.984375 L 6.796875 0 Z M 4.625 -22.46875 C 3.882812 -22.46875 3.269531 -22.71875 2.78125 -23.21875 C 2.300781 -23.71875 2.0625 -24.335938 2.0625 -25.078125 C 2.0625 -25.816406 2.300781 -26.4375 2.78125 -26.9375 C 3.269531 -27.4375 3.882812 -27.6875 4.625 -27.6875 C 5.394531 -27.6875 6.015625 -27.4375 6.484375 -26.9375 C 6.960938 -26.4375 7.203125 -25.816406 7.203125 -25.078125 C 7.203125 -24.335938 6.960938 -23.71875 6.484375 -23.21875 C 6.015625 -22.71875 5.394531 -22.46875 4.625 -22.46875 Z M 4.625 -22.46875 "/></g></g><g style="fill:#ffffff;fill-opacity:1;"><g transform="translate(97.265111, 41.454061)"><path style="stroke:none" d="M 15.421875 0 L 15.421875 -10.953125 C 15.421875 -12.222656 15.019531 -13.265625 14.21875 -14.078125 C 13.414062 -14.890625 12.378906 -15.296875 11.109375 -15.296875 C 10.265625 -15.296875 9.515625 -15.113281 8.859375 -14.75 C 8.203125 -14.382812 7.6875 -13.867188 7.3125 -13.203125 C 6.945312 -12.546875 6.765625 -11.796875 6.765625 -10.953125 L 5.0625 -11.90625 C 5.0625 -13.351562 5.375 -14.632812 6 -15.75 C 6.632812 -16.875 7.515625 -17.757812 8.640625 -18.40625 C 9.765625 -19.050781 11.023438 -19.375 12.421875 -19.375 C 13.835938 -19.375 15.097656 -19.007812 16.203125 -18.28125 C 17.316406 -17.5625 18.191406 -16.628906 18.828125 -15.484375 C 19.460938 -14.335938 19.78125 -13.144531 19.78125 -11.90625 L 19.78125 0 Z M 2.40625 0 L 2.40625 -18.984375 L 6.765625 -18.984375 L 6.765625 0 Z M 2.40625 0 "/></g></g><g style="fill:#ffffff;fill-opacity:1;"><g transform="translate(119.056601, 41.454061)"><path style="stroke:none" d="M 12.578125 0.390625 C 11.128906 0.390625 9.835938 0.0820312 8.703125 -0.53125 C 7.566406 -1.15625 6.675781 -2.003906 6.03125 -3.078125 C 5.382812 -4.160156 5.0625 -5.390625 5.0625 -6.765625 L 5.0625 -12.21875 C 5.0625 -13.59375 5.390625 -14.816406 6.046875 -15.890625 C 6.710938 -16.972656 7.609375 -17.820312 8.734375 -18.4375 C 9.867188 -19.0625 11.148438 -19.375 12.578125 -19.375 C 14.285156 -19.375 15.832031 -18.929688 17.21875 -18.046875 C 18.601562 -17.171875 19.695312 -15.988281 20.5 -14.5 C 21.3125 -13.007812 21.71875 -11.328125 21.71875 -9.453125 C 21.71875 -7.609375 21.3125 -5.941406 20.5 -4.453125 C 19.695312 -2.960938 18.601562 -1.78125 17.21875 -0.90625 C 15.832031 -0.0390625 14.285156 0.390625 12.578125 0.390625 Z M 2.40625 0 L 2.40625 -28.46875 L 6.765625 -28.46875 L 6.765625 -14.3125 L 6.015625 -9.734375 L 6.765625 -5.09375 L 6.765625 0 Z M 11.859375 -3.71875 C 12.921875 -3.71875 13.851562 -3.960938 14.65625 -4.453125 C 15.457031 -4.941406 16.085938 -5.617188 16.546875 -6.484375 C 17.015625 -7.359375 17.25 -8.359375 17.25 -9.484375 C 17.25 -10.617188 17.015625 -11.617188 16.546875 -12.484375 C 16.085938 -13.359375 15.457031 -14.039062 14.65625 -14.53125 C 13.851562 -15.019531 12.921875 -15.265625 11.859375 -15.265625 C 10.804688 -15.265625 9.867188 -15.019531 9.046875 -14.53125 C 8.234375 -14.039062 7.601562 -13.359375 7.15625 -12.484375 C 6.707031 -11.617188 6.484375 -10.617188 6.484375 -9.484375 C 6.484375 -8.359375 6.707031 -7.359375 7.15625 -6.484375 C 7.601562 -5.617188 8.234375 -4.941406 9.046875 -4.453125 C 9.867188 -3.960938 10.804688 -3.71875 11.859375 -3.71875 Z M 11.859375 -3.71875 "/></g></g><g style="fill:#ffffff;fill-opacity:1;"><g transform="translate(141.995006, 41.454061)"><path style="stroke:none" d="M 2.40625 0 L 2.40625 -18.984375 L 6.765625 -18.984375 L 6.765625 0 Z M 6.765625 -10.5625 L 5.265625 -11.3125 C 5.265625 -13.707031 5.796875 -15.648438 6.859375 -17.140625 C 7.929688 -18.628906 9.546875 -19.375 11.703125 -19.375 C 12.648438 -19.375 13.503906 -19.203125 14.265625 -18.859375 C 15.035156 -18.515625 15.75 -17.960938 16.40625 -17.203125 L 13.5625 -14.28125 C 13.21875 -14.644531 12.832031 -14.90625 12.40625 -15.0625 C 11.988281 -15.21875 11.503906 -15.296875 10.953125 -15.296875 C 9.742188 -15.296875 8.742188 -14.914062 7.953125 -14.15625 C 7.160156 -13.394531 6.765625 -12.195312 6.765625 -10.5625 Z M 6.765625 -10.5625 "/></g></g><g style="fill:#ffffff;fill-opacity:1;"><g transform="translate(158.803319, 41.454061)"><path style="stroke:none" d="M 10.359375 0.390625 C 8.648438 0.390625 7.101562 -0.0390625 5.71875 -0.90625 C 4.332031 -1.78125 3.234375 -2.960938 2.421875 -4.453125 C 1.617188 -5.941406 1.21875 -7.609375 1.21875 -9.453125 C 1.21875 -11.328125 1.617188 -13.007812 2.421875 -14.5 C 3.234375 -15.988281 4.332031 -17.171875 5.71875 -18.046875 C 7.101562 -18.929688 8.648438 -19.375 10.359375 -19.375 C 11.804688 -19.375 13.085938 -19.0625 14.203125 -18.4375 C 15.328125 -17.820312 16.21875 -16.972656 16.875 -15.890625 C 17.539062 -14.816406 17.875 -13.59375 17.875 -12.21875 L 17.875 -6.765625 C 17.875 -5.390625 17.550781 -4.160156 16.90625 -3.078125 C 16.257812 -2.003906 15.367188 -1.15625 14.234375 -0.53125 C 13.097656 0.0820312 11.804688 0.390625 10.359375 0.390625 Z M 11.078125 -3.71875 C 12.679688 -3.71875 13.976562 -4.253906 14.96875 -5.328125 C 15.957031 -6.410156 16.453125 -7.796875 16.453125 -9.484375 C 16.453125 -10.617188 16.226562 -11.617188 15.78125 -12.484375 C 15.332031 -13.359375 14.703125 -14.039062 13.890625 -14.53125 C 13.085938 -15.019531 12.148438 -15.265625 11.078125 -15.265625 C 10.015625 -15.265625 9.082031 -15.019531 8.28125 -14.53125 C 7.476562 -14.039062 6.84375 -13.359375 6.375 -12.484375 C 5.914062 -11.617188 5.6875 -10.617188 5.6875 -9.484375 C 5.6875 -8.359375 5.914062 -7.359375 6.375 -6.484375 C 6.84375 -5.617188 7.476562 -4.941406 8.28125 -4.453125 C 9.082031 -3.960938 10.015625 -3.71875 11.078125 -3.71875 Z M 16.171875 0 L 16.171875 -5.09375 L 16.921875 -9.734375 L 16.171875 -14.3125 L 16.171875 -18.984375 L 20.53125 -18.984375 L 20.53125 0 Z M 16.171875 0 "/></g></g><g style="fill:#ffffff;fill-opacity:1;"><g transform="translate(181.741725, 41.454061)"><path style="stroke:none" d="M 15.421875 0 L 15.421875 -10.953125 C 15.421875 -12.222656 15.019531 -13.265625 14.21875 -14.078125 C 13.414062 -14.890625 12.378906 -15.296875 11.109375 -15.296875 C 10.265625 -15.296875 9.515625 -15.113281 8.859375 -14.75 C 8.203125 -14.382812 7.6875 -13.867188 7.3125 -13.203125 C 6.945312 -12.546875 6.765625 -11.796875 6.765625 -10.953125 L 5.0625 -11.90625 C 5.0625 -13.351562 5.375 -14.632812 6 -15.75 C 6.632812 -16.875 7.515625 -17.757812 8.640625 -18.40625 C 9.765625 -19.050781 11.023438 -19.375 12.421875 -19.375 C 13.835938 -19.375 15.097656 -19.007812 16.203125 -18.28125 C 17.316406 -17.5625 18.191406 -16.628906 18.828125 -15.484375 C 19.460938 -14.335938 19.78125 -13.144531 19.78125 -11.90625 L 19.78125 0 Z M 2.40625 0 L 2.40625 -18.984375 L 6.765625 -18.984375 L 6.765625 0 Z M 2.40625 0 "/></g></g><g clip-rule="nonzero" clip-path="url(#feb5253479)"><g style="fill:#ffffff;fill-opacity:1;"><g transform="translate(203.533214, 41.454061)"><path style="stroke:none" d="M 10.359375 0.390625 C 8.648438 0.390625 7.101562 -0.0390625 5.71875 -0.90625 C 4.332031 -1.78125 3.234375 -2.960938 2.421875 -4.453125 C 1.617188 -5.941406 1.21875 -7.609375 1.21875 -9.453125 C 1.21875 -11.328125 1.617188 -13.007812 2.421875 -14.5 C 3.234375 -15.988281 4.332031 -17.171875 5.71875 -18.046875 C 7.101562 -18.929688 8.648438 -19.375 10.359375 -19.375 C 11.804688 -19.375 13.085938 -19.0625 14.203125 -18.4375 C 15.328125 -17.820312 16.21875 -16.972656 16.875 -15.890625 C 17.539062 -14.816406 17.875 -13.59375 17.875 -12.21875 L 17.875 -6.765625 C 17.875 -5.390625 17.550781 -4.160156 16.90625 -3.078125 C 16.257812 -2.003906 15.367188 -1.15625 14.234375 -0.53125 C 13.097656 0.0820312 11.804688 0.390625 10.359375 0.390625 Z M 11.078125 -3.71875 C 12.148438 -3.71875 13.085938 -3.960938 13.890625 -4.453125 C 14.703125 -4.941406 15.332031 -5.617188 15.78125 -6.484375 C 16.226562 -7.359375 16.453125 -8.359375 16.453125 -9.484375 C 16.453125 -10.617188 16.226562 -11.617188 15.78125 -12.484375 C 15.332031 -13.359375 14.703125 -14.039062 13.890625 -14.53125 C 13.085938 -15.019531 12.160156 -15.265625 11.109375 -15.265625 C 10.023438 -15.265625 9.082031 -15.019531 8.28125 -14.53125 C 7.476562 -14.039062 6.84375 -13.359375 6.375 -12.484375 C 5.914062 -11.617188 5.6875 -10.617188 5.6875 -9.484375 C 5.6875 -8.359375 5.914062 -7.359375 6.375 -6.484375 C 6.84375 -5.617188 7.476562 -4.941406 8.28125 -4.453125 C 9.082031 -3.960938 10.015625 -3.71875 11.078125 -3.71875 Z M 20.53125 0 L 16.171875 0 L 16.171875 -5.09375 L 16.921875 -9.734375 L 16.171875 -14.3125 L 16.171875 -28.46875 L 20.53125 -28.46875 Z M 20.53125 0 "/></g></g></g></g></svg>