<svg xmlns="http://www.w3.org/2000/svg" xmlns:xlink="http://www.w3.org/1999/xlink" width="200" zoomAndPan="magnify" viewBox="0 0 150 44.999999" height="60" preserveAspectRatio="xMidYMid meet" version="1.0"><defs><g/><clipPath id="d30716ebec"><path d="M 0.480469 3 L 22 3 L 22 30 L 0.480469 30 Z M 0.480469 3 " clip-rule="nonzero"/></clipPath><clipPath id="6d3b6aeb2d"><rect x="0" width="101" y="0" height="37"/></clipPath></defs><path fill="#d9d9d9" d="M 18.617188 8.019531 C 18.617188 8.597656 18.765625 9.167969 19.09375 9.613281 C 19.136719 9.667969 19.183594 9.722656 19.222656 9.78125 C 18.898438 9.996094 19.097656 9.960938 18.707031 10.023438 C 17.964844 10.148438 17.703125 10.195312 17.070312 10.65625 C 16.921875 10.765625 16.691406 10.957031 16.558594 11.089844 C 16.523438 11.125 16.5 11.148438 16.46875 11.179688 C 16.433594 11.214844 16.40625 11.238281 16.375 11.273438 L 16.367188 11.28125 C 16.476562 11.222656 16.636719 11.171875 16.820312 11.152344 C 17.035156 11.125 17.28125 11.125 17.539062 11.136719 C 17.671875 11.144531 17.804688 11.148438 17.941406 11.160156 C 18.074219 11.171875 18.210938 11.183594 18.351562 11.195312 C 18.484375 11.207031 18.621094 11.222656 18.753906 11.226562 C 18.886719 11.238281 19.019531 11.25 19.140625 11.246094 C 19.199219 11.246094 19.253906 11.234375 19.316406 11.230469 C 19.371094 11.222656 19.429688 11.21875 19.480469 11.203125 C 19.589844 11.175781 19.6875 11.140625 19.777344 11.09375 C 19.859375 11.050781 19.9375 11 20 10.949219 C 20.0625 10.898438 20.113281 10.847656 20.152344 10.804688 C 20.230469 10.710938 20.265625 10.652344 20.265625 10.652344 C 20.265625 10.652344 20.25 10.71875 20.191406 10.832031 C 20.164062 10.886719 20.125 10.953125 20.070312 11.019531 C 20.011719 11.085938 19.941406 11.15625 19.855469 11.222656 C 19.765625 11.289062 19.660156 11.34375 19.539062 11.386719 C 19.476562 11.410156 19.414062 11.421875 19.351562 11.445312 C 19.289062 11.453125 19.21875 11.46875 19.152344 11.472656 C 19.011719 11.484375 18.878906 11.488281 18.738281 11.480469 C 18.601562 11.472656 18.464844 11.464844 18.324219 11.453125 C 18.1875 11.4375 18.050781 11.421875 17.914062 11.410156 C 17.78125 11.398438 17.648438 11.375 17.523438 11.363281 C 17.265625 11.335938 17.03125 11.308594 16.828125 11.300781 C 16.625 11.292969 16.460938 11.300781 16.347656 11.335938 C 16.332031 11.34375 16.320312 11.347656 16.308594 11.351562 C 16.300781 11.359375 16.292969 11.371094 16.28125 11.382812 C 16.246094 11.421875 16.230469 11.441406 16.195312 11.484375 C 16.164062 11.519531 16.144531 11.550781 16.117188 11.585938 C 16.007812 11.730469 15.683594 12.125 15.652344 12.265625 L 16.054688 12.25 C 16.234375 12.25 16.492188 12.277344 16.640625 12.3125 C 16.625 12.367188 16.582031 12.40625 16.542969 12.449219 C 16.292969 12.757812 16.066406 13.082031 15.828125 13.398438 C 15.554688 13.765625 15.3125 14.160156 15.078125 14.550781 C 14.929688 14.792969 14.78125 15.042969 14.652344 15.300781 C 14.34375 15.921875 14.085938 16.429688 13.816406 17.105469 C 13.492188 17.914062 13.226562 18.785156 13.023438 19.648438 C 12.992188 19.773438 12.972656 19.90625 12.9375 20.042969 C 12.679688 21.15625 12.578125 22.59375 12.578125 23.746094 C 12.578125 25.078125 13.082031 26.375 13.847656 27.390625 L 14.441406 28.109375 C 14.496094 28.179688 14.542969 28.222656 14.605469 28.285156 C 15.128906 28.804688 15.699219 29.292969 16.335938 29.675781 C 16.425781 29.730469 16.46875 29.738281 16.484375 29.847656 C 16.660156 30.957031 16.386719 32.117188 15.59375 32.910156 L 14.691406 33.75 C 14.3125 34.144531 13.964844 34.652344 13.679688 35.121094 C 13.351562 35.671875 12.902344 36.609375 12.902344 37.214844 C 12.902344 37.4375 12.902344 37.660156 13.046875 37.832031 C 13.082031 37.875 13.121094 37.890625 13.148438 37.925781 C 13.097656 37.9375 13.007812 37.988281 12.960938 38.015625 C 12.894531 38.050781 12.835938 38.082031 12.773438 38.121094 C 12.589844 38.230469 12.417969 38.335938 12.25 38.464844 L 11.921875 38.722656 C 11.796875 38.816406 11.59375 39.027344 11.484375 39.152344 C 11.390625 39.261719 11.316406 39.367188 11.238281 39.492188 C 11.085938 39.730469 10.933594 40.015625 10.910156 40.320312 L 14.757812 40.320312 C 14.8125 40.203125 14.863281 39.8125 14.863281 39.625 C 14.863281 39.332031 14.789062 38.902344 14.664062 38.636719 C 15.191406 38.636719 15.699219 38.339844 15.699219 37.773438 C 15.699219 37.179688 15.375 36.9375 15.375 36.320312 C 15.375 35.789062 15.824219 35.378906 16.128906 35.097656 L 16.589844 34.679688 C 16.636719 34.632812 16.667969 34.617188 16.714844 34.570312 L 17.1875 34.164062 C 17.507812 33.890625 17.832031 33.625 18.128906 33.328125 C 18.402344 33.050781 18.5 32.894531 18.730469 32.585938 C 18.863281 32.410156 18.953125 32.242188 19.109375 32.082031 C 19.554688 31.636719 20.074219 31.261719 20.570312 30.875 C 20.742188 30.742188 20.90625 30.628906 21.085938 30.507812 C 21.269531 30.386719 21.457031 30.28125 21.648438 30.171875 C 21.832031 30.066406 22.03125 29.957031 22.230469 29.875 C 22.28125 29.855469 22.324219 29.832031 22.378906 29.804688 L 22.6875 29.667969 C 22.730469 29.648438 22.808594 29.609375 22.851562 29.601562 C 22.808594 29.65625 22.203125 29.996094 22.089844 30.074219 C 22.019531 30.117188 21.96875 30.148438 21.898438 30.195312 C 21.714844 30.316406 21.519531 30.445312 21.347656 30.585938 C 20.957031 30.90625 20.5625 31.253906 20.292969 31.691406 C 20.253906 31.757812 20.195312 31.832031 20.179688 31.902344 L 20.371094 31.972656 C 20.449219 32 20.507812 32.019531 20.582031 32.039062 C 20.730469 32.074219 20.890625 32.109375 21.046875 32.132812 C 21.507812 32.195312 22.023438 32.210938 22.511719 32.210938 C 23.003906 32.210938 23.589844 32.046875 23.964844 31.917969 C 25.363281 31.453125 26.59375 30.851562 28.132812 30.851562 L 28.90625 30.867188 C 29.03125 30.867188 29.144531 30.898438 29.277344 30.898438 C 28.957031 30.289062 28.652344 29.625 28.535156 28.921875 C 28.515625 28.800781 28.488281 28.65625 28.488281 28.519531 C 28.492188 28.378906 28.472656 28.332031 28.488281 28.207031 C 28.492188 28.167969 28.488281 28.125 28.488281 28.085938 C 28.539062 28.164062 28.550781 28.304688 28.5625 28.382812 C 28.703125 29.203125 28.820312 29.351562 29.164062 30.054688 L 29.730469 31 L 30.5625 32.082031 C 30.59375 32.117188 30.621094 32.140625 30.65625 32.175781 L 30.933594 32.46875 C 31 32.535156 31.054688 32.589844 31.121094 32.65625 L 31.515625 33.015625 C 31.726562 33.1875 32.035156 33.261719 32.226562 33.449219 L 32.496094 33.738281 C 32.589844 33.832031 32.703125 33.910156 32.804688 34 C 33.171875 34.324219 33.640625 34.558594 34.160156 34.558594 C 34.195312 34.625 34.234375 34.679688 34.269531 34.746094 C 34.300781 34.808594 34.332031 34.871094 34.367188 34.941406 C 34.675781 35.554688 34.785156 36.351562 34.617188 37.023438 C 34.558594 37.265625 34.3125 37.917969 34.128906 38.050781 C 34.058594 38.101562 33.984375 38.144531 33.90625 38.199219 C 33.824219 38.253906 33.765625 38.304688 33.6875 38.367188 C 33.097656 38.832031 32.582031 39.523438 32.582031 40.320312 L 35.644531 40.320312 L 35.644531 38.636719 C 35.855469 38.636719 35.941406 38.699219 36.160156 38.554688 C 36.476562 38.347656 36.453125 37.859375 36.371094 37.539062 C 36.316406 37.320312 36.214844 37.113281 36.117188 36.914062 C 35.632812 35.953125 36.09375 35.882812 36.472656 35.125 C 36.570312 34.929688 36.648438 34.765625 36.714844 34.535156 C 36.96875 33.640625 36.792969 32.90625 36.222656 32.1875 C 36.027344 31.9375 35.59375 31.523438 35.316406 31.375 C 35.363281 31.289062 35.398438 31.191406 35.4375 31.09375 C 35.902344 29.9375 36.300781 28.070312 35.480469 26.980469 C 35.1875 26.585938 34.734375 26.335938 34.285156 26.152344 L 31.707031 25.085938 C 31.328125 24.933594 30.960938 24.746094 30.582031 24.589844 C 30.25 24.449219 29.824219 24.210938 29.5 24.050781 C 28.796875 23.699219 27.84375 23.121094 27.226562 22.660156 L 26.65625 22.226562 C 26.417969 22.03125 26.097656 21.792969 25.882812 21.578125 L 24.683594 20.335938 C 24.652344 20.296875 24.625 20.265625 24.59375 20.226562 C 24.109375 19.609375 23.660156 18.972656 23.300781 18.277344 L 23.101562 17.871094 C 23.078125 17.816406 23.058594 17.785156 23.035156 17.734375 C 23.015625 17.691406 22.996094 17.640625 22.976562 17.597656 C 22.792969 17.222656 22.527344 16.480469 22.433594 16.082031 C 22.515625 16.042969 22.625 16.035156 22.714844 15.976562 C 22.839844 15.902344 22.960938 15.828125 23.070312 15.730469 L 23.570312 15.222656 C 23.601562 15.183594 23.625 15.15625 23.660156 15.113281 C 23.691406 15.074219 23.71875 15.042969 23.75 15.003906 C 23.808594 14.929688 23.867188 14.851562 23.921875 14.773438 C 24.214844 14.339844 24.816406 13.558594 25.253906 13.292969 C 25.617188 13.070312 26.054688 13.03125 26.445312 13.230469 C 26.925781 13.472656 27.058594 13.578125 27.433594 12.832031 C 27.65625 12.390625 27.730469 11.769531 27.566406 11.277344 C 27.519531 11.136719 27.4375 11 27.371094 10.867188 C 27.070312 10.253906 26.5625 10.035156 25.882812 9.945312 C 25.71875 9.921875 25.496094 9.925781 25.320312 9.90625 C 25.222656 9.894531 25.113281 9.910156 25.015625 9.902344 C 24.109375 9.804688 23.328125 9.402344 22.5 9.078125 C 22.351562 9.019531 22.210938 8.976562 22.054688 8.925781 C 21.898438 8.871094 21.738281 8.835938 21.570312 8.804688 C 21.378906 8.773438 21.207031 8.777344 20.980469 8.777344 C 20.953125 8.722656 20.964844 8.738281 20.925781 8.695312 C 20.894531 8.660156 20.890625 8.648438 20.863281 8.617188 C 20.824219 8.574219 20.742188 8.511719 20.714844 8.46875 C 20.632812 8.335938 20.640625 7.945312 20.640625 7.757812 C 20.640625 7.148438 20.894531 6.402344 21.101562 5.988281 L 21.496094 5.273438 C 21.605469 5.085938 21.894531 4.71875 21.957031 4.605469 C 21.765625 4.648438 20.753906 5.1875 20.558594 5.308594 C 19.984375 5.652344 19.296875 6.089844 18.980469 6.679688 C 18.789062 7.03125 18.617188 7.484375 18.617188 8.019531 Z M 17.335938 28.496094 C 17.242188 28.5 17.101562 28.480469 16.917969 28.449219 C 16.828125 28.425781 16.730469 28.402344 16.621094 28.371094 C 16.515625 28.328125 16.398438 28.292969 16.285156 28.234375 C 16.046875 28.128906 15.800781 27.972656 15.546875 27.777344 C 15.292969 27.585938 15.039062 27.347656 14.796875 27.078125 C 14.554688 26.8125 14.3125 26.515625 14.09375 26.179688 C 14.035156 26.101562 13.980469 26.019531 13.929688 25.929688 L 13.851562 25.800781 L 13.773438 25.660156 C 13.730469 25.574219 13.679688 25.492188 13.632812 25.394531 C 13.589844 25.296875 13.546875 25.199219 13.503906 25.097656 C 13.34375 24.699219 13.226562 24.285156 13.152344 23.859375 C 13.082031 23.4375 13.050781 23.011719 13.054688 22.59375 C 13.058594 22.175781 13.09375 21.769531 13.152344 21.378906 C 13.210938 20.992188 13.289062 20.617188 13.378906 20.273438 C 13.421875 20.097656 13.46875 19.933594 13.511719 19.769531 C 13.5625 19.609375 13.605469 19.457031 13.660156 19.304688 C 13.714844 19.160156 13.765625 19.023438 13.808594 18.890625 C 13.871094 18.757812 13.921875 18.632812 13.976562 18.515625 C 14.078125 18.285156 14.195312 18.097656 14.28125 17.933594 C 14.371094 17.777344 14.453125 17.660156 14.503906 17.578125 C 14.558594 17.5 14.589844 17.457031 14.589844 17.457031 C 14.589844 17.457031 14.519531 17.652344 14.398438 17.988281 C 14.371094 18.074219 14.339844 18.167969 14.308594 18.269531 C 14.277344 18.371094 14.238281 18.480469 14.210938 18.601562 C 14.179688 18.71875 14.144531 18.84375 14.113281 18.976562 C 14.082031 19.113281 14.050781 19.257812 14.019531 19.410156 C 13.960938 19.699219 13.90625 20.027344 13.851562 20.367188 C 13.796875 20.710938 13.761719 21.070312 13.722656 21.445312 C 13.691406 21.820312 13.679688 22.199219 13.683594 22.589844 C 13.691406 22.980469 13.726562 23.367188 13.789062 23.75 C 13.851562 24.136719 13.957031 24.511719 14.085938 24.863281 C 14.121094 24.949219 14.15625 25.035156 14.1875 25.121094 C 14.226562 25.207031 14.273438 25.300781 14.316406 25.386719 L 14.371094 25.507812 L 14.441406 25.632812 C 14.484375 25.71875 14.53125 25.800781 14.578125 25.878906 C 14.765625 26.199219 14.964844 26.5 15.167969 26.773438 C 15.375 27.042969 15.578125 27.292969 15.792969 27.496094 C 15.839844 27.554688 15.898438 27.601562 15.949219 27.644531 C 16 27.695312 16.054688 27.742188 16.101562 27.785156 C 16.15625 27.828125 16.210938 27.867188 16.253906 27.910156 C 16.308594 27.945312 16.359375 27.984375 16.40625 28.019531 C 16.507812 28.09375 16.609375 28.136719 16.695312 28.199219 C 16.785156 28.246094 16.875 28.285156 16.957031 28.328125 C 17.039062 28.359375 17.109375 28.386719 17.171875 28.410156 C 17.234375 28.433594 17.300781 28.441406 17.34375 28.457031 C 17.4375 28.480469 17.488281 28.496094 17.488281 28.496094 C 17.488281 28.496094 17.4375 28.496094 17.335938 28.496094 Z M 22.761719 10.644531 C 22.761719 10.644531 22.609375 10.597656 22.519531 10.660156 C 22.519531 10.660156 22.003906 11.328125 21.144531 10.289062 C 21.144531 10.289062 21.9375 9.871094 22.761719 10.644531 Z M 21.359375 14.761719 C 21.28125 14.742188 21.207031 14.699219 21.136719 14.664062 C 21.074219 14.613281 21.011719 14.574219 20.964844 14.523438 C 20.941406 14.496094 20.914062 14.46875 20.894531 14.449219 C 20.871094 14.417969 20.855469 14.390625 20.835938 14.367188 C 20.824219 14.34375 20.800781 14.316406 20.792969 14.292969 C 20.777344 14.269531 20.765625 14.242188 20.757812 14.21875 C 20.707031 14.121094 20.6875 14.027344 20.667969 13.960938 C 20.65625 13.890625 20.652344 13.832031 20.648438 13.796875 C 20.644531 13.757812 20.644531 13.738281 20.644531 13.738281 C 20.644531 13.714844 20.660156 13.699219 20.683594 13.699219 C 20.695312 13.699219 20.707031 13.703125 20.714844 13.710938 C 20.714844 13.710938 20.726562 13.726562 20.75 13.753906 C 20.773438 13.785156 20.804688 13.832031 20.847656 13.886719 C 20.894531 13.933594 20.933594 13.996094 21 14.050781 C 21.027344 14.082031 21.058594 14.113281 21.097656 14.140625 C 21.117188 14.15625 21.132812 14.167969 21.152344 14.183594 C 21.167969 14.195312 21.191406 14.203125 21.210938 14.21875 C 21.289062 14.265625 21.378906 14.300781 21.476562 14.3125 C 21.574219 14.332031 21.683594 14.328125 21.804688 14.308594 C 21.921875 14.292969 22.046875 14.265625 22.179688 14.210938 C 22.304688 14.164062 22.4375 14.105469 22.566406 14.039062 C 22.699219 13.972656 22.824219 13.894531 22.949219 13.816406 C 23.074219 13.738281 23.199219 13.664062 23.3125 13.582031 C 23.429688 13.5 23.539062 13.417969 23.648438 13.34375 C 23.753906 13.261719 23.851562 13.1875 23.945312 13.121094 C 24.128906 12.980469 24.28125 12.863281 24.390625 12.78125 C 24.496094 12.695312 24.558594 12.652344 24.558594 12.652344 C 24.574219 12.636719 24.597656 12.640625 24.609375 12.65625 C 24.621094 12.667969 24.621094 12.6875 24.613281 12.699219 C 24.613281 12.699219 24.570312 12.765625 24.488281 12.878906 C 24.40625 12.988281 24.289062 13.140625 24.132812 13.320312 C 23.972656 13.496094 23.78125 13.699219 23.558594 13.894531 C 23.335938 14.09375 23.082031 14.285156 22.796875 14.457031 C 22.660156 14.539062 22.511719 14.613281 22.351562 14.675781 C 22.199219 14.738281 22.035156 14.785156 21.863281 14.804688 C 21.695312 14.828125 21.519531 14.8125 21.359375 14.761719 Z M 21.359375 14.761719 " fill-opacity="1" fill-rule="evenodd"/><path fill="#d9d9d9" d="M 8.128906 28.75 C 8.128906 29.242188 8.398438 29.683594 8.617188 30.054688 C 9.046875 30.773438 9.90625 31.816406 9.90625 32.597656 C 9.90625 32.820312 9.839844 33.0625 9.796875 33.273438 C 9.753906 33.472656 9.757812 33.664062 9.824219 33.851562 C 9.949219 34.207031 10.21875 34.296875 10.570312 34.296875 C 10.488281 34.464844 10.476562 34.933594 10.476562 35.160156 C 10.476562 35.605469 10.667969 36.097656 10.890625 36.398438 C 11 36.546875 11.078125 36.640625 11.214844 36.757812 C 11.433594 36.945312 11.363281 36.972656 11.734375 36.726562 L 12.019531 36.503906 C 12.171875 36.347656 12.25 36.285156 12.382812 36.109375 C 12.425781 36.054688 12.457031 36.015625 12.5 35.960938 C 12.734375 35.648438 12.898438 35.355469 13.070312 35.007812 C 13.09375 34.964844 13.226562 34.6875 13.226562 34.652344 C 13.226562 34.558594 12.867188 34.234375 12.75 34.136719 C 12.542969 33.96875 12.394531 33.871094 12.164062 33.722656 L 11.742188 33.476562 C 11.949219 33.167969 12 32.898438 11.960938 32.488281 C 11.949219 32.390625 11.945312 32.371094 11.867188 32.335938 C 11.804688 32.304688 11.78125 32.289062 11.722656 32.246094 C 11.457031 32.046875 11.230469 31.730469 11.078125 31.4375 C 11.050781 31.378906 11.023438 31.339844 10.992188 31.277344 C 10.960938 31.21875 10.949219 31.179688 10.917969 31.121094 C 10.851562 30.96875 10.597656 30.382812 10.585938 30.234375 C 10.792969 30.183594 10.988281 30.128906 11.214844 30.09375 C 11.835938 29.992188 11.9375 29.949219 12.558594 30.097656 C 13.523438 30.324219 14.453125 30.582031 15.472656 30.238281 C 15.777344 30.136719 15.832031 30.105469 16.089844 29.976562 C 16.179688 29.933594 16.253906 29.90625 16.269531 29.847656 C 16.144531 29.816406 15.808594 29.632812 15.691406 29.5625 C 15.328125 29.34375 14.769531 28.957031 14.417969 28.671875 C 14.152344 28.453125 13.859375 28.199219 13.640625 27.9375 C 13.601562 27.894531 13.566406 27.867188 13.535156 27.824219 C 13.496094 27.777344 13.46875 27.753906 13.433594 27.710938 L 13.152344 27.34375 C 13.089844 27.261719 13.03125 27.171875 12.976562 27.085938 L 12.65625 26.527344 C 12.574219 26.546875 12.363281 26.550781 12.269531 26.554688 C 11.929688 26.578125 11.511719 26.675781 11.199219 26.753906 C 10.746094 26.867188 10.355469 27.027344 9.953125 27.191406 C 9.445312 27.398438 8.445312 27.96875 8.210938 28.398438 C 8.160156 28.492188 8.128906 28.613281 8.128906 28.75 Z M 8.128906 28.75 " fill-opacity="1" fill-rule="evenodd"/><path fill="#d9d9d9" d="M 25.664062 17.628906 C 25.664062 18.09375 25.78125 18.515625 25.957031 18.847656 C 25.554688 18.753906 26.089844 19.589844 26.148438 19.675781 C 26.269531 19.859375 26.257812 19.828125 26.378906 19.984375 C 26.59375 20.257812 27.019531 20.53125 27.378906 20.621094 C 27.535156 20.660156 27.6875 20.671875 27.855469 20.652344 C 27.949219 20.644531 28.085938 20.597656 28.171875 20.554688 C 28.308594 20.480469 28.21875 20.472656 28.433594 20.574219 C 28.6875 20.691406 28.921875 20.761719 29.179688 20.847656 C 29.859375 21.074219 31 21.210938 31.695312 21.113281 C 32.027344 21.066406 32.234375 21.054688 32.605469 20.988281 C 33.179688 20.878906 33.800781 20.761719 34.367188 20.675781 C 34.988281 20.585938 35.78125 20.5 36.367188 20.792969 C 36.773438 20.996094 37.125 21.382812 37.125 21.875 C 37.125 22.238281 37.046875 22.542969 36.9375 22.863281 C 36.824219 23.203125 36.503906 23.714844 36.230469 23.933594 C 36.1875 23.96875 36.164062 23.992188 36.125 24.027344 C 35.125 24.839844 33.683594 24.828125 32.363281 24.644531 C 32.289062 24.632812 32.230469 24.625 32.164062 24.613281 C 32.101562 24.597656 32.019531 24.578125 31.949219 24.578125 C 31.851562 24.578125 31.8125 24.707031 31.894531 24.773438 C 31.941406 24.8125 32.539062 25.070312 32.625 25.109375 C 32.96875 25.257812 33.304688 25.371094 33.671875 25.5 C 34.121094 25.65625 34.742188 25.925781 35.132812 26.1875 C 35.207031 26.234375 35.269531 26.277344 35.34375 26.332031 C 35.382812 26.363281 35.523438 26.480469 35.566406 26.480469 C 35.835938 26.480469 36.328125 26.257812 36.589844 26.113281 C 36.839844 25.976562 37.179688 25.71875 37.386719 25.519531 L 37.605469 25.273438 C 38.003906 24.757812 38.179688 24.535156 38.46875 23.820312 C 38.726562 23.171875 38.808594 22.753906 38.808594 22.046875 C 38.808594 20.882812 37.921875 19.953125 36.917969 19.609375 C 35.992188 19.292969 34.625 19.371094 33.683594 19.59375 C 33.511719 19.632812 33.351562 19.675781 33.175781 19.71875 C 32.5625 19.871094 31.953125 20.039062 31.300781 20.039062 C 31.046875 20.035156 31.046875 20.066406 30.699219 20.039062 C 30.597656 20.03125 30.476562 20.046875 30.375 20.035156 C 29.890625 19.996094 29.71875 19.980469 29.246094 19.902344 C 29.054688 19.871094 28.894531 19.816406 28.722656 19.773438 L 28.738281 19.542969 C 28.738281 18.875 28.210938 18.375 27.574219 18.21875 C 27.238281 18.132812 26.792969 18.160156 26.460938 18.078125 C 26.296875 18.039062 26.160156 17.972656 26.050781 17.871094 C 25.859375 17.691406 25.886719 17.519531 25.769531 17.519531 C 25.699219 17.519531 25.664062 17.554688 25.664062 17.628906 Z M 25.664062 17.628906 " fill-opacity="1" fill-rule="evenodd"/><path fill="#d9d9d9" d="M 26.867188 31.316406 C 26.878906 31.351562 26.878906 31.335938 26.902344 31.359375 C 26.953125 31.410156 27.257812 31.640625 27.367188 31.742188 L 27.820312 32.214844 C 27.976562 32.386719 27.96875 32.390625 28.101562 32.570312 C 28.28125 32.808594 28.429688 33.117188 28.511719 33.410156 C 28.722656 34.148438 28.472656 34.738281 28.148438 35.378906 C 28.011719 35.65625 27.949219 35.734375 27.8125 35.964844 C 27.683594 36.179688 27.304688 36.667969 27.132812 36.863281 C 26.980469 37.039062 26.636719 37.40625 26.636719 37.648438 C 26.636719 37.800781 26.816406 37.871094 26.851562 37.925781 C 26.742188 37.953125 26.214844 38.285156 26.117188 38.351562 C 26.019531 38.417969 25.714844 38.640625 25.628906 38.726562 C 25.480469 38.875 25.398438 38.914062 25.195312 39.160156 C 25.011719 39.375 24.851562 39.597656 24.746094 39.867188 C 24.675781 40.039062 24.617188 40.308594 24.613281 40.320312 L 28.472656 40.320312 C 28.480469 40.242188 28.519531 40.128906 28.535156 40.042969 C 28.667969 39.25 28.390625 38.75 28.382812 38.636719 C 29.105469 38.636719 29.425781 38.21875 29.433594 37.539062 L 29.507812 36.550781 C 29.546875 36.21875 29.613281 35.945312 29.71875 35.679688 C 29.949219 35.101562 30.390625 34.710938 30.96875 34.519531 C 31.039062 34.492188 31.097656 34.484375 31.167969 34.457031 C 31.582031 34.3125 31.886719 34.042969 31.886719 33.554688 C 31.445312 33.320312 31.371094 33.273438 30.96875 32.976562 C 30.894531 32.917969 30.839844 32.859375 30.769531 32.804688 C 30.503906 32.597656 30.074219 32.097656 29.871094 31.820312 L 29.722656 31.597656 C 29.671875 31.511719 29.617188 31.441406 29.570312 31.359375 C 29.492188 31.21875 29.519531 31.25 29.335938 31.226562 C 28.707031 31.148438 28.027344 31.105469 27.394531 31.191406 C 27.199219 31.21875 27.042969 31.273438 26.867188 31.316406 Z M 26.867188 31.316406 " fill-opacity="1" fill-rule="evenodd"/><path fill="#d9d9d9" d="M 23.222656 9.023438 C 23.265625 9.082031 23.972656 9.390625 24.046875 9.417969 C 24.324219 9.523438 24.5 9.558594 24.792969 9.597656 C 24.847656 9.605469 25.011719 9.625 25.074219 9.625 L 25.191406 9.417969 C 25.292969 9.25 25.429688 8.839844 25.429688 8.636719 C 25.429688 7.992188 25.335938 7.746094 25.152344 7.1875 C 25.007812 6.753906 24.898438 6.5625 24.746094 6.203125 L 24.703125 6.132812 L 24.660156 6.628906 C 24.617188 7.066406 24.484375 7.554688 24.324219 7.929688 C 24.175781 8.269531 23.871094 8.742188 23.574219 8.957031 C 23.53125 8.988281 23.539062 8.984375 23.472656 8.996094 C 23.433594 9.003906 23.273438 9.023438 23.222656 9.023438 Z M 23.222656 9.023438 " fill-opacity="1" fill-rule="evenodd"/><g transform="matrix(1, 0, 0, 1, 42, 6)"><g clip-path="url(#6d3b6aeb2d)"><g clip-path="url(#d30716ebec)"><g fill="#d9d9d9" fill-opacity="1"><g transform="translate(1.287399, 29.490089)"><g><path d="M 3.140625 -10.109375 C 3.140625 -9.160156 3.320312 -8.257812 3.6875 -7.40625 C 4.0625 -6.5625 4.5625 -5.820312 5.1875 -5.1875 C 5.820312 -4.5625 6.5625 -4.0625 7.40625 -3.6875 C 8.257812 -3.320312 9.160156 -3.140625 10.109375 -3.140625 C 11.066406 -3.140625 11.96875 -3.320312 12.8125 -3.6875 C 13.664062 -4.0625 14.40625 -4.5625 15.03125 -5.1875 C 15.65625 -5.820312 16.15625 -6.5625 16.53125 -7.40625 C 16.90625 -8.257812 17.09375 -9.160156 17.09375 -10.109375 L 17.09375 -22.3125 L 10.109375 -22.3125 L 10.109375 -25.8125 L 20.578125 -25.8125 L 20.578125 -10.109375 C 20.578125 -8.671875 20.300781 -7.3125 19.75 -6.03125 C 19.207031 -4.75 18.460938 -3.640625 17.515625 -2.703125 C 16.578125 -1.765625 15.46875 -1.019531 14.1875 -0.46875 C 12.914062 0.0703125 11.554688 0.34375 10.109375 0.34375 C 8.671875 0.34375 7.3125 0.0703125 6.03125 -0.46875 C 4.75 -1.019531 3.640625 -1.765625 2.703125 -2.703125 C 1.765625 -3.640625 1.019531 -4.75 0.46875 -6.03125 C -0.0703125 -7.3125 -0.34375 -8.671875 -0.34375 -10.109375 Z M 3.140625 -10.109375 "/></g></g></g></g><g fill="#d9d9d9" fill-opacity="1"><g transform="translate(27.507031, 29.490089)"><g><path d="M -0.515625 -12.90625 C -0.515625 -14.738281 -0.167969 -16.457031 0.515625 -18.0625 C 1.210938 -19.664062 2.160156 -21.066406 3.359375 -22.265625 C 4.554688 -23.460938 5.957031 -24.410156 7.5625 -25.109375 C 9.164062 -25.804688 10.890625 -26.15625 12.734375 -26.15625 C 14.566406 -26.15625 16.285156 -25.804688 17.890625 -25.109375 C 19.492188 -24.410156 20.894531 -23.460938 22.09375 -22.265625 C 23.289062 -21.066406 24.238281 -19.664062 24.9375 -18.0625 C 25.632812 -16.457031 25.984375 -14.738281 25.984375 -12.90625 C 25.984375 -11.070312 25.632812 -9.347656 24.9375 -7.734375 C 24.238281 -6.128906 23.289062 -4.726562 22.09375 -3.53125 C 20.894531 -2.34375 19.492188 -1.398438 17.890625 -0.703125 C 16.285156 -0.00390625 14.566406 0.34375 12.734375 0.34375 C 10.890625 0.34375 9.164062 -0.00390625 7.5625 -0.703125 C 5.957031 -1.398438 4.554688 -2.34375 3.359375 -3.53125 C 2.160156 -4.726562 1.210938 -6.128906 0.515625 -7.734375 C -0.167969 -9.347656 -0.515625 -11.070312 -0.515625 -12.90625 Z M 2.96875 -12.9375 C 2.96875 -11.59375 3.222656 -10.328125 3.734375 -9.140625 C 4.242188 -7.953125 4.945312 -6.910156 5.84375 -6.015625 C 6.738281 -5.117188 7.773438 -4.414062 8.953125 -3.90625 C 10.140625 -3.394531 11.410156 -3.140625 12.765625 -3.140625 C 14.109375 -3.140625 15.375 -3.394531 16.5625 -3.90625 C 17.75 -4.414062 18.789062 -5.117188 19.6875 -6.015625 C 20.582031 -6.910156 21.285156 -7.953125 21.796875 -9.140625 C 22.304688 -10.328125 22.5625 -11.59375 22.5625 -12.9375 C 22.5625 -14.289062 22.304688 -15.554688 21.796875 -16.734375 C 21.285156 -17.921875 20.582031 -18.960938 19.6875 -19.859375 C 18.789062 -20.753906 17.75 -21.457031 16.5625 -21.96875 C 15.375 -22.476562 14.109375 -22.734375 12.765625 -22.734375 C 11.410156 -22.734375 10.140625 -22.476562 8.953125 -21.96875 C 7.773438 -21.457031 6.738281 -20.753906 5.84375 -19.859375 C 4.945312 -18.960938 4.242188 -17.921875 3.734375 -16.734375 C 3.222656 -15.554688 2.96875 -14.289062 2.96875 -12.9375 Z M 2.96875 -12.9375 "/></g></g></g><g fill="#d9d9d9" fill-opacity="1"><g transform="translate(57.371445, 29.490089)"><g><path d="M 5.234375 -22.3125 L 0 -22.3125 L 0 -25.8125 L 17.4375 -25.8125 L 17.4375 -22.3125 L 8.71875 -22.3125 L 8.71875 0 L 5.234375 0 Z M 5.234375 -22.3125 "/></g></g></g><g fill="#d9d9d9" fill-opacity="1"><g transform="translate(74.559363, 29.490089)"><g><path d="M 11.0625 -26.5 L 24.71875 0 L 5.234375 0 L 7.015625 -3.484375 L 19 -3.484375 L 11.0625 -19.046875 L 1.328125 0 L -2.609375 0 Z M 11.0625 -26.5 "/></g></g></g></g></g></svg>