<svg xmlns="http://www.w3.org/2000/svg" viewBox="0 0 442.2 299.9" style="enable-background:new 0 0 442.2 299.9" xml:space="preserve"><style>.st1{fill:none;stroke:#606060;stroke-miterlimit:10}.st2{fill:#fff}.st24{fill:#a4e269}</style><g id="Object"><path style="fill:#212121" d="M0 0h442.2v299.9H0z"/><path class="st1" d="M13.4 31.1h415.4M13.4 70.7h415.4M13.4 110.3h415.4M13.4 149.9h415.4M13.4 189.5h415.4M13.4 229.2h415.4M13.4 268.8h415.4"/><path class="st2" d="m41.9 269.9-.8-.8 76.5-79.9L167 207l37.2-31.1 49.7-4.7 65.3-106 81.3-35.4.4 1L320 66.1l-65.4 106.1-50 4.8-37.4 31.2-49.3-17.7z"/><defs><filter id="Adobe_OpacityMaskFilter" filterUnits="userSpaceOnUse" x="113.8" y="186" width="7.6" height="7.6"><feFlood style="flood-color:white;flood-opacity:1" result="back"/><feBlend in="SourceGraphic" in2="back"/></filter></defs><mask maskUnits="userSpaceOnUse" x="113.8" y="186" width="7.6" height="7.6" id="SVGID_1_"><g style="filter:url(#Adobe_OpacityMaskFilter)"><defs><filter id="Adobe_OpacityMaskFilter_1_" filterUnits="userSpaceOnUse" x="113.8" y="186" width="7.6" height="7.6"><feFlood style="flood-color:white;flood-opacity:1" result="back"/><feBlend in="SourceGraphic" in2="back"/></filter></defs><linearGradient id="SVGID_2_" gradientUnits="userSpaceOnUse" x1="530.803" y1="624.686" x2="538.44" y2="624.686" gradientTransform="rotate(3.533 7336.273 -6310.36)"><stop offset=".131" style="stop-color:#f2f2f2"/><stop offset=".999" style="stop-color:#fff"/></linearGradient><path d="M121.4 190c-.1 2.1-1.9 3.7-4 3.6-2.1-.1-3.7-1.9-3.6-4 .1-2.1 1.9-3.7 4-3.6 2.1.1 3.7 1.9 3.6 4z" style="mask:url(#SVGID_1_);fill:url(#SVGID_2_)"/></g></mask><path class="st2" d="M121.4 190c-.1 2.1-1.9 3.7-4 3.6-2.1-.1-3.7-1.9-3.6-4 .1-2.1 1.9-3.7 4-3.6 2.1.1 3.7 1.9 3.6 4z"/><defs><filter id="Adobe_OpacityMaskFilter_2_" filterUnits="userSpaceOnUse" x="37.7" y="265.7" width="7.6" height="7.6"><feFlood style="flood-color:white;flood-opacity:1" result="back"/><feBlend in="SourceGraphic" in2="back"/></filter></defs><mask maskUnits="userSpaceOnUse" x="37.7" y="265.7" width="7.6" height="7.6" id="SVGID_3_"><g style="filter:url(#Adobe_OpacityMaskFilter_2_)"><defs><filter id="Adobe_OpacityMaskFilter_3_" filterUnits="userSpaceOnUse" x="37.7" y="265.7" width="7.6" height="7.6"><feFlood style="flood-color:white;flood-opacity:1" result="back"/><feBlend in="SourceGraphic" in2="back"/></filter></defs><linearGradient id="SVGID_4_" gradientUnits="userSpaceOnUse" x1="459.798" y1="708.973" x2="467.436" y2="708.973" gradientTransform="rotate(3.533 7336.273 -6310.36)"><stop offset=".131" style="stop-color:#f2f2f2"/><stop offset=".999" style="stop-color:#fff"/></linearGradient><path d="M45.3 269.8c-.1 2.1-1.9 3.7-4 3.6-2.1-.1-3.7-1.9-3.6-4 .1-2.1 1.9-3.7 4-3.6 2.1.1 3.7 1.9 3.6 4z" style="mask:url(#SVGID_3_);fill:url(#SVGID_4_)"/></g></mask><path class="st2" d="M45.3 269.8c-.1 2.1-1.9 3.7-4 3.6-2.1-.1-3.7-1.9-3.6-4 .1-2.1 1.9-3.7 4-3.6 2.1.1 3.7 1.9 3.6 4z"/><defs><filter id="Adobe_OpacityMaskFilter_4_" filterUnits="userSpaceOnUse" x="163.5" y="204" width="7.6" height="7.6"><feFlood style="flood-color:white;flood-opacity:1" result="back"/><feBlend in="SourceGraphic" in2="back"/></filter></defs><mask maskUnits="userSpaceOnUse" x="163.5" y="204" width="7.6" height="7.6" id="SVGID_5_"><g style="filter:url(#Adobe_OpacityMaskFilter_4_)"><defs><filter id="Adobe_OpacityMaskFilter_5_" filterUnits="userSpaceOnUse" x="163.5" y="204" width="7.6" height="7.6"><feFlood style="flood-color:white;flood-opacity:1" result="back"/><feBlend in="SourceGraphic" in2="back"/></filter></defs><linearGradient id="SVGID_6_" gradientUnits="userSpaceOnUse" x1="581.589" y1="639.556" x2="589.226" y2="639.556" gradientTransform="rotate(3.533 7336.273 -6310.36)"><stop offset=".131" style="stop-color:#f2f2f2"/><stop offset=".999" style="stop-color:#fff"/></linearGradient><path d="M171.1 208c-.1 2.1-1.9 3.7-4 3.6-2.1-.1-3.7-1.9-3.6-4 .1-2.1 1.9-3.7 4-3.6 2.2.1 3.8 1.9 3.6 4z" style="mask:url(#SVGID_5_);fill:url(#SVGID_6_)"/></g></mask><path class="st2" d="M171.1 208c-.1 2.1-1.9 3.7-4 3.6-2.1-.1-3.7-1.9-3.6-4 .1-2.1 1.9-3.7 4-3.6 2.2.1 3.8 1.9 3.6 4z"/><defs><filter id="Adobe_OpacityMaskFilter_6_" filterUnits="userSpaceOnUse" x="200" y="172.6" width="7.6" height="7.6"><feFlood style="flood-color:white;flood-opacity:1" result="back"/><feBlend in="SourceGraphic" in2="back"/></filter></defs><mask maskUnits="userSpaceOnUse" x="200" y="172.6" width="7.6" height="7.6" id="SVGID_7_"><g style="filter:url(#Adobe_OpacityMaskFilter_6_)"><defs><filter id="Adobe_OpacityMaskFilter_7_" filterUnits="userSpaceOnUse" x="200" y="172.6" width="7.6" height="7.6"><feFlood style="flood-color:white;flood-opacity:1" result="back"/><feBlend in="SourceGraphic" in2="back"/></filter></defs><linearGradient id="SVGID_8_" gradientUnits="userSpaceOnUse" x1="616.045" y1="605.992" x2="623.682" y2="605.992" gradientTransform="rotate(3.533 7336.273 -6310.36)"><stop offset=".131" style="stop-color:#f2f2f2"/><stop offset=".999" style="stop-color:#fff"/></linearGradient><path d="M207.6 176.7c-.1 2.1-1.9 3.7-4 3.6-2.1-.1-3.7-1.9-3.6-4 .1-2.1 1.9-3.7 4-3.6 2.2.1 3.8 1.9 3.6 4z" style="mask:url(#SVGID_7_);fill:url(#SVGID_8_)"/></g></mask><path class="st2" d="M207.6 176.7c-.1 2.1-1.9 3.7-4 3.6-2.1-.1-3.7-1.9-3.6-4 .1-2.1 1.9-3.7 4-3.6 2.2.1 3.8 1.9 3.6 4z"/><defs><filter id="Adobe_OpacityMaskFilter_8_" filterUnits="userSpaceOnUse" x="250.5" y="168.1" width="7.6" height="7.6"><feFlood style="flood-color:white;flood-opacity:1" result="back"/><feBlend in="SourceGraphic" in2="back"/></filter></defs><mask maskUnits="userSpaceOnUse" x="250.5" y="168.1" width="7.6" height="7.6" id="SVGID_9_"><g style="filter:url(#Adobe_OpacityMaskFilter_8_)"><defs><filter id="Adobe_OpacityMaskFilter_9_" filterUnits="userSpaceOnUse" x="250.5" y="168.1" width="7.6" height="7.6"><feFlood style="flood-color:white;flood-opacity:1" result="back"/><feBlend in="SourceGraphic" in2="back"/></filter></defs><linearGradient id="SVGID_10_" gradientUnits="userSpaceOnUse" x1="666.17" y1="598.357" x2="673.807" y2="598.357" gradientTransform="rotate(3.533 7336.273 -6310.36)"><stop offset=".131" style="stop-color:#f2f2f2"/><stop offset=".999" style="stop-color:#fff"/></linearGradient><path d="M258.1 172.2c-.1 2.1-1.9 3.7-4 3.6-2.1-.1-3.7-1.9-3.6-4 .1-2.1 1.9-3.7 4-3.6 2.2 0 3.8 1.9 3.6 4z" style="mask:url(#SVGID_9_);fill:url(#SVGID_10_)"/></g></mask><path class="st2" d="M258.1 172.2c-.1 2.1-1.9 3.7-4 3.6-2.1-.1-3.7-1.9-3.6-4 .1-2.1 1.9-3.7 4-3.6 2.2 0 3.8 1.9 3.6 4z"/><defs><filter id="Adobe_OpacityMaskFilter_10_" filterUnits="userSpaceOnUse" x="315.6" y="61.8" width="7.6" height="7.6"><feFlood style="flood-color:white;flood-opacity:1" result="back"/><feBlend in="SourceGraphic" in2="back"/></filter></defs><mask maskUnits="userSpaceOnUse" x="315.6" y="61.8" width="7.6" height="7.6" id="SVGID_11_"><g style="filter:url(#Adobe_OpacityMaskFilter_10_)"><defs><filter id="Adobe_OpacityMaskFilter_11_" filterUnits="userSpaceOnUse" x="315.6" y="61.8" width="7.6" height="7.6"><feFlood style="flood-color:white;flood-opacity:1" result="back"/><feBlend in="SourceGraphic" in2="back"/></filter></defs><linearGradient id="SVGID_12_" gradientUnits="userSpaceOnUse" x1="724.527" y1="488.218" x2="732.164" y2="488.218" gradientTransform="rotate(3.533 7336.273 -6310.36)"><stop offset=".131" style="stop-color:#f2f2f2"/><stop offset=".999" style="stop-color:#fff"/></linearGradient><path d="M323.2 65.8c-.1 2.1-1.9 3.7-4 3.6-2.1-.1-3.7-1.9-3.6-4 .1-2.1 1.9-3.7 4-3.6 2.1.1 3.7 1.9 3.6 4z" style="mask:url(#SVGID_11_);fill:url(#SVGID_12_)"/></g></mask><path class="st2" d="M323.2 65.8c-.1 2.1-1.9 3.7-4 3.6-2.1-.1-3.7-1.9-3.6-4 .1-2.1 1.9-3.7 4-3.6 2.1.1 3.7 1.9 3.6 4z"/><defs><filter id="Adobe_OpacityMaskFilter_12_" filterUnits="userSpaceOnUse" x="396.9" y="26.5" width="7.6" height="7.6"><feFlood style="flood-color:white;flood-opacity:1" result="back"/><feBlend in="SourceGraphic" in2="back"/></filter></defs><mask maskUnits="userSpaceOnUse" x="396.9" y="26.5" width="7.6" height="7.6" id="SVGID_13_"><g style="filter:url(#Adobe_OpacityMaskFilter_12_)"><defs><filter id="Adobe_OpacityMaskFilter_13_" filterUnits="userSpaceOnUse" x="396.9" y="26.5" width="7.6" height="7.6"><feFlood style="flood-color:white;flood-opacity:1" result="back"/><feBlend in="SourceGraphic" in2="back"/></filter></defs><linearGradient id="SVGID_14_" gradientUnits="userSpaceOnUse" x1="803.48" y1="447.964" x2="811.118" y2="447.964" gradientTransform="rotate(3.533 7336.273 -6310.36)"><stop offset=".131" style="stop-color:#f2f2f2"/><stop offset=".999" style="stop-color:#fff"/></linearGradient><path d="M404.5 30.6c-.1 2.1-1.9 3.7-4 3.6-2.1-.1-3.7-1.9-3.6-4 .1-2.1 1.9-3.7 4-3.6 2.1 0 3.7 1.9 3.6 4z" style="mask:url(#SVGID_13_);fill:url(#SVGID_14_)"/></g></mask><path class="st2" d="M404.5 30.6c-.1 2.1-1.9 3.7-4 3.6-2.1-.1-3.7-1.9-3.6-4 .1-2.1 1.9-3.7 4-3.6 2.1 0 3.7 1.9 3.6 4z"/><path class="st24" d="M53.4 81.4v10.8h-7V81.4H35.7v-6.8h10.6V63.9h7v10.7H64v6.8H53.4zM72.6 98.6c0-9.9 5-17.6 14.9-22.8 2-1.1 3.6-2.2 4.8-3.3 1.2-1.1 1.7-2.5 1.7-4.2s-.6-3-1.8-4c-1.2-1-2.7-1.6-4.7-1.6-3.8 0-6.4 1.7-7.9 5.2L73.1 65c1.1-2.8 3-5 5.5-6.6 2.6-1.6 5.5-2.5 8.8-2.5 4.2 0 7.6 1.2 10 3.5 2.5 2.3 3.7 5.3 3.7 9 0 3.3-.8 5.9-2.5 7.8-1.7 1.9-4.2 3.8-7.7 5.7-2.9 1.6-5.2 3.2-6.7 4.7-1.6 1.5-2.6 3.2-3.1 5.2h20.4v7H72.6zM125.3 99.3c-2.3 0-4.3-.4-6.1-1.3-1.8-.9-3.3-2-4.4-3.4-1.1-1.4-2-3-2.8-5-.7-1.9-1.2-3.9-1.5-5.9-.3-2-.5-4-.5-6.3 0-2.1.1-4.2.4-6.1.3-2 .8-3.9 1.5-5.9.7-1.9 1.7-3.6 2.8-5 1.1-1.4 2.6-2.5 4.4-3.4 1.8-.9 3.9-1.3 6.2-1.3 2.8 0 5.3.6 7.4 1.9 2.1 1.3 3.6 3 4.7 5.1 1.1 2.2 1.9 4.5 2.4 6.9.5 2.4.8 5 .8 7.8 0 2.7-.2 5.3-.7 7.7-.5 2.4-1.3 4.7-2.4 6.9s-2.7 4-4.8 5.3c-2.1 1.4-4.6 2-7.4 2zm0-6.8c1.5 0 2.8-.4 3.9-1.3s1.9-2 2.5-3.5 1-3.1 1.2-4.7.4-3.5.4-5.4c0-2-.1-3.8-.4-5.5-.3-1.7-.7-3.2-1.3-4.7-.6-1.5-1.4-2.6-2.5-3.5s-2.4-1.3-3.8-1.3c-1.5 0-2.8.4-3.9 1.3s-1.9 2-2.5 3.5c-.6 1.5-1 3.1-1.2 4.7-.2 1.6-.4 3.4-.4 5.4s.1 3.8.4 5.5c.3 1.7.7 3.3 1.2 4.7.6 1.5 1.4 2.6 2.5 3.5 1.1.9 2.4 1.3 3.9 1.3zM164.6 99.3c-2.3 0-4.3-.4-6.1-1.3-1.8-.9-3.3-2-4.4-3.4-1.1-1.4-2-3-2.8-5-.7-1.9-1.2-3.9-1.5-5.9-.3-2-.5-4-.5-6.3 0-2.1.1-4.2.4-6.1.3-2 .8-3.9 1.5-5.9.7-1.9 1.7-3.6 2.8-5 1.1-1.4 2.6-2.5 4.4-3.4 1.8-.9 3.9-1.3 6.2-1.3 2.8 0 5.3.6 7.4 1.9 2.1 1.3 3.6 3 4.7 5.1s1.9 4.5 2.4 6.9c.5 2.4.8 5 .8 7.8 0 2.7-.2 5.3-.7 7.7-.5 2.4-1.3 4.7-2.4 6.9-1.1 2.2-2.7 4-4.8 5.3s-4.5 2-7.4 2zm0-6.8c1.5 0 2.8-.4 3.9-1.3s1.9-2 2.5-3.5c.6-1.5 1-3.1 1.2-4.7.3-1.7.4-3.5.4-5.4 0-2-.1-3.8-.4-5.5-.3-1.7-.7-3.2-1.3-4.7-.6-1.5-1.4-2.6-2.5-3.5s-2.4-1.3-3.8-1.3c-1.5 0-2.8.4-3.9 1.3s-1.9 2-2.5 3.5-1 3.1-1.2 4.7c-.2 1.6-.4 3.4-.4 5.4s.1 3.8.4 5.5c.3 1.7.7 3.3 1.2 4.7.6 1.5 1.4 2.6 2.5 3.5 1.1.9 2.4 1.3 3.9 1.3zM197 77.5c-3.4 0-5.9-1.1-7.5-3.2s-2.5-4.7-2.5-7.6c0-2.8.8-5.3 2.5-7.5s4.2-3.3 7.5-3.3 5.9 1.1 7.5 3.2 2.5 4.7 2.5 7.6c0 2.8-.8 5.3-2.5 7.5-1.6 2.2-4.1 3.3-7.5 3.3zm1.8 21.8H192l28.7-43.5h6.7l-28.6 43.5zm-4.9-28.9c.7.9 1.7 1.4 3.1 1.4s2.4-.5 3.1-1.5c.7-1 1.1-2.2 1.1-3.8 0-1.6-.4-2.8-1.1-3.8s-1.7-1.4-3.1-1.4-2.4.5-3.1 1.5c-.7 1-1.1 2.2-1.1 3.7.1 1.7.4 3 1.1 3.9zM230.1 96c-1.6 2.2-4.2 3.3-7.6 3.3-3.4 0-5.9-1.1-7.6-3.2-1.6-2.2-2.5-4.7-2.5-7.6 0-2.8.8-5.3 2.5-7.5s4.2-3.3 7.5-3.3c3.4 0 5.9 1.1 7.5 3.2 1.7 2.1 2.5 4.7 2.5 7.6.1 2.8-.7 5.3-2.3 7.5zm-10.7-3.7c.7.9 1.7 1.4 3.1 1.4 1.4 0 2.4-.5 3.1-1.5.7-1 1.1-2.2 1.1-3.8 0-1.6-.4-2.8-1.1-3.8-.7-.9-1.7-1.4-3.1-1.4-1.4 0-2.4.5-3.1 1.4s-1.1 2.2-1.1 3.7c.1 1.8.4 3 1.1 4z"/></g></svg>