<svg version="1.1" id="Camada_1" xmlns="http://www.w3.org/2000/svg" x="0" y="0" viewBox="0 0 226.6 262.3" style="enable-background:new 0 0 226.6 262.3" xml:space="preserve"><style>.st0{fill:#fff}</style><path class="st0" d="M127.4 45.2c-2.2-3.9-6.3-6.3-10.8-6.4-4.7-.1-8.9 2.3-11.3 6.2L33.6 161.8c-2.5 4.1-2.6 9-.3 13.1 2.3 4 6.4 6.4 11 6.4h.1l137.5-1.2c4.7 0 8.8-2.5 11.2-6.6 2.3-4 2.3-8.8.1-12.8L127.4 45.2zm59.7 124.9c-1.1 1.9-3 3-5.2 3l-137.5 1.2h-.1c-2.1 0-3.9-1.1-5-2.9-1.1-1.9-1-4.1.1-6l71.7-116.7c1.1-1.8 3-2.9 5.1-2.9h.1c2.1 0 3.8 1.1 4.9 2.9L187 164.3c1.2 1.8 1.2 3.9.1 5.8z"/><path class="st0" d="M113.3 134.6c3.3 0 6-2.7 6-6v-53c0-3.3-2.7-6-6-6s-6 2.7-6 6v53c0 3.3 2.7 6 6 6z"/><circle class="st0" cx="113.3" cy="153.6" r="6.4"/><path class="st0" d="M210.3 0h-194C7.3 0 0 7.3 0 16.3v194c0 9 7.3 16.3 16.3 16.3h153.4c2.5 0 4.8 1 6.6 2.7l29.4 29.4c2.4 2.4 5.4 3.6 8.6 3.6 1.6 0 3.2-.3 4.8-1 4.7-1.9 7.6-6.3 7.6-11.3V16.3c-.1-9-7.4-16.3-16.4-16.3zm9.3 250.1c0 2.2-1.2 4-3.2 4.8-2 .8-4.2.4-5.7-1.1l-29.4-29.4c-3.1-3.1-7.2-4.8-11.5-4.8H16.3c-5.1 0-9.3-4.2-9.3-9.3v-194C7 11.2 11.2 7 16.3 7h194c5.1 0 9.3 4.2 9.3 9.3v233.8z"/></svg>