<svg xmlns="http://www.w3.org/2000/svg" xmlns:xlink="http://www.w3.org/1999/xlink" width="700" zoomAndPan="magnify" viewBox="0 0 525 150.749998" height="201" preserveAspectRatio="xMidYMid meet" version="1.0"><defs><g/><clipPath id="1ec42ad263"><path d="M 78 107 L 108 107 L 108 144.003906 L 78 144.003906 Z M 78 107 " clip-rule="nonzero"/></clipPath><clipPath id="ee1f5fa192"><path d="M 83 56 L 133.789062 56 L 133.789062 90 L 83 90 Z M 83 56 " clip-rule="nonzero"/></clipPath><clipPath id="f955875a3c"><path d="M 83 55 L 133.789062 55 L 133.789062 91 L 83 91 Z M 83 55 " clip-rule="nonzero"/></clipPath><clipPath id="68fb0c6cd5"><path d="M 27 6.230469 L 126 6.230469 L 126 144 L 27 144 Z M 27 6.230469 " clip-rule="nonzero"/></clipPath><clipPath id="dfb674f988"><path d="M 26 6.230469 L 127 6.230469 L 127 144.003906 L 26 144.003906 Z M 26 6.230469 " clip-rule="nonzero"/></clipPath></defs><g fill="#d9d9d9" fill-opacity="1"><g transform="translate(163.303695, 114.078709)"><g><path d="M 31.71875 1.59375 C 25.757812 1.59375 20.515625 0.492188 15.984375 -1.703125 C 11.453125 -3.910156 7.941406 -7.078125 5.453125 -11.203125 C 2.960938 -15.328125 1.71875 -20.25 1.71875 -25.96875 C 1.71875 -28.414062 1.960938 -31.023438 2.453125 -33.796875 L 12.609375 -33.796875 C 12.453125 -32.660156 12.3125 -31.5625 12.1875 -30.5 C 12.0625 -29.4375 12 -28.375 12 -27.3125 C 12 -21.351562 13.773438 -16.632812 17.328125 -13.15625 C 20.878906 -9.6875 26.082031 -7.953125 32.9375 -7.953125 C 38.082031 -7.953125 42.738281 -9.054688 46.90625 -11.265625 C 51.070312 -13.472656 54.539062 -16.554688 57.3125 -20.515625 C 60.09375 -24.472656 61.929688 -29.066406 62.828125 -34.296875 L 70.296875 -75.9375 L 40.296875 -75.9375 L 41.890625 -85.734375 L 82.421875 -85.734375 L 73.359375 -34.296875 C 72.210938 -27.109375 69.78125 -20.816406 66.0625 -15.421875 C 62.351562 -10.035156 57.597656 -5.851562 51.796875 -2.875 C 46.003906 0.101562 39.3125 1.59375 31.71875 1.59375 Z M 31.71875 1.59375 "/></g></g></g><g fill="#d9d9d9" fill-opacity="1"><g transform="translate(252.093841, 114.078709)"><g><path d="M 43.234375 1.59375 C 36.617188 1.59375 30.984375 0.59375 26.328125 -1.40625 C 21.671875 -3.40625 17.894531 -6.117188 15 -9.546875 C 12.101562 -12.984375 9.976562 -16.90625 8.625 -21.3125 C 7.28125 -25.71875 6.609375 -30.332031 6.609375 -35.15625 C 6.609375 -42.175781 7.894531 -48.804688 10.46875 -55.046875 C 13.039062 -61.296875 16.65625 -66.828125 21.3125 -71.640625 C 25.96875 -76.460938 31.5 -80.257812 37.90625 -83.03125 C 44.3125 -85.8125 51.351562 -87.203125 59.03125 -87.203125 C 67.28125 -87.203125 74.097656 -85.566406 79.484375 -82.296875 C 84.867188 -79.035156 88.867188 -74.726562 91.484375 -69.375 C 94.097656 -64.03125 95.40625 -58.171875 95.40625 -51.796875 C 95.40625 -50.328125 95.34375 -48.816406 95.21875 -47.265625 C 95.09375 -45.722656 94.867188 -44.175781 94.546875 -42.625 C 93.566406 -36.988281 91.707031 -31.535156 88.96875 -26.265625 C 86.238281 -21.003906 82.707031 -16.269531 78.375 -12.0625 C 74.050781 -7.851562 68.945312 -4.523438 63.0625 -2.078125 C 57.1875 0.367188 50.578125 1.59375 43.234375 1.59375 Z M 44.328125 -8.203125 C 49.960938 -8.203125 55.023438 -9.179688 59.515625 -11.140625 C 64.003906 -13.097656 67.898438 -15.726562 71.203125 -19.03125 C 74.515625 -22.34375 77.234375 -26.039062 79.359375 -30.125 C 81.484375 -34.207031 82.953125 -38.375 83.765625 -42.625 C 84.097656 -44.09375 84.34375 -45.5625 84.5 -47.03125 C 84.664062 -48.5 84.75 -49.925781 84.75 -51.3125 C 84.75 -56.050781 83.828125 -60.398438 81.984375 -64.359375 C 80.148438 -68.316406 77.273438 -71.519531 73.359375 -73.96875 C 69.441406 -76.414062 64.335938 -77.640625 58.046875 -77.640625 C 51.679688 -77.640625 45.988281 -76.457031 40.96875 -74.09375 C 35.945312 -71.726562 31.660156 -68.546875 28.109375 -64.546875 C 24.554688 -60.546875 21.835938 -56.03125 19.953125 -51 C 18.078125 -45.976562 17.140625 -40.816406 17.140625 -35.515625 C 17.140625 -30.773438 18.015625 -26.320312 19.765625 -22.15625 C 21.523438 -18 24.40625 -14.632812 28.40625 -12.0625 C 32.40625 -9.488281 37.710938 -8.203125 44.328125 -8.203125 Z M 44.328125 -8.203125 "/></g></g></g><g fill="#d9d9d9" fill-opacity="1"><g transform="translate(356.070124, 114.078709)"><g><path d="M 24.859375 0 L 38.328125 -76.171875 L 9.0625 -76.171875 L 10.78125 -85.734375 L 79.84375 -85.734375 L 78.140625 -76.171875 L 48.859375 -76.171875 L 35.390625 0 Z M 24.859375 0 "/></g></g></g><g fill="#d9d9d9" fill-opacity="1"><g transform="translate(433.715608, 114.078709)"><g><path d="M -3.796875 0 L 49.71875 -85.734375 L 61.71875 -85.734375 L 85.109375 0 L 74.34375 0 L 69.078125 -18.859375 L 19.71875 -18.859375 L 8.078125 0 Z M 25.59375 -28.65625 L 66.625 -28.65625 L 54.375 -75.6875 Z M 25.59375 -28.65625 "/></g></g></g><path fill="#919191" d="M 98.058594 108.3125 L 98.050781 108.3125 C 95.082031 107.945312 91.089844 107.5 87.96875 108.59375 C 92.359375 111.902344 95.839844 116.351562 94.160156 121.121094 C 91.070312 129.894531 84.800781 131.996094 88.015625 133.726562 C 88.015625 133.726562 79.363281 137.683594 79.363281 143.863281 L 93.703125 143.863281 C 93.703125 143.863281 95.433594 140.648438 93.703125 136.445312 C 93.703125 136.445312 97.164062 136.695312 97.65625 133.480469 C 98.152344 130.265625 96.988281 122.667969 104.050781 120.625 C 106.566406 119.898438 106.988281 118.601562 107.144531 117.101562 C 103.375 115.304688 100.125 111.992188 98.058594 108.3125 " fill-opacity="1" fill-rule="nonzero"/><g clip-path="url(#1ec42ad263)"><path fill="#2a2a2a" d="M 98.058594 108.3125 L 98.09375 107.917969 L 98.085938 107.917969 L 98.050781 108.3125 L 98.097656 107.917969 C 96.53125 107.726562 94.667969 107.507812 92.78125 107.507812 C 91.085938 107.507812 89.375 107.683594 87.839844 108.21875 C 87.699219 108.269531 87.601562 108.386719 87.578125 108.53125 C 87.554688 108.675781 87.613281 108.820312 87.730469 108.910156 C 89.519531 110.253906 91.144531 111.792969 92.316406 113.441406 C 93.484375 115.089844 94.195312 116.84375 94.195312 118.644531 C 94.195312 119.414062 94.066406 120.195312 93.789062 120.988281 C 92.5625 124.464844 90.835938 126.871094 89.402344 128.636719 C 88.683594 129.519531 88.039062 130.238281 87.558594 130.863281 C 87.320312 131.175781 87.117188 131.464844 86.972656 131.753906 C 86.824219 132.039062 86.726562 132.324219 86.726562 132.628906 C 86.722656 132.917969 86.832031 133.214844 87.027344 133.453125 C 87.21875 133.695312 87.484375 133.890625 87.828125 134.078125 L 88.015625 133.726562 L 87.851562 133.367188 C 87.832031 133.375 85.648438 134.375 83.441406 136.171875 C 82.335938 137.070312 81.226562 138.167969 80.382812 139.453125 C 79.542969 140.742188 78.96875 142.222656 78.96875 143.863281 C 78.96875 143.96875 79.011719 144.070312 79.082031 144.144531 C 79.15625 144.21875 79.257812 144.257812 79.363281 144.257812 L 93.703125 144.257812 C 93.847656 144.257812 93.980469 144.179688 94.050781 144.050781 C 94.070312 144.015625 94.863281 142.527344 94.867188 140.238281 C 94.867188 139.09375 94.664062 137.746094 94.066406 136.296875 L 93.703125 136.445312 L 93.671875 136.839844 C 93.683594 136.84375 93.753906 136.847656 93.871094 136.847656 C 94.253906 136.84375 95.148438 136.800781 96.039062 136.367188 C 96.484375 136.148438 96.933594 135.828125 97.292969 135.363281 C 97.660156 134.898438 97.933594 134.296875 98.046875 133.539062 C 98.175781 132.691406 98.195312 131.613281 98.265625 130.425781 C 98.371094 128.648438 98.59375 126.632812 99.414062 124.914062 C 99.820312 124.050781 100.375 123.261719 101.140625 122.59375 C 101.90625 121.925781 102.886719 121.375 104.160156 121.003906 C 104.816406 120.816406 105.347656 120.585938 105.78125 120.3125 C 106.433594 119.910156 106.859375 119.402344 107.117188 118.851562 C 107.375 118.304688 107.476562 117.722656 107.539062 117.140625 C 107.554688 116.972656 107.464844 116.816406 107.3125 116.742188 C 103.636719 114.992188 100.429688 111.734375 98.40625 108.117188 C 98.339844 108.003906 98.226562 107.929688 98.09375 107.917969 L 98.058594 108.3125 L 97.714844 108.507812 C 99.816406 112.25 103.117188 115.617188 106.972656 117.457031 L 107.144531 117.101562 L 106.75 117.058594 C 106.675781 117.789062 106.539062 118.40625 106.160156 118.917969 C 105.972656 119.175781 105.71875 119.417969 105.363281 119.640625 C 105.003906 119.867188 104.539062 120.070312 103.941406 120.242188 C 102.109375 120.773438 100.78125 121.679688 99.839844 122.789062 C 98.425781 124.453125 97.886719 126.539062 97.640625 128.488281 C 97.519531 129.464844 97.472656 130.410156 97.429688 131.253906 C 97.390625 132.101562 97.351562 132.851562 97.265625 133.421875 C 97.167969 134.054688 96.949219 134.519531 96.671875 134.875 C 96.253906 135.40625 95.691406 135.703125 95.148438 135.867188 C 94.609375 136.03125 94.109375 136.054688 93.871094 136.054688 C 93.824219 136.054688 93.785156 136.054688 93.761719 136.054688 L 93.734375 136.050781 L 93.730469 136.050781 C 93.59375 136.042969 93.460938 136.101562 93.378906 136.214844 C 93.300781 136.328125 93.28125 136.46875 93.335938 136.597656 C 93.890625 137.945312 94.074219 139.183594 94.074219 140.238281 C 94.074219 141.289062 93.890625 142.15625 93.707031 142.757812 C 93.617188 143.058594 93.523438 143.292969 93.457031 143.449219 C 93.425781 143.527344 93.398438 143.585938 93.378906 143.625 L 93.359375 143.664062 L 93.351562 143.675781 L 93.703125 143.863281 L 93.703125 143.46875 L 79.363281 143.46875 L 79.363281 143.863281 L 79.757812 143.863281 C 79.757812 142.414062 80.265625 141.082031 81.046875 139.886719 C 82.214844 138.097656 84.003906 136.636719 85.5 135.632812 C 86.246094 135.132812 86.917969 134.742188 87.40625 134.480469 C 87.648438 134.351562 87.84375 134.25 87.976562 134.183594 C 88.042969 134.152344 88.097656 134.128906 88.128906 134.113281 L 88.179688 134.085938 C 88.316406 134.027344 88.40625 133.890625 88.410156 133.742188 C 88.414062 133.589844 88.335938 133.449219 88.203125 133.378906 C 87.917969 133.226562 87.742188 133.082031 87.644531 132.957031 C 87.546875 132.835938 87.523438 132.746094 87.519531 132.628906 C 87.519531 132.503906 87.5625 132.332031 87.675781 132.113281 C 87.871094 131.734375 88.261719 131.230469 88.773438 130.625 C 90.304688 128.792969 92.878906 125.960938 94.535156 121.25 C 94.84375 120.375 94.988281 119.503906 94.988281 118.644531 C 94.988281 116.628906 94.195312 114.722656 92.960938 112.980469 C 91.722656 111.242188 90.039062 109.660156 88.207031 108.277344 L 87.96875 108.59375 L 88.101562 108.964844 C 89.511719 108.472656 91.140625 108.300781 92.78125 108.300781 C 94.605469 108.300781 96.441406 108.511719 98.003906 108.707031 L 98.023438 108.707031 L 98.058594 108.3125 L 97.714844 108.507812 L 98.058594 108.3125 " fill-opacity="1" fill-rule="nonzero"/></g><path fill="#919191" d="M 40.761719 105.050781 C 43.535156 105.050781 45.945312 103.996094 47.601562 103.007812 C 46.632812 102.597656 45.6875 102.128906 44.75 101.515625 C 42.933594 100.328125 41.109375 99.109375 39.484375 97.660156 C 37.121094 95.539062 35.171875 93.117188 33.785156 90.324219 C 26.582031 90.4375 17.5625 95.152344 16.660156 97.757812 C 15.546875 100.972656 19.996094 105.667969 22.222656 109.871094 C 24.449219 114.074219 22.347656 115.308594 22.839844 117.78125 C 23.335938 120.253906 25.808594 119.882812 25.808594 119.882812 C 24.078125 126.929688 29.019531 129.894531 29.019531 129.894531 C 33.46875 127.792969 35.941406 121.242188 35.941406 121.242188 C 34.453125 118.980469 30.257812 116.792969 30.257812 116.792969 C 31.617188 114.9375 31 112.589844 31 112.589844 C 27.785156 111.230469 25.808594 104.433594 25.808594 104.433594 C 25.808594 104.433594 27.289062 103.9375 30.132812 103.566406 C 32.976562 103.195312 35.570312 105.050781 40.761719 105.050781 " fill-opacity="1" fill-rule="nonzero"/><path fill="#2a2a2a" d="M 40.761719 105.050781 L 40.761719 105.445312 C 43.636719 105.445312 46.113281 104.355469 47.804688 103.347656 C 47.929688 103.273438 48.003906 103.128906 47.996094 102.980469 C 47.984375 102.832031 47.890625 102.703125 47.753906 102.644531 C 46.800781 102.238281 45.878906 101.78125 44.96875 101.183594 C 43.152344 99.996094 41.34375 98.792969 39.75 97.363281 C 37.414062 95.273438 35.5 92.886719 34.140625 90.148438 C 34.070312 90.011719 33.933594 89.925781 33.777344 89.929688 C 30.09375 89.988281 26.003906 91.214844 22.691406 92.75 C 21.039062 93.519531 19.582031 94.367188 18.464844 95.195312 C 17.910156 95.613281 17.4375 96.023438 17.066406 96.425781 C 16.699219 96.832031 16.425781 97.222656 16.285156 97.628906 C 16.148438 98.023438 16.089844 98.433594 16.089844 98.851562 C 16.089844 99.714844 16.34375 100.605469 16.738281 101.523438 C 17.332031 102.898438 18.25 104.335938 19.203125 105.78125 C 20.15625 107.226562 21.144531 108.679688 21.871094 110.054688 C 22.65625 111.535156 22.867188 112.59375 22.871094 113.46875 C 22.871094 114.105469 22.753906 114.652344 22.628906 115.214844 C 22.503906 115.773438 22.367188 116.34375 22.367188 116.992188 C 22.367188 117.269531 22.390625 117.554688 22.453125 117.859375 C 22.558594 118.382812 22.746094 118.8125 22.992188 119.148438 C 23.363281 119.65625 23.847656 119.949219 24.300781 120.105469 C 24.75 120.265625 25.175781 120.296875 25.46875 120.296875 C 25.699219 120.296875 25.851562 120.277344 25.867188 120.273438 L 25.808594 119.882812 L 25.421875 119.789062 C 25.15625 120.867188 25.042969 121.859375 25.042969 122.761719 C 25.042969 125.351562 25.980469 127.226562 26.917969 128.441406 C 27.855469 129.652344 28.789062 130.214844 28.816406 130.234375 C 28.929688 130.304688 29.070312 130.308594 29.191406 130.253906 C 31.53125 129.140625 33.289062 126.921875 34.488281 124.988281 C 35.683594 123.054688 36.308594 121.398438 36.3125 121.382812 C 36.359375 121.265625 36.34375 121.132812 36.273438 121.027344 C 35.464844 119.804688 34.015625 118.6875 32.761719 117.839844 C 31.507812 116.996094 30.449219 116.445312 30.441406 116.441406 L 30.257812 116.792969 L 30.578125 117.027344 C 31.355469 115.960938 31.535156 114.765625 31.535156 113.882812 C 31.535156 113.074219 31.386719 112.511719 31.382812 112.488281 C 31.351562 112.371094 31.265625 112.273438 31.152344 112.226562 C 30.445312 111.929688 29.757812 111.296875 29.144531 110.5 C 28.226562 109.304688 27.476562 107.753906 26.96875 106.503906 C 26.714844 105.882812 26.519531 105.332031 26.386719 104.941406 C 26.320312 104.746094 26.269531 104.589844 26.238281 104.484375 C 26.21875 104.429688 26.207031 104.390625 26.199219 104.363281 L 26.1875 104.320312 L 25.808594 104.433594 L 25.933594 104.808594 L 25.945312 104.804688 C 26.097656 104.753906 27.542969 104.304688 30.183594 103.960938 C 30.425781 103.929688 30.664062 103.914062 30.90625 103.914062 C 32.105469 103.914062 33.367188 104.28125 34.929688 104.667969 C 36.496094 105.054688 38.359375 105.445312 40.761719 105.445312 L 40.761719 104.65625 C 38.445312 104.65625 36.664062 104.28125 35.121094 103.898438 C 33.578125 103.519531 32.269531 103.125 30.90625 103.121094 C 30.632812 103.121094 30.359375 103.136719 30.082031 103.175781 C 27.210938 103.550781 25.703125 104.050781 25.683594 104.058594 C 25.480469 104.125 25.367188 104.339844 25.425781 104.542969 C 25.429688 104.554688 25.929688 106.269531 26.839844 108.171875 C 27.296875 109.125 27.855469 110.121094 28.519531 110.984375 C 29.179688 111.84375 29.945312 112.570312 30.84375 112.953125 L 31 112.589844 L 30.617188 112.691406 C 30.625 112.734375 30.742188 113.214844 30.742188 113.882812 C 30.742188 114.664062 30.582031 115.683594 29.9375 116.558594 C 29.867188 116.652344 29.84375 116.769531 29.871094 116.882812 C 29.898438 116.996094 29.972656 117.089844 30.074219 117.144531 L 30.117188 117.167969 C 30.34375 117.285156 31.390625 117.855469 32.550781 118.652344 C 33.707031 119.445312 34.972656 120.480469 35.613281 121.460938 L 35.941406 121.242188 L 35.574219 121.101562 L 35.566406 121.121094 C 35.496094 121.296875 34.855469 122.925781 33.703125 124.75 C 32.554688 126.574219 30.894531 128.578125 28.851562 129.539062 L 29.019531 129.894531 L 29.222656 129.554688 L 29.214844 129.574219 L 29.222656 129.554688 L 29.214844 129.574219 L 29.222656 129.554688 C 29.199219 129.542969 28.34375 129.011719 27.503906 127.902344 C 26.664062 126.796875 25.835938 125.121094 25.835938 122.761719 C 25.835938 121.925781 25.941406 120.996094 26.191406 119.976562 C 26.222656 119.847656 26.1875 119.714844 26.101562 119.617188 C 26.011719 119.519531 25.878906 119.472656 25.75 119.492188 C 25.734375 119.492188 25.628906 119.507812 25.46875 119.507812 C 25.160156 119.507812 24.660156 119.457031 24.230469 119.210938 C 24.011719 119.089844 23.808594 118.921875 23.632812 118.683594 C 23.460938 118.445312 23.3125 118.128906 23.230469 117.703125 C 23.179688 117.453125 23.160156 117.21875 23.160156 116.992188 C 23.15625 116.457031 23.273438 115.953125 23.402344 115.386719 C 23.527344 114.824219 23.664062 114.203125 23.664062 113.46875 C 23.664062 112.457031 23.402344 111.246094 22.574219 109.6875 C 21.558594 107.777344 20.121094 105.800781 18.945312 103.917969 C 18.355469 102.980469 17.835938 102.066406 17.464844 101.210938 C 17.09375 100.351562 16.878906 99.554688 16.882812 98.851562 C 16.882812 98.507812 16.929688 98.1875 17.035156 97.886719 C 17.117188 97.640625 17.328125 97.316406 17.652344 96.964844 C 18.21875 96.34375 19.132812 95.632812 20.273438 94.933594 C 23.695312 92.828125 29.171875 90.789062 33.792969 90.71875 L 33.785156 90.324219 L 33.429688 90.5 C 34.839844 93.34375 36.824219 95.808594 39.222656 97.953125 C 40.871094 99.429688 42.714844 100.65625 44.535156 101.847656 C 45.496094 102.476562 46.460938 102.957031 47.445312 103.371094 L 47.601562 103.007812 L 47.398438 102.667969 C 45.78125 103.632812 43.433594 104.65625 40.761719 104.65625 L 40.761719 105.050781 " fill-opacity="1" fill-rule="nonzero"/><g clip-path="url(#ee1f5fa192)"><path fill="#919191" d="M 121.105469 63.519531 C 112.332031 63.519531 111.464844 65.992188 103.679688 65.992188 C 99.035156 65.992188 96.148438 65.332031 94.574219 64.800781 C 95.070312 62.886719 94.246094 60.464844 91.578125 59.300781 C 88.988281 58.171875 85.144531 59.585938 83.777344 56.347656 C 83.847656 58.882812 84.765625 61.457031 86.660156 63.214844 C 85.742188 62.835938 84.945312 62.144531 84.332031 61.375 C 84.335938 61.429688 85.507812 65.15625 88.601562 66.792969 C 90.613281 67.859375 92.246094 67.640625 93.320312 66.785156 C 95.777344 68.105469 100.054688 69.328125 104.171875 69.328125 C 109.242188 69.328125 115.542969 67.226562 120.488281 67.226562 C 125.433594 67.226562 127.535156 70.195312 127.535156 72.542969 C 127.535156 74.890625 126.421875 83.914062 113.9375 83.914062 C 111.699219 83.914062 109.507812 83.667969 107.417969 83.261719 C 109.1875 84.128906 111 84.910156 112.890625 85.558594 C 115.894531 86.59375 118.792969 87.71875 121.230469 89.703125 C 130.035156 87.945312 133.21875 77.828125 133.21875 73.71875 C 133.21875 69.203125 129.882812 63.519531 121.105469 63.519531 " fill-opacity="1" fill-rule="nonzero"/></g><g clip-path="url(#f955875a3c)"><path fill="#2a2a2a" d="M 121.105469 63.519531 L 121.105469 63.125 C 116.683594 63.121094 114.207031 63.753906 111.917969 64.371094 C 109.625 64.992188 107.53125 65.59375 103.679688 65.59375 C 99.070312 65.59375 96.230469 64.941406 94.703125 64.425781 L 94.578125 64.800781 L 94.960938 64.898438 C 95.058594 64.519531 95.109375 64.121094 95.109375 63.71875 C 95.109375 62.808594 94.851562 61.867188 94.296875 61.023438 C 93.742188 60.179688 92.894531 59.441406 91.738281 58.9375 C 91.027344 58.628906 90.261719 58.503906 89.5 58.425781 C 88.355469 58.308594 87.207031 58.292969 86.269531 58.027344 C 85.800781 57.894531 85.386719 57.703125 85.03125 57.417969 C 84.679688 57.132812 84.378906 56.75 84.144531 56.195312 C 84.070312 56.019531 83.878906 55.921875 83.695312 55.960938 C 83.507812 56.003906 83.378906 56.167969 83.382812 56.359375 C 83.457031 58.976562 84.402344 61.652344 86.390625 63.507812 L 86.660156 63.214844 L 86.8125 62.851562 C 85.976562 62.503906 85.222656 61.859375 84.640625 61.128906 C 84.53125 60.992188 84.351562 60.945312 84.191406 61.003906 C 84.03125 61.066406 83.925781 61.222656 83.9375 61.394531 L 83.941406 61.449219 L 83.957031 61.507812 C 83.988281 61.613281 84.082031 61.894531 84.261719 62.308594 C 84.527344 62.929688 84.976562 63.820312 85.652344 64.71875 C 86.328125 65.613281 87.234375 66.519531 88.414062 67.144531 C 89.40625 67.671875 90.332031 67.910156 91.167969 67.910156 C 92.109375 67.910156 92.933594 67.601562 93.566406 67.09375 L 93.320312 66.785156 L 93.132812 67.132812 C 94.398438 67.8125 96.109375 68.457031 98.027344 68.9375 C 99.945312 69.414062 102.074219 69.722656 104.171875 69.726562 C 106.761719 69.722656 109.621094 69.191406 112.449219 68.667969 C 115.277344 68.140625 118.070312 67.621094 120.488281 67.625 C 122.882812 67.625 124.535156 68.335938 125.597656 69.296875 C 126.664062 70.257812 127.140625 71.484375 127.136719 72.542969 C 127.140625 73.660156 126.863281 76.429688 125.097656 78.878906 C 124.210938 80.101562 122.957031 81.253906 121.160156 82.109375 C 119.359375 82.964844 117.011719 83.519531 113.9375 83.519531 C 111.726562 83.519531 109.5625 83.273438 107.492188 82.875 C 107.296875 82.835938 107.105469 82.949219 107.039062 83.136719 C 106.976562 83.324219 107.0625 83.53125 107.242188 83.617188 C 109.023438 84.488281 110.855469 85.277344 112.761719 85.933594 C 115.753906 86.964844 118.609375 88.078125 120.980469 90.011719 C 121.074219 90.085938 121.191406 90.117188 121.308594 90.09375 C 123.578125 89.640625 125.488281 88.644531 127.070312 87.347656 C 129.441406 85.402344 131.070312 82.789062 132.113281 80.269531 C 133.15625 77.75 133.613281 75.332031 133.617188 73.71875 C 133.617188 71.367188 132.75 68.71875 130.738281 66.648438 C 128.730469 64.582031 125.578125 63.121094 121.105469 63.125 L 121.105469 63.914062 C 125.410156 63.917969 128.316406 65.300781 130.171875 67.203125 C 132.023438 69.105469 132.824219 71.558594 132.824219 73.71875 C 132.824219 74.695312 132.632812 76.070312 132.203125 77.59375 C 131.5625 79.882812 130.390625 82.507812 128.585938 84.707031 C 126.777344 86.90625 124.351562 88.675781 121.152344 89.316406 L 121.230469 89.703125 L 121.480469 89.398438 C 118.980469 87.359375 116.03125 86.222656 113.019531 85.1875 C 111.148438 84.542969 109.347656 83.769531 107.589844 82.90625 L 107.414062 83.261719 L 107.339844 83.652344 C 109.453125 84.058594 111.667969 84.308594 113.9375 84.308594 C 117.105469 84.308594 119.578125 83.738281 121.5 82.824219 C 124.382812 81.457031 126.003906 79.328125 126.886719 77.332031 C 127.769531 75.332031 127.929688 73.46875 127.929688 72.542969 C 127.929688 71.25 127.355469 69.820312 126.132812 68.710938 C 124.90625 67.601562 123.039062 66.832031 120.488281 66.832031 C 117.960938 66.832031 115.132812 67.363281 112.304688 67.886719 C 109.480469 68.414062 106.652344 68.933594 104.171875 68.933594 C 102.152344 68.933594 100.082031 68.632812 98.21875 68.167969 C 96.355469 67.703125 94.695312 67.074219 93.507812 66.4375 C 93.367188 66.359375 93.199219 66.375 93.074219 66.476562 C 92.574219 66.875 91.941406 67.113281 91.167969 67.117188 C 90.484375 67.117188 89.683594 66.921875 88.785156 66.445312 C 87.332031 65.675781 86.304688 64.394531 85.648438 63.289062 C 85.320312 62.738281 85.082031 62.230469 84.929688 61.863281 C 84.855469 61.679688 84.796875 61.527344 84.761719 61.425781 C 84.746094 61.375 84.730469 61.335938 84.722656 61.308594 L 84.71875 61.285156 L 84.617188 61.3125 L 84.71875 61.289062 L 84.71875 61.285156 L 84.617188 61.3125 L 84.71875 61.289062 L 84.40625 61.363281 L 84.71875 61.300781 L 84.71875 61.289062 L 84.40625 61.363281 L 84.71875 61.300781 L 84.347656 61.375 L 84.726562 61.351562 L 84.71875 61.300781 L 84.347656 61.375 L 84.726562 61.351562 L 84.332031 61.375 L 84.023438 61.621094 C 84.667969 62.429688 85.511719 63.164062 86.507812 63.582031 C 86.683594 63.65625 86.890625 63.589844 86.992188 63.429688 C 87.097656 63.269531 87.070312 63.054688 86.929688 62.925781 C 85.132812 61.257812 84.242188 58.785156 84.175781 56.339844 L 83.777344 56.347656 L 83.414062 56.503906 C 83.78125 57.382812 84.351562 57.984375 85.011719 58.359375 C 86.007812 58.929688 87.171875 59.027344 88.300781 59.121094 C 89.433594 59.207031 90.542969 59.277344 91.417969 59.664062 C 92.449219 60.113281 93.167969 60.75 93.632812 61.457031 C 94.101562 62.171875 94.316406 62.960938 94.316406 63.71875 C 94.316406 64.054688 94.273438 64.386719 94.191406 64.699219 C 94.140625 64.902344 94.253906 65.109375 94.449219 65.175781 C 96.066406 65.722656 98.996094 66.386719 103.679688 66.386719 C 107.613281 66.390625 109.84375 65.753906 112.125 65.136719 C 114.40625 64.523438 116.753906 63.917969 121.105469 63.914062 L 121.105469 63.519531 " fill-opacity="1" fill-rule="nonzero"/></g><g clip-path="url(#68fb0c6cd5)"><path fill="#919191" d="M 123.207031 125.304688 C 125.433594 122.355469 129.390625 115.1875 120.242188 108.757812 C 120.242188 108.757812 126.671875 94.667969 118.511719 89.96875 C 110.351562 85.273438 78.957031 78.597656 71.046875 50.417969 C 71.046875 50.417969 73.09375 50.417969 76.519531 45.71875 C 79.945312 41.023438 81.675781 39.042969 84.398438 39.042969 C 87.117188 39.042969 87.859375 41.765625 89.589844 39.042969 C 91.316406 36.324219 91.316406 33.359375 90.328125 31.382812 C 89.339844 29.402344 88.351562 26.929688 81.925781 26.929688 C 76.117188 26.929688 70.304688 22.085938 65.59375 22.613281 C 65.234375 22.164062 64.863281 21.753906 64.492188 21.441406 C 64.492188 21.441406 62.441406 15.382812 69.265625 6.664062 C 69.265625 6.664062 60.578125 10.289062 58.132812 14.203125 C 55.929688 17.734375 55.832031 22.742188 58.820312 26.398438 C 58.488281 26.65625 58.148438 26.929688 57.800781 27.21875 C 56.941406 27.335938 55.992188 27.488281 54.949219 27.6875 C 52.210938 28.210938 49.519531 30.472656 47.816406 32.292969 L 47.800781 32.304688 L 47.757812 32.355469 L 47.75 32.363281 C 46.117188 34.21875 45.179688 35.902344 45.179688 35.902344 C 45.746094 35.699219 47.222656 35.78125 49.054688 36.042969 C 41.238281 45.53125 33.46875 60.046875 33.46875 79.339844 C 33.46875 94.519531 48.304688 102.578125 48.304688 102.578125 C 48.304688 102.578125 50.28125 110.488281 43.855469 115.679688 C 37.425781 120.871094 32.480469 131.996094 35.695312 133.726562 C 35.695312 133.726562 27.042969 137.683594 27.042969 143.863281 L 41.382812 143.863281 C 41.382812 143.863281 43.113281 140.648438 41.382812 136.445312 C 41.382812 136.445312 44.84375 136.695312 45.335938 133.480469 C 45.832031 130.265625 41.382812 128.042969 46.820312 123.097656 C 52.257812 118.152344 54.730469 116.671875 56.707031 113.703125 C 56.882812 113.445312 57.054688 113.203125 57.226562 112.976562 C 57.90625 111.722656 59.046875 110.777344 60.140625 109.882812 C 61.628906 108.667969 63.125 107.460938 64.671875 106.320312 C 67.332031 104.359375 70.28125 102.96875 73.304688 101.691406 C 69.195312 104.085938 64.777344 106.617188 62.464844 110.746094 C 62.464844 110.746094 64.523438 111.972656 70.800781 111.972656 C 78.59375 111.972656 84.710938 105.5 97.179688 106.960938 C 95.371094 103.558594 93.847656 99.886719 94.179688 96.007812 C 94.460938 97.085938 94.59375 98.199219 94.847656 99.285156 C 95.171875 100.671875 95.855469 102.007812 96.519531 103.261719 C 97.925781 105.925781 99.59375 108.519531 101.550781 110.8125 C 102.558594 111.992188 103.65625 113.101562 104.789062 114.152344 C 105.203125 114.539062 105.605469 114.949219 106.066406 115.277344 C 106.761719 115.773438 107.617188 116.003906 108.277344 116.539062 C 108.796875 116.957031 109.191406 117.535156 109.703125 117.972656 C 110.316406 118.496094 110.929688 119.015625 111.5625 119.515625 C 111.5625 119.515625 114.125 121.148438 115.792969 120.871094 C 115.792969 120.871094 120.488281 127.546875 115.792969 134.222656 C 115.792969 134.222656 109.117188 137.929688 109.859375 143.863281 L 121.476562 143.863281 L 121.476562 136.445312 C 121.476562 136.445312 124.445312 137.1875 124.445312 133.726562 C 124.445312 130.265625 120.984375 128.25 123.207031 125.304688 " fill-opacity="1" fill-rule="nonzero"/></g><g clip-path="url(#dfb674f988)"><path fill="#2a2a2a" d="M 123.207031 125.304688 L 123.523438 125.542969 C 124.707031 123.972656 126.390625 121.226562 126.394531 117.957031 C 126.394531 116.457031 126.03125 114.851562 125.105469 113.238281 C 124.179688 111.621094 122.695312 110 120.46875 108.433594 L 120.242188 108.757812 L 120.601562 108.921875 C 120.605469 108.910156 121.214844 107.578125 121.824219 105.59375 C 122.429688 103.601562 123.042969 100.960938 123.042969 98.316406 C 123.042969 96.636719 122.796875 94.953125 122.128906 93.4375 C 121.464844 91.921875 120.367188 90.582031 118.707031 89.628906 C 116.613281 88.425781 113.125 87.132812 108.914062 85.40625 C 102.605469 82.820312 94.691406 79.277344 87.632812 73.765625 C 80.574219 68.253906 74.371094 60.785156 71.429688 50.308594 L 71.046875 50.417969 L 71.046875 50.8125 C 71.121094 50.8125 71.714844 50.785156 72.707031 50.164062 C 73.703125 49.542969 75.105469 48.332031 76.839844 45.953125 C 78.546875 43.609375 79.832031 41.953125 80.988281 40.914062 C 81.566406 40.394531 82.109375 40.027344 82.65625 39.792969 C 83.207031 39.554688 83.765625 39.441406 84.398438 39.441406 C 85.210938 39.441406 85.820312 39.707031 86.382812 40 C 86.660156 40.144531 86.925781 40.300781 87.195312 40.425781 C 87.46875 40.550781 87.757812 40.648438 88.078125 40.648438 C 88.398438 40.652344 88.734375 40.535156 89.03125 40.304688 C 89.335938 40.074219 89.617188 39.734375 89.921875 39.257812 C 90.949219 37.644531 91.394531 35.941406 91.394531 34.386719 C 91.394531 33.210938 91.140625 32.117188 90.683594 31.207031 C 90.4375 30.714844 90.183594 30.175781 89.832031 29.636719 C 89.308594 28.828125 88.550781 28.027344 87.3125 27.460938 C 86.074219 26.886719 84.371094 26.535156 81.925781 26.535156 C 79.273438 26.539062 76.5625 25.476562 73.929688 24.386719 C 71.292969 23.304688 68.746094 22.183594 66.332031 22.179688 C 66.066406 22.179688 65.808594 22.191406 65.546875 22.222656 L 65.59375 22.613281 L 65.902344 22.367188 C 65.535156 21.902344 65.148438 21.476562 64.746094 21.136719 L 64.492188 21.441406 L 64.867188 21.3125 L 64.785156 21.339844 L 64.867188 21.3125 L 64.785156 21.339844 L 64.867188 21.3125 C 64.859375 21.296875 64.597656 20.492188 64.597656 19.0625 C 64.601562 16.605469 65.363281 12.296875 69.578125 6.90625 C 69.691406 6.765625 69.691406 6.566406 69.582031 6.421875 C 69.472656 6.28125 69.28125 6.230469 69.113281 6.296875 C 69.105469 6.300781 66.921875 7.210938 64.421875 8.621094 C 63.171875 9.324219 61.84375 10.152344 60.660156 11.058594 C 59.480469 11.96875 58.449219 12.949219 57.796875 13.996094 C 56.71875 15.722656 56.128906 17.785156 56.128906 19.882812 C 56.125 22.238281 56.871094 24.640625 58.515625 26.648438 L 58.820312 26.398438 L 58.578125 26.085938 C 58.242188 26.347656 57.902344 26.625 57.546875 26.914062 L 57.800781 27.21875 L 57.746094 26.828125 C 56.882812 26.945312 55.925781 27.097656 54.875 27.296875 C 53.425781 27.578125 52.027344 28.300781 50.769531 29.179688 C 49.511719 30.058594 48.394531 31.097656 47.527344 32.023438 L 47.816406 32.292969 L 47.570312 31.984375 L 47.554688 31.996094 L 47.5 32.046875 L 47.464844 32.089844 L 47.460938 32.09375 C 47.316406 32.246094 47.316406 32.484375 47.460938 32.636719 C 47.605469 32.789062 47.84375 32.804688 48.003906 32.667969 L 48.007812 32.664062 L 47.75 32.363281 L 47.453125 32.101562 C 45.792969 33.988281 44.839844 35.691406 44.832031 35.707031 C 44.753906 35.851562 44.769531 36.03125 44.875 36.15625 C 44.980469 36.28125 45.152344 36.328125 45.308594 36.273438 C 45.441406 36.222656 45.769531 36.183594 46.195312 36.183594 C 46.894531 36.183594 47.878906 36.273438 49 36.4375 L 49.054688 36.046875 L 48.75 35.792969 C 40.886719 45.332031 33.074219 59.9375 33.074219 79.339844 C 33.074219 87.066406 36.851562 92.96875 40.597656 96.925781 C 44.351562 100.882812 48.089844 102.914062 48.113281 102.925781 L 48.304688 102.578125 L 47.917969 102.675781 L 47.921875 102.683594 C 47.949219 102.792969 48.195312 103.875 48.195312 105.433594 C 48.195312 106.789062 48.007812 108.496094 47.34375 110.253906 C 46.675781 112.007812 45.535156 113.8125 43.605469 115.371094 C 41.03125 117.453125 38.71875 120.429688 37.035156 123.402344 C 36.195312 124.886719 35.511719 126.371094 35.039062 127.746094 C 34.5625 129.121094 34.292969 130.382812 34.292969 131.445312 C 34.292969 132.03125 34.375 132.558594 34.566406 133.011719 C 34.757812 133.464844 35.074219 133.84375 35.507812 134.078125 L 35.695312 133.726562 L 35.53125 133.367188 C 35.511719 133.375 33.324219 134.375 31.121094 136.171875 C 30.015625 137.070312 28.90625 138.167969 28.0625 139.453125 C 27.222656 140.742188 26.648438 142.222656 26.648438 143.863281 C 26.648438 143.96875 26.6875 144.070312 26.761719 144.144531 C 26.835938 144.21875 26.9375 144.257812 27.042969 144.257812 L 41.382812 144.257812 C 41.527344 144.257812 41.660156 144.179688 41.730469 144.050781 C 41.75 144.015625 42.546875 142.527344 42.546875 140.238281 C 42.546875 139.09375 42.34375 137.746094 41.746094 136.296875 L 41.382812 136.445312 L 41.351562 136.839844 C 41.363281 136.84375 41.433594 136.847656 41.550781 136.847656 C 41.933594 136.84375 42.828125 136.800781 43.71875 136.367188 C 44.164062 136.148438 44.613281 135.828125 44.976562 135.363281 C 45.339844 134.898438 45.613281 134.296875 45.726562 133.539062 C 45.757812 133.34375 45.773438 133.152344 45.773438 132.964844 C 45.769531 131.992188 45.421875 131.140625 45.101562 130.316406 C 44.777344 129.488281 44.484375 128.691406 44.484375 127.839844 C 44.484375 127.242188 44.621094 126.609375 45.011719 125.878906 C 45.402344 125.152344 46.054688 124.328125 47.085938 123.390625 C 49.796875 120.925781 51.769531 119.324219 53.324219 117.957031 C 54.878906 116.589844 56.023438 115.445312 57.039062 113.921875 C 57.207031 113.671875 57.375 113.4375 57.542969 113.210938 C 57.671875 113.042969 57.640625 112.800781 57.476562 112.667969 C 57.308594 112.53125 57.066406 112.554688 56.929688 112.714844 L 56.925781 112.714844 L 57.226562 112.976562 L 57.574219 113.164062 C 58.203125 112.003906 59.296875 111.082031 60.394531 110.191406 C 61.878906 108.976562 63.371094 107.773438 64.90625 106.640625 C 67.527344 104.710938 70.445312 103.332031 73.457031 102.058594 L 73.304688 101.691406 L 73.105469 101.351562 C 71.050781 102.546875 68.90625 103.785156 66.972656 105.253906 C 65.039062 106.71875 63.3125 108.421875 62.117188 110.554688 C 62.015625 110.742188 62.078125 110.976562 62.261719 111.085938 C 62.339844 111.132812 64.46875 112.367188 70.800781 112.367188 C 74.402344 112.367188 77.613281 111.03125 81.152344 109.730469 C 84.699219 108.429688 88.582031 107.144531 93.574219 107.144531 C 94.699219 107.144531 95.886719 107.210938 97.136719 107.355469 C 97.28125 107.371094 97.425781 107.308594 97.507812 107.1875 C 97.589844 107.0625 97.601562 106.90625 97.53125 106.777344 C 95.902344 103.710938 94.53125 100.460938 94.53125 97.09375 C 94.53125 96.746094 94.546875 96.394531 94.578125 96.042969 L 94.179688 96.007812 L 93.800781 96.109375 C 94.070312 97.148438 94.203125 98.257812 94.460938 99.375 C 94.800781 100.828125 95.503906 102.191406 96.167969 103.445312 C 97.585938 106.132812 99.269531 108.75 101.25 111.070312 C 102.269531 112.265625 103.378906 113.382812 104.519531 114.445312 C 104.925781 114.820312 105.339844 115.242188 105.835938 115.597656 C 106.222656 115.875 106.632812 116.0625 107.011719 116.25 C 107.390625 116.433594 107.742188 116.613281 108.03125 116.847656 C 108.488281 117.210938 108.882812 117.785156 109.449219 118.273438 C 110.058594 118.796875 110.675781 119.320312 111.316406 119.824219 L 111.347656 119.847656 C 111.355469 119.855469 111.914062 120.207031 112.691406 120.566406 C 113.46875 120.925781 114.453125 121.296875 115.386719 121.300781 C 115.546875 121.300781 115.703125 121.289062 115.855469 121.261719 L 115.792969 120.871094 L 115.46875 121.101562 L 115.472656 121.105469 C 115.574219 121.25 117.488281 124.097656 117.484375 127.792969 C 117.484375 129.703125 116.984375 131.835938 115.46875 133.992188 L 115.792969 134.222656 L 115.597656 133.875 C 115.578125 133.886719 114.054688 134.734375 112.515625 136.28125 C 111.746094 137.054688 110.972656 138.007812 110.386719 139.121094 C 109.800781 140.238281 109.40625 141.523438 109.40625 142.945312 C 109.40625 143.261719 109.425781 143.582031 109.464844 143.914062 C 109.492188 144.109375 109.660156 144.257812 109.859375 144.257812 L 121.476562 144.257812 C 121.582031 144.257812 121.683594 144.21875 121.757812 144.144531 C 121.832031 144.070312 121.875 143.96875 121.875 143.863281 L 121.875 136.445312 L 121.476562 136.445312 L 121.382812 136.832031 C 121.402344 136.835938 121.699219 136.910156 122.117188 136.910156 C 122.605469 136.910156 123.285156 136.8125 123.863281 136.332031 C 124.148438 136.09375 124.398438 135.761719 124.570312 135.332031 C 124.742188 134.898438 124.839844 134.371094 124.839844 133.726562 C 124.839844 132.3125 124.304688 131.148438 123.808594 130.117188 C 123.5625 129.601562 123.316406 129.117188 123.140625 128.65625 C 122.964844 128.191406 122.859375 127.753906 122.859375 127.320312 C 122.859375 126.765625 123.027344 126.207031 123.523438 125.542969 L 123.207031 125.304688 L 122.890625 125.0625 C 122.308594 125.832031 122.0625 126.59375 122.066406 127.320312 C 122.066406 127.886719 122.207031 128.421875 122.402344 128.9375 C 122.695312 129.710938 123.117188 130.453125 123.453125 131.234375 C 123.792969 132.011719 124.046875 132.820312 124.046875 133.726562 C 124.046875 134.292969 123.964844 134.71875 123.835938 135.039062 C 123.644531 135.511719 123.367188 135.761719 123.0625 135.917969 C 122.753906 136.070312 122.40625 136.117188 122.117188 136.117188 C 121.953125 136.117188 121.8125 136.101562 121.714844 136.089844 C 121.667969 136.082031 121.628906 136.074219 121.605469 136.070312 L 121.578125 136.0625 L 121.570312 136.0625 L 121.550781 136.152344 L 121.574219 136.0625 L 121.570312 136.0625 L 121.550781 136.152344 L 121.574219 136.0625 C 121.457031 136.03125 121.328125 136.058594 121.234375 136.132812 C 121.136719 136.210938 121.082031 136.324219 121.082031 136.445312 L 121.082031 143.46875 L 109.859375 143.46875 L 109.859375 143.863281 L 110.25 143.8125 C 110.214844 143.519531 110.195312 143.226562 110.195312 142.945312 C 110.195312 141.671875 110.550781 140.515625 111.085938 139.488281 C 111.894531 137.953125 113.121094 136.710938 114.148438 135.863281 C 114.660156 135.441406 115.125 135.113281 115.457031 134.894531 C 115.621094 134.785156 115.757812 134.703125 115.847656 134.648438 C 115.894531 134.621094 115.929688 134.597656 115.953125 134.585938 L 115.976562 134.570312 L 115.984375 134.566406 C 116.035156 134.539062 116.082031 134.5 116.117188 134.449219 C 117.730469 132.15625 118.277344 129.839844 118.273438 127.792969 C 118.269531 123.699219 116.136719 120.679688 116.117188 120.644531 C 116.027344 120.519531 115.875 120.457031 115.726562 120.480469 C 115.621094 120.5 115.507812 120.507812 115.386719 120.507812 C 114.671875 120.511719 113.746094 120.1875 113.023438 119.847656 C 112.660156 119.679688 112.34375 119.511719 112.121094 119.386719 C 112.007812 119.324219 111.921875 119.269531 111.863281 119.234375 L 111.792969 119.191406 L 111.773438 119.179688 L 111.558594 119.515625 L 111.804688 119.203125 C 111.179688 118.710938 110.574219 118.195312 109.960938 117.671875 C 109.5 117.285156 109.105469 116.703125 108.527344 116.230469 C 108.152344 115.929688 107.746094 115.726562 107.355469 115.535156 C 106.96875 115.347656 106.605469 115.175781 106.296875 114.953125 C 105.875 114.652344 105.480469 114.253906 105.058594 113.863281 C 103.933594 112.820312 102.847656 111.71875 101.851562 110.554688 C 99.917969 108.289062 98.265625 105.722656 96.867188 103.074219 C 96.207031 101.828125 95.539062 100.515625 95.230469 99.195312 C 94.984375 98.136719 94.851562 97.019531 94.566406 95.910156 C 94.515625 95.722656 94.339844 95.597656 94.148438 95.613281 C 93.957031 95.628906 93.804688 95.78125 93.789062 95.976562 C 93.753906 96.347656 93.738281 96.722656 93.738281 97.09375 C 93.742188 100.679688 95.183594 104.046875 96.832031 107.148438 L 97.179688 106.960938 L 97.226562 106.570312 C 95.945312 106.417969 94.730469 106.351562 93.574219 106.351562 C 88.441406 106.351562 84.441406 107.679688 80.878906 108.988281 C 77.316406 110.300781 74.199219 111.578125 70.800781 111.578125 C 67.6875 111.578125 65.632812 111.273438 64.367188 110.976562 C 63.738281 110.824219 63.300781 110.679688 63.03125 110.570312 C 62.894531 110.515625 62.796875 110.472656 62.738281 110.445312 L 62.675781 110.410156 L 62.664062 110.40625 L 62.550781 110.601562 L 62.667969 110.40625 L 62.664062 110.40625 L 62.550781 110.601562 L 62.667969 110.40625 L 62.464844 110.746094 L 62.808594 110.941406 C 63.929688 108.9375 65.570312 107.3125 67.449219 105.882812 C 69.328125 104.453125 71.449219 103.230469 73.503906 102.035156 C 73.683594 101.929688 73.75 101.703125 73.65625 101.515625 C 73.566406 101.328125 73.34375 101.246094 73.148438 101.328125 C 70.117188 102.609375 67.136719 104.011719 64.4375 106.003906 C 62.882812 107.148438 61.378906 108.359375 59.890625 109.578125 C 58.796875 110.472656 57.613281 111.445312 56.878906 112.785156 C 56.78125 112.964844 56.832031 113.183594 57 113.300781 C 57.164062 113.417969 57.390625 113.390625 57.523438 113.238281 L 57.523438 113.234375 L 57.226562 112.976562 L 56.910156 112.738281 C 56.734375 112.972656 56.558594 113.214844 56.378906 113.484375 C 55.417969 114.925781 54.335938 116.007812 52.800781 117.363281 C 51.265625 118.714844 49.28125 120.324219 46.554688 122.804688 C 45.476562 123.785156 44.761719 124.671875 44.316406 125.507812 C 43.867188 126.339844 43.691406 127.117188 43.691406 127.839844 C 43.695312 128.878906 44.042969 129.773438 44.363281 130.601562 C 44.6875 131.433594 44.980469 132.195312 44.980469 132.964844 C 44.980469 133.113281 44.96875 133.265625 44.945312 133.421875 C 44.847656 134.054688 44.628906 134.519531 44.351562 134.875 C 43.9375 135.40625 43.371094 135.703125 42.828125 135.867188 C 42.289062 136.03125 41.785156 136.054688 41.550781 136.054688 C 41.503906 136.054688 41.464844 136.054688 41.441406 136.054688 L 41.414062 136.050781 L 41.410156 136.050781 C 41.273438 136.042969 41.140625 136.101562 41.058594 136.214844 C 40.980469 136.328125 40.960938 136.46875 41.015625 136.597656 C 41.570312 137.945312 41.753906 139.183594 41.753906 140.238281 C 41.753906 141.289062 41.570312 142.15625 41.386719 142.757812 C 41.296875 143.058594 41.203125 143.292969 41.136719 143.449219 C 41.105469 143.527344 41.078125 143.585938 41.058594 143.625 L 41.039062 143.664062 L 41.03125 143.675781 L 41.382812 143.863281 L 41.382812 143.46875 L 27.042969 143.46875 L 27.042969 143.863281 L 27.4375 143.863281 C 27.4375 142.414062 27.945312 141.082031 28.726562 139.886719 C 29.894531 138.097656 31.683594 136.636719 33.179688 135.632812 C 33.925781 135.132812 34.601562 134.742188 35.085938 134.480469 C 35.328125 134.351562 35.523438 134.25 35.65625 134.183594 C 35.722656 134.152344 35.777344 134.128906 35.808594 134.113281 L 35.859375 134.085938 C 35.996094 134.027344 36.085938 133.890625 36.089844 133.742188 C 36.097656 133.589844 36.015625 133.449219 35.882812 133.378906 C 35.621094 133.238281 35.433594 133.023438 35.296875 132.699219 C 35.160156 132.382812 35.082031 131.953125 35.082031 131.445312 C 35.082031 130.515625 35.328125 129.324219 35.785156 128.003906 C 37.152344 124.042969 40.398438 118.972656 44.101562 115.988281 C 46.148438 114.335938 47.378906 112.402344 48.085938 110.535156 C 48.792969 108.664062 48.984375 106.859375 48.988281 105.433594 C 48.984375 103.683594 48.691406 102.503906 48.6875 102.480469 C 48.660156 102.375 48.589844 102.285156 48.492188 102.230469 L 48.453125 102.210938 C 48.042969 101.980469 44.375 99.871094 40.832031 96.011719 C 37.285156 92.148438 33.867188 86.5625 33.867188 79.339844 C 33.867188 60.15625 41.585938 45.734375 49.359375 36.296875 C 49.449219 36.1875 49.476562 36.035156 49.425781 35.902344 C 49.371094 35.769531 49.253906 35.671875 49.109375 35.652344 C 47.96875 35.488281 46.960938 35.394531 46.195312 35.390625 C 45.722656 35.394531 45.347656 35.421875 45.046875 35.527344 L 45.179688 35.902344 L 45.523438 36.09375 L 45.53125 36.078125 C 45.632812 35.902344 46.542969 34.332031 48.050781 32.625 C 48.1875 32.46875 48.179688 32.234375 48.035156 32.085938 C 47.890625 31.9375 47.65625 31.925781 47.496094 32.058594 L 47.492188 32.0625 L 47.75 32.367188 L 48.035156 32.636719 L 48.058594 32.613281 L 48.101562 32.566406 L 47.800781 32.304688 L 48.046875 32.617188 L 48.0625 32.605469 L 48.105469 32.566406 C 48.941406 31.667969 50.023438 30.664062 51.222656 29.828125 C 52.421875 28.988281 53.734375 28.320312 55.023438 28.074219 C 56.0625 27.878906 57 27.726562 57.851562 27.613281 C 57.925781 27.601562 57.996094 27.570312 58.050781 27.527344 C 58.398438 27.238281 58.738281 26.96875 59.066406 26.707031 C 59.148438 26.644531 59.203125 26.546875 59.214844 26.441406 C 59.226562 26.335938 59.195312 26.226562 59.128906 26.148438 C 57.609375 24.289062 56.917969 22.070312 56.917969 19.882812 C 56.917969 17.933594 57.46875 16.011719 58.46875 14.414062 C 59.035156 13.5 60.007812 12.558594 61.144531 11.6875 C 62.851562 10.375 64.925781 9.207031 66.566406 8.371094 C 67.390625 7.953125 68.105469 7.613281 68.613281 7.382812 C 68.867188 7.269531 69.070312 7.179688 69.207031 7.121094 C 69.347656 7.058594 69.417969 7.027344 69.417969 7.027344 L 69.265625 6.664062 L 68.957031 6.417969 C 64.640625 11.929688 63.804688 16.4375 63.804688 19.0625 C 63.804688 20.636719 64.105469 21.53125 64.117188 21.566406 C 64.140625 21.636719 64.179688 21.695312 64.234375 21.742188 C 64.574219 22.027344 64.933594 22.421875 65.28125 22.859375 C 65.367188 22.96875 65.5 23.023438 65.636719 23.007812 C 65.863281 22.984375 66.09375 22.96875 66.332031 22.96875 C 68.492188 22.964844 70.988281 24.023438 73.625 25.121094 C 76.269531 26.207031 79.0625 27.324219 81.925781 27.328125 C 83.503906 27.328125 84.738281 27.480469 85.710938 27.734375 C 87.167969 28.113281 88.027344 28.703125 88.636719 29.371094 C 89.246094 30.039062 89.601562 30.808594 89.976562 31.558594 C 90.371094 32.347656 90.601562 33.324219 90.601562 34.386719 C 90.601562 35.792969 90.199219 37.347656 89.253906 38.832031 C 88.980469 39.261719 88.742188 39.527344 88.550781 39.675781 C 88.355469 39.820312 88.222656 39.855469 88.078125 39.859375 C 87.929688 39.859375 87.75 39.808594 87.527344 39.703125 C 86.855469 39.40625 85.894531 38.648438 84.398438 38.648438 C 83.667969 38.648438 82.988281 38.785156 82.34375 39.0625 C 81.371094 39.484375 80.476562 40.21875 79.507812 41.277344 C 78.539062 42.335938 77.488281 43.722656 76.199219 45.488281 C 74.511719 47.804688 73.175781 48.941406 72.289062 49.496094 C 71.847656 49.769531 71.515625 49.902344 71.304688 49.964844 C 71.203125 49.996094 71.128906 50.007812 71.085938 50.015625 L 71.042969 50.019531 L 71.039062 50.019531 L 71.046875 50.25 L 71.046875 50.019531 L 71.039062 50.019531 L 71.046875 50.25 L 71.046875 50.019531 C 70.921875 50.019531 70.804688 50.078125 70.730469 50.179688 C 70.65625 50.277344 70.632812 50.40625 70.664062 50.523438 C 72.660156 57.632812 76.140625 63.390625 80.359375 68.089844 C 86.6875 75.140625 94.667969 79.820312 101.824219 83.179688 C 105.402344 84.859375 108.777344 86.210938 111.632812 87.359375 C 114.484375 88.503906 116.828125 89.457031 118.3125 90.3125 C 119.824219 91.183594 120.792969 92.375 121.40625 93.753906 C 122.015625 95.136719 122.25 96.714844 122.25 98.316406 C 122.253906 100.839844 121.660156 103.417969 121.066406 105.359375 C 120.769531 106.328125 120.472656 107.140625 120.25 107.710938 C 120.136719 107.992188 120.046875 108.214844 119.980469 108.367188 C 119.949219 108.441406 119.921875 108.5 119.90625 108.539062 C 119.890625 108.578125 119.882812 108.59375 119.882812 108.59375 C 119.800781 108.769531 119.855469 108.972656 120.015625 109.082031 C 122.167969 110.597656 123.5625 112.136719 124.417969 113.632812 C 125.273438 115.128906 125.601562 116.585938 125.601562 117.957031 C 125.605469 120.941406 124.03125 123.5625 122.890625 125.0625 L 123.207031 125.304688 " fill-opacity="1" fill-rule="nonzero"/></g><path fill="#2a2a2a" d="M 63.0625 30.046875 C 62.949219 30.253906 62.804688 30.511719 62.585938 30.761719 C 62.378906 31.023438 62.101562 31.292969 61.761719 31.535156 C 61.425781 31.785156 61.019531 32 60.566406 32.164062 C 60.339844 32.25 60.101562 32.308594 59.855469 32.378906 C 59.609375 32.417969 59.351562 32.472656 59.09375 32.492188 C 58.5625 32.53125 58.050781 32.546875 57.523438 32.515625 C 57 32.492188 56.472656 32.457031 55.949219 32.417969 C 55.425781 32.363281 54.902344 32.308594 54.386719 32.253906 C 53.875 32.207031 53.371094 32.128906 52.886719 32.078125 C 51.917969 31.964844 51.019531 31.871094 50.25 31.835938 C 49.480469 31.804688 48.839844 31.847656 48.417969 31.980469 C 48.203125 32.042969 48.050781 32.128906 47.945312 32.191406 L 47.914062 32.21875 C 48.070312 32.074219 48.289062 31.878906 48.34375 31.847656 C 48.757812 31.59375 49.425781 31.355469 50.226562 31.269531 C 51.027344 31.171875 51.964844 31.167969 52.957031 31.210938 C 53.453125 31.238281 53.960938 31.253906 54.476562 31.304688 C 54.988281 31.347656 55.511719 31.390625 56.035156 31.433594 C 56.554688 31.484375 57.070312 31.53125 57.578125 31.5625 C 58.082031 31.597656 58.585938 31.636719 59.039062 31.625 C 59.269531 31.628906 59.492188 31.585938 59.714844 31.578125 C 59.929688 31.539062 60.148438 31.515625 60.351562 31.460938 C 60.757812 31.355469 61.136719 31.226562 61.464844 31.054688 C 61.792969 30.882812 62.082031 30.695312 62.320312 30.496094 C 62.558594 30.304688 62.746094 30.105469 62.898438 29.9375 C 63.195312 29.597656 63.324219 29.359375 63.324219 29.359375 C 63.324219 29.359375 63.273438 29.625 63.0625 30.046875 " fill-opacity="1" fill-rule="nonzero"/><path fill="#2a2a2a" d="M 52.191406 97.304688 C 51.824219 97.316406 51.285156 97.261719 50.582031 97.136719 C 50.246094 97.046875 49.863281 96.960938 49.457031 96.832031 C 49.0625 96.679688 48.613281 96.542969 48.179688 96.3125 C 47.277344 95.910156 46.335938 95.308594 45.367188 94.578125 C 44.394531 93.847656 43.433594 92.949219 42.507812 91.921875 C 41.578125 90.898438 40.660156 89.761719 39.828125 88.503906 C 39.621094 88.1875 39.402344 87.875 39.210938 87.542969 L 38.910156 87.050781 L 38.621094 86.519531 C 38.441406 86.183594 38.257812 85.867188 38.085938 85.507812 C 37.917969 85.132812 37.753906 84.753906 37.585938 84.371094 C 36.976562 82.855469 36.523438 81.277344 36.242188 79.664062 C 35.984375 78.050781 35.859375 76.425781 35.871094 74.832031 C 35.894531 73.242188 36.035156 71.691406 36.246094 70.207031 C 36.472656 68.730469 36.765625 67.316406 37.105469 66 C 37.265625 65.339844 37.445312 64.703125 37.617188 64.089844 C 37.816406 63.472656 37.972656 62.90625 38.1875 62.316406 C 38.386719 61.765625 38.578125 61.234375 38.757812 60.734375 C 38.980469 60.234375 39.191406 59.757812 39.390625 59.3125 C 39.773438 58.421875 40.222656 57.707031 40.539062 57.097656 C 40.890625 56.503906 41.203125 56.058594 41.398438 55.746094 C 41.601562 55.441406 41.710938 55.277344 41.710938 55.277344 C 41.710938 55.277344 41.453125 56.027344 40.988281 57.300781 C 40.886719 57.625 40.773438 57.984375 40.652344 58.375 C 40.535156 58.765625 40.382812 59.179688 40.277344 59.632812 C 40.160156 60.082031 40.035156 60.5625 39.90625 61.0625 C 39.792969 61.585938 39.675781 62.132812 39.550781 62.707031 C 39.332031 63.808594 39.125 65.074219 38.914062 66.367188 C 38.707031 67.667969 38.5625 69.046875 38.421875 70.464844 C 38.308594 71.882812 38.253906 73.34375 38.269531 74.824219 C 38.3125 76.296875 38.429688 77.785156 38.679688 79.246094 C 38.917969 80.703125 39.324219 82.136719 39.808594 83.480469 C 39.9375 83.808594 40.066406 84.132812 40.195312 84.453125 C 40.339844 84.789062 40.519531 85.136719 40.675781 85.472656 L 40.898438 85.9375 L 41.160156 86.410156 C 41.324219 86.730469 41.503906 87.035156 41.679688 87.34375 C 42.394531 88.5625 43.140625 89.714844 43.921875 90.746094 C 44.710938 91.773438 45.492188 92.722656 46.296875 93.511719 C 46.488281 93.722656 46.703125 93.894531 46.898438 94.082031 C 47.09375 94.265625 47.289062 94.441406 47.492188 94.601562 C 47.6875 94.769531 47.882812 94.929688 48.070312 95.082031 C 48.269531 95.226562 48.460938 95.363281 48.648438 95.492188 C 49.015625 95.78125 49.40625 95.953125 49.742188 96.179688 C 50.089844 96.371094 50.425781 96.519531 50.726562 96.667969 C 51.039062 96.785156 51.316406 96.890625 51.558594 96.980469 C 51.800781 97.085938 52.03125 97.109375 52.207031 97.164062 C 52.5625 97.257812 52.753906 97.304688 52.753906 97.304688 C 52.753906 97.304688 52.558594 97.304688 52.191406 97.304688 " fill-opacity="1" fill-rule="nonzero"/><path fill="#2a2a2a" d="M 72.84375 29.339844 C 72.84375 29.339844 72.265625 29.15625 71.910156 29.390625 C 71.910156 29.390625 69.960938 31.941406 66.679688 27.988281 C 66.679688 27.988281 69.695312 26.382812 72.84375 29.339844 " fill-opacity="1" fill-rule="nonzero"/><path fill="#2a2a2a" d="M 67.503906 45.015625 C 67.195312 44.9375 66.917969 44.773438 66.65625 44.640625 C 66.417969 44.457031 66.167969 44.308594 65.992188 44.101562 C 65.898438 44.003906 65.808594 43.910156 65.722656 43.816406 C 65.644531 43.714844 65.582031 43.613281 65.515625 43.515625 C 65.449219 43.414062 65.382812 43.324219 65.328125 43.226562 C 65.285156 43.128906 65.238281 43.035156 65.195312 42.941406 C 65.019531 42.578125 64.941406 42.222656 64.867188 41.957031 C 64.820312 41.6875 64.804688 41.480469 64.792969 41.335938 C 64.78125 41.195312 64.777344 41.113281 64.777344 41.113281 C 64.777344 41.03125 64.84375 40.964844 64.921875 40.964844 C 64.96875 40.964844 65.007812 40.984375 65.035156 41.011719 C 65.035156 41.011719 65.089844 41.070312 65.175781 41.1875 C 65.269531 41.296875 65.386719 41.476562 65.546875 41.679688 C 65.722656 41.863281 65.875 42.09375 66.128906 42.3125 C 66.238281 42.433594 66.363281 42.546875 66.503906 42.648438 C 66.570312 42.699219 66.636719 42.753906 66.707031 42.808594 C 66.78125 42.851562 66.855469 42.898438 66.933594 42.941406 C 67.234375 43.125 67.570312 43.253906 67.945312 43.304688 C 68.3125 43.375 68.730469 43.367188 69.183594 43.296875 C 69.632812 43.226562 70.121094 43.113281 70.609375 42.921875 C 71.101562 42.742188 71.601562 42.515625 72.09375 42.257812 C 72.59375 42.011719 73.078125 41.71875 73.550781 41.425781 C 74.019531 41.117188 74.492188 40.828125 74.933594 40.519531 C 75.382812 40.214844 75.800781 39.902344 76.210938 39.613281 C 76.613281 39.3125 76.992188 39.03125 77.339844 38.769531 C 78.039062 38.230469 78.625 37.78125 79.03125 37.46875 C 79.445312 37.152344 79.679688 36.972656 79.679688 36.972656 C 79.742188 36.925781 79.828125 36.9375 79.878906 37 C 79.914062 37.046875 79.914062 37.113281 79.882812 37.160156 C 79.882812 37.160156 79.71875 37.414062 79.414062 37.839844 C 79.101562 38.261719 78.644531 38.855469 78.046875 39.527344 C 77.449219 40.199219 76.726562 40.964844 75.871094 41.710938 C 75.027344 42.472656 74.046875 43.203125 72.980469 43.851562 C 72.441406 44.167969 71.878906 44.457031 71.285156 44.6875 C 70.695312 44.921875 70.070312 45.105469 69.421875 45.175781 C 68.785156 45.261719 68.109375 45.214844 67.503906 45.015625 " fill-opacity="1" fill-rule="nonzero"/><path fill="#919191" d="M 79.742188 12.503906 C 79.378906 20.941406 75.191406 23.441406 75.191406 23.441406 C 74.851562 23.4375 74.472656 23.480469 74.078125 23.554688 C 75.191406 24.089844 76.292969 24.65625 77.457031 25.097656 C 78.683594 25.566406 79.878906 25.714844 81.113281 25.789062 C 81.816406 24.761719 82.285156 23.589844 82.464844 22.394531 C 82.988281 18.910156 79.742188 12.503906 79.742188 12.503906 " fill-opacity="1" fill-rule="nonzero"/><path fill="#2a2a2a" d="M 79.742188 12.503906 L 79.34375 12.484375 C 79.167969 16.640625 78.050781 19.300781 77 20.917969 C 76.472656 21.730469 75.960938 22.28125 75.582031 22.625 C 75.394531 22.800781 75.242188 22.921875 75.136719 23 C 75.085938 23.035156 75.046875 23.0625 75.019531 23.078125 L 74.992188 23.097656 L 74.988281 23.101562 L 75.03125 23.171875 L 74.988281 23.101562 L 75.03125 23.171875 L 74.988281 23.101562 L 75.191406 23.441406 L 75.195312 23.042969 L 75.160156 23.042969 C 74.792969 23.042969 74.402344 23.089844 74.003906 23.164062 C 73.835938 23.195312 73.707031 23.332031 73.683594 23.503906 C 73.660156 23.671875 73.75 23.835938 73.902344 23.910156 C 75.015625 24.445312 76.125 25.015625 77.3125 25.464844 C 78.597656 25.957031 79.839844 26.109375 81.089844 26.183594 C 81.226562 26.191406 81.363281 26.125 81.441406 26.011719 C 82.175781 24.9375 82.667969 23.714844 82.855469 22.453125 C 82.898438 22.167969 82.917969 21.875 82.917969 21.570312 C 82.914062 19.683594 82.203125 17.398438 81.503906 15.554688 C 80.800781 13.714844 80.097656 12.332031 80.09375 12.324219 C 80.011719 12.164062 79.835938 12.078125 79.65625 12.117188 C 79.480469 12.15625 79.355469 12.304688 79.34375 12.484375 L 79.742188 12.503906 L 79.390625 12.679688 C 79.390625 12.679688 79.398438 12.703125 79.417969 12.742188 C 79.566406 13.039062 80.25 14.441406 80.890625 16.179688 C 81.535156 17.910156 82.128906 19.988281 82.125 21.570312 C 82.125 21.84375 82.109375 22.097656 82.074219 22.335938 C 81.902344 23.46875 81.457031 24.585938 80.785156 25.5625 L 81.113281 25.789062 L 81.136719 25.390625 C 79.917969 25.320312 78.769531 25.171875 77.597656 24.726562 C 76.460938 24.296875 75.367188 23.738281 74.246094 23.199219 L 74.078125 23.554688 L 74.148438 23.945312 C 74.515625 23.875 74.863281 23.835938 75.160156 23.835938 L 75.1875 23.835938 C 75.261719 23.835938 75.332031 23.816406 75.394531 23.78125 C 75.433594 23.757812 76.53125 23.089844 77.664062 21.351562 C 78.796875 19.613281 79.957031 16.804688 80.136719 12.519531 L 79.742188 12.503906 L 79.390625 12.679688 L 79.742188 12.503906 " fill-opacity="1" fill-rule="nonzero"/></svg>