<svg xmlns="http://www.w3.org/2000/svg" xmlns:xlink="http://www.w3.org/1999/xlink" width="600" zoomAndPan="magnify" viewBox="0 0 450 449.999984" height="600" preserveAspectRatio="xMidYMid meet" version="1.0"><defs><clipPath id="ec27f0e7fb"><path d="M 206.074219 206.074219 L 243.925781 206.074219 L 243.925781 243.925781 L 206.074219 243.925781 Z M 206.074219 206.074219 " clip-rule="nonzero"/></clipPath><clipPath id="98a1a21b84"><path d="M 225 206.074219 C 214.546875 206.074219 206.074219 214.546875 206.074219 225 C 206.074219 235.453125 214.546875 243.925781 225 243.925781 C 235.453125 243.925781 243.925781 235.453125 243.925781 225 C 243.925781 214.546875 235.453125 206.074219 225 206.074219 Z M 225 206.074219 " clip-rule="nonzero"/></clipPath><clipPath id="b459026d26"><path d="M 219 306 L 309 306 L 309 420.402344 L 219 420.402344 Z M 219 306 " clip-rule="nonzero"/></clipPath><clipPath id="dbf29c1d09"><path d="M 233 146 L 389.761719 146 L 389.761719 253 L 233 253 Z M 233 146 " clip-rule="nonzero"/></clipPath><clipPath id="9985b9a8a0"><path d="M 56 0 L 368 0 L 368 420.402344 L 56 420.402344 Z M 56 0 " clip-rule="nonzero"/></clipPath></defs><g clip-path="url(#ec27f0e7fb)"><g clip-path="url(#98a1a21b84)"><path fill="#d9d9d9" d="M 206.074219 206.074219 L 243.925781 206.074219 L 243.925781 243.925781 L 206.074219 243.925781 Z M 206.074219 206.074219 " fill-opacity="1" fill-rule="nonzero"/></g></g><path fill="#919191" d="M 279.105469 308.917969 L 279.082031 308.917969 C 269.847656 307.773438 257.425781 306.390625 247.726562 309.792969 C 261.375 320.082031 272.203125 333.929688 266.984375 348.753906 C 257.375 376.046875 237.871094 382.585938 247.867188 387.96875 C 247.867188 387.96875 220.953125 400.273438 220.953125 419.492188 L 265.554688 419.492188 C 265.554688 419.492188 270.933594 409.5 265.554688 396.425781 C 265.554688 396.425781 276.316406 397.195312 277.855469 387.199219 C 279.394531 377.203125 275.777344 353.570312 297.738281 347.214844 C 305.5625 344.949219 306.878906 340.921875 307.363281 336.25 C 295.648438 330.664062 285.53125 320.367188 279.105469 308.917969 " fill-opacity="1" fill-rule="nonzero"/><g clip-path="url(#b459026d26)"><path fill="#000000" d="M 279.105469 308.917969 L 279.21875 307.691406 L 279.191406 307.6875 L 279.082031 308.917969 L 279.234375 307.691406 C 274.355469 307.089844 268.554688 306.414062 262.6875 306.414062 C 257.421875 306.414062 252.097656 306.957031 247.320312 308.628906 C 246.886719 308.78125 246.578125 309.152344 246.507812 309.601562 C 246.4375 310.050781 246.621094 310.5 246.984375 310.773438 C 252.542969 314.960938 257.601562 319.738281 261.238281 324.867188 C 264.882812 330 267.089844 335.453125 267.085938 341.058594 C 267.085938 343.449219 266.691406 345.871094 265.820312 348.34375 C 262.011719 359.15625 256.640625 366.640625 252.179688 372.128906 C 249.945312 374.875 247.941406 377.117188 246.445312 379.058594 C 245.699219 380.035156 245.074219 380.9375 244.621094 381.828125 C 244.167969 382.714844 243.863281 383.605469 243.863281 384.546875 C 243.851562 385.457031 244.183594 386.371094 244.789062 387.113281 C 245.386719 387.863281 246.21875 388.476562 247.285156 389.054688 L 247.867188 387.96875 L 247.355469 386.847656 C 247.300781 386.875 240.5 389.980469 233.632812 395.570312 C 230.203125 398.363281 226.75 401.78125 224.128906 405.785156 C 221.511719 409.78125 219.722656 414.394531 219.722656 419.492188 C 219.722656 419.820312 219.855469 420.132812 220.082031 420.367188 C 220.3125 420.597656 220.632812 420.726562 220.953125 420.726562 L 265.554688 420.726562 C 266.003906 420.726562 266.421875 420.476562 266.636719 420.078125 C 266.695312 419.964844 269.171875 415.34375 269.175781 408.214844 C 269.175781 404.65625 268.550781 400.472656 266.691406 395.957031 L 265.554688 396.425781 L 265.464844 397.65625 C 265.492188 397.65625 265.710938 397.671875 266.078125 397.671875 C 267.277344 397.667969 270.050781 397.527344 272.828125 396.171875 C 274.214844 395.496094 275.601562 394.5 276.730469 393.058594 C 277.859375 391.617188 278.714844 389.738281 279.074219 387.386719 C 279.472656 384.75 279.53125 381.394531 279.753906 377.699219 C 280.078125 372.164062 280.769531 365.90625 283.316406 360.550781 C 284.585938 357.871094 286.3125 355.414062 288.691406 353.335938 C 291.074219 351.257812 294.117188 349.546875 298.082031 348.398438 C 300.121094 347.808594 301.777344 347.089844 303.128906 346.246094 C 305.15625 344.988281 306.480469 343.414062 307.28125 341.703125 C 308.089844 339.992188 308.402344 338.183594 308.585938 336.378906 C 308.640625 335.859375 308.363281 335.363281 307.894531 335.140625 C 296.457031 329.695312 286.484375 319.558594 280.183594 308.316406 C 279.984375 307.960938 279.621094 307.726562 279.21875 307.691406 L 279.105469 308.917969 L 278.03125 309.523438 C 284.574219 321.167969 294.835938 331.632812 306.832031 337.363281 L 307.363281 336.25 L 306.140625 336.125 C 305.90625 338.390625 305.480469 340.3125 304.308594 341.910156 C 303.71875 342.710938 302.9375 343.460938 301.824219 344.160156 C 300.710938 344.851562 299.269531 345.488281 297.398438 346.027344 C 291.703125 347.671875 287.570312 350.488281 284.644531 353.941406 C 280.253906 359.125 278.574219 365.617188 277.8125 371.675781 C 277.429688 374.710938 277.277344 377.648438 277.152344 380.28125 C 277.023438 382.910156 276.914062 385.242188 276.636719 387.011719 C 276.332031 388.992188 275.652344 390.433594 274.789062 391.535156 C 273.496094 393.1875 271.738281 394.109375 270.054688 394.621094 C 268.378906 395.132812 266.816406 395.207031 266.078125 395.207031 C 265.929688 395.207031 265.8125 395.207031 265.738281 395.203125 L 265.65625 395.199219 L 265.640625 395.199219 C 265.214844 395.167969 264.804688 395.359375 264.554688 395.703125 C 264.304688 396.054688 264.25 396.5 264.414062 396.898438 C 266.144531 401.09375 266.710938 404.941406 266.714844 408.214844 C 266.714844 411.488281 266.140625 414.191406 265.570312 416.0625 C 265.289062 416.992188 265.003906 417.722656 264.792969 418.210938 C 264.6875 418.449219 264.605469 418.632812 264.546875 418.753906 L 264.484375 418.878906 L 264.46875 418.90625 L 264.46875 418.914062 L 265.554688 419.492188 L 265.554688 418.261719 L 220.953125 418.261719 L 220.953125 419.492188 L 222.1875 419.492188 C 222.1875 414.984375 223.765625 410.847656 226.191406 407.132812 C 229.828125 401.566406 235.386719 397.015625 240.039062 393.898438 C 242.363281 392.335938 244.457031 391.125 245.96875 390.316406 C 246.726562 389.90625 247.332031 389.597656 247.746094 389.390625 C 247.957031 389.289062 248.117188 389.210938 248.222656 389.164062 L 248.378906 389.089844 C 248.804688 388.894531 249.082031 388.476562 249.101562 388.007812 C 249.113281 387.539062 248.863281 387.105469 248.449219 386.882812 C 247.566406 386.410156 247.011719 385.957031 246.710938 385.574219 C 246.414062 385.191406 246.332031 384.917969 246.324219 384.546875 C 246.320312 384.164062 246.460938 383.628906 246.8125 382.953125 C 247.417969 381.761719 248.632812 380.207031 250.21875 378.316406 C 254.984375 372.621094 262.992188 363.8125 268.144531 349.164062 C 269.105469 346.433594 269.550781 343.722656 269.550781 341.058594 C 269.550781 334.789062 267.085938 328.851562 263.246094 323.4375 C 259.402344 318.023438 254.164062 313.105469 248.46875 308.808594 L 247.726562 309.792969 L 248.136719 310.953125 C 252.523438 309.410156 257.589844 308.875 262.6875 308.875 C 268.367188 308.875 274.074219 309.535156 278.929688 310.140625 L 278.972656 310.144531 L 279 310.144531 L 279.105469 308.917969 L 278.03125 309.523438 L 279.105469 308.917969 " fill-opacity="1" fill-rule="nonzero"/></g><path fill="#919191" d="M 100.894531 298.769531 C 109.515625 298.769531 117.015625 295.484375 122.160156 292.417969 C 119.144531 291.136719 116.210938 289.683594 113.296875 287.78125 C 107.640625 284.082031 101.96875 280.296875 96.917969 275.78125 C 89.558594 269.191406 83.496094 261.648438 79.1875 252.96875 C 56.78125 253.324219 28.726562 267.988281 25.921875 276.089844 C 22.460938 286.085938 36.304688 300.695312 43.222656 313.765625 C 50.144531 326.839844 43.609375 330.683594 45.144531 338.371094 C 46.683594 346.0625 54.371094 344.910156 54.371094 344.910156 C 48.992188 366.824219 64.367188 376.046875 64.367188 376.046875 C 78.210938 369.515625 85.898438 349.136719 85.898438 349.136719 C 81.261719 342.09375 68.214844 335.296875 68.214844 335.296875 C 72.441406 329.527344 70.519531 322.222656 70.519531 322.222656 C 60.523438 317.996094 54.371094 296.847656 54.371094 296.847656 C 54.371094 296.847656 58.988281 295.3125 67.828125 294.160156 C 76.671875 293.003906 84.746094 298.769531 100.894531 298.769531 " fill-opacity="1" fill-rule="nonzero"/><path fill="#000000" d="M 100.894531 298.769531 L 100.894531 300.003906 C 109.832031 300 117.53125 296.609375 122.789062 293.480469 C 123.1875 293.242188 123.417969 292.800781 123.386719 292.339844 C 123.355469 291.875 123.066406 291.46875 122.640625 291.289062 C 119.671875 290.023438 116.808594 288.605469 113.972656 286.75 C 108.320312 283.054688 102.699219 279.300781 97.742188 274.863281 C 90.476562 268.363281 84.523438 260.941406 80.292969 252.421875 C 80.082031 251.992188 79.644531 251.726562 79.167969 251.734375 C 67.707031 251.921875 54.980469 255.730469 44.6875 260.507812 C 39.539062 262.898438 35.003906 265.535156 31.539062 268.121094 C 29.808594 269.417969 28.339844 270.699219 27.191406 271.949219 C 26.042969 273.207031 25.199219 274.429688 24.757812 275.683594 C 24.335938 276.910156 24.144531 278.183594 24.144531 279.488281 C 24.148438 282.167969 24.9375 284.949219 26.164062 287.800781 C 28.015625 292.078125 30.871094 296.542969 33.835938 301.042969 C 36.796875 305.539062 39.867188 310.058594 42.132812 314.339844 C 44.566406 318.945312 45.234375 322.234375 45.238281 324.953125 C 45.238281 326.929688 44.875 328.640625 44.484375 330.382812 C 44.097656 332.121094 43.671875 333.894531 43.671875 335.914062 C 43.671875 336.773438 43.75 337.671875 43.9375 338.613281 C 44.261719 340.242188 44.855469 341.574219 45.621094 342.625 C 46.769531 344.203125 48.277344 345.109375 49.683594 345.601562 C 51.089844 346.097656 52.40625 346.199219 53.316406 346.199219 C 54.039062 346.199219 54.507812 346.132812 54.554688 346.125 L 54.371094 344.910156 L 53.175781 344.617188 C 52.351562 347.96875 52 351.050781 52 353.867188 C 51.996094 361.917969 54.910156 367.75 57.824219 371.523438 C 60.742188 375.296875 63.644531 377.046875 63.734375 377.105469 C 64.089844 377.316406 64.523438 377.335938 64.894531 377.164062 C 72.179688 373.707031 77.648438 366.796875 81.371094 360.789062 C 85.085938 354.773438 87.03125 349.621094 87.050781 349.570312 C 87.191406 349.203125 87.144531 348.789062 86.929688 348.460938 C 84.414062 344.667969 79.90625 341.183594 76.003906 338.550781 C 72.101562 335.933594 68.808594 334.21875 68.78125 334.203125 L 68.214844 335.296875 L 69.207031 336.023438 C 71.632812 332.707031 72.1875 328.992188 72.1875 326.238281 C 72.1875 323.730469 71.730469 321.980469 71.710938 321.910156 C 71.613281 321.539062 71.351562 321.238281 71 321.089844 C 68.800781 320.164062 66.660156 318.207031 64.757812 315.722656 C 61.894531 312.007812 59.566406 307.175781 57.988281 303.296875 C 57.195312 301.355469 56.582031 299.652344 56.171875 298.4375 C 55.96875 297.828125 55.8125 297.339844 55.707031 297.007812 C 55.65625 296.839844 55.617188 296.714844 55.59375 296.628906 L 55.554688 296.503906 L 54.371094 296.847656 L 54.761719 298.019531 L 54.804688 298.003906 C 55.277344 297.851562 59.777344 296.449219 67.988281 295.378906 C 68.738281 295.285156 69.480469 295.238281 70.230469 295.238281 C 73.964844 295.230469 77.882812 296.378906 82.753906 297.585938 C 87.621094 298.785156 93.421875 300.003906 100.894531 300.003906 L 100.894531 297.539062 C 93.6875 297.539062 88.144531 296.375 83.34375 295.191406 C 78.542969 294.015625 74.472656 292.78125 70.230469 292.773438 C 69.382812 292.773438 68.53125 292.824219 67.667969 292.9375 C 58.742188 294.101562 54.050781 295.660156 53.984375 295.679688 C 53.355469 295.890625 53.003906 296.558594 53.191406 297.195312 C 53.203125 297.230469 54.753906 302.566406 57.585938 308.484375 C 59.007812 311.445312 60.746094 314.546875 62.804688 317.226562 C 64.867188 319.898438 67.242188 322.167969 70.039062 323.355469 L 70.519531 322.222656 L 69.328125 322.539062 L 69.332031 322.542969 C 69.363281 322.667969 69.726562 324.167969 69.722656 326.238281 C 69.726562 328.671875 69.222656 331.84375 67.21875 334.566406 C 67.007812 334.855469 66.933594 335.222656 67.015625 335.574219 C 67.097656 335.929688 67.324219 336.222656 67.644531 336.386719 L 67.78125 336.460938 C 68.480469 336.832031 71.746094 338.605469 75.34375 341.082031 C 78.945312 343.550781 82.878906 346.769531 84.871094 349.8125 L 85.898438 349.136719 L 84.746094 348.699219 L 84.726562 348.753906 C 84.515625 349.304688 82.511719 354.375 78.933594 360.042969 C 75.363281 365.714844 70.191406 371.949219 63.84375 374.933594 L 64.367188 376.046875 L 65.003906 374.992188 L 64.96875 375.046875 L 65.003906 374.992188 L 64.96875 375.046875 L 65.003906 374.992188 C 64.921875 374.949219 62.261719 373.296875 59.648438 369.855469 C 57.039062 366.40625 54.464844 361.195312 54.460938 353.867188 C 54.460938 351.257812 54.789062 348.375 55.570312 345.203125 C 55.667969 344.800781 55.558594 344.382812 55.28125 344.078125 C 55.003906 343.773438 54.597656 343.628906 54.191406 343.691406 C 54.144531 343.695312 53.8125 343.738281 53.316406 343.738281 C 52.359375 343.742188 50.8125 343.574219 49.464844 342.816406 C 48.789062 342.433594 48.152344 341.914062 47.613281 341.171875 C 47.074219 340.429688 46.621094 339.457031 46.351562 338.128906 C 46.199219 337.351562 46.132812 336.625 46.132812 335.914062 C 46.132812 334.253906 46.492188 332.679688 46.886719 330.925781 C 47.28125 329.171875 47.703125 327.238281 47.703125 324.953125 C 47.703125 321.804688 46.886719 318.046875 44.3125 313.191406 C 41.164062 307.25 36.6875 301.101562 33.027344 295.253906 C 31.199219 292.332031 29.578125 289.492188 28.429688 286.824219 C 27.273438 284.160156 26.605469 281.671875 26.609375 279.488281 C 26.609375 278.425781 26.761719 277.429688 27.085938 276.492188 C 27.347656 275.722656 27.996094 274.714844 29.003906 273.617188 C 30.769531 271.6875 33.609375 269.480469 37.15625 267.304688 C 47.796875 260.75 64.839844 254.414062 79.207031 254.195312 L 79.1875 252.96875 L 78.085938 253.511719 C 82.472656 262.351562 88.640625 270.023438 96.097656 276.695312 C 101.234375 281.292969 106.960938 285.105469 112.621094 288.8125 C 115.613281 290.765625 118.617188 292.253906 121.675781 293.550781 L 122.160156 292.417969 L 121.527344 291.363281 C 116.503906 294.359375 109.195312 297.542969 100.894531 297.539062 L 100.894531 298.769531 " fill-opacity="1" fill-rule="nonzero"/><path fill="#919191" d="M 350.796875 169.59375 C 323.5 169.59375 320.804688 177.28125 296.585938 177.28125 C 282.140625 177.28125 273.167969 175.230469 268.273438 173.570312 C 269.816406 167.621094 267.25 160.089844 258.949219 156.472656 C 250.890625 152.960938 238.933594 157.355469 234.691406 147.285156 C 234.902344 155.164062 237.761719 163.171875 243.65625 168.648438 C 240.800781 167.460938 238.320312 165.316406 236.410156 162.917969 C 236.417969 163.089844 240.066406 174.6875 249.6875 179.78125 C 255.945312 183.09375 261.03125 182.40625 264.367188 179.75 C 272.003906 183.855469 285.316406 187.664062 298.121094 187.664062 C 313.886719 187.664062 333.496094 181.125 348.871094 181.125 C 364.253906 181.125 370.785156 190.351562 370.785156 197.65625 C 370.785156 204.960938 367.324219 233.027344 328.496094 233.027344 C 321.53125 233.027344 314.71875 232.257812 308.210938 231.003906 C 313.71875 233.695312 319.359375 236.125 325.238281 238.144531 C 334.578125 241.359375 343.601562 244.863281 351.183594 251.039062 C 378.558594 245.570312 388.472656 214.101562 388.472656 201.3125 C 388.472656 187.277344 378.09375 169.59375 350.796875 169.59375 " fill-opacity="1" fill-rule="nonzero"/><g clip-path="url(#dbf29c1d09)"><path fill="#000000" d="M 350.796875 169.59375 L 350.796875 168.359375 C 337.039062 168.355469 329.339844 170.316406 322.214844 172.246094 C 315.085938 174.167969 308.570312 176.042969 296.585938 176.050781 C 282.253906 176.050781 273.421875 174.015625 268.667969 172.40625 L 268.273438 173.574219 L 269.464844 173.882812 C 269.769531 172.703125 269.929688 171.464844 269.929688 170.21875 C 269.929688 167.386719 269.125 164.453125 267.398438 161.828125 C 265.683594 159.207031 263.042969 156.910156 259.441406 155.347656 C 257.234375 154.386719 254.851562 153.992188 252.480469 153.746094 C 248.921875 153.386719 245.359375 153.339844 242.4375 152.507812 C 240.980469 152.09375 239.6875 151.503906 238.585938 150.613281 C 237.484375 149.722656 236.550781 148.53125 235.820312 146.808594 C 235.59375 146.265625 235.003906 145.960938 234.429688 146.085938 C 233.847656 146.210938 233.441406 146.730469 233.457031 147.320312 C 233.683594 155.460938 236.625 163.789062 242.816406 169.550781 L 243.65625 168.648438 L 244.128906 167.511719 C 241.523438 166.433594 239.183594 164.425781 237.371094 162.152344 C 237.035156 161.734375 236.46875 161.582031 235.972656 161.769531 C 235.46875 161.960938 235.148438 162.449219 235.179688 162.984375 L 235.195312 163.15625 L 235.242188 163.332031 C 235.335938 163.660156 235.628906 164.542969 236.1875 165.832031 C 237.015625 167.757812 238.417969 170.527344 240.519531 173.320312 C 242.625 176.105469 245.433594 178.921875 249.109375 180.867188 C 252.195312 182.503906 255.078125 183.246094 257.675781 183.246094 C 260.605469 183.246094 263.160156 182.289062 265.136719 180.714844 L 264.367188 179.75 L 263.785156 180.835938 C 267.726562 182.949219 273.039062 184.953125 279.007812 186.441406 C 284.976562 187.925781 291.597656 188.890625 298.121094 188.894531 C 306.171875 188.890625 315.066406 187.238281 323.867188 185.605469 C 332.660156 183.96875 341.355469 182.351562 348.871094 182.359375 C 356.316406 182.363281 361.464844 184.578125 364.765625 187.566406 C 368.074219 190.554688 369.558594 194.367188 369.554688 197.65625 C 369.558594 201.132812 368.707031 209.753906 363.203125 217.363281 C 360.453125 221.175781 356.550781 224.757812 350.960938 227.417969 C 345.363281 230.070312 338.058594 231.792969 328.496094 231.796875 C 321.621094 231.796875 314.882812 231.035156 308.441406 229.792969 C 307.835938 229.675781 307.238281 230.027344 307.039062 230.613281 C 306.847656 231.195312 307.113281 231.835938 307.667969 232.109375 C 313.210938 234.820312 318.902344 237.269531 324.839844 239.3125 C 334.148438 242.511719 343.023438 245.976562 350.40625 251.992188 C 350.691406 252.226562 351.0625 252.316406 351.425781 252.246094 C 358.476562 250.839844 364.425781 247.746094 369.339844 243.710938 C 376.71875 237.660156 381.785156 229.527344 385.03125 221.695312 C 388.273438 213.851562 389.699219 206.332031 389.703125 201.3125 C 389.703125 193.996094 387.007812 185.761719 380.753906 179.332031 C 374.503906 172.894531 364.703125 168.351562 350.796875 168.359375 L 350.796875 170.824219 C 364.179688 170.832031 373.222656 175.132812 378.988281 181.050781 C 384.75 186.964844 387.242188 194.59375 387.242188 201.3125 C 387.242188 204.351562 386.644531 208.636719 385.308594 213.375 C 383.316406 220.492188 379.675781 228.65625 374.0625 235.492188 C 368.4375 242.332031 360.886719 247.839844 350.941406 249.832031 L 351.183594 251.039062 L 351.960938 250.082031 C 344.179688 243.75 335.003906 240.207031 325.640625 236.984375 C 319.820312 234.980469 314.222656 232.574219 308.753906 229.894531 L 308.210938 231.003906 L 307.976562 232.210938 C 314.546875 233.480469 321.441406 234.261719 328.496094 234.261719 C 338.351562 234.261719 346.039062 232.480469 352.011719 229.640625 C 360.984375 225.390625 366.03125 218.769531 368.769531 212.558594 C 371.519531 206.335938 372.015625 200.539062 372.015625 197.65625 C 372.015625 193.640625 370.230469 189.191406 366.421875 185.742188 C 362.613281 182.289062 356.804688 179.890625 348.871094 179.894531 C 341.007812 179.898438 332.214844 181.550781 323.414062 183.183594 C 314.625 184.820312 305.835938 186.433594 298.121094 186.429688 C 291.839844 186.429688 285.402344 185.496094 279.605469 184.050781 C 273.808594 182.609375 268.648438 180.652344 264.949219 178.664062 C 264.515625 178.429688 263.988281 178.476562 263.601562 178.785156 C 262.042969 180.023438 260.074219 180.777344 257.675781 180.78125 C 255.546875 180.78125 253.0625 180.171875 250.261719 178.691406 C 245.742188 176.300781 242.546875 172.316406 240.503906 168.875 C 239.480469 167.15625 238.75 165.585938 238.269531 164.4375 C 238.035156 163.867188 237.863281 163.402344 237.746094 163.082031 C 237.691406 162.921875 237.65625 162.796875 237.628906 162.71875 L 237.609375 162.640625 L 237.292969 162.730469 L 237.609375 162.65625 L 237.609375 162.640625 L 237.292969 162.730469 L 237.609375 162.65625 L 236.644531 162.882812 L 237.617188 162.695312 L 237.609375 162.65625 L 236.644531 162.882812 L 237.617188 162.695312 L 236.453125 162.917969 L 237.636719 162.855469 L 237.617188 162.695312 L 236.453125 162.917969 L 237.636719 162.855469 L 236.40625 162.921875 L 235.445312 163.691406 C 237.457031 166.207031 240.074219 168.492188 243.179688 169.789062 C 243.730469 170.015625 244.367188 169.816406 244.6875 169.316406 C 245.011719 168.816406 244.929688 168.152344 244.492188 167.75 C 238.894531 162.554688 236.128906 154.867188 235.917969 147.253906 L 234.6875 147.289062 L 233.550781 147.765625 C 234.699219 150.507812 236.464844 152.371094 238.519531 153.546875 C 241.621094 155.308594 245.238281 155.625 248.757812 155.90625 C 252.277344 156.175781 255.726562 156.402344 258.457031 157.601562 C 261.65625 158.996094 263.890625 160.972656 265.34375 163.183594 C 266.792969 165.394531 267.464844 167.847656 267.464844 170.21875 C 267.464844 171.261719 267.335938 172.289062 267.082031 173.265625 C 266.921875 173.890625 267.265625 174.53125 267.878906 174.738281 C 272.910156 176.445312 282.023438 178.511719 296.585938 178.511719 C 308.824219 178.519531 315.761719 176.546875 322.859375 174.625 C 329.960938 172.710938 337.253906 170.828125 350.796875 170.824219 L 350.796875 169.59375 " fill-opacity="1" fill-rule="nonzero"/></g><path fill="#919191" d="M 357.332031 361.765625 C 364.253906 352.597656 376.558594 330.300781 348.105469 310.304688 C 348.105469 310.304688 368.097656 266.476562 342.722656 251.867188 C 317.347656 237.257812 219.695312 216.496094 195.089844 128.835938 C 195.089844 128.835938 201.453125 128.835938 212.113281 114.226562 C 222.769531 99.617188 228.152344 93.464844 236.609375 93.464844 C 245.066406 93.464844 247.378906 101.921875 252.757812 93.464844 C 258.140625 85.007812 258.140625 75.78125 255.066406 69.628906 C 251.988281 63.476562 248.910156 55.789062 228.921875 55.789062 C 210.851562 55.789062 192.785156 40.71875 178.121094 42.359375 C 177.007812 40.953125 175.847656 39.675781 174.695312 38.707031 C 174.695312 38.707031 168.324219 19.867188 189.550781 -7.253906 C 189.550781 -7.253906 162.519531 4.019531 154.914062 16.199219 C 148.0625 27.175781 147.761719 42.757812 157.0625 54.125 C 156.03125 54.9375 154.972656 55.789062 153.882812 56.6875 C 151.214844 57.046875 148.265625 57.515625 145.015625 58.140625 C 136.503906 59.769531 128.128906 66.796875 122.828125 72.464844 L 122.78125 72.503906 L 122.652344 72.652344 L 122.617188 72.6875 L 122.628906 72.679688 C 117.550781 78.453125 114.625 83.6875 114.625 83.6875 C 116.390625 83.0625 120.988281 83.308594 126.683594 84.132812 C 102.367188 113.644531 78.210938 158.789062 78.210938 218.804688 C 78.210938 266.019531 124.347656 291.082031 124.347656 291.082031 C 124.347656 291.082031 130.496094 315.691406 110.503906 331.835938 C 90.511719 347.984375 75.132812 382.585938 85.128906 387.96875 C 85.128906 387.96875 58.21875 400.273438 58.21875 419.492188 L 102.816406 419.492188 C 102.816406 419.492188 108.199219 409.5 102.816406 396.425781 C 102.816406 396.425781 113.582031 397.195312 115.117188 387.199219 C 116.65625 377.199219 102.816406 370.28125 119.730469 354.90625 C 136.648438 339.523438 144.335938 334.914062 150.488281 325.683594 C 151.027344 324.878906 151.5625 324.132812 152.097656 323.417969 L 152.09375 323.421875 C 154.21875 319.527344 157.765625 316.589844 161.167969 313.804688 C 165.792969 310.023438 170.449219 306.269531 175.257812 302.722656 C 183.53125 296.625 192.707031 292.300781 202.105469 288.328125 C 189.328125 295.765625 175.585938 303.640625 168.394531 316.488281 C 168.394531 316.488281 174.789062 320.300781 194.316406 320.300781 C 218.558594 320.300781 237.589844 300.171875 276.375 304.71875 C 270.75 294.136719 266.007812 282.707031 267.046875 270.648438 C 267.914062 273.996094 268.328125 277.457031 269.113281 280.832031 C 270.125 285.152344 272.253906 289.308594 274.3125 293.203125 C 278.6875 301.496094 283.882812 309.5625 289.96875 316.695312 C 293.097656 320.359375 296.515625 323.808594 300.042969 327.085938 C 301.328125 328.28125 302.582031 329.554688 304.015625 330.574219 C 306.171875 332.117188 308.835938 332.84375 310.894531 334.5 C 312.507812 335.800781 313.734375 337.605469 315.328125 338.964844 C 317.230469 340.589844 319.132812 342.210938 321.105469 343.757812 C 321.105469 343.757812 329.082031 348.847656 334.265625 347.984375 C 334.265625 347.984375 348.875 368.742188 334.265625 389.503906 C 334.265625 389.503906 313.503906 401.039062 315.808594 419.492188 L 351.949219 419.492188 L 351.949219 396.425781 C 351.949219 396.425781 361.175781 398.734375 361.175781 387.96875 C 361.175781 377.199219 350.414062 370.929688 357.332031 361.765625 " fill-opacity="1" fill-rule="nonzero"/><g clip-path="url(#9985b9a8a0)"><path fill="#000000" d="M 357.332031 361.765625 L 358.3125 362.503906 C 361.992188 357.621094 367.226562 349.082031 367.238281 338.917969 C 367.238281 334.253906 366.113281 329.261719 363.230469 324.238281 C 360.351562 319.210938 355.742188 314.167969 348.8125 309.296875 L 348.105469 310.304688 L 349.226562 310.816406 C 349.238281 310.78125 351.128906 306.636719 353.023438 300.457031 C 354.914062 294.269531 356.816406 286.050781 356.820312 277.820312 C 356.820312 272.597656 356.050781 267.359375 353.976562 262.648438 C 351.90625 257.933594 348.492188 253.761719 343.335938 250.800781 C 336.820312 247.054688 325.972656 243.035156 312.875 237.667969 C 293.246094 229.628906 268.636719 218.609375 246.679688 201.464844 C 224.71875 184.3125 205.421875 161.082031 196.273438 128.503906 L 195.085938 128.835938 L 195.085938 130.066406 C 195.324219 130.070312 197.164062 129.988281 200.253906 128.054688 C 203.351562 126.121094 207.710938 122.351562 213.105469 114.957031 C 218.421875 107.660156 222.414062 102.515625 226.007812 99.285156 C 227.808594 97.664062 229.496094 96.523438 231.203125 95.785156 C 232.910156 95.050781 234.644531 94.703125 236.609375 94.699219 C 239.148438 94.703125 241.046875 95.527344 242.789062 96.4375 C 243.65625 96.890625 244.476562 97.371094 245.320312 97.757812 C 246.167969 98.144531 247.0625 98.453125 248.058594 98.457031 C 249.058594 98.464844 250.097656 98.101562 251.023438 97.382812 C 251.96875 96.660156 252.847656 95.613281 253.792969 94.128906 C 256.988281 89.117188 258.375 83.820312 258.375 78.980469 C 258.375 75.320312 257.582031 71.914062 256.167969 69.082031 C 255.40625 67.558594 254.613281 65.878906 253.523438 64.199219 C 251.894531 61.683594 249.535156 59.199219 245.683594 57.429688 C 241.828125 55.652344 236.53125 54.558594 228.921875 54.554688 C 220.679688 54.566406 212.242188 51.261719 204.050781 47.875 C 195.851562 44.5 187.925781 41.019531 180.417969 41.003906 C 179.601562 41.003906 178.789062 41.042969 177.984375 41.136719 L 178.121094 42.359375 L 179.085938 41.59375 C 177.9375 40.148438 176.738281 38.816406 175.488281 37.765625 L 174.695312 38.707031 L 175.863281 38.3125 L 175.605469 38.398438 L 175.863281 38.316406 L 175.863281 38.3125 L 175.605469 38.398438 L 175.863281 38.316406 C 175.84375 38.261719 175.03125 35.753906 175.03125 31.308594 C 175.035156 23.667969 177.414062 10.261719 190.519531 -6.496094 C 190.867188 -6.9375 190.871094 -7.554688 190.53125 -8 C 190.191406 -8.445312 189.597656 -8.605469 189.078125 -8.390625 C 189.050781 -8.378906 182.257812 -5.546875 174.480469 -1.167969 C 170.589844 1.023438 166.457031 3.601562 162.785156 6.421875 C 159.117188 9.246094 155.902344 12.300781 153.871094 15.550781 C 150.515625 20.925781 148.683594 27.339844 148.679688 33.863281 C 148.679688 41.183594 151 48.664062 156.109375 54.90625 L 157.0625 54.125 L 156.304688 53.160156 C 155.261719 53.976562 154.195312 54.832031 153.101562 55.734375 L 153.882812 56.683594 L 153.71875 55.464844 C 151.027344 55.828125 148.058594 56.300781 144.785156 56.929688 C 140.277344 57.792969 135.925781 60.046875 132.011719 62.777344 C 128.101562 65.515625 124.628906 68.742188 121.929688 71.628906 L 122.828125 72.46875 L 122.066406 71.503906 L 122.019531 71.539062 L 121.851562 71.699219 L 121.738281 71.828125 L 121.726562 71.839844 C 121.277344 72.316406 121.273438 73.058594 121.722656 73.535156 C 122.171875 74.011719 122.910156 74.054688 123.410156 73.632812 L 123.421875 73.621094 L 122.628906 72.683594 L 121.707031 71.863281 C 116.539062 77.738281 113.578125 83.035156 113.550781 83.085938 C 113.300781 83.53125 113.351562 84.085938 113.683594 84.480469 C 114.011719 84.871094 114.550781 85.019531 115.035156 84.847656 C 115.441406 84.695312 116.460938 84.5625 117.792969 84.566406 C 119.964844 84.566406 123.027344 84.847656 126.507812 85.355469 L 126.683594 84.136719 L 125.730469 83.351562 C 101.28125 113.019531 76.976562 158.445312 76.976562 218.804688 C 76.980469 242.832031 88.722656 261.195312 100.382812 273.496094 C 112.054688 285.804688 123.6875 292.125 123.757812 292.164062 L 124.347656 291.082031 L 123.152344 291.378906 L 123.15625 291.40625 C 123.238281 291.753906 124.007812 295.113281 124.007812 299.96875 C 124.007812 304.171875 123.429688 309.492188 121.363281 314.953125 C 119.289062 320.417969 115.738281 326.019531 109.730469 330.875 C 101.730469 337.34375 94.539062 346.609375 89.300781 355.851562 C 86.683594 360.472656 84.5625 365.089844 83.082031 369.363281 C 81.605469 373.640625 80.765625 377.566406 80.765625 380.867188 C 80.765625 382.6875 81.019531 384.332031 81.621094 385.742188 C 82.214844 387.152344 83.199219 388.332031 84.546875 389.054688 L 85.128906 387.96875 L 84.617188 386.847656 C 84.5625 386.875 77.761719 389.980469 70.894531 395.570312 C 67.464844 398.363281 64.011719 401.78125 61.390625 405.785156 C 58.773438 409.785156 56.984375 414.394531 56.984375 419.492188 C 56.984375 419.820312 57.117188 420.136719 57.347656 420.367188 C 57.574219 420.597656 57.894531 420.726562 58.21875 420.726562 L 102.816406 420.726562 C 103.265625 420.726562 103.683594 420.476562 103.898438 420.078125 C 103.957031 419.964844 106.433594 415.34375 106.4375 408.214844 C 106.4375 404.65625 105.8125 400.472656 103.953125 395.957031 L 102.816406 396.425781 L 102.726562 397.65625 C 102.753906 397.65625 102.972656 397.671875 103.339844 397.671875 C 104.539062 397.667969 107.3125 397.527344 110.089844 396.171875 C 111.476562 395.496094 112.863281 394.5 113.992188 393.058594 C 115.121094 391.617188 115.976562 389.738281 116.335938 387.386719 C 116.429688 386.777344 116.472656 386.179688 116.472656 385.59375 C 116.464844 382.578125 115.378906 379.917969 114.386719 377.355469 C 113.382812 374.785156 112.464844 372.304688 112.46875 369.652344 C 112.472656 367.800781 112.894531 365.832031 114.109375 363.5625 C 115.324219 361.292969 117.355469 358.730469 120.5625 355.816406 C 128.996094 348.144531 135.125 343.167969 139.960938 338.914062 C 144.792969 334.660156 148.359375 331.105469 151.515625 326.367188 C 152.035156 325.585938 152.558594 324.859375 153.085938 324.15625 C 153.480469 323.625 153.386719 322.878906 152.875 322.460938 C 152.359375 322.042969 151.609375 322.109375 151.171875 322.605469 L 151.167969 322.613281 L 152.09375 323.425781 L 153.175781 324.011719 C 155.140625 320.398438 158.542969 317.535156 161.949219 314.757812 C 166.566406 310.980469 171.207031 307.238281 175.988281 303.714844 C 184.136719 297.710938 193.214844 293.421875 202.585938 289.460938 L 202.105469 288.328125 L 201.488281 287.261719 C 195.101562 290.980469 188.425781 294.832031 182.410156 299.398438 C 176.398438 303.964844 171.027344 309.261719 167.316406 315.886719 C 166.992188 316.472656 167.1875 317.207031 167.761719 317.546875 C 168.003906 317.691406 174.632812 321.535156 194.316406 321.535156 C 205.527344 321.527344 215.503906 317.375 226.523438 313.332031 C 237.546875 309.277344 249.625 305.285156 265.152344 305.28125 C 268.65625 305.28125 272.347656 305.488281 276.234375 305.941406 C 276.691406 305.996094 277.132812 305.792969 277.394531 305.414062 C 277.652344 305.035156 277.679688 304.546875 277.460938 304.140625 C 272.394531 294.609375 268.128906 284.5 268.136719 274.019531 C 268.136719 272.9375 268.179688 271.847656 268.273438 270.753906 L 267.046875 270.648438 L 265.855469 270.957031 C 266.699219 274.195312 267.109375 277.644531 267.914062 281.117188 C 268.972656 285.636719 271.164062 289.875 273.222656 293.78125 C 277.632812 302.132812 282.871094 310.277344 289.035156 317.496094 C 292.203125 321.207031 295.652344 324.691406 299.203125 327.988281 C 300.460938 329.15625 301.753906 330.472656 303.296875 331.578125 C 304.496094 332.433594 305.769531 333.023438 306.953125 333.601562 C 308.136719 334.175781 309.230469 334.738281 310.121094 335.460938 C 311.546875 336.59375 312.777344 338.386719 314.53125 339.902344 C 316.433594 341.527344 318.347656 343.160156 320.339844 344.726562 L 320.4375 344.796875 C 320.46875 344.816406 322.203125 345.917969 324.613281 347.035156 C 327.035156 348.148438 330.105469 349.304688 333 349.3125 C 333.496094 349.3125 333.984375 349.277344 334.464844 349.195312 L 334.265625 347.984375 L 333.257812 348.691406 L 333.265625 348.707031 C 333.585938 349.152344 339.542969 358.019531 339.523438 369.515625 C 339.523438 375.449219 337.972656 382.085938 333.257812 388.796875 L 334.265625 389.503906 L 333.664062 388.429688 C 333.601562 388.464844 328.863281 391.097656 324.074219 395.910156 C 321.679688 398.320312 319.269531 401.277344 317.449219 404.746094 C 315.628906 408.214844 314.398438 412.210938 314.398438 416.640625 C 314.398438 417.621094 314.460938 418.625 314.585938 419.648438 C 314.664062 420.261719 315.1875 420.726562 315.808594 420.726562 L 351.945312 420.726562 C 352.273438 420.726562 352.589844 420.597656 352.820312 420.367188 C 353.050781 420.136719 353.179688 419.820312 353.179688 419.492188 L 353.179688 396.425781 L 351.945312 396.425781 L 351.652344 397.621094 C 351.71875 397.636719 352.632812 397.863281 353.941406 397.867188 C 355.457031 397.863281 357.566406 397.5625 359.367188 396.070312 C 360.257812 395.335938 361.039062 394.300781 361.570312 392.960938 C 362.109375 391.617188 362.40625 389.972656 362.40625 387.96875 C 362.40625 383.574219 360.746094 379.945312 359.203125 376.742188 C 358.429688 375.136719 357.671875 373.632812 357.125 372.191406 C 356.578125 370.75 356.242188 369.386719 356.242188 368.042969 C 356.25 366.320312 356.761719 364.570312 358.3125 362.503906 L 357.332031 361.765625 L 356.347656 361.023438 C 354.53125 363.414062 353.773438 365.785156 353.777344 368.042969 C 353.78125 369.804688 354.214844 371.460938 354.824219 373.066406 C 355.742188 375.472656 357.046875 377.785156 358.097656 380.210938 C 359.144531 382.636719 359.941406 385.152344 359.941406 387.96875 C 359.941406 389.730469 359.679688 391.054688 359.285156 392.042969 C 358.683594 393.523438 357.828125 394.289062 356.871094 394.777344 C 355.917969 395.257812 354.832031 395.402344 353.941406 395.402344 C 353.433594 395.402344 352.992188 395.355469 352.6875 395.3125 C 352.539062 395.285156 352.417969 395.269531 352.34375 395.253906 L 352.261719 395.234375 L 352.242188 395.230469 L 352.179688 395.515625 L 352.246094 395.230469 L 352.242188 395.230469 L 352.179688 395.515625 L 352.246094 395.230469 C 351.878906 395.140625 351.488281 395.222656 351.191406 395.453125 C 350.894531 395.6875 350.71875 396.046875 350.71875 396.425781 L 350.71875 418.261719 L 315.808594 418.261719 L 315.808594 419.492188 L 317.03125 419.34375 C 316.917969 418.421875 316.863281 417.519531 316.863281 416.640625 C 316.863281 412.675781 317.957031 409.082031 319.632812 405.894531 C 322.136719 401.109375 325.957031 397.253906 329.152344 394.617188 C 330.746094 393.296875 332.1875 392.28125 333.222656 391.597656 C 333.738281 391.257812 334.15625 391 334.4375 390.832031 C 334.578125 390.746094 334.6875 390.679688 334.761719 390.640625 L 334.859375 390.582031 C 335.023438 390.492188 335.160156 390.367188 335.273438 390.214844 C 340.292969 383.082031 341.992188 375.878906 341.988281 369.515625 C 341.96875 356.769531 335.335938 347.382812 335.273438 347.277344 C 335 346.886719 334.527344 346.691406 334.0625 346.769531 C 333.730469 346.820312 333.378906 346.851562 333 346.851562 C 330.785156 346.863281 327.898438 345.855469 325.648438 344.800781 C 324.519531 344.277344 323.542969 343.753906 322.84375 343.359375 C 322.496094 343.167969 322.226562 343.003906 322.039062 342.890625 L 321.828125 342.761719 L 321.761719 342.71875 L 321.101562 343.757812 L 321.863281 342.789062 C 319.917969 341.261719 318.03125 339.652344 316.125 338.027344 C 314.695312 336.828125 313.464844 335.011719 311.667969 333.542969 C 310.503906 332.609375 309.234375 331.976562 308.027344 331.386719 C 306.824219 330.804688 305.6875 330.257812 304.730469 329.574219 C 303.414062 328.636719 302.1875 327.402344 300.878906 326.183594 C 297.375 322.933594 294 319.515625 290.90625 315.898438 C 284.890625 308.847656 279.746094 300.859375 275.398438 292.628906 C 273.347656 288.746094 271.269531 284.671875 270.3125 280.554688 C 269.542969 277.265625 269.136719 273.796875 268.242188 270.339844 C 268.089844 269.761719 267.539062 269.371094 266.945312 269.421875 C 266.347656 269.472656 265.871094 269.945312 265.820312 270.542969 C 265.71875 271.707031 265.671875 272.867188 265.671875 274.019531 C 265.679688 285.179688 270.160156 295.644531 275.289062 305.300781 L 276.375 304.71875 L 276.519531 303.496094 C 272.535156 303.027344 268.753906 302.816406 265.152344 302.816406 C 249.195312 302.816406 236.746094 306.949219 225.671875 311.019531 C 214.585938 315.105469 204.886719 319.078125 194.316406 319.070312 C 184.636719 319.070312 178.25 318.125 174.316406 317.199219 C 172.347656 316.734375 170.996094 316.273438 170.148438 315.9375 C 169.726562 315.773438 169.429688 315.636719 169.246094 315.546875 L 169.054688 315.449219 L 169.019531 315.429688 L 169.015625 315.429688 L 168.660156 316.039062 L 169.023438 315.429688 L 169.015625 315.429688 L 168.660156 316.039062 L 169.023438 315.429688 L 168.394531 316.488281 L 169.46875 317.089844 C 172.949219 310.867188 178.050781 305.800781 183.898438 301.359375 C 189.746094 296.917969 196.335938 293.109375 202.726562 289.386719 C 203.289062 289.0625 203.496094 288.355469 203.210938 287.773438 C 202.917969 287.195312 202.226562 286.9375 201.628906 287.191406 C 192.199219 291.179688 182.929688 295.539062 174.527344 301.734375 C 169.6875 305.300781 165.015625 309.066406 160.390625 312.851562 C 156.984375 315.640625 153.300781 318.660156 151.011719 322.832031 C 150.710938 323.386719 150.875 324.074219 151.390625 324.433594 C 151.90625 324.792969 152.609375 324.707031 153.019531 324.234375 L 153.027344 324.230469 L 152.097656 323.417969 L 151.113281 322.679688 C 150.570312 323.40625 150.019531 324.167969 149.464844 325 C 146.46875 329.492188 143.113281 332.855469 138.335938 337.0625 C 133.558594 341.265625 127.382812 346.285156 118.902344 353.992188 C 115.550781 357.042969 113.332031 359.804688 111.9375 362.398438 C 110.546875 364.984375 110.003906 367.410156 110.003906 369.652344 C 110.007812 372.882812 111.09375 375.671875 112.089844 378.25 C 113.101562 380.828125 114.015625 383.199219 114.007812 385.59375 C 114.007812 386.058594 113.976562 386.53125 113.902344 387.011719 C 113.59375 388.992188 112.914062 390.433594 112.050781 391.535156 C 110.761719 393.1875 109 394.109375 107.316406 394.621094 C 105.640625 395.132812 104.078125 395.207031 103.339844 395.207031 C 103.191406 395.207031 103.074219 395.207031 103 395.203125 L 102.917969 395.199219 L 102.902344 395.199219 C 102.476562 395.167969 102.066406 395.359375 101.816406 395.703125 C 101.566406 396.054688 101.511719 396.5 101.675781 396.898438 C 103.40625 401.09375 103.976562 404.941406 103.976562 408.214844 C 103.976562 411.488281 103.402344 414.191406 102.832031 416.0625 C 102.550781 416.992188 102.265625 417.71875 102.054688 418.210938 C 101.953125 418.449219 101.867188 418.632812 101.808594 418.753906 L 101.746094 418.878906 L 101.730469 418.90625 L 101.730469 418.910156 L 102.816406 419.492188 L 102.816406 418.261719 L 58.21875 418.261719 L 58.21875 419.492188 L 59.449219 419.492188 C 59.449219 414.984375 61.023438 410.847656 63.453125 407.132812 C 67.089844 401.566406 72.648438 397.015625 77.300781 393.898438 C 79.625 392.335938 81.722656 391.128906 83.230469 390.316406 C 83.984375 389.90625 84.59375 389.597656 85.011719 389.390625 C 85.21875 389.289062 85.378906 389.210938 85.488281 389.164062 L 85.640625 389.089844 C 86.066406 388.894531 86.34375 388.476562 86.359375 388.007812 C 86.375 387.539062 86.125 387.105469 85.714844 386.882812 C 84.902344 386.441406 84.316406 385.777344 83.886719 384.777344 C 83.460938 383.78125 83.226562 382.453125 83.226562 380.867188 C 83.222656 377.984375 83.988281 374.269531 85.410156 370.167969 C 89.65625 357.851562 99.761719 342.074219 111.28125 332.792969 C 117.648438 327.652344 121.464844 321.640625 123.664062 315.824219 C 125.867188 310.007812 126.46875 304.394531 126.46875 299.96875 C 126.46875 294.515625 125.558594 290.851562 125.539062 290.78125 C 125.457031 290.449219 125.234375 290.164062 124.933594 290 L 124.816406 289.933594 C 123.53125 289.21875 112.128906 282.660156 101.105469 270.65625 C 90.070312 258.644531 79.441406 241.269531 79.441406 218.804688 C 79.441406 159.128906 103.453125 114.269531 127.632812 84.914062 C 127.914062 84.574219 127.992188 84.101562 127.832031 83.6875 C 127.671875 83.273438 127.296875 82.976562 126.859375 82.914062 C 123.300781 82.402344 120.167969 82.109375 117.792969 82.105469 C 116.316406 82.113281 115.15625 82.203125 114.214844 82.523438 L 114.625 83.6875 L 115.699219 84.285156 L 115.730469 84.238281 C 116.042969 83.6875 118.875 78.808594 123.554688 73.496094 C 123.980469 73.011719 123.960938 72.277344 123.511719 71.820312 C 123.058594 71.359375 122.328125 71.324219 121.835938 71.738281 L 121.824219 71.75 L 122.617188 72.691406 L 123.511719 73.539062 L 123.546875 73.503906 L 123.582031 73.460938 L 123.710938 73.3125 L 122.78125 72.507812 L 123.546875 73.46875 L 123.589844 73.4375 L 123.726562 73.308594 C 126.332031 70.527344 129.695312 67.402344 133.421875 64.800781 C 137.148438 62.191406 141.238281 60.113281 145.246094 59.347656 C 148.476562 58.730469 151.398438 58.265625 154.050781 57.90625 C 154.277344 57.875 154.492188 57.78125 154.667969 57.636719 C 155.75 56.746094 156.796875 55.902344 157.824219 55.09375 C 158.082031 54.894531 158.253906 54.589844 158.289062 54.261719 C 158.324219 53.933594 158.226562 53.601562 158.015625 53.347656 C 153.292969 47.570312 151.144531 40.667969 151.144531 33.863281 C 151.144531 27.800781 152.855469 21.820312 155.960938 16.851562 C 157.730469 14.011719 160.746094 11.089844 164.285156 8.375 C 169.589844 4.292969 176.042969 0.65625 181.15625 -1.945312 C 183.714844 -3.25 185.9375 -4.296875 187.515625 -5.011719 C 188.308594 -5.371094 188.9375 -5.648438 189.367188 -5.832031 C 189.796875 -6.019531 190.023438 -6.117188 190.023438 -6.117188 L 189.550781 -7.253906 L 188.582031 -8.011719 C 175.160156 9.125 172.558594 23.148438 172.566406 31.308594 C 172.566406 36.210938 173.492188 38.996094 173.527344 39.101562 C 173.601562 39.320312 173.726562 39.503906 173.902344 39.648438 C 174.960938 40.535156 176.074219 41.761719 177.160156 43.128906 C 177.421875 43.457031 177.839844 43.632812 178.257812 43.585938 C 178.96875 43.507812 179.6875 43.464844 180.417969 43.464844 C 187.140625 43.449219 194.898438 46.746094 203.109375 50.152344 C 211.328125 53.535156 220.023438 57.011719 228.921875 57.019531 C 233.839844 57.019531 237.675781 57.496094 240.695312 58.28125 C 245.226562 59.460938 247.90625 61.296875 249.800781 63.375 C 251.691406 65.453125 252.796875 67.84375 253.964844 70.179688 C 255.191406 72.636719 255.914062 75.671875 255.914062 78.980469 C 255.914062 83.351562 254.660156 88.183594 251.71875 92.804688 C 250.871094 94.144531 250.128906 94.972656 249.53125 95.425781 C 248.925781 95.878906 248.515625 95.984375 248.058594 95.996094 C 247.601562 95.996094 247.042969 95.839844 246.351562 95.519531 C 244.261719 94.585938 241.265625 92.238281 236.609375 92.238281 C 234.34375 92.234375 232.234375 92.652344 230.222656 93.527344 C 227.199219 94.835938 224.421875 97.121094 221.410156 100.40625 C 218.390625 103.699219 215.121094 108.015625 211.117188 113.503906 C 205.859375 120.714844 201.703125 124.25 198.953125 125.96875 C 197.574219 126.828125 196.546875 127.234375 195.894531 127.429688 C 195.570312 127.527344 195.339844 127.570312 195.203125 127.589844 L 195.070312 127.605469 L 195.058594 127.605469 L 195.085938 128.324219 L 195.085938 127.605469 L 195.058594 127.605469 L 195.085938 128.324219 L 195.085938 127.605469 C 194.699219 127.605469 194.339844 127.789062 194.105469 128.09375 C 193.875 128.402344 193.796875 128.800781 193.898438 129.171875 C 200.105469 151.277344 210.933594 169.191406 224.050781 183.808594 C 243.738281 205.746094 268.5625 220.296875 290.820312 230.746094 C 301.949219 235.972656 312.445312 240.171875 321.324219 243.742188 C 330.199219 247.308594 337.484375 250.269531 342.109375 252.933594 C 346.800781 255.644531 349.820312 259.34375 351.722656 263.640625 C 353.617188 267.9375 354.355469 272.839844 354.355469 277.820312 C 354.359375 285.671875 352.519531 293.695312 350.667969 299.734375 C 349.742188 302.75 348.820312 305.277344 348.128906 307.042969 C 347.777344 307.925781 347.492188 308.617188 347.289062 309.085938 C 347.195312 309.324219 347.117188 309.5 347.0625 309.617188 C 347.007812 309.742188 346.984375 309.792969 346.984375 309.792969 C 346.734375 310.335938 346.90625 310.972656 347.394531 311.3125 C 354.09375 316.019531 358.429688 320.808594 361.09375 325.464844 C 363.757812 330.117188 364.773438 334.644531 364.773438 338.917969 C 364.789062 348.203125 359.886719 356.351562 356.347656 361.023438 L 357.332031 361.765625 " fill-opacity="1" fill-rule="nonzero"/></g><path fill="#000000" d="M 170.25 65.484375 C 169.894531 66.121094 169.453125 66.917969 168.773438 67.703125 C 168.121094 68.515625 167.269531 69.351562 166.210938 70.109375 C 165.164062 70.878906 163.902344 71.554688 162.492188 72.066406 C 161.789062 72.332031 161.039062 72.511719 160.28125 72.726562 C 159.511719 72.859375 158.714844 73.027344 157.90625 73.078125 C 156.257812 73.207031 154.667969 73.25 153.03125 73.160156 C 151.402344 73.085938 149.757812 72.976562 148.121094 72.847656 C 146.496094 72.679688 144.867188 72.511719 143.269531 72.34375 C 141.671875 72.195312 140.113281 71.957031 138.605469 71.796875 C 135.585938 71.449219 132.789062 71.148438 130.394531 71.046875 C 128.007812 70.953125 126.019531 71.074219 124.703125 71.496094 C 124.039062 71.6875 123.558594 71.953125 123.234375 72.152344 L 123.128906 72.234375 C 123.621094 71.789062 124.300781 71.175781 124.472656 71.078125 C 125.757812 70.292969 127.832031 69.546875 130.324219 69.28125 C 132.824219 68.984375 135.738281 68.960938 138.820312 69.097656 C 140.359375 69.179688 141.949219 69.238281 143.546875 69.390625 C 145.144531 69.523438 146.769531 69.65625 148.390625 69.789062 C 150.003906 69.945312 151.613281 70.09375 153.191406 70.195312 C 154.757812 70.296875 156.332031 70.417969 157.738281 70.386719 C 158.460938 70.394531 159.148438 70.261719 159.84375 70.242188 C 160.511719 70.121094 161.1875 70.042969 161.820312 69.882812 C 163.082031 69.550781 164.261719 69.144531 165.285156 68.613281 C 166.300781 68.074219 167.207031 67.492188 167.9375 66.875 C 168.6875 66.277344 169.269531 65.664062 169.746094 65.144531 C 170.664062 64.078125 171.070312 63.34375 171.070312 63.34375 C 171.070312 63.34375 170.914062 64.164062 170.25 65.484375 " fill-opacity="1" fill-rule="nonzero"/><path fill="#000000" d="M 136.433594 274.675781 C 135.292969 274.71875 133.621094 274.542969 131.433594 274.15625 C 130.386719 273.871094 129.195312 273.605469 127.933594 273.207031 C 126.710938 272.730469 125.3125 272.308594 123.96875 271.589844 C 121.148438 270.347656 118.222656 268.472656 115.214844 266.195312 C 112.195312 263.921875 109.203125 261.128906 106.316406 257.941406 C 103.425781 254.753906 100.578125 251.210938 97.980469 247.300781 C 97.339844 246.324219 96.664062 245.347656 96.058594 244.320312 L 95.128906 242.785156 L 94.226562 241.128906 C 93.675781 240.085938 93.105469 239.097656 92.5625 237.992188 C 92.046875 236.816406 91.53125 235.636719 91.011719 234.449219 C 89.109375 229.730469 87.707031 224.828125 86.828125 219.808594 C 86.027344 214.785156 85.640625 209.734375 85.671875 204.785156 C 85.742188 199.839844 86.191406 195.011719 86.84375 190.398438 C 87.550781 185.800781 88.464844 181.40625 89.515625 177.304688 C 90.019531 175.25 90.566406 173.273438 91.109375 171.363281 C 91.730469 169.449219 92.214844 167.679688 92.882812 165.84375 C 93.5 164.132812 94.089844 162.492188 94.65625 160.933594 C 95.347656 159.375 96.003906 157.898438 96.621094 156.507812 C 97.816406 153.734375 99.210938 151.515625 100.195312 149.613281 C 101.292969 147.769531 102.261719 146.382812 102.871094 145.417969 C 103.503906 144.46875 103.839844 143.960938 103.839844 143.960938 C 103.839844 143.960938 103.042969 146.289062 101.585938 150.25 C 101.273438 151.257812 100.929688 152.375 100.550781 153.59375 C 100.1875 154.808594 99.710938 156.089844 99.386719 157.507812 C 99.023438 158.902344 98.632812 160.390625 98.226562 161.957031 C 97.878906 163.578125 97.507812 165.28125 97.125 167.0625 C 96.4375 170.492188 95.792969 174.421875 95.140625 178.445312 C 94.496094 182.496094 94.050781 186.785156 93.617188 191.195312 C 93.265625 195.609375 93.089844 200.15625 93.132812 204.753906 C 93.273438 209.339844 93.640625 213.964844 94.40625 218.507812 C 95.152344 223.042969 96.417969 227.496094 97.925781 231.679688 C 98.328125 232.695312 98.730469 233.703125 99.125 234.707031 C 99.574219 235.75 100.128906 236.828125 100.621094 237.875 L 101.320312 239.324219 L 102.121094 240.796875 C 102.644531 241.78125 103.199219 242.738281 103.746094 243.695312 C 105.972656 247.484375 108.285156 251.066406 110.714844 254.285156 C 113.171875 257.46875 115.597656 260.425781 118.101562 262.882812 C 118.699219 263.535156 119.363281 264.070312 119.972656 264.648438 C 120.589844 265.222656 121.195312 265.777344 121.816406 266.273438 C 122.433594 266.789062 123.035156 267.285156 123.617188 267.769531 C 124.234375 268.210938 124.835938 268.632812 125.417969 269.046875 C 126.554688 269.933594 127.769531 270.476562 128.816406 271.175781 C 129.902344 271.773438 130.949219 272.234375 131.886719 272.703125 C 132.855469 273.066406 133.71875 273.386719 134.46875 273.667969 C 135.222656 273.992188 135.945312 274.074219 136.488281 274.242188 C 137.597656 274.527344 138.1875 274.679688 138.1875 274.679688 C 138.1875 274.679688 137.578125 274.675781 136.433594 274.675781 " fill-opacity="1" fill-rule="nonzero"/><path fill="#000000" d="M 200.671875 63.277344 C 200.671875 63.277344 198.875 62.710938 197.765625 63.433594 C 197.765625 63.433594 191.710938 71.375 181.507812 59.074219 C 181.507812 59.074219 190.882812 54.082031 200.671875 63.277344 " fill-opacity="1" fill-rule="nonzero"/><path fill="#000000" d="M 184.0625 112.039062 C 183.105469 111.792969 182.25 111.28125 181.429688 110.867188 C 180.683594 110.300781 179.90625 109.839844 179.363281 109.195312 C 179.078125 108.890625 178.800781 108.59375 178.527344 108.304688 C 178.289062 107.996094 178.085938 107.671875 177.878906 107.371094 C 177.679688 107.0625 177.46875 106.777344 177.304688 106.476562 C 177.164062 106.167969 177.023438 105.875 176.886719 105.585938 C 176.335938 104.460938 176.097656 103.351562 175.871094 102.519531 C 175.71875 101.683594 175.675781 101.046875 175.636719 100.59375 C 175.59375 100.148438 175.589844 99.90625 175.589844 99.90625 C 175.585938 99.648438 175.789062 99.441406 176.042969 99.4375 C 176.179688 99.433594 176.308594 99.496094 176.394531 99.589844 C 176.394531 99.589844 176.554688 99.773438 176.824219 100.128906 C 177.113281 100.46875 177.476562 101.027344 177.976562 101.660156 C 178.523438 102.226562 179.003906 102.953125 179.789062 103.628906 C 180.136719 104 180.519531 104.355469 180.953125 104.667969 C 181.160156 104.832031 181.371094 105.003906 181.585938 105.171875 C 181.816406 105.3125 182.050781 105.449219 182.289062 105.589844 C 183.226562 106.160156 184.269531 106.554688 185.4375 106.71875 C 186.585938 106.933594 187.882812 106.914062 189.292969 106.691406 C 190.691406 106.476562 192.210938 106.125 193.730469 105.519531 C 195.261719 104.96875 196.8125 104.257812 198.339844 103.453125 C 199.894531 102.691406 201.402344 101.78125 202.882812 100.875 C 204.332031 99.917969 205.804688 99.019531 207.183594 98.050781 C 208.570312 97.105469 209.875 96.128906 211.148438 95.234375 C 212.398438 94.300781 213.578125 93.417969 214.667969 92.609375 C 216.839844 90.933594 218.65625 89.542969 219.925781 88.566406 C 221.207031 87.582031 221.941406 87.023438 221.941406 87.023438 C 222.132812 86.875 222.40625 86.914062 222.554688 87.105469 C 222.667969 87.253906 222.667969 87.457031 222.570312 87.609375 C 222.570312 87.609375 222.066406 88.394531 221.113281 89.71875 C 220.144531 91.03125 218.71875 92.875 216.867188 94.972656 C 215.003906 97.058594 212.75 99.441406 210.085938 101.757812 C 207.46875 104.132812 204.417969 106.402344 201.097656 108.410156 C 199.429688 109.402344 197.671875 110.296875 195.824219 111.015625 C 193.988281 111.738281 192.046875 112.316406 190.039062 112.535156 C 188.050781 112.804688 185.953125 112.65625 184.0625 112.039062 " fill-opacity="1" fill-rule="nonzero"/><path fill="#919191" d="M 222.132812 10.910156 C 221.007812 37.160156 207.980469 44.929688 207.980469 44.929688 C 206.917969 44.921875 205.738281 45.058594 204.511719 45.285156 C 207.980469 46.953125 211.40625 48.707031 215.019531 50.082031 C 218.839844 51.539062 222.5625 52 226.398438 52.234375 C 228.582031 49.039062 230.046875 45.398438 230.605469 41.675781 C 232.226562 30.84375 222.132812 10.910156 222.132812 10.910156 " fill-opacity="1" fill-rule="nonzero"/><path fill="#000000" d="M 222.132812 10.90625 L 220.898438 10.855469 C 220.34375 23.785156 216.875 32.050781 213.601562 37.089844 C 211.960938 39.609375 210.367188 41.324219 209.195312 42.398438 C 208.613281 42.933594 208.136719 43.3125 207.8125 43.554688 C 207.648438 43.671875 207.523438 43.753906 207.445312 43.808594 L 207.359375 43.863281 L 207.34375 43.875 L 207.484375 44.101562 L 207.347656 43.871094 L 207.34375 43.875 L 207.484375 44.101562 L 207.347656 43.871094 L 207.980469 44.929688 L 207.988281 43.699219 L 207.886719 43.699219 C 206.746094 43.699219 205.527344 43.84375 204.285156 44.070312 C 203.765625 44.167969 203.359375 44.59375 203.289062 45.121094 C 203.21875 45.648438 203.496094 46.160156 203.976562 46.394531 C 207.425781 48.054688 210.886719 49.824219 214.582031 51.230469 C 218.574219 52.753906 222.441406 53.226562 226.324219 53.460938 C 226.753906 53.488281 227.171875 53.28125 227.417969 52.925781 C 229.703125 49.582031 231.234375 45.777344 231.820312 41.855469 C 231.953125 40.976562 232.011719 40.0625 232.011719 39.117188 C 232 33.246094 229.789062 26.132812 227.609375 20.398438 C 225.421875 14.675781 223.242188 10.375 223.230469 10.351562 C 222.976562 9.851562 222.421875 9.585938 221.871094 9.703125 C 221.324219 9.824219 220.925781 10.292969 220.898438 10.855469 L 222.132812 10.90625 L 221.035156 11.464844 C 221.035156 11.464844 221.0625 11.527344 221.128906 11.648438 C 221.589844 12.582031 223.710938 16.945312 225.703125 22.339844 C 227.707031 27.730469 229.558594 34.1875 229.550781 39.117188 C 229.550781 39.960938 229.496094 40.753906 229.386719 41.492188 C 228.855469 45.023438 227.46875 48.488281 225.382812 51.535156 L 226.398438 52.230469 L 226.472656 51 C 222.683594 50.773438 219.109375 50.320312 215.457031 48.929688 C 211.929688 47.589844 208.53125 45.851562 205.042969 44.171875 L 204.511719 45.28125 L 204.730469 46.496094 C 205.875 46.285156 206.960938 46.160156 207.886719 46.160156 L 207.964844 46.160156 C 208.195312 46.160156 208.410156 46.101562 208.609375 45.988281 C 208.734375 45.910156 212.148438 43.84375 215.667969 38.433594 C 219.1875 33.027344 222.796875 24.285156 223.363281 10.960938 L 222.132812 10.90625 L 221.035156 11.464844 L 222.132812 10.90625 " fill-opacity="1" fill-rule="nonzero"/></svg>