<svg xmlns="http://www.w3.org/2000/svg" xmlns:xlink="http://www.w3.org/1999/xlink" width="60" zoomAndPan="magnify" viewBox="0 0 45 44.999999" height="60" preserveAspectRatio="xMidYMid meet" version="1.0"><defs><clipPath id="cd4538409b"><path d="M 0 32.046875 L 9.195312 32.046875 L 9.195312 40.609375 L 0 40.609375 Z M 0 32.046875 " clip-rule="nonzero"/></clipPath><clipPath id="539cf320bb"><path d="M 1.5 32.046875 L 7.695312 32.046875 C 8.523438 32.046875 9.195312 32.71875 9.195312 33.546875 L 9.195312 39.109375 C 9.195312 39.9375 8.523438 40.609375 7.695312 40.609375 L 1.5 40.609375 C 0.671875 40.609375 0 39.9375 0 39.109375 L 0 33.546875 C 0 32.71875 0.671875 32.046875 1.5 32.046875 Z M 1.5 32.046875 " clip-rule="nonzero"/></clipPath><clipPath id="795ab57053"><path d="M 0 0.046875 L 9.195312 0.046875 L 9.195312 8.609375 L 0 8.609375 Z M 0 0.046875 " clip-rule="nonzero"/></clipPath><clipPath id="8daa8e8b1e"><path d="M 1.5 0.046875 L 7.695312 0.046875 C 8.523438 0.046875 9.195312 0.71875 9.195312 1.546875 L 9.195312 7.109375 C 9.195312 7.9375 8.523438 8.609375 7.695312 8.609375 L 1.5 8.609375 C 0.671875 8.609375 0 7.9375 0 7.109375 L 0 1.546875 C 0 0.71875 0.671875 0.046875 1.5 0.046875 Z M 1.5 0.046875 " clip-rule="nonzero"/></clipPath><clipPath id="930fa7b69f"><rect x="0" width="10" y="0" height="9"/></clipPath><clipPath id="d77c446e67"><path d="M 32.035156 4.390625 L 45 4.390625 L 45 16.691406 L 32.035156 16.691406 Z M 32.035156 4.390625 " clip-rule="nonzero"/></clipPath><clipPath id="07a49340e5"><path d="M 33.535156 4.390625 L 43.5 4.390625 C 44.328125 4.390625 45 5.0625 45 5.890625 L 45 15.191406 C 45 16.019531 44.328125 16.691406 43.5 16.691406 L 33.535156 16.691406 C 32.707031 16.691406 32.035156 16.019531 32.035156 15.191406 L 32.035156 5.890625 C 32.035156 5.0625 32.707031 4.390625 33.535156 4.390625 Z M 33.535156 4.390625 " clip-rule="nonzero"/></clipPath><clipPath id="af4d39033b"><path d="M 0.0351562 0.390625 L 13 0.390625 L 13 12.691406 L 0.0351562 12.691406 Z M 0.0351562 0.390625 " clip-rule="nonzero"/></clipPath><clipPath id="be2555cbac"><path d="M 1.535156 0.390625 L 11.5 0.390625 C 12.328125 0.390625 13 1.0625 13 1.890625 L 13 11.191406 C 13 12.019531 12.328125 12.691406 11.5 12.691406 L 1.535156 12.691406 C 0.707031 12.691406 0.0351562 12.019531 0.0351562 11.191406 L 0.0351562 1.890625 C 0.0351562 1.0625 0.707031 0.390625 1.535156 0.390625 Z M 1.535156 0.390625 " clip-rule="nonzero"/></clipPath><clipPath id="187cc42d5c"><rect x="0" width="13" y="0" height="13"/></clipPath><clipPath id="ffcb13469b"><path d="M 10.675781 13.253906 L 30.222656 13.253906 L 30.222656 33.261719 L 10.675781 33.261719 Z M 10.675781 13.253906 " clip-rule="nonzero"/></clipPath><clipPath id="945ca1b292"><path d="M 12.175781 13.253906 L 28.722656 13.253906 C 29.550781 13.253906 30.222656 13.925781 30.222656 14.753906 L 30.222656 31.722656 C 30.222656 32.554688 29.550781 33.222656 28.722656 33.222656 L 12.175781 33.222656 C 11.347656 33.222656 10.675781 32.554688 10.675781 31.722656 L 10.675781 14.753906 C 10.675781 13.925781 11.347656 13.253906 12.175781 13.253906 Z M 12.175781 13.253906 " clip-rule="nonzero"/></clipPath><clipPath id="b34595f548"><path d="M 0.675781 0.253906 L 20.222656 0.253906 L 20.222656 20.261719 L 0.675781 20.261719 Z M 0.675781 0.253906 " clip-rule="nonzero"/></clipPath><clipPath id="5dfac63531"><path d="M 2.175781 0.253906 L 18.722656 0.253906 C 19.550781 0.253906 20.222656 0.925781 20.222656 1.753906 L 20.222656 18.722656 C 20.222656 19.554688 19.550781 20.222656 18.722656 20.222656 L 2.175781 20.222656 C 1.347656 20.222656 0.675781 19.554688 0.675781 18.722656 L 0.675781 1.753906 C 0.675781 0.925781 1.347656 0.253906 2.175781 0.253906 Z M 2.175781 0.253906 " clip-rule="nonzero"/></clipPath><clipPath id="30613358e4"><rect x="0" width="21" y="0" height="21"/></clipPath></defs><g clip-path="url(#cd4538409b)"><g clip-path="url(#539cf320bb)"><g transform="matrix(1, 0, 0, 1, 0, 32)"><g clip-path="url(#930fa7b69f)"><g clip-path="url(#795ab57053)"><g clip-path="url(#8daa8e8b1e)"><path fill="#ffffff" d="M 0 0.046875 L 9.195312 0.046875 L 9.195312 8.609375 L 0 8.609375 Z M 0 0.046875 " fill-opacity="1" fill-rule="nonzero"/></g></g></g></g></g></g><g clip-path="url(#d77c446e67)"><g clip-path="url(#07a49340e5)"><g transform="matrix(1, 0, 0, 1, 32, 4)"><g clip-path="url(#187cc42d5c)"><g clip-path="url(#af4d39033b)"><g clip-path="url(#be2555cbac)"><path fill="#ffffff" d="M 0.0351562 0.390625 L 13.007812 0.390625 L 13.007812 12.691406 L 0.0351562 12.691406 Z M 0.0351562 0.390625 " fill-opacity="1" fill-rule="nonzero"/></g></g></g></g></g></g><g clip-path="url(#ffcb13469b)"><g clip-path="url(#945ca1b292)"><g transform="matrix(1, 0, 0, 1, 10, 13)"><g clip-path="url(#30613358e4)"><g clip-path="url(#b34595f548)"><g clip-path="url(#5dfac63531)"><path fill="#ffffff" d="M 0.675781 0.253906 L 20.222656 0.253906 L 20.222656 20.261719 L 0.675781 20.261719 Z M 0.675781 0.253906 " fill-opacity="1" fill-rule="nonzero"/></g></g></g></g></g></g></svg>