<svg xmlns="http://www.w3.org/2000/svg" xmlns:xlink="http://www.w3.org/1999/xlink" width="60" zoomAndPan="magnify" viewBox="0 0 45 44.999999" height="60" preserveAspectRatio="xMidYMid meet" version="1.0"><path fill="#d9d9d9" d="M 16.988281 6.089844 C 16.988281 6.746094 17.15625 7.394531 17.53125 7.898438 C 17.578125 7.964844 17.632812 8.027344 17.671875 8.089844 C 17.304688 8.335938 17.535156 8.292969 17.089844 8.367188 C 16.246094 8.511719 15.949219 8.5625 15.230469 9.089844 C 15.0625 9.210938 14.800781 9.429688 14.648438 9.578125 C 14.609375 9.617188 14.585938 9.644531 14.546875 9.683594 C 14.507812 9.722656 14.476562 9.75 14.4375 9.789062 L 14.433594 9.796875 C 14.558594 9.730469 14.734375 9.671875 14.949219 9.648438 C 15.1875 9.621094 15.46875 9.621094 15.761719 9.632812 C 15.914062 9.640625 16.066406 9.644531 16.21875 9.660156 C 16.371094 9.671875 16.527344 9.683594 16.683594 9.699219 C 16.835938 9.710938 16.992188 9.726562 17.140625 9.734375 C 17.296875 9.75 17.445312 9.761719 17.582031 9.757812 C 17.648438 9.757812 17.714844 9.746094 17.78125 9.742188 C 17.847656 9.726562 17.910156 9.722656 17.96875 9.707031 C 18.089844 9.675781 18.203125 9.636719 18.304688 9.582031 C 18.402344 9.535156 18.488281 9.480469 18.558594 9.417969 C 18.628906 9.363281 18.6875 9.300781 18.730469 9.253906 C 18.820312 9.148438 18.859375 9.082031 18.859375 9.082031 C 18.859375 9.082031 18.84375 9.15625 18.777344 9.285156 C 18.746094 9.347656 18.703125 9.421875 18.636719 9.5 C 18.574219 9.574219 18.492188 9.65625 18.390625 9.726562 C 18.292969 9.804688 18.171875 9.867188 18.035156 9.917969 C 17.964844 9.941406 17.894531 9.957031 17.820312 9.980469 C 17.75 9.992188 17.671875 10.007812 17.597656 10.011719 C 17.4375 10.027344 17.28125 10.03125 17.125 10.023438 C 16.96875 10.011719 16.8125 10.003906 16.65625 9.992188 C 16.5 9.972656 16.347656 9.957031 16.191406 9.941406 C 16.035156 9.929688 15.886719 9.90625 15.742188 9.890625 C 15.453125 9.855469 15.183594 9.828125 14.957031 9.816406 C 14.726562 9.808594 14.539062 9.820312 14.410156 9.859375 C 14.394531 9.867188 14.378906 9.871094 14.367188 9.875 C 14.355469 9.886719 14.347656 9.898438 14.335938 9.910156 C 14.292969 9.953125 14.277344 9.980469 14.238281 10.027344 C 14.203125 10.066406 14.175781 10.105469 14.144531 10.144531 C 14.023438 10.304688 13.65625 10.757812 13.621094 10.917969 L 14.074219 10.898438 C 14.28125 10.898438 14.574219 10.929688 14.742188 10.96875 C 14.726562 11.03125 14.675781 11.074219 14.632812 11.121094 C 14.347656 11.472656 14.085938 11.839844 13.816406 12.203125 C 13.507812 12.617188 13.234375 13.066406 12.964844 13.511719 C 12.800781 13.789062 12.628906 14.070312 12.484375 14.363281 C 12.132812 15.066406 11.839844 15.644531 11.53125 16.414062 C 11.164062 17.332031 10.863281 18.320312 10.632812 19.300781 C 10.597656 19.445312 10.574219 19.59375 10.535156 19.75 C 10.242188 21.015625 10.125 22.648438 10.125 23.957031 C 10.125 25.472656 10.699219 26.945312 11.566406 28.097656 L 12.242188 28.914062 C 12.304688 28.992188 12.359375 29.042969 12.429688 29.113281 C 13.023438 29.707031 13.671875 30.257812 14.394531 30.691406 C 14.5 30.757812 14.546875 30.765625 14.566406 30.890625 C 14.765625 32.148438 14.453125 33.46875 13.554688 34.367188 L 12.527344 35.324219 C 12.097656 35.769531 11.699219 36.351562 11.378906 36.882812 C 11.003906 37.507812 10.496094 38.570312 10.496094 39.261719 C 10.496094 39.511719 10.496094 39.765625 10.65625 39.957031 C 10.699219 40.007812 10.746094 40.027344 10.777344 40.070312 C 10.71875 40.082031 10.617188 40.136719 10.558594 40.167969 C 10.484375 40.210938 10.421875 40.246094 10.347656 40.289062 C 10.140625 40.414062 9.945312 40.53125 9.753906 40.679688 L 9.378906 40.972656 C 9.238281 41.078125 9.007812 41.316406 8.886719 41.460938 C 8.777344 41.585938 8.691406 41.703125 8.601562 41.84375 C 8.429688 42.117188 8.257812 42.441406 8.230469 42.789062 L 12.601562 42.789062 C 12.667969 42.652344 12.722656 42.210938 12.722656 42 C 12.722656 41.664062 12.640625 41.175781 12.496094 40.875 C 13.097656 40.875 13.671875 40.539062 13.671875 39.894531 C 13.671875 39.21875 13.304688 38.945312 13.304688 38.242188 C 13.304688 37.640625 13.8125 37.171875 14.160156 36.851562 L 14.683594 36.378906 C 14.738281 36.324219 14.773438 36.308594 14.824219 36.253906 L 15.363281 35.792969 C 15.726562 35.484375 16.09375 35.179688 16.433594 34.84375 C 16.746094 34.53125 16.855469 34.351562 17.117188 34 C 17.265625 33.804688 17.367188 33.609375 17.546875 33.429688 C 18.054688 32.921875 18.644531 32.496094 19.207031 32.054688 C 19.402344 31.902344 19.589844 31.777344 19.792969 31.640625 C 20 31.5 20.214844 31.382812 20.429688 31.257812 C 20.640625 31.136719 20.867188 31.011719 21.09375 30.921875 C 21.152344 30.898438 21.199219 30.875 21.257812 30.84375 L 21.609375 30.683594 C 21.660156 30.660156 21.75 30.621094 21.796875 30.609375 C 21.75 30.671875 21.0625 31.058594 20.929688 31.144531 C 20.855469 31.199219 20.792969 31.230469 20.71875 31.28125 C 20.503906 31.425781 20.285156 31.566406 20.089844 31.726562 C 19.644531 32.09375 19.195312 32.484375 18.890625 32.984375 C 18.847656 33.058594 18.78125 33.144531 18.761719 33.222656 L 18.980469 33.304688 C 19.066406 33.335938 19.136719 33.355469 19.222656 33.378906 C 19.390625 33.421875 19.574219 33.460938 19.746094 33.484375 C 20.273438 33.558594 20.855469 33.574219 21.410156 33.574219 C 21.972656 33.574219 22.636719 33.386719 23.0625 33.242188 C 24.648438 32.714844 26.050781 32.03125 27.800781 32.03125 L 28.679688 32.046875 C 28.820312 32.046875 28.945312 32.082031 29.097656 32.082031 C 28.734375 31.390625 28.390625 30.636719 28.257812 29.835938 C 28.234375 29.703125 28.203125 29.535156 28.203125 29.378906 C 28.207031 29.21875 28.183594 29.167969 28.203125 29.027344 C 28.207031 28.980469 28.203125 28.933594 28.203125 28.886719 C 28.261719 28.976562 28.273438 29.136719 28.285156 29.226562 C 28.445312 30.160156 28.578125 30.324219 28.96875 31.125 L 29.613281 32.199219 L 30.558594 33.429688 C 30.597656 33.46875 30.628906 33.496094 30.664062 33.535156 L 30.980469 33.867188 C 31.054688 33.941406 31.117188 34.007812 31.191406 34.078125 L 31.640625 34.488281 C 31.878906 34.683594 32.230469 34.769531 32.449219 34.984375 L 32.753906 35.308594 C 32.863281 35.414062 32.988281 35.503906 33.105469 35.605469 C 33.523438 35.976562 34.054688 36.242188 34.644531 36.242188 C 34.683594 36.316406 34.730469 36.378906 34.769531 36.453125 C 34.808594 36.527344 34.839844 36.59375 34.878906 36.675781 C 35.230469 37.375 35.359375 38.277344 35.164062 39.042969 C 35.097656 39.316406 34.816406 40.058594 34.609375 40.210938 C 34.53125 40.269531 34.445312 40.316406 34.355469 40.378906 C 34.265625 40.441406 34.195312 40.5 34.109375 40.566406 C 33.4375 41.09375 32.855469 41.878906 32.855469 42.789062 L 36.332031 42.789062 L 36.332031 40.875 C 36.574219 40.875 36.667969 40.945312 36.917969 40.78125 C 37.277344 40.546875 37.253906 39.992188 37.160156 39.625 C 37.09375 39.378906 36.984375 39.140625 36.867188 38.917969 C 36.316406 37.824219 36.84375 37.746094 37.273438 36.886719 C 37.382812 36.664062 37.472656 36.476562 37.550781 36.214844 C 37.835938 35.199219 37.636719 34.363281 36.988281 33.546875 C 36.765625 33.265625 36.277344 32.792969 35.960938 32.628906 C 36.011719 32.527344 36.050781 32.417969 36.097656 32.304688 C 36.625 30.992188 37.078125 28.871094 36.148438 27.632812 C 35.8125 27.183594 35.300781 26.902344 34.789062 26.691406 L 31.855469 25.480469 C 31.425781 25.304688 31.011719 25.089844 30.582031 24.914062 C 30.203125 24.757812 29.722656 24.484375 29.351562 24.300781 C 28.550781 23.90625 27.472656 23.25 26.769531 22.722656 L 26.121094 22.234375 C 25.851562 22.011719 25.488281 21.738281 25.242188 21.496094 L 23.882812 20.082031 C 23.84375 20.039062 23.8125 20 23.777344 19.957031 C 23.226562 19.261719 22.71875 18.535156 22.308594 17.742188 L 22.082031 17.285156 C 22.054688 17.222656 22.035156 17.183594 22.007812 17.128906 C 21.984375 17.078125 21.964844 17.023438 21.9375 16.972656 C 21.730469 16.546875 21.429688 15.703125 21.324219 15.25 C 21.414062 15.207031 21.539062 15.195312 21.644531 15.132812 C 21.785156 15.042969 21.921875 14.960938 22.046875 14.851562 L 22.613281 14.277344 C 22.648438 14.226562 22.675781 14.199219 22.714844 14.152344 C 22.753906 14.105469 22.78125 14.070312 22.820312 14.023438 C 22.886719 13.941406 22.953125 13.851562 23.011719 13.761719 C 23.347656 13.269531 24.03125 12.382812 24.527344 12.082031 C 24.941406 11.828125 25.4375 11.785156 25.882812 12.011719 C 26.429688 12.285156 26.578125 12.40625 27.003906 11.558594 C 27.257812 11.058594 27.339844 10.351562 27.152344 9.789062 C 27.101562 9.628906 27.007812 9.476562 26.933594 9.324219 C 26.589844 8.628906 26.011719 8.382812 25.242188 8.277344 C 25.054688 8.253906 24.800781 8.253906 24.601562 8.234375 C 24.496094 8.222656 24.367188 8.242188 24.257812 8.226562 C 23.226562 8.117188 22.339844 7.664062 21.398438 7.296875 C 21.226562 7.230469 21.070312 7.179688 20.890625 7.117188 C 20.714844 7.058594 20.535156 7.015625 20.339844 6.984375 C 20.125 6.949219 19.933594 6.949219 19.675781 6.949219 C 19.644531 6.890625 19.652344 6.90625 19.609375 6.855469 C 19.574219 6.820312 19.570312 6.804688 19.539062 6.769531 C 19.492188 6.71875 19.402344 6.648438 19.371094 6.601562 C 19.277344 6.453125 19.289062 6.003906 19.289062 5.792969 C 19.289062 5.101562 19.574219 4.253906 19.808594 3.785156 L 20.257812 2.96875 C 20.382812 2.757812 20.710938 2.339844 20.78125 2.210938 C 20.566406 2.261719 19.417969 2.875 19.191406 3.011719 C 18.542969 3.402344 17.757812 3.898438 17.398438 4.570312 C 17.183594 4.96875 16.988281 5.484375 16.988281 6.089844 Z M 15.535156 29.351562 C 15.425781 29.359375 15.265625 29.335938 15.054688 29.300781 C 14.957031 29.273438 14.84375 29.25 14.71875 29.210938 C 14.601562 29.164062 14.46875 29.125 14.339844 29.054688 C 14.066406 28.933594 13.789062 28.757812 13.5 28.539062 C 13.210938 28.320312 12.921875 28.050781 12.648438 27.746094 C 12.371094 27.441406 12.097656 27.101562 11.847656 26.722656 C 11.785156 26.632812 11.71875 26.539062 11.664062 26.4375 L 11.574219 26.292969 L 11.484375 26.132812 C 11.433594 26.03125 11.378906 25.941406 11.324219 25.832031 C 11.277344 25.71875 11.230469 25.605469 11.175781 25.496094 C 10.996094 25.039062 10.863281 24.570312 10.777344 24.085938 C 10.699219 23.609375 10.664062 23.121094 10.667969 22.648438 C 10.675781 22.171875 10.714844 21.710938 10.777344 21.269531 C 10.847656 20.828125 10.9375 20.40625 11.035156 20.011719 C 11.085938 19.8125 11.136719 19.625 11.1875 19.441406 C 11.246094 19.257812 11.292969 19.085938 11.359375 18.914062 C 11.417969 18.75 11.472656 18.59375 11.527344 18.441406 C 11.59375 18.289062 11.65625 18.148438 11.714844 18.015625 C 11.832031 17.75 11.964844 17.539062 12.0625 17.355469 C 12.164062 17.175781 12.257812 17.042969 12.3125 16.953125 C 12.375 16.863281 12.410156 16.8125 12.410156 16.8125 C 12.410156 16.8125 12.332031 17.035156 12.195312 17.417969 C 12.160156 17.515625 12.128906 17.621094 12.09375 17.734375 C 12.058594 17.851562 12.011719 17.976562 11.980469 18.113281 C 11.945312 18.246094 11.910156 18.386719 11.871094 18.539062 C 11.835938 18.695312 11.800781 18.859375 11.761719 19.03125 C 11.699219 19.359375 11.636719 19.734375 11.574219 20.121094 C 11.511719 20.507812 11.46875 20.917969 11.425781 21.347656 C 11.394531 21.769531 11.378906 22.203125 11.382812 22.644531 C 11.394531 23.085938 11.429688 23.527344 11.503906 23.960938 C 11.574219 24.402344 11.695312 24.828125 11.839844 25.230469 C 11.878906 25.324219 11.921875 25.421875 11.957031 25.519531 C 12 25.617188 12.054688 25.722656 12.101562 25.820312 L 12.164062 25.960938 L 12.242188 26.101562 C 12.292969 26.199219 12.347656 26.289062 12.398438 26.378906 C 12.613281 26.746094 12.835938 27.085938 13.070312 27.394531 C 13.304688 27.703125 13.535156 27.988281 13.777344 28.21875 C 13.832031 28.285156 13.898438 28.335938 13.953125 28.390625 C 14.015625 28.445312 14.074219 28.496094 14.132812 28.546875 C 14.191406 28.59375 14.253906 28.640625 14.304688 28.691406 C 14.363281 28.730469 14.421875 28.773438 14.476562 28.8125 C 14.589844 28.898438 14.707031 28.949219 14.800781 29.015625 C 14.90625 29.070312 15.007812 29.117188 15.101562 29.164062 C 15.191406 29.195312 15.273438 29.230469 15.34375 29.257812 C 15.417969 29.285156 15.492188 29.292969 15.542969 29.308594 C 15.648438 29.335938 15.703125 29.351562 15.703125 29.351562 C 15.703125 29.351562 15.648438 29.351562 15.535156 29.351562 Z M 21.695312 9.074219 C 21.695312 9.074219 21.523438 9.019531 21.417969 9.089844 C 21.417969 9.089844 20.835938 9.847656 19.859375 8.671875 C 19.859375 8.671875 20.761719 8.191406 21.695312 9.074219 Z M 20.105469 13.753906 C 20.011719 13.726562 19.933594 13.679688 19.851562 13.640625 C 19.78125 13.582031 19.707031 13.539062 19.65625 13.480469 C 19.625 13.449219 19.597656 13.417969 19.574219 13.394531 C 19.550781 13.363281 19.53125 13.332031 19.511719 13.300781 C 19.492188 13.273438 19.46875 13.246094 19.457031 13.21875 C 19.441406 13.1875 19.429688 13.160156 19.417969 13.132812 C 19.363281 13.023438 19.339844 12.914062 19.316406 12.839844 C 19.304688 12.757812 19.300781 12.695312 19.296875 12.65625 C 19.292969 12.609375 19.292969 12.585938 19.292969 12.585938 C 19.292969 12.5625 19.308594 12.542969 19.332031 12.542969 C 19.347656 12.542969 19.363281 12.546875 19.371094 12.558594 C 19.371094 12.558594 19.386719 12.574219 19.410156 12.605469 C 19.4375 12.644531 19.472656 12.695312 19.523438 12.753906 C 19.574219 12.8125 19.617188 12.878906 19.695312 12.945312 C 19.726562 12.980469 19.761719 13.011719 19.808594 13.042969 C 19.828125 13.0625 19.847656 13.078125 19.867188 13.09375 C 19.886719 13.105469 19.910156 13.117188 19.9375 13.132812 C 20.023438 13.183594 20.125 13.226562 20.238281 13.242188 C 20.347656 13.261719 20.472656 13.257812 20.609375 13.238281 C 20.738281 13.21875 20.886719 13.183594 21.035156 13.125 C 21.179688 13.074219 21.328125 13.003906 21.476562 12.929688 C 21.625 12.855469 21.769531 12.765625 21.910156 12.679688 C 22.050781 12.585938 22.191406 12.503906 22.324219 12.410156 C 22.457031 12.316406 22.582031 12.222656 22.703125 12.140625 C 22.824219 12.046875 22.933594 11.964844 23.039062 11.886719 C 23.25 11.726562 23.421875 11.59375 23.546875 11.5 C 23.667969 11.40625 23.738281 11.351562 23.738281 11.351562 C 23.753906 11.335938 23.785156 11.339844 23.796875 11.359375 C 23.808594 11.371094 23.808594 11.394531 23.800781 11.410156 C 23.800781 11.410156 23.75 11.480469 23.660156 11.609375 C 23.566406 11.734375 23.429688 11.910156 23.253906 12.113281 C 23.070312 12.3125 22.855469 12.542969 22.601562 12.761719 C 22.347656 12.992188 22.058594 13.210938 21.738281 13.402344 C 21.582031 13.5 21.410156 13.582031 21.230469 13.652344 C 21.058594 13.722656 20.867188 13.777344 20.675781 13.800781 C 20.488281 13.824219 20.285156 13.808594 20.105469 13.753906 Z M 20.105469 13.753906 " fill-opacity="1" fill-rule="evenodd"/><path fill="#d9d9d9" d="M 5.070312 29.644531 C 5.070312 30.203125 5.378906 30.707031 5.628906 31.125 C 6.117188 31.941406 7.089844 33.125 7.089844 34.011719 C 7.089844 34.265625 7.015625 34.542969 6.964844 34.785156 C 6.917969 35.011719 6.921875 35.222656 6.996094 35.441406 C 7.136719 35.84375 7.445312 35.945312 7.84375 35.945312 C 7.753906 36.136719 7.738281 36.664062 7.738281 36.925781 C 7.738281 37.429688 7.957031 37.988281 8.210938 38.332031 C 8.332031 38.5 8.421875 38.609375 8.578125 38.738281 C 8.828125 38.953125 8.746094 38.984375 9.167969 38.707031 L 9.492188 38.449219 C 9.664062 38.273438 9.753906 38.203125 9.90625 38.003906 C 9.953125 37.941406 9.992188 37.898438 10.035156 37.835938 C 10.304688 37.480469 10.488281 37.148438 10.6875 36.75 C 10.714844 36.703125 10.863281 36.390625 10.863281 36.347656 C 10.863281 36.238281 10.457031 35.871094 10.324219 35.765625 C 10.085938 35.570312 9.917969 35.460938 9.65625 35.292969 L 9.179688 35.015625 C 9.414062 34.664062 9.46875 34.355469 9.421875 33.890625 C 9.410156 33.777344 9.410156 33.757812 9.320312 33.714844 C 9.25 33.679688 9.21875 33.664062 9.15625 33.613281 C 8.855469 33.390625 8.59375 33.027344 8.425781 32.699219 C 8.390625 32.628906 8.359375 32.585938 8.324219 32.515625 C 8.289062 32.449219 8.273438 32.402344 8.242188 32.335938 C 8.164062 32.164062 7.875 31.496094 7.863281 31.328125 C 8.097656 31.273438 8.324219 31.210938 8.578125 31.167969 C 9.285156 31.050781 9.398438 31.007812 10.105469 31.175781 C 11.199219 31.433594 12.253906 31.722656 13.414062 31.335938 C 13.761719 31.21875 13.820312 31.183594 14.117188 31.035156 C 14.21875 30.984375 14.304688 30.953125 14.320312 30.890625 C 14.175781 30.855469 13.796875 30.644531 13.660156 30.566406 C 13.25 30.320312 12.613281 29.875 12.21875 29.554688 C 11.914062 29.304688 11.582031 29.015625 11.332031 28.71875 C 11.292969 28.667969 11.25 28.640625 11.210938 28.59375 C 11.167969 28.539062 11.140625 28.511719 11.097656 28.460938 L 10.777344 28.042969 C 10.710938 27.953125 10.640625 27.851562 10.578125 27.75 L 10.214844 27.117188 C 10.121094 27.136719 9.882812 27.144531 9.773438 27.152344 C 9.390625 27.175781 8.914062 27.289062 8.5625 27.375 C 8.046875 27.503906 7.601562 27.6875 7.144531 27.875 C 6.570312 28.109375 5.429688 28.757812 5.164062 29.246094 C 5.105469 29.351562 5.070312 29.488281 5.070312 29.644531 Z M 5.070312 29.644531 " fill-opacity="1" fill-rule="evenodd"/><path fill="#d9d9d9" d="M 24.992188 17.007812 C 24.992188 17.535156 25.125 18.015625 25.324219 18.394531 C 24.871094 18.285156 25.480469 19.238281 25.542969 19.332031 C 25.683594 19.542969 25.667969 19.507812 25.808594 19.683594 C 26.046875 19.996094 26.535156 20.308594 26.945312 20.40625 C 27.117188 20.449219 27.292969 20.464844 27.480469 20.445312 C 27.589844 20.433594 27.746094 20.378906 27.84375 20.328125 C 28 20.25 27.898438 20.238281 28.140625 20.351562 C 28.429688 20.488281 28.695312 20.566406 28.988281 20.664062 C 29.757812 20.921875 31.054688 21.078125 31.847656 20.964844 C 32.222656 20.910156 32.460938 20.902344 32.878906 20.824219 C 33.53125 20.699219 34.234375 20.566406 34.882812 20.472656 C 35.589844 20.367188 36.488281 20.269531 37.15625 20.605469 C 37.613281 20.835938 38.015625 21.269531 38.015625 21.832031 C 38.015625 22.246094 37.921875 22.589844 37.800781 22.953125 C 37.671875 23.339844 37.308594 23.921875 37 24.171875 C 36.949219 24.210938 36.921875 24.238281 36.878906 24.277344 C 35.742188 25.199219 34.105469 25.1875 32.605469 24.976562 C 32.519531 24.964844 32.453125 24.957031 32.378906 24.941406 C 32.308594 24.925781 32.214844 24.90625 32.136719 24.90625 C 32.023438 24.90625 31.976562 25.046875 32.074219 25.125 C 32.125 25.167969 32.804688 25.464844 32.902344 25.507812 C 33.292969 25.675781 33.671875 25.804688 34.089844 25.949219 C 34.601562 26.128906 35.308594 26.433594 35.75 26.730469 C 35.835938 26.785156 35.90625 26.832031 35.988281 26.894531 C 36.035156 26.929688 36.195312 27.0625 36.242188 27.0625 C 36.546875 27.0625 37.109375 26.8125 37.40625 26.648438 C 37.691406 26.492188 38.074219 26.199219 38.308594 25.972656 L 38.558594 25.695312 C 39.011719 25.105469 39.214844 24.855469 39.539062 24.042969 C 39.835938 23.304688 39.929688 22.832031 39.929688 22.027344 C 39.929688 20.703125 38.917969 19.648438 37.78125 19.257812 C 36.726562 18.898438 35.175781 18.988281 34.105469 19.238281 C 33.910156 19.285156 33.730469 19.332031 33.527344 19.382812 C 32.828125 19.558594 32.136719 19.746094 31.398438 19.742188 C 31.109375 19.742188 31.109375 19.777344 30.714844 19.746094 C 30.597656 19.734375 30.460938 19.753906 30.347656 19.742188 C 29.796875 19.699219 29.601562 19.679688 29.0625 19.589844 C 28.84375 19.554688 28.664062 19.492188 28.46875 19.445312 L 28.484375 19.183594 C 28.484375 18.421875 27.886719 17.855469 27.164062 17.675781 C 26.785156 17.582031 26.277344 17.609375 25.902344 17.519531 C 25.710938 17.472656 25.558594 17.398438 25.433594 17.285156 C 25.214844 17.082031 25.246094 16.882812 25.113281 16.882812 C 25.035156 16.882812 24.992188 16.925781 24.992188 17.007812 Z M 24.992188 17.007812 " fill-opacity="1" fill-rule="evenodd"/><path fill="#d9d9d9" d="M 26.359375 32.558594 C 26.375 32.597656 26.371094 32.582031 26.398438 32.605469 C 26.460938 32.664062 26.804688 32.925781 26.925781 33.042969 L 27.445312 33.578125 C 27.621094 33.777344 27.613281 33.78125 27.761719 33.980469 C 27.964844 34.253906 28.132812 34.601562 28.230469 34.9375 C 28.46875 35.777344 28.183594 36.445312 27.816406 37.171875 C 27.660156 37.492188 27.589844 37.578125 27.433594 37.839844 C 27.285156 38.085938 26.855469 38.640625 26.664062 38.863281 C 26.488281 39.0625 26.097656 39.476562 26.097656 39.753906 C 26.097656 39.925781 26.300781 40.003906 26.34375 40.070312 C 26.21875 40.097656 25.621094 40.476562 25.507812 40.550781 C 25.394531 40.625 25.050781 40.878906 24.953125 40.976562 C 24.785156 41.144531 24.691406 41.191406 24.460938 41.46875 C 24.253906 41.714844 24.070312 41.96875 23.949219 42.273438 C 23.871094 42.464844 23.804688 42.777344 23.796875 42.789062 L 28.1875 42.789062 C 28.195312 42.699219 28.238281 42.570312 28.253906 42.472656 C 28.40625 41.574219 28.09375 41.003906 28.082031 40.875 C 28.902344 40.875 29.269531 40.398438 29.273438 39.628906 L 29.359375 38.503906 C 29.40625 38.128906 29.480469 37.816406 29.601562 37.515625 C 29.863281 36.855469 30.363281 36.414062 31.019531 36.195312 C 31.101562 36.167969 31.164062 36.15625 31.246094 36.125 C 31.71875 35.960938 32.066406 35.652344 32.066406 35.101562 C 31.5625 34.835938 31.476562 34.785156 31.023438 34.441406 C 30.9375 34.378906 30.875 34.3125 30.792969 34.25 C 30.492188 34.015625 30.003906 33.445312 29.773438 33.128906 L 29.601562 32.878906 C 29.546875 32.78125 29.484375 32.703125 29.433594 32.609375 C 29.34375 32.449219 29.371094 32.480469 29.164062 32.457031 C 28.453125 32.367188 27.675781 32.316406 26.957031 32.417969 C 26.738281 32.449219 26.558594 32.511719 26.359375 32.558594 Z M 26.359375 32.558594 " fill-opacity="1" fill-rule="evenodd"/><path fill="#d9d9d9" d="M 22.21875 7.230469 C 22.269531 7.296875 23.074219 7.648438 23.15625 7.679688 C 23.46875 7.800781 23.671875 7.839844 24.003906 7.886719 C 24.066406 7.894531 24.253906 7.914062 24.324219 7.914062 L 24.457031 7.679688 C 24.570312 7.492188 24.730469 7.019531 24.730469 6.792969 C 24.730469 6.058594 24.621094 5.777344 24.410156 5.144531 C 24.25 4.652344 24.121094 4.4375 23.949219 4.027344 L 23.902344 3.949219 L 23.851562 4.511719 C 23.804688 5.007812 23.65625 5.5625 23.46875 5.988281 C 23.304688 6.375 22.957031 6.914062 22.617188 7.15625 C 22.570312 7.191406 22.578125 7.1875 22.503906 7.203125 C 22.460938 7.210938 22.277344 7.230469 22.21875 7.230469 Z M 22.21875 7.230469 " fill-opacity="1" fill-rule="evenodd"/></svg>