<svg xmlns="http://www.w3.org/2000/svg" xmlns:xlink="http://www.w3.org/1999/xlink" width="60" zoomAndPan="magnify" viewBox="0 0 45 44.999999" height="60" preserveAspectRatio="xMidYMid meet" version="1.0"><defs><clipPath id="19b7383d7b"><path d="M 0 0.261719 L 45 0.261719 L 45 45 L 0 45 Z M 0 0.261719 " clip-rule="nonzero"/></clipPath><clipPath id="681670bb6d"><path d="M 3 0.261719 L 42 0.261719 C 42.796875 0.261719 43.558594 0.578125 44.121094 1.140625 C 44.683594 1.703125 45 2.464844 45 3.261719 L 45 42 C 45 42.796875 44.683594 43.558594 44.121094 44.121094 C 43.558594 44.683594 42.796875 45 42 45 L 3 45 C 2.203125 45 1.441406 44.683594 0.878906 44.121094 C 0.316406 43.558594 0 42.796875 0 42 L 0 3.261719 C 0 2.464844 0.316406 1.703125 0.878906 1.140625 C 1.441406 0.578125 2.203125 0.261719 3 0.261719 Z M 3 0.261719 " clip-rule="nonzero"/></clipPath><clipPath id="697667de7f"><path d="M 0 0.261719 L 45 0.261719 L 45 45 L 0 45 Z M 0 0.261719 " clip-rule="nonzero"/></clipPath><clipPath id="2c953509da"><path d="M 3 0.261719 L 42 0.261719 C 42.796875 0.261719 43.558594 0.578125 44.121094 1.140625 C 44.683594 1.703125 45 2.464844 45 3.261719 L 45 42 C 45 42.796875 44.683594 43.558594 44.121094 44.121094 C 43.558594 44.683594 42.796875 45 42 45 L 3 45 C 2.203125 45 1.441406 44.683594 0.878906 44.121094 C 0.316406 43.558594 0 42.796875 0 42 L 0 3.261719 C 0 2.464844 0.316406 1.703125 0.878906 1.140625 C 1.441406 0.578125 2.203125 0.261719 3 0.261719 Z M 3 0.261719 " clip-rule="nonzero"/></clipPath><clipPath id="d9de46c71a"><rect x="0" width="45" y="0" height="45"/></clipPath><clipPath id="a55fbf60e7"><path d="M 4.0625 7.628906 L 39.3125 7.628906 L 39.3125 37.628906 L 4.0625 37.628906 Z M 4.0625 7.628906 " clip-rule="nonzero"/></clipPath></defs><g clip-path="url(#19b7383d7b)"><g clip-path="url(#681670bb6d)"><g transform="matrix(1, 0, 0, 1, 0, 0)"><g clip-path="url(#d9de46c71a)"><g clip-path="url(#697667de7f)"><g clip-path="url(#2c953509da)"><path fill="#eceff1" d="M 0 0.261719 L 45.085938 0.261719 L 45.085938 45 L 0 45 Z M 0 0.261719 " fill-opacity="1" fill-rule="nonzero"/></g></g></g></g></g></g><g clip-path="url(#a55fbf60e7)"><path fill="#2a2a2a" d="M 24.789062 16.632812 L 4.074219 37.347656 L 4.074219 28.359375 L 24.789062 7.628906 Z M 18.414062 28.328125 L 18.414062 37.347656 L 32.753906 23.023438 L 32.753906 37.347656 L 39.128906 30.972656 L 39.128906 7.628906 Z M 18.414062 28.328125 " fill-opacity="1" fill-rule="nonzero"/></g></svg>