<svg xmlns="http://www.w3.org/2000/svg" xmlns:xlink="http://www.w3.org/1999/xlink" width="60" zoomAndPan="magnify" viewBox="0 0 45 44.999999" height="60" preserveAspectRatio="xMidYMid meet" version="1.0"><defs><clipPath id="eff5089c52"><path d="M 0.453125 17.449219 L 9.460938 17.449219 L 9.460938 45 L 0.453125 45 Z M 0.453125 17.449219 " clip-rule="nonzero"/></clipPath><clipPath id="629a769cb7"><path d="M 0.453125 26.074219 L 9.425781 17.449219 L 9.425781 45 L 0.453125 45 Z M 0.453125 26.074219 " clip-rule="nonzero"/></clipPath><clipPath id="5b9abfaa80"><path d="M 0.453125 0.449219 L 9.460938 0.449219 L 9.460938 28 L 0.453125 28 Z M 0.453125 0.449219 " clip-rule="nonzero"/></clipPath><clipPath id="547cbc5d00"><path d="M 0.453125 9.074219 L 9.425781 0.449219 L 9.425781 28 L 0.453125 28 Z M 0.453125 9.074219 " clip-rule="nonzero"/></clipPath><clipPath id="c45970eae2"><rect x="0" width="10" y="0" height="28"/></clipPath><clipPath id="d890d5077d"><path d="M 18.046875 0 L 27.0625 0 L 27.0625 32.992188 L 18.046875 32.992188 Z M 18.046875 0 " clip-rule="nonzero"/></clipPath><clipPath id="35ea58a24e"><path d="M 18.046875 24.214844 L 18.046875 8.859375 L 27.0625 0 L 27.0625 32.976562 Z M 18.046875 24.214844 " clip-rule="nonzero"/></clipPath><clipPath id="c2888f078a"><path d="M 0.046875 0 L 9.0625 0 L 9.0625 32.992188 L 0.046875 32.992188 Z M 0.046875 0 " clip-rule="nonzero"/></clipPath><clipPath id="44d103675d"><path d="M 0.046875 24.214844 L 0.046875 8.859375 L 9.0625 0 L 9.0625 32.976562 Z M 0.046875 24.214844 " clip-rule="nonzero"/></clipPath><clipPath id="b2e29e2983"><rect x="0" width="10" y="0" height="33"/></clipPath><clipPath id="dba41dd9fa"><path d="M 18.046875 35.886719 L 27.0625 35.886719 L 27.0625 45 L 18.046875 45 Z M 18.046875 35.886719 " clip-rule="nonzero"/></clipPath><clipPath id="547f415360"><path d="M 18.046875 35.886719 L 18.046875 45 L 27.0625 45 Z M 18.046875 35.886719 " clip-rule="nonzero"/></clipPath><clipPath id="76e02d37cd"><path d="M 0.046875 0.886719 L 9.0625 0.886719 L 9.0625 10 L 0.046875 10 Z M 0.046875 0.886719 " clip-rule="nonzero"/></clipPath><clipPath id="521f61613a"><path d="M 0.046875 0.886719 L 0.046875 10 L 9.0625 10 Z M 0.046875 0.886719 " clip-rule="nonzero"/></clipPath><clipPath id="ea91c74bdb"><rect x="0" width="10" y="0" height="10"/></clipPath><clipPath id="93aac4eb07"><path d="M 35.574219 7.867188 L 44.582031 7.867188 L 44.582031 45 L 35.574219 45 Z M 35.574219 7.867188 " clip-rule="nonzero"/></clipPath><clipPath id="06ee575051"><path d="M 44.546875 16.488281 L 35.574219 7.867188 L 35.574219 45 L 44.546875 45 Z M 44.546875 16.488281 " clip-rule="nonzero"/></clipPath><clipPath id="3dd37f2515"><path d="M 0.574219 0.867188 L 9.582031 0.867188 L 9.582031 38 L 0.574219 38 Z M 0.574219 0.867188 " clip-rule="nonzero"/></clipPath><clipPath id="7c5a5073a3"><path d="M 9.546875 9.488281 L 0.574219 0.867188 L 0.574219 38 L 9.546875 38 Z M 9.546875 9.488281 " clip-rule="nonzero"/></clipPath><clipPath id="e61244c2ac"><rect x="0" width="10" y="0" height="38"/></clipPath><clipPath id="d7b9f13ab0"><rect x="0" width="45" y="0" height="45"/></clipPath></defs><g transform="matrix(1, 0, 0, 1, -0.000000000000000028, 0)"><g clip-path="url(#d7b9f13ab0)"><g clip-path="url(#eff5089c52)"><g clip-path="url(#629a769cb7)"><g transform="matrix(1, 0, 0, 1, -0.000000000000000028, 17)"><g clip-path="url(#c45970eae2)"><g clip-path="url(#5b9abfaa80)"><g clip-path="url(#547cbc5d00)"><path fill="#ef7f25" d="M 0.453125 0.449219 L 9.425781 0.449219 L 9.425781 28 L 0.453125 28 Z M 0.453125 0.449219 " fill-opacity="1" fill-rule="nonzero"/></g></g></g></g></g></g><g clip-path="url(#d890d5077d)"><g clip-path="url(#35ea58a24e)"><g transform="matrix(1, 0, 0, 1, 18, 0)"><g clip-path="url(#b2e29e2983)"><g clip-path="url(#c2888f078a)"><g clip-path="url(#44d103675d)"><path fill="#ef7f25" d="M 0.046875 0 L 9.0625 0 L 9.0625 32.992188 L 0.046875 32.992188 Z M 0.046875 0 " fill-opacity="1" fill-rule="nonzero"/></g></g></g></g></g></g><g clip-path="url(#dba41dd9fa)"><g clip-path="url(#547f415360)"><g transform="matrix(1, 0, 0, 1, 18, 35)"><g clip-path="url(#ea91c74bdb)"><g clip-path="url(#76e02d37cd)"><g clip-path="url(#521f61613a)"><path fill="#ef7f25" d="M 0.046875 0.886719 L 9.0625 0.886719 L 9.0625 10.003906 L 0.046875 10.003906 Z M 0.046875 0.886719 " fill-opacity="1" fill-rule="nonzero"/></g></g></g></g></g></g><g clip-path="url(#93aac4eb07)"><g clip-path="url(#06ee575051)"><g transform="matrix(1, 0, 0, 1, 35, 7)"><g clip-path="url(#e61244c2ac)"><g clip-path="url(#3dd37f2515)"><g clip-path="url(#7c5a5073a3)"><path fill="#ef7f25" d="M 0.574219 0.867188 L 9.546875 0.867188 L 9.546875 37.984375 L 0.574219 37.984375 Z M 0.574219 0.867188 " fill-opacity="1" fill-rule="nonzero"/></g></g></g></g></g></g></g></g></svg>