<svg xmlns="http://www.w3.org/2000/svg" xmlns:xlink="http://www.w3.org/1999/xlink" width="60" zoomAndPan="magnify" viewBox="0 0 45 44.999999" height="60" preserveAspectRatio="xMidYMid meet" version="1.0"><defs><g/><clipPath id="1b239a8ae9"><path d="M 19 7.609375 L 30.1875 7.609375 L 30.1875 25 L 19 25 Z M 19 7.609375 " clip-rule="nonzero"/></clipPath><clipPath id="363f6e5e54"><path d="M 12.9375 10 L 24 10 L 24 30.109375 L 12.9375 30.109375 Z M 12.9375 10 " clip-rule="nonzero"/></clipPath><clipPath id="5feffccb4a"><path d="M 0.558594 2 L 4 2 L 4 6 L 0.558594 6 Z M 0.558594 2 " clip-rule="nonzero"/></clipPath><clipPath id="4f8f638bbe"><path d="M 32 2 L 36.800781 2 L 36.800781 6 L 32 6 Z M 32 2 " clip-rule="nonzero"/></clipPath><clipPath id="95eae7f9be"><rect x="0" width="37" y="0" height="9"/></clipPath></defs><g clip-path="url(#1b239a8ae9)"><path fill="#351318" d="M 28.589844 23.367188 C 28.53125 23.257812 28.480469 23.136719 28.4375 23.011719 L 28.335938 22.726562 L 23.375 8.832031 L 23.363281 8.804688 L 22.9375 7.609375 L 22.707031 7.609375 L 22.652344 7.753906 L 22.378906 8.523438 L 22.269531 8.832031 L 21.375 11.332031 L 21.25 11.675781 L 21 12.378906 L 20.40625 14.03125 L 19.535156 16.472656 L 19.484375 16.613281 C 19.566406 16.695312 19.648438 16.773438 19.734375 16.847656 L 19.746094 16.808594 L 19.847656 16.523438 L 20.660156 14.261719 L 21.21875 12.703125 L 21.519531 11.863281 L 21.707031 11.332031 L 23.539062 16.445312 L 25.128906 20.902344 C 24.84375 20.375 24.472656 19.925781 24.042969 19.542969 C 23.265625 18.84375 22.296875 18.375 21.316406 18.109375 C 21.347656 18.128906 21.375 18.148438 21.402344 18.171875 C 21.628906 18.335938 21.851562 18.503906 22.074219 18.667969 C 23.148438 19.113281 24.019531 19.816406 24.691406 20.703125 C 25.191406 21.359375 25.582031 22.121094 25.863281 22.960938 L 25.894531 23.0625 C 25.929688 23.167969 25.960938 23.269531 25.984375 23.367188 C 26.222656 24.347656 25.78125 24.621094 25.460938 24.621094 L 25.460938 24.804688 L 30.082031 24.804688 L 30.082031 24.621094 C 29.769531 24.625 29.039062 24.265625 28.589844 23.367188 Z M 28.589844 23.367188 " fill-opacity="1" fill-rule="nonzero"/></g><g clip-path="url(#363f6e5e54)"><path fill="#351318" d="M 21.011719 19.261719 C 20.996094 19.246094 20.980469 19.230469 20.964844 19.214844 C 20.515625 18.832031 20.042969 18.476562 19.578125 18.136719 C 19.410156 18.011719 19.238281 17.890625 19.070312 17.769531 C 18.796875 17.566406 18.523438 17.367188 18.261719 17.167969 C 18.175781 17.101562 18.09375 17.035156 18.007812 16.96875 C 17.914062 16.890625 17.816406 16.8125 17.726562 16.734375 C 17.625 16.644531 17.523438 16.558594 17.429688 16.46875 C 16.539062 15.640625 15.917969 14.703125 15.917969 13.390625 C 15.917969 12.175781 16.691406 11.523438 17.644531 11.277344 C 17.945312 11.203125 18.261719 11.167969 18.578125 11.167969 C 18.691406 11.167969 18.808594 11.171875 18.921875 11.1875 C 19.273438 11.230469 19.625 11.339844 19.949219 11.507812 C 20.042969 11.554688 20.136719 11.609375 20.226562 11.667969 L 20.367188 11.265625 L 20.382812 11.230469 C 20.285156 11.191406 20.1875 11.152344 20.085938 11.121094 C 19.726562 11 19.328125 10.910156 18.917969 10.878906 C 18.8125 10.871094 18.703125 10.867188 18.59375 10.867188 C 18.304688 10.867188 18.019531 10.890625 17.742188 10.941406 C 15.980469 11.257812 14.539062 12.554688 14.539062 14.636719 C 14.539062 15.699219 14.777344 16.574219 15.164062 17.320312 C 15.203125 17.390625 15.238281 17.457031 15.277344 17.527344 C 15.523438 17.949219 15.816406 18.328125 16.140625 18.679688 C 14.234375 19.796875 12.9375 21.886719 12.9375 24.273438 C 12.9375 24.757812 12.972656 25.222656 13.042969 25.660156 C 13.132812 26.226562 13.28125 26.757812 13.480469 27.238281 C 13.597656 27.523438 13.734375 27.796875 13.886719 28.050781 C 14.386719 28.996094 15.195312 29.667969 16.144531 30.058594 C 16.761719 30.328125 17.449219 30.46875 18.1875 30.46875 C 18.195312 30.46875 18.207031 30.46875 18.214844 30.46875 L 18.222656 30.46875 C 18.234375 30.46875 18.246094 30.46875 18.261719 30.46875 C 20.382812 30.46875 22.058594 29.433594 22.953125 27.8125 C 23.054688 27.632812 23.144531 27.441406 23.226562 27.246094 C 23.519531 26.535156 23.675781 25.734375 23.675781 24.871094 C 23.675781 22.167969 22.472656 20.53125 21.011719 19.261719 Z M 13.167969 24.273438 C 13.167969 21.847656 14.433594 19.871094 16.3125 18.863281 C 16.554688 19.109375 16.8125 19.339844 17.078125 19.5625 C 17.160156 19.632812 17.246094 19.703125 17.332031 19.773438 C 17.597656 19.984375 17.871094 20.191406 18.144531 20.394531 C 18.230469 20.460938 18.316406 20.523438 18.402344 20.589844 C 19.554688 21.4375 20.699219 22.265625 21.402344 23.398438 C 21.648438 23.792969 21.839844 24.226562 21.960938 24.710938 C 22.050781 25.078125 22.097656 25.472656 22.097656 25.902344 C 22.097656 26.136719 22.085938 26.363281 22.0625 26.585938 C 21.910156 27.027344 21.6875 27.414062 21.40625 27.75 C 21.316406 27.855469 21.222656 27.957031 21.121094 28.050781 C 20.292969 28.84375 19.117188 29.257812 17.921875 29.257812 C 17.21875 29.257812 16.507812 29.117188 15.863281 28.824219 C 15.015625 28.445312 14.269531 27.808594 13.78125 26.90625 L 13.78125 26.902344 C 13.675781 26.710938 13.582031 26.5 13.5 26.28125 C 13.449219 26.136719 13.402344 25.988281 13.359375 25.835938 C 13.238281 25.367188 13.167969 24.84375 13.167969 24.273438 Z M 13.167969 24.273438 " fill-opacity="1" fill-rule="nonzero"/></g><g transform="matrix(1, 0, 0, 1, 4, 31)"><g clip-path="url(#95eae7f9be)"><g clip-path="url(#5feffccb4a)"><g fill="#351318" fill-opacity="1"><g transform="translate(0.853082, 5.346337)"><g><path d="M 2.46875 -0.875 C 2.46875 -0.96875 2.441406 -1.046875 2.390625 -1.109375 C 2.347656 -1.179688 2.28125 -1.238281 2.1875 -1.28125 C 2.101562 -1.332031 2.003906 -1.378906 1.890625 -1.421875 C 1.785156 -1.460938 1.671875 -1.5 1.546875 -1.53125 C 1.421875 -1.5625 1.296875 -1.59375 1.171875 -1.625 C 1.054688 -1.65625 0.941406 -1.691406 0.828125 -1.734375 C 0.722656 -1.785156 0.625 -1.835938 0.53125 -1.890625 C 0.445312 -1.953125 0.378906 -2.019531 0.328125 -2.09375 C 0.285156 -2.164062 0.269531 -2.257812 0.28125 -2.375 C 0.28125 -2.5 0.3125 -2.609375 0.375 -2.703125 C 0.4375 -2.796875 0.519531 -2.875 0.625 -2.9375 C 0.738281 -3.007812 0.863281 -3.0625 1 -3.09375 C 1.132812 -3.132812 1.285156 -3.15625 1.453125 -3.15625 C 1.578125 -3.15625 1.691406 -3.144531 1.796875 -3.125 C 1.910156 -3.101562 2.007812 -3.078125 2.09375 -3.046875 C 2.1875 -3.015625 2.265625 -2.984375 2.328125 -2.953125 C 2.390625 -2.921875 2.4375 -2.894531 2.46875 -2.875 C 2.507812 -2.851562 2.53125 -2.84375 2.53125 -2.84375 L 2.28125 -2.5625 C 2.28125 -2.5625 2.269531 -2.578125 2.25 -2.609375 C 2.238281 -2.640625 2.210938 -2.675781 2.171875 -2.71875 C 2.140625 -2.769531 2.09375 -2.816406 2.03125 -2.859375 C 1.96875 -2.910156 1.882812 -2.953125 1.78125 -2.984375 C 1.6875 -3.023438 1.570312 -3.046875 1.4375 -3.046875 C 1.15625 -3.046875 0.929688 -2.988281 0.765625 -2.875 C 0.609375 -2.757812 0.523438 -2.601562 0.515625 -2.40625 C 0.515625 -2.320312 0.539062 -2.25 0.59375 -2.1875 C 0.644531 -2.125 0.710938 -2.066406 0.796875 -2.015625 C 0.890625 -1.972656 0.992188 -1.929688 1.109375 -1.890625 C 1.222656 -1.847656 1.34375 -1.8125 1.46875 -1.78125 C 1.59375 -1.75 1.71875 -1.710938 1.84375 -1.671875 C 1.976562 -1.640625 2.097656 -1.597656 2.203125 -1.546875 C 2.316406 -1.503906 2.414062 -1.453125 2.5 -1.390625 C 2.59375 -1.328125 2.664062 -1.253906 2.71875 -1.171875 C 2.769531 -1.085938 2.789062 -0.992188 2.78125 -0.890625 C 2.78125 -0.804688 2.765625 -0.722656 2.734375 -0.640625 C 2.710938 -0.566406 2.671875 -0.488281 2.609375 -0.40625 C 2.546875 -0.332031 2.460938 -0.265625 2.359375 -0.203125 C 2.253906 -0.140625 2.125 -0.0859375 1.96875 -0.046875 C 1.8125 -0.015625 1.625 0 1.40625 0 C 1.238281 0 1.085938 -0.015625 0.953125 -0.046875 C 0.828125 -0.0859375 0.71875 -0.132812 0.625 -0.1875 C 0.53125 -0.25 0.445312 -0.3125 0.375 -0.375 C 0.300781 -0.445312 0.242188 -0.507812 0.203125 -0.5625 C 0.160156 -0.625 0.128906 -0.675781 0.109375 -0.71875 C 0.0976562 -0.757812 0.09375 -0.78125 0.09375 -0.78125 L 0.421875 -1.015625 C 0.421875 -1.015625 0.425781 -0.992188 0.4375 -0.953125 C 0.457031 -0.910156 0.476562 -0.851562 0.5 -0.78125 C 0.53125 -0.71875 0.570312 -0.648438 0.625 -0.578125 C 0.675781 -0.503906 0.738281 -0.429688 0.8125 -0.359375 C 0.882812 -0.296875 0.96875 -0.242188 1.0625 -0.203125 C 1.164062 -0.160156 1.28125 -0.140625 1.40625 -0.140625 C 1.5625 -0.140625 1.695312 -0.15625 1.8125 -0.1875 C 1.925781 -0.21875 2.023438 -0.257812 2.109375 -0.3125 C 2.191406 -0.363281 2.253906 -0.421875 2.296875 -0.484375 C 2.347656 -0.554688 2.382812 -0.625 2.40625 -0.6875 C 2.4375 -0.757812 2.457031 -0.820312 2.46875 -0.875 Z M 2.46875 -0.875 "/></g></g></g></g><g fill="#351318" fill-opacity="1"><g transform="translate(4.154452, 5.346337)"><g><path d="M 1.640625 -3.15625 C 1.816406 -3.15625 1.976562 -3.128906 2.125 -3.078125 C 2.28125 -3.023438 2.421875 -2.945312 2.546875 -2.84375 C 2.679688 -2.75 2.796875 -2.632812 2.890625 -2.5 C 2.992188 -2.375 3.070312 -2.234375 3.125 -2.078125 C 3.175781 -1.921875 3.203125 -1.753906 3.203125 -1.578125 C 3.203125 -1.410156 3.175781 -1.242188 3.125 -1.078125 C 3.070312 -0.921875 2.992188 -0.773438 2.890625 -0.640625 C 2.796875 -0.515625 2.679688 -0.40625 2.546875 -0.3125 C 2.421875 -0.21875 2.28125 -0.144531 2.125 -0.09375 C 1.976562 -0.0390625 1.816406 -0.015625 1.640625 -0.015625 C 1.472656 -0.015625 1.3125 -0.0390625 1.15625 -0.09375 C 1 -0.144531 0.851562 -0.21875 0.71875 -0.3125 C 0.59375 -0.40625 0.484375 -0.515625 0.390625 -0.640625 C 0.296875 -0.773438 0.222656 -0.921875 0.171875 -1.078125 C 0.117188 -1.242188 0.09375 -1.410156 0.09375 -1.578125 C 0.09375 -1.753906 0.117188 -1.921875 0.171875 -2.078125 C 0.222656 -2.234375 0.296875 -2.375 0.390625 -2.5 C 0.484375 -2.632812 0.59375 -2.75 0.71875 -2.84375 C 0.851562 -2.945312 1 -3.023438 1.15625 -3.078125 C 1.3125 -3.128906 1.472656 -3.15625 1.640625 -3.15625 Z M 1.640625 -0.140625 C 1.785156 -0.140625 1.921875 -0.160156 2.046875 -0.203125 C 2.171875 -0.253906 2.285156 -0.320312 2.390625 -0.40625 C 2.503906 -0.5 2.597656 -0.601562 2.671875 -0.71875 C 2.742188 -0.84375 2.800781 -0.976562 2.84375 -1.125 C 2.894531 -1.269531 2.921875 -1.421875 2.921875 -1.578125 C 2.921875 -1.734375 2.894531 -1.882812 2.84375 -2.03125 C 2.800781 -2.175781 2.742188 -2.304688 2.671875 -2.421875 C 2.597656 -2.546875 2.503906 -2.648438 2.390625 -2.734375 C 2.285156 -2.828125 2.171875 -2.894531 2.046875 -2.9375 C 1.921875 -2.988281 1.785156 -3.015625 1.640625 -3.015625 C 1.503906 -3.015625 1.367188 -2.988281 1.234375 -2.9375 C 1.109375 -2.894531 0.992188 -2.828125 0.890625 -2.734375 C 0.785156 -2.648438 0.691406 -2.546875 0.609375 -2.421875 C 0.535156 -2.304688 0.476562 -2.175781 0.4375 -2.03125 C 0.394531 -1.882812 0.375 -1.734375 0.375 -1.578125 C 0.375 -1.421875 0.394531 -1.269531 0.4375 -1.125 C 0.476562 -0.976562 0.535156 -0.84375 0.609375 -0.71875 C 0.691406 -0.601562 0.785156 -0.5 0.890625 -0.40625 C 0.992188 -0.320312 1.109375 -0.253906 1.234375 -0.203125 C 1.367188 -0.160156 1.503906 -0.140625 1.640625 -0.140625 Z M 1.65625 -3.9375 L 2.234375 -3.34375 L 2.09375 -3.203125 L 1.65625 -3.578125 L 1.1875 -3.203125 L 1.046875 -3.34375 Z M 1.65625 -3.9375 "/></g></g></g><g fill="#351318" fill-opacity="1"><g transform="translate(7.829165, 5.346337)"><g><path d="M 0.765625 -3.15625 C 0.765625 -3.15625 0.753906 -3.148438 0.734375 -3.140625 C 0.722656 -3.140625 0.710938 -3.125 0.703125 -3.09375 C 0.691406 -3.070312 0.691406 -3.039062 0.703125 -3 C 0.710938 -2.957031 0.738281 -2.894531 0.78125 -2.8125 L 2.0625 -0.484375 L 2.0625 -2.8125 C 2.0625 -2.894531 2.050781 -2.957031 2.03125 -3 C 2.019531 -3.039062 2.003906 -3.070312 1.984375 -3.09375 C 1.960938 -3.113281 1.941406 -3.128906 1.921875 -3.140625 C 1.898438 -3.148438 1.890625 -3.15625 1.890625 -3.15625 L 2.359375 -3.15625 C 2.359375 -3.15625 2.347656 -3.148438 2.328125 -3.140625 C 2.316406 -3.140625 2.300781 -3.125 2.28125 -3.09375 C 2.257812 -3.070312 2.238281 -3.039062 2.21875 -3 C 2.195312 -2.957031 2.1875 -2.894531 2.1875 -2.8125 L 2.1875 0 L 2.0625 0 L 0.5 -2.8125 C 0.46875 -2.875 0.4375 -2.925781 0.40625 -2.96875 C 0.394531 -2.945312 0.390625 -2.921875 0.390625 -2.890625 C 0.390625 -2.867188 0.390625 -2.84375 0.390625 -2.8125 L 0.390625 -0.34375 C 0.390625 -0.257812 0.394531 -0.191406 0.40625 -0.140625 C 0.425781 -0.0976562 0.445312 -0.0664062 0.46875 -0.046875 C 0.488281 -0.0234375 0.503906 -0.0078125 0.515625 0 C 0.535156 0 0.546875 0 0.546875 0 L 0.09375 0 C 0.09375 0 0.0976562 0 0.109375 0 C 0.128906 -0.0078125 0.148438 -0.0234375 0.171875 -0.046875 C 0.191406 -0.0664062 0.207031 -0.0976562 0.21875 -0.140625 C 0.238281 -0.191406 0.25 -0.257812 0.25 -0.34375 L 0.25 -2.8125 C 0.25 -2.894531 0.238281 -2.957031 0.21875 -3 C 0.207031 -3.039062 0.191406 -3.070312 0.171875 -3.09375 C 0.148438 -3.113281 0.128906 -3.128906 0.109375 -3.140625 C 0.0976562 -3.148438 0.09375 -3.15625 0.09375 -3.15625 Z M 0.765625 -3.15625 "/></g></g></g><g fill="#351318" fill-opacity="1"><g transform="translate(10.667147, 5.346337)"><g><path d="M 0.09375 -3.15625 L 0.703125 -3.15625 C 0.703125 -3.15625 0.691406 -3.148438 0.671875 -3.140625 C 0.648438 -3.140625 0.628906 -3.125 0.609375 -3.09375 C 0.585938 -3.070312 0.566406 -3.039062 0.546875 -3 C 0.535156 -2.957031 0.53125 -2.894531 0.53125 -2.8125 L 0.53125 -0.34375 C 0.53125 -0.257812 0.535156 -0.191406 0.546875 -0.140625 C 0.566406 -0.0976562 0.585938 -0.0664062 0.609375 -0.046875 C 0.628906 -0.0234375 0.648438 -0.0078125 0.671875 0 C 0.691406 0 0.703125 0 0.703125 0 L 0.09375 0 C 0.09375 0 0.0976562 0 0.109375 0 C 0.128906 -0.0078125 0.148438 -0.0234375 0.171875 -0.046875 C 0.191406 -0.0664062 0.207031 -0.0976562 0.21875 -0.140625 C 0.238281 -0.191406 0.25 -0.257812 0.25 -0.34375 L 0.25 -2.8125 C 0.25 -2.894531 0.238281 -2.957031 0.21875 -3 C 0.207031 -3.039062 0.191406 -3.070312 0.171875 -3.09375 C 0.148438 -3.113281 0.128906 -3.128906 0.109375 -3.140625 C 0.0976562 -3.148438 0.09375 -3.15625 0.09375 -3.15625 Z M 0.09375 -3.15625 "/></g></g></g><g fill="#351318" fill-opacity="1"><g transform="translate(11.840451, 5.346337)"><g><path d="M 2.53125 0 C 2.53125 0 2.535156 0 2.546875 0 C 2.566406 -0.0078125 2.582031 -0.0234375 2.59375 -0.046875 C 2.601562 -0.0664062 2.609375 -0.0976562 2.609375 -0.140625 C 2.609375 -0.191406 2.59375 -0.257812 2.5625 -0.34375 L 2.21875 -1.203125 L 0.859375 -1.203125 L 0.515625 -0.34375 C 0.484375 -0.257812 0.46875 -0.191406 0.46875 -0.140625 C 0.46875 -0.0976562 0.472656 -0.0664062 0.484375 -0.046875 C 0.503906 -0.0234375 0.519531 -0.0078125 0.53125 0 C 0.539062 0 0.546875 0 0.546875 0 L 0.09375 0 C 0.09375 0 0.0976562 0 0.109375 0 C 0.128906 -0.0078125 0.15625 -0.0234375 0.1875 -0.046875 C 0.21875 -0.0664062 0.25 -0.0976562 0.28125 -0.140625 C 0.320312 -0.191406 0.359375 -0.257812 0.390625 -0.34375 L 1.515625 -3.15625 L 1.71875 -3.15625 L 2.828125 -0.34375 C 2.867188 -0.257812 2.90625 -0.191406 2.9375 -0.140625 C 2.96875 -0.0976562 3 -0.0664062 3.03125 -0.046875 C 3.0625 -0.0234375 3.085938 -0.0078125 3.109375 0 C 3.128906 0 3.140625 0 3.140625 0 Z M 0.890625 -1.28125 L 2.1875 -1.28125 C 2.1875 -1.28125 2.175781 -1.300781 2.15625 -1.34375 C 2.144531 -1.382812 2.125 -1.441406 2.09375 -1.515625 C 2.0625 -1.597656 2.023438 -1.6875 1.984375 -1.78125 C 1.941406 -1.875 1.898438 -1.972656 1.859375 -2.078125 C 1.828125 -2.179688 1.789062 -2.28125 1.75 -2.375 C 1.707031 -2.46875 1.671875 -2.550781 1.640625 -2.625 C 1.609375 -2.707031 1.582031 -2.769531 1.5625 -2.8125 C 1.550781 -2.863281 1.539062 -2.890625 1.53125 -2.890625 C 1.53125 -2.890625 1.519531 -2.863281 1.5 -2.8125 C 1.488281 -2.769531 1.46875 -2.707031 1.4375 -2.625 C 1.40625 -2.550781 1.367188 -2.46875 1.328125 -2.375 C 1.296875 -2.28125 1.257812 -2.179688 1.21875 -2.078125 C 1.175781 -1.972656 1.132812 -1.875 1.09375 -1.78125 C 1.0625 -1.6875 1.03125 -1.597656 1 -1.515625 C 0.96875 -1.441406 0.941406 -1.382812 0.921875 -1.34375 C 0.898438 -1.300781 0.890625 -1.28125 0.890625 -1.28125 Z M 0.890625 -1.28125 "/></g></g></g><g fill="#351318" fill-opacity="1"><g transform="translate(15.451476, 5.346337)"><g/></g></g><g fill="#351318" fill-opacity="1"><g transform="translate(16.967379, 5.346337)"><g><path d="M 2.53125 0 C 2.53125 0 2.535156 0 2.546875 0 C 2.566406 -0.0078125 2.582031 -0.0234375 2.59375 -0.046875 C 2.601562 -0.0664062 2.609375 -0.0976562 2.609375 -0.140625 C 2.609375 -0.191406 2.59375 -0.257812 2.5625 -0.34375 L 2.21875 -1.203125 L 0.859375 -1.203125 L 0.515625 -0.34375 C 0.484375 -0.257812 0.46875 -0.191406 0.46875 -0.140625 C 0.46875 -0.0976562 0.472656 -0.0664062 0.484375 -0.046875 C 0.503906 -0.0234375 0.519531 -0.0078125 0.53125 0 C 0.539062 0 0.546875 0 0.546875 0 L 0.09375 0 C 0.09375 0 0.0976562 0 0.109375 0 C 0.128906 -0.0078125 0.15625 -0.0234375 0.1875 -0.046875 C 0.21875 -0.0664062 0.25 -0.0976562 0.28125 -0.140625 C 0.320312 -0.191406 0.359375 -0.257812 0.390625 -0.34375 L 1.515625 -3.15625 L 1.71875 -3.15625 L 2.828125 -0.34375 C 2.867188 -0.257812 2.90625 -0.191406 2.9375 -0.140625 C 2.96875 -0.0976562 3 -0.0664062 3.03125 -0.046875 C 3.0625 -0.0234375 3.085938 -0.0078125 3.109375 0 C 3.128906 0 3.140625 0 3.140625 0 Z M 0.890625 -1.28125 L 2.1875 -1.28125 C 2.1875 -1.28125 2.175781 -1.300781 2.15625 -1.34375 C 2.144531 -1.382812 2.125 -1.441406 2.09375 -1.515625 C 2.0625 -1.597656 2.023438 -1.6875 1.984375 -1.78125 C 1.941406 -1.875 1.898438 -1.972656 1.859375 -2.078125 C 1.828125 -2.179688 1.789062 -2.28125 1.75 -2.375 C 1.707031 -2.46875 1.671875 -2.550781 1.640625 -2.625 C 1.609375 -2.707031 1.582031 -2.769531 1.5625 -2.8125 C 1.550781 -2.863281 1.539062 -2.890625 1.53125 -2.890625 C 1.53125 -2.890625 1.519531 -2.863281 1.5 -2.8125 C 1.488281 -2.769531 1.46875 -2.707031 1.4375 -2.625 C 1.40625 -2.550781 1.367188 -2.46875 1.328125 -2.375 C 1.296875 -2.28125 1.257812 -2.179688 1.21875 -2.078125 C 1.175781 -1.972656 1.132812 -1.875 1.09375 -1.78125 C 1.0625 -1.6875 1.03125 -1.597656 1 -1.515625 C 0.96875 -1.441406 0.941406 -1.382812 0.921875 -1.34375 C 0.898438 -1.300781 0.890625 -1.28125 0.890625 -1.28125 Z M 0.890625 -1.28125 "/></g></g></g><g fill="#351318" fill-opacity="1"><g transform="translate(20.578403, 5.346337)"><g><path d="M 3.421875 -3.15625 C 3.421875 -3.15625 3.410156 -3.148438 3.390625 -3.140625 C 3.378906 -3.140625 3.363281 -3.125 3.34375 -3.09375 C 3.320312 -3.070312 3.300781 -3.039062 3.28125 -3 C 3.269531 -2.957031 3.265625 -2.894531 3.265625 -2.8125 L 3.265625 -0.34375 C 3.265625 -0.257812 3.269531 -0.191406 3.28125 -0.140625 C 3.300781 -0.0976562 3.320312 -0.0664062 3.34375 -0.046875 C 3.363281 -0.0234375 3.378906 -0.0078125 3.390625 0 C 3.410156 0 3.421875 0 3.421875 0 L 2.8125 0 C 2.8125 0 2.820312 0 2.84375 0 C 2.863281 -0.0078125 2.882812 -0.0234375 2.90625 -0.046875 C 2.925781 -0.0664062 2.941406 -0.0976562 2.953125 -0.140625 C 2.972656 -0.191406 2.984375 -0.257812 2.984375 -0.34375 L 2.984375 -2.734375 C 2.984375 -2.785156 2.976562 -2.828125 2.96875 -2.859375 C 2.96875 -2.898438 2.957031 -2.929688 2.9375 -2.953125 C 2.925781 -2.941406 2.910156 -2.925781 2.890625 -2.90625 C 2.867188 -2.882812 2.84375 -2.847656 2.8125 -2.796875 C 2.789062 -2.742188 2.765625 -2.671875 2.734375 -2.578125 C 2.722656 -2.566406 2.71875 -2.554688 2.71875 -2.546875 C 2.71875 -2.535156 2.710938 -2.515625 2.703125 -2.484375 C 2.691406 -2.460938 2.671875 -2.421875 2.640625 -2.359375 C 2.617188 -2.304688 2.585938 -2.226562 2.546875 -2.125 C 2.515625 -2.019531 2.46875 -1.882812 2.40625 -1.71875 C 2.34375 -1.5625 2.265625 -1.367188 2.171875 -1.140625 C 2.085938 -0.921875 1.988281 -0.65625 1.875 -0.34375 C 1.84375 -0.257812 1.816406 -0.191406 1.796875 -0.140625 C 1.785156 -0.0976562 1.769531 -0.0664062 1.75 -0.046875 C 1.738281 -0.0234375 1.722656 -0.0078125 1.703125 0 C 1.679688 0 1.648438 0 1.609375 0 C 1.609375 0 1.601562 -0.00390625 1.59375 -0.015625 C 1.59375 -0.0351562 1.582031 -0.0664062 1.5625 -0.109375 C 1.550781 -0.160156 1.523438 -0.238281 1.484375 -0.34375 C 1.484375 -0.351562 1.476562 -0.367188 1.46875 -0.390625 C 1.457031 -0.410156 1.4375 -0.453125 1.40625 -0.515625 C 1.382812 -0.578125 1.351562 -0.660156 1.3125 -0.765625 C 1.28125 -0.867188 1.226562 -1.003906 1.15625 -1.171875 C 1.09375 -1.335938 1.015625 -1.539062 0.921875 -1.78125 C 0.835938 -2.019531 0.734375 -2.300781 0.609375 -2.625 C 0.578125 -2.71875 0.539062 -2.785156 0.5 -2.828125 C 0.46875 -2.878906 0.441406 -2.921875 0.421875 -2.953125 C 0.410156 -2.921875 0.398438 -2.890625 0.390625 -2.859375 C 0.390625 -2.828125 0.390625 -2.785156 0.390625 -2.734375 L 0.390625 -0.34375 C 0.390625 -0.257812 0.394531 -0.191406 0.40625 -0.140625 C 0.425781 -0.0976562 0.445312 -0.0664062 0.46875 -0.046875 C 0.488281 -0.0234375 0.503906 -0.0078125 0.515625 0 C 0.535156 0 0.546875 0 0.546875 0 L 0.09375 0 C 0.09375 0 0.0976562 0 0.109375 0 C 0.128906 -0.0078125 0.148438 -0.0234375 0.171875 -0.046875 C 0.191406 -0.0664062 0.207031 -0.0976562 0.21875 -0.140625 C 0.238281 -0.191406 0.25 -0.257812 0.25 -0.34375 L 0.25 -2.8125 C 0.25 -2.894531 0.238281 -2.957031 0.21875 -3 C 0.207031 -3.039062 0.191406 -3.070312 0.171875 -3.09375 C 0.148438 -3.113281 0.128906 -3.128906 0.109375 -3.140625 C 0.0976562 -3.148438 0.09375 -3.15625 0.09375 -3.15625 L 0.84375 -3.15625 C 0.84375 -3.15625 0.835938 -3.148438 0.828125 -3.140625 C 0.816406 -3.140625 0.800781 -3.125 0.78125 -3.09375 C 0.769531 -3.070312 0.765625 -3.039062 0.765625 -3 C 0.765625 -2.957031 0.78125 -2.894531 0.8125 -2.8125 L 1.75 -0.359375 L 2.6875 -2.8125 C 2.71875 -2.894531 2.734375 -2.957031 2.734375 -3 C 2.734375 -3.039062 2.726562 -3.070312 2.71875 -3.09375 C 2.707031 -3.125 2.691406 -3.140625 2.671875 -3.140625 C 2.660156 -3.148438 2.65625 -3.15625 2.65625 -3.15625 Z M 3.421875 -3.15625 "/></g></g></g><g fill="#351318" fill-opacity="1"><g transform="translate(24.477123, 5.346337)"><g><path d="M 1.640625 -3.15625 C 1.816406 -3.15625 1.976562 -3.128906 2.125 -3.078125 C 2.28125 -3.023438 2.421875 -2.945312 2.546875 -2.84375 C 2.679688 -2.75 2.796875 -2.632812 2.890625 -2.5 C 2.992188 -2.375 3.070312 -2.234375 3.125 -2.078125 C 3.175781 -1.921875 3.203125 -1.753906 3.203125 -1.578125 C 3.203125 -1.410156 3.175781 -1.242188 3.125 -1.078125 C 3.070312 -0.921875 2.992188 -0.773438 2.890625 -0.640625 C 2.796875 -0.515625 2.679688 -0.40625 2.546875 -0.3125 C 2.421875 -0.21875 2.28125 -0.144531 2.125 -0.09375 C 1.976562 -0.0390625 1.816406 -0.015625 1.640625 -0.015625 C 1.472656 -0.015625 1.3125 -0.0390625 1.15625 -0.09375 C 1 -0.144531 0.851562 -0.21875 0.71875 -0.3125 C 0.59375 -0.40625 0.484375 -0.515625 0.390625 -0.640625 C 0.296875 -0.773438 0.222656 -0.921875 0.171875 -1.078125 C 0.117188 -1.242188 0.09375 -1.410156 0.09375 -1.578125 C 0.09375 -1.753906 0.117188 -1.921875 0.171875 -2.078125 C 0.222656 -2.234375 0.296875 -2.375 0.390625 -2.5 C 0.484375 -2.632812 0.59375 -2.75 0.71875 -2.84375 C 0.851562 -2.945312 1 -3.023438 1.15625 -3.078125 C 1.3125 -3.128906 1.472656 -3.15625 1.640625 -3.15625 Z M 1.640625 -0.140625 C 1.785156 -0.140625 1.921875 -0.160156 2.046875 -0.203125 C 2.171875 -0.253906 2.285156 -0.320312 2.390625 -0.40625 C 2.503906 -0.5 2.597656 -0.601562 2.671875 -0.71875 C 2.742188 -0.84375 2.800781 -0.976562 2.84375 -1.125 C 2.894531 -1.269531 2.921875 -1.421875 2.921875 -1.578125 C 2.921875 -1.734375 2.894531 -1.882812 2.84375 -2.03125 C 2.800781 -2.175781 2.742188 -2.304688 2.671875 -2.421875 C 2.597656 -2.546875 2.503906 -2.648438 2.390625 -2.734375 C 2.285156 -2.828125 2.171875 -2.894531 2.046875 -2.9375 C 1.921875 -2.988281 1.785156 -3.015625 1.640625 -3.015625 C 1.503906 -3.015625 1.367188 -2.988281 1.234375 -2.9375 C 1.109375 -2.894531 0.992188 -2.828125 0.890625 -2.734375 C 0.785156 -2.648438 0.691406 -2.546875 0.609375 -2.421875 C 0.535156 -2.304688 0.476562 -2.175781 0.4375 -2.03125 C 0.394531 -1.882812 0.375 -1.734375 0.375 -1.578125 C 0.375 -1.421875 0.394531 -1.269531 0.4375 -1.125 C 0.476562 -0.976562 0.535156 -0.84375 0.609375 -0.71875 C 0.691406 -0.601562 0.785156 -0.5 0.890625 -0.40625 C 0.992188 -0.320312 1.109375 -0.253906 1.234375 -0.203125 C 1.367188 -0.160156 1.503906 -0.140625 1.640625 -0.140625 Z M 1.640625 -0.140625 "/></g></g></g><g fill="#351318" fill-opacity="1"><g transform="translate(28.151837, 5.346337)"><g><path d="M 2.28125 -0.34375 C 2.332031 -0.257812 2.378906 -0.191406 2.421875 -0.140625 C 2.472656 -0.0976562 2.515625 -0.0664062 2.546875 -0.046875 C 2.585938 -0.0234375 2.617188 -0.0078125 2.640625 0 C 2.660156 0 2.671875 0 2.671875 0 L 2.0625 0 C 2.0625 0 2.066406 0 2.078125 0 C 2.097656 -0.0078125 2.109375 -0.0234375 2.109375 -0.046875 C 2.117188 -0.0664062 2.117188 -0.0976562 2.109375 -0.140625 C 2.097656 -0.191406 2.066406 -0.257812 2.015625 -0.34375 L 1.453125 -1.171875 C 1.390625 -1.160156 1.316406 -1.148438 1.234375 -1.140625 C 1.160156 -1.140625 1.082031 -1.140625 1 -1.140625 L 0.53125 -1.140625 L 0.53125 -0.34375 C 0.53125 -0.257812 0.535156 -0.191406 0.546875 -0.140625 C 0.566406 -0.0976562 0.585938 -0.0664062 0.609375 -0.046875 C 0.628906 -0.0234375 0.648438 -0.0078125 0.671875 0 C 0.691406 0 0.703125 0 0.703125 0 L 0.09375 0 C 0.09375 0 0.0976562 0 0.109375 0 C 0.128906 -0.0078125 0.148438 -0.0234375 0.171875 -0.046875 C 0.191406 -0.0664062 0.210938 -0.0976562 0.234375 -0.140625 C 0.253906 -0.191406 0.265625 -0.257812 0.265625 -0.34375 L 0.265625 -2.8125 C 0.265625 -2.894531 0.253906 -2.957031 0.234375 -3 C 0.210938 -3.039062 0.191406 -3.070312 0.171875 -3.09375 C 0.148438 -3.113281 0.128906 -3.128906 0.109375 -3.140625 C 0.0976562 -3.148438 0.09375 -3.15625 0.09375 -3.15625 L 1.546875 -3.15625 C 1.722656 -3.15625 1.890625 -3.128906 2.046875 -3.078125 C 2.203125 -3.035156 2.335938 -2.972656 2.453125 -2.890625 C 2.566406 -2.804688 2.65625 -2.703125 2.71875 -2.578125 C 2.789062 -2.453125 2.828125 -2.304688 2.828125 -2.140625 C 2.828125 -2.035156 2.804688 -1.929688 2.765625 -1.828125 C 2.734375 -1.734375 2.675781 -1.640625 2.59375 -1.546875 C 2.507812 -1.460938 2.394531 -1.390625 2.25 -1.328125 C 2.101562 -1.265625 1.925781 -1.21875 1.71875 -1.1875 Z M 1 -1.265625 C 1.28125 -1.265625 1.519531 -1.289062 1.71875 -1.34375 C 1.914062 -1.394531 2.070312 -1.457031 2.1875 -1.53125 C 2.3125 -1.613281 2.398438 -1.707031 2.453125 -1.8125 C 2.503906 -1.925781 2.53125 -2.039062 2.53125 -2.15625 C 2.53125 -2.28125 2.503906 -2.394531 2.453125 -2.5 C 2.398438 -2.601562 2.328125 -2.691406 2.234375 -2.765625 C 2.148438 -2.847656 2.050781 -2.910156 1.9375 -2.953125 C 1.820312 -2.992188 1.691406 -3.015625 1.546875 -3.015625 L 0.6875 -3.015625 C 0.632812 -3.015625 0.597656 -3.003906 0.578125 -2.984375 C 0.554688 -2.960938 0.539062 -2.9375 0.53125 -2.90625 C 0.53125 -2.875 0.53125 -2.84375 0.53125 -2.8125 L 0.53125 -1.265625 Z M 1 -1.265625 "/></g></g></g><g fill="#351318" fill-opacity="1"><g transform="translate(31.457598, 5.346337)"><g><path d="M 0.09375 -3.15625 L 0.703125 -3.15625 C 0.703125 -3.15625 0.691406 -3.148438 0.671875 -3.140625 C 0.648438 -3.140625 0.628906 -3.125 0.609375 -3.09375 C 0.585938 -3.070312 0.566406 -3.039062 0.546875 -3 C 0.535156 -2.957031 0.53125 -2.894531 0.53125 -2.8125 L 0.53125 -0.34375 C 0.53125 -0.257812 0.535156 -0.191406 0.546875 -0.140625 C 0.566406 -0.0976562 0.585938 -0.0664062 0.609375 -0.046875 C 0.628906 -0.0234375 0.648438 -0.0078125 0.671875 0 C 0.691406 0 0.703125 0 0.703125 0 L 0.09375 0 C 0.09375 0 0.0976562 0 0.109375 0 C 0.128906 -0.0078125 0.148438 -0.0234375 0.171875 -0.046875 C 0.191406 -0.0664062 0.207031 -0.0976562 0.21875 -0.140625 C 0.238281 -0.191406 0.25 -0.257812 0.25 -0.34375 L 0.25 -2.8125 C 0.25 -2.894531 0.238281 -2.957031 0.21875 -3 C 0.207031 -3.039062 0.191406 -3.070312 0.171875 -3.09375 C 0.148438 -3.113281 0.128906 -3.128906 0.109375 -3.140625 C 0.0976562 -3.148438 0.09375 -3.15625 0.09375 -3.15625 Z M 0.09375 -3.15625 "/></g></g></g><g clip-path="url(#4f8f638bbe)"><g fill="#351318" fill-opacity="1"><g transform="translate(32.630903, 5.346337)"><g><path d="M 3.421875 -3.15625 C 3.421875 -3.15625 3.410156 -3.148438 3.390625 -3.140625 C 3.378906 -3.140625 3.363281 -3.125 3.34375 -3.09375 C 3.320312 -3.070312 3.300781 -3.039062 3.28125 -3 C 3.269531 -2.957031 3.265625 -2.894531 3.265625 -2.8125 L 3.265625 -0.34375 C 3.265625 -0.257812 3.269531 -0.191406 3.28125 -0.140625 C 3.300781 -0.0976562 3.320312 -0.0664062 3.34375 -0.046875 C 3.363281 -0.0234375 3.378906 -0.0078125 3.390625 0 C 3.410156 0 3.421875 0 3.421875 0 L 2.8125 0 C 2.8125 0 2.820312 0 2.84375 0 C 2.863281 -0.0078125 2.882812 -0.0234375 2.90625 -0.046875 C 2.925781 -0.0664062 2.941406 -0.0976562 2.953125 -0.140625 C 2.972656 -0.191406 2.984375 -0.257812 2.984375 -0.34375 L 2.984375 -2.734375 C 2.984375 -2.785156 2.976562 -2.828125 2.96875 -2.859375 C 2.96875 -2.898438 2.957031 -2.929688 2.9375 -2.953125 C 2.925781 -2.941406 2.910156 -2.925781 2.890625 -2.90625 C 2.867188 -2.882812 2.84375 -2.847656 2.8125 -2.796875 C 2.789062 -2.742188 2.765625 -2.671875 2.734375 -2.578125 C 2.722656 -2.566406 2.71875 -2.554688 2.71875 -2.546875 C 2.71875 -2.535156 2.710938 -2.515625 2.703125 -2.484375 C 2.691406 -2.460938 2.671875 -2.421875 2.640625 -2.359375 C 2.617188 -2.304688 2.585938 -2.226562 2.546875 -2.125 C 2.515625 -2.019531 2.46875 -1.882812 2.40625 -1.71875 C 2.34375 -1.5625 2.265625 -1.367188 2.171875 -1.140625 C 2.085938 -0.921875 1.988281 -0.65625 1.875 -0.34375 C 1.84375 -0.257812 1.816406 -0.191406 1.796875 -0.140625 C 1.785156 -0.0976562 1.769531 -0.0664062 1.75 -0.046875 C 1.738281 -0.0234375 1.722656 -0.0078125 1.703125 0 C 1.679688 0 1.648438 0 1.609375 0 C 1.609375 0 1.601562 -0.00390625 1.59375 -0.015625 C 1.59375 -0.0351562 1.582031 -0.0664062 1.5625 -0.109375 C 1.550781 -0.160156 1.523438 -0.238281 1.484375 -0.34375 C 1.484375 -0.351562 1.476562 -0.367188 1.46875 -0.390625 C 1.457031 -0.410156 1.4375 -0.453125 1.40625 -0.515625 C 1.382812 -0.578125 1.351562 -0.660156 1.3125 -0.765625 C 1.28125 -0.867188 1.226562 -1.003906 1.15625 -1.171875 C 1.09375 -1.335938 1.015625 -1.539062 0.921875 -1.78125 C 0.835938 -2.019531 0.734375 -2.300781 0.609375 -2.625 C 0.578125 -2.71875 0.539062 -2.785156 0.5 -2.828125 C 0.46875 -2.878906 0.441406 -2.921875 0.421875 -2.953125 C 0.410156 -2.921875 0.398438 -2.890625 0.390625 -2.859375 C 0.390625 -2.828125 0.390625 -2.785156 0.390625 -2.734375 L 0.390625 -0.34375 C 0.390625 -0.257812 0.394531 -0.191406 0.40625 -0.140625 C 0.425781 -0.0976562 0.445312 -0.0664062 0.46875 -0.046875 C 0.488281 -0.0234375 0.503906 -0.0078125 0.515625 0 C 0.535156 0 0.546875 0 0.546875 0 L 0.09375 0 C 0.09375 0 0.0976562 0 0.109375 0 C 0.128906 -0.0078125 0.148438 -0.0234375 0.171875 -0.046875 C 0.191406 -0.0664062 0.207031 -0.0976562 0.21875 -0.140625 C 0.238281 -0.191406 0.25 -0.257812 0.25 -0.34375 L 0.25 -2.8125 C 0.25 -2.894531 0.238281 -2.957031 0.21875 -3 C 0.207031 -3.039062 0.191406 -3.070312 0.171875 -3.09375 C 0.148438 -3.113281 0.128906 -3.128906 0.109375 -3.140625 C 0.0976562 -3.148438 0.09375 -3.15625 0.09375 -3.15625 L 0.84375 -3.15625 C 0.84375 -3.15625 0.835938 -3.148438 0.828125 -3.140625 C 0.816406 -3.140625 0.800781 -3.125 0.78125 -3.09375 C 0.769531 -3.070312 0.765625 -3.039062 0.765625 -3 C 0.765625 -2.957031 0.78125 -2.894531 0.8125 -2.8125 L 1.75 -0.359375 L 2.6875 -2.8125 C 2.71875 -2.894531 2.734375 -2.957031 2.734375 -3 C 2.734375 -3.039062 2.726562 -3.070312 2.71875 -3.09375 C 2.707031 -3.125 2.691406 -3.140625 2.671875 -3.140625 C 2.660156 -3.148438 2.65625 -3.15625 2.65625 -3.15625 Z M 3.421875 -3.15625 "/></g></g></g></g></g></g></svg>