<svg xmlns="http://www.w3.org/2000/svg" xmlns:xlink="http://www.w3.org/1999/xlink" width="60" zoomAndPan="magnify" viewBox="0 0 45 44.999999" height="60" preserveAspectRatio="xMidYMid meet" version="1.0"><defs><clipPath id="9547ee42b2"><path d="M 9.195312 5.5 L 35.804688 5.5 L 35.804688 39.5 L 9.195312 39.5 Z M 9.195312 5.5 " clip-rule="nonzero"/></clipPath><clipPath id="2a8318eb6c"><path d="M 0.195312 0.5 L 26.804688 0.5 L 26.804688 34.5 L 0.195312 34.5 Z M 0.195312 0.5 " clip-rule="nonzero"/></clipPath><clipPath id="3e98671ae2"><rect x="0" width="27" y="0" height="35"/></clipPath><clipPath id="d9ba97b38c"><path d="M 4.042969 9.597656 L 6.601562 9.597656 L 6.601562 21.746094 L 4.042969 21.746094 Z M 4.042969 9.597656 " clip-rule="nonzero"/></clipPath><clipPath id="08d364ac12"><path d="M 0.0429688 0.597656 L 2.601562 0.597656 L 2.601562 12.746094 L 0.0429688 12.746094 Z M 0.0429688 0.597656 " clip-rule="nonzero"/></clipPath><clipPath id="f2f1f773ac"><rect x="0" width="3" y="0" height="13"/></clipPath><clipPath id="146edbe3b2"><path d="M 9.214844 9.597656 L 11.773438 9.597656 L 11.773438 22.582031 L 9.214844 22.582031 Z M 9.214844 9.597656 " clip-rule="nonzero"/></clipPath><clipPath id="d4fd866f2e"><path d="M 0.214844 0.597656 L 2.773438 0.597656 L 2.773438 13.582031 L 0.214844 13.582031 Z M 0.214844 0.597656 " clip-rule="nonzero"/></clipPath><clipPath id="d1942d730c"><rect x="0" width="3" y="0" height="14"/></clipPath><clipPath id="f57849328b"><path d="M 14.398438 9.597656 L 16.957031 9.597656 L 16.957031 21.746094 L 14.398438 21.746094 Z M 14.398438 9.597656 " clip-rule="nonzero"/></clipPath><clipPath id="f1d40ae2af"><path d="M 0.398438 0.597656 L 2.957031 0.597656 L 2.957031 12.746094 L 0.398438 12.746094 Z M 0.398438 0.597656 " clip-rule="nonzero"/></clipPath><clipPath id="42303369bc"><rect x="0" width="3" y="0" height="13"/></clipPath><clipPath id="4b6d00dea5"><path d="M 4.042969 6.277344 L 16.957031 6.277344 L 16.957031 8.214844 L 4.042969 8.214844 Z M 4.042969 6.277344 " clip-rule="nonzero"/></clipPath><clipPath id="e4e07f2bd2"><path d="M 0.0429688 0.277344 L 12.957031 0.277344 L 12.957031 2.214844 L 0.0429688 2.214844 Z M 0.0429688 0.277344 " clip-rule="nonzero"/></clipPath><clipPath id="ea353f7afc"><rect x="0" width="13" y="0" height="3"/></clipPath><clipPath id="14ceffe54c"><path d="M 2 3.347656 L 18.984375 3.347656 L 18.984375 5.285156 L 2 5.285156 Z M 2 3.347656 " clip-rule="nonzero"/></clipPath><clipPath id="41e8c31946"><path d="M 0 0.347656 L 16.984375 0.347656 L 16.984375 2.285156 L 0 2.285156 Z M 0 0.347656 " clip-rule="nonzero"/></clipPath><clipPath id="0eb27d9423"><rect x="0" width="17" y="0" height="3"/></clipPath><clipPath id="5769b60e2f"><path d="M 0.15625 0.414062 L 20.847656 0.414062 L 20.847656 2.355469 L 0.15625 2.355469 Z M 0.15625 0.414062 " clip-rule="nonzero"/></clipPath><clipPath id="fedc55970d"><path d="M 0.15625 0.414062 L 20.847656 0.414062 L 20.847656 2.355469 L 0.15625 2.355469 Z M 0.15625 0.414062 " clip-rule="nonzero"/></clipPath><clipPath id="abcc0935f8"><rect x="0" width="21" y="0" height="3"/></clipPath><clipPath id="fdeee13adb"><rect x="0" width="21" y="0" height="23"/></clipPath></defs><g clip-path="url(#9547ee42b2)"><g transform="matrix(1, 0, 0, 1, 9, 5)"><g clip-path="url(#3e98671ae2)"><g clip-path="url(#2a8318eb6c)"><path fill="#bfb793" d="M 0.195312 0.5 L 26.804688 0.5 L 26.804688 34.492188 L 0.195312 34.492188 Z M 0.195312 0.5 " fill-opacity="1" fill-rule="nonzero"/></g></g></g></g><g transform="matrix(1, 0, 0, 1, 12, 11)"><g clip-path="url(#fdeee13adb)"><g clip-path="url(#d9ba97b38c)"><g transform="matrix(1, 0, 0, 1, 4, 9)"><g clip-path="url(#f2f1f773ac)"><g clip-path="url(#08d364ac12)"><path fill="#004173" d="M 0.0429688 0.597656 L 2.601562 0.597656 L 2.601562 12.746094 L 0.0429688 12.746094 Z M 0.0429688 0.597656 " fill-opacity="1" fill-rule="nonzero"/></g></g></g></g><g clip-path="url(#146edbe3b2)"><g transform="matrix(1, 0, 0, 1, 9, 9)"><g clip-path="url(#d1942d730c)"><g clip-path="url(#d4fd866f2e)"><path fill="#004173" d="M 0.214844 0.597656 L 2.773438 0.597656 L 2.773438 13.585938 L 0.214844 13.585938 Z M 0.214844 0.597656 " fill-opacity="1" fill-rule="nonzero"/></g></g></g></g><g clip-path="url(#f57849328b)"><g transform="matrix(1, 0, 0, 1, 14, 9)"><g clip-path="url(#42303369bc)"><g clip-path="url(#f1d40ae2af)"><path fill="#004173" d="M 0.398438 0.597656 L 2.957031 0.597656 L 2.957031 12.746094 L 0.398438 12.746094 Z M 0.398438 0.597656 " fill-opacity="1" fill-rule="nonzero"/></g></g></g></g><g clip-path="url(#4b6d00dea5)"><g transform="matrix(1, 0, 0, 1, 4, 6)"><g clip-path="url(#ea353f7afc)"><g clip-path="url(#e4e07f2bd2)"><path fill="#004173" d="M 0.0429688 2.214844 L 0.0429688 0.277344 L 12.960938 0.277344 L 12.960938 2.214844 Z M 0.0429688 2.214844 " fill-opacity="1" fill-rule="nonzero"/></g></g></g></g><g clip-path="url(#14ceffe54c)"><g transform="matrix(1, 0, 0, 1, 2, 3)"><g clip-path="url(#0eb27d9423)"><g clip-path="url(#41e8c31946)"><path fill="#004173" d="M 0 2.285156 L 0 0.347656 L 16.988281 0.347656 L 16.988281 2.285156 Z M 0 2.285156 " fill-opacity="1" fill-rule="nonzero"/></g></g></g></g><g clip-path="url(#5769b60e2f)"><g><g clip-path="url(#abcc0935f8)"><g clip-path="url(#fedc55970d)"><path fill="#004173" d="M 0.15625 2.355469 L 0.15625 0.414062 L 20.847656 0.414062 L 20.847656 2.355469 Z M 0.15625 2.355469 " fill-opacity="1" fill-rule="nonzero"/></g></g></g></g></g></g></svg>