<svg version="1.1" id="svg" xmlns="http://www.w3.org/2000/svg" x="0" y="0" viewBox="0 0 180 405.5" xml:space="preserve"><style>.st0{fill:#5f5f5e}.st1{fill:#bf1818}.st5{fill:#fff}.st6{fill:#020203}</style><path class="st0" d="M90.1 90.8L65.6 73.2v-3.4c0-2.9 2.4-5.3 5.3-5.3H109c2.9 0 5.3 2.4 5.3 5.3v3.4L90.1 90.8zM68.6 71.6L90 87l21.3-15.3v-1.9c0-1.3-1-2.3-2.3-2.3H70.9c-1.3 0-2.3 1-2.3 2.3v1.8zm44.3.9z"/><path class="st0" d="M109.1 99.5H70.9c-1.7 0-3.2-.8-4.2-2.1l-.8-1.1L82 81.2l8.1 5.8 8.1-5.8 16 15-.8 1.1c-1 1.3-2.6 2.2-4.3 2.2zm-38.9-3.1c.2.1.5.1.7.1H109c.3 0 .5 0 .8-.1l-12-11.2-7.8 5.6-7.8-5.6-12 11.2z"/><path class="st0" d="M109.1 99.5H70.9c-2.9 0-5.3-2.4-5.3-5.3V69.8c0-2.9 2.4-5.3 5.3-5.3H109c2.9 0 5.3 2.4 5.3 5.3v24.3c.1 3-2.3 5.4-5.2 5.4zm-38.2-32c-1.3 0-2.3 1-2.3 2.3v24.3c0 1.3 1 2.3 2.3 2.3H109c1.3 0 2.3-1 2.3-2.3V69.8c0-1.3-1-2.3-2.3-2.3H70.9zM159.7 109.1h-19.3c-3.5 0-6.3-2.8-6.3-6.3V61.2c0-3.5 2.8-6.3 6.3-6.3h19.4c3.5 0 6.2 2.8 6.2 6.3v41.6c-.1 3.5-2.9 6.3-6.3 6.3zm-19.3-51.2c-1.8 0-3.3 1.5-3.3 3.3v41.6c0 1.8 1.5 3.3 3.3 3.3h19.3c1.8 0 3.3-1.5 3.3-3.3V61.2c0-1.9-1.4-3.3-3.2-3.3h-19.4z"/><path class="st0" d="M153.7 59.4h2.1c.4 0 .8.3.8.8s-.3.8-.8.8h-2.1c-.4 0-.8-.3-.8-.8s.4-.8.8-.8zM144.4 59.4h6.3c.4 0 .8.3.8.8s-.3.8-.8.8h-6.3c-.4 0-.8-.3-.8-.8s.4-.8.8-.8z"/><circle class="st0" cx="150.2" cy="102.1" r="2.1"/><path class="st0" d="M157 98.1h-13.9c-2 0-3.6-1.8-3.6-3.9V67.6c0-2.2 1.6-3.9 3.6-3.9H157c2 0 3.6 1.8 3.6 3.9v26.6c0 2.1-1.6 3.9-3.6 3.9zm-13.9-31.4c-.4 0-.6.4-.6.9v26.6c0 .5.3.9.6.9H157c.4 0 .6-.4.6-.9V67.6c0-.5-.3-.9-.6-.9h-13.9z"/><path class="st1" d="M90.1 150.6L65.6 133v-3.4c0-2.9 2.4-5.3 5.3-5.3H109c2.9 0 5.3 2.4 5.3 5.3v3.4l-24.2 17.6zm-21.5-19.1L90 146.9l21.3-15.3v-1.9c0-1.3-1-2.3-2.3-2.3H70.9c-1.3 0-2.3 1-2.3 2.3v1.8zm44.3.9z"/><path class="st1" d="M109.1 159.3H70.9c-1.7 0-3.2-.8-4.2-2.1l-.8-1.1 16.1-15 8.1 5.8 8.1-5.8 16 15-.8 1.1c-1 1.3-2.6 2.1-4.3 2.1zm-38.9-3.1c.2.1.5.1.7.1H109c.3 0 .5 0 .8-.1l-12-11.2-7.8 5.6-7.8-5.6-12 11.2z"/><path class="st1" d="M109.1 159.3H70.9c-2.9 0-5.3-2.4-5.3-5.3v-24.3c0-2.9 2.4-5.3 5.3-5.3H109c2.9 0 5.3 2.4 5.3 5.3V154c.1 3-2.3 5.3-5.2 5.3zm-38.2-31.9c-1.3 0-2.3 1-2.3 2.3V154c0 1.3 1 2.3 2.3 2.3H109c1.3 0 2.3-1 2.3-2.3v-24.3c0-1.3-1-2.3-2.3-2.3H70.9zM159.7 169h-19.3c-3.5 0-6.3-2.8-6.3-6.3v-41.6c0-3.5 2.8-6.3 6.3-6.3h19.4c3.5 0 6.2 2.8 6.2 6.3v41.6c-.1 3.4-2.9 6.3-6.3 6.3zm-19.3-51.2c-1.8 0-3.3 1.5-3.3 3.3v41.6c0 1.8 1.5 3.3 3.3 3.3h19.3c1.8 0 3.3-1.5 3.3-3.3v-41.6c0-1.9-1.4-3.3-3.2-3.3h-19.4z"/><path class="st1" d="M153.7 119.3h2.1c.4 0 .8.3.8.8s-.3.8-.8.8h-2.1c-.4 0-.8-.3-.8-.8s.4-.8.8-.8zM144.4 119.3h6.3c.4 0 .8.3.8.8s-.3.8-.8.8h-6.3c-.4 0-.8-.3-.8-.8s.4-.8.8-.8z"/><circle class="st1" cx="150.2" cy="162" r="2.1"/><path class="st1" d="M157 158h-13.9c-2 0-3.6-1.8-3.6-3.9v-26.6c0-2.2 1.6-3.9 3.6-3.9H157c2 0 3.6 1.8 3.6 3.9V154c0 2.2-1.6 4-3.6 4zm-13.9-31.5c-.4 0-.6.4-.6.9V154c0 .5.3.9.6.9H157c.4 0 .6-.4.6-.9v-26.6c0-.5-.3-.9-.6-.9h-13.9z"/><g><path d="M10.2 164.4c-.7 0-1.3-.3-1.8-.8-.7-.7-.9-1.7-.6-2.6l2.8-8.4c-1.9-3.2-2.9-6.9-2.9-10.8v-1c.5-11.9 10.3-21.2 22.3-21.2 12.2 0 22 9.4 22.3 21.5v.7c0 12.2-10 22.1-22.2 22.1-3.7 0-7.1-.8-10.3-2.5l-8.8 2.8c-.3.1-.5.2-.8.2zM30 122.6c-10.4 0-18.8 8-19.2 18.3v.9c0 3.5 1 7 2.8 9.8l.4.6-3 8.9 9.2-2.9.6.3c2.8 1.6 6 2.4 9.4 2.4 10.6 0 19.2-8.6 19.2-19.1v-.7c-.4-10.3-8.9-18.5-19.4-18.5z" fill="#66b65f"/><path d="M41.6 149.9c-.5 1.2-2.8 2.5-3.8 2.6-.9.2-.9.9-6.8-1.4-5.8-2.2-9.4-8.1-9.7-8.4-.2-.3-1.4-1.8-2-3.8-.2-.6-.3-1.2-.3-1.8 0-2.8 1.5-4.1 2-4.8.6-.6 1.2-.8 1.5-.8h1.1c.3 0 .8-.2 1.2.9.5 1.1 1.5 3.8 1.7 4.1.2.2.2.6 0 .9-.2.2-.2.5-.3.6 0 .2-.2.2-.2.3l-.9.9c-.3.2-.6.5-.3 1.1.3.5 1.4 2.3 3.1 3.8 2.2 1.8 4 2.5 4.6 2.8.6.3.9.2 1.2-.2.3-.3 1.5-1.5 1.8-2.2.3-.6.8-.5 1.2-.3.5.2 3.2 1.5 3.8 1.8.5.3.9.5 1.2 1.1.4.3.4 1.4-.1 2.8z" fill-rule="evenodd" clip-rule="evenodd" fill="#66b65f"/></g><g><path class="st0" d="M10.2 104.4c-.7 0-1.3-.3-1.8-.8-.7-.7-.9-1.7-.6-2.6l2.8-8.4c-1.9-3.2-2.9-6.9-2.9-10.8v-1C8.2 68.9 18 59.6 30 59.6c12.2 0 22 9.4 22.3 21.5v.7c0 12.2-10 22.1-22.2 22.1-3.7 0-7.1-.8-10.3-2.5l-8.8 2.8c-.3.1-.5.2-.8.2zM30 62.6c-10.4 0-18.8 8-19.2 18.3v.9c0 3.5 1 7 2.8 9.8l.4.6-3 8.9 9.2-2.9.6.3c2.8 1.6 6 2.4 9.4 2.4 10.6 0 19.2-8.6 19.2-19.1v-.7C49 70.8 40.5 62.6 30 62.6z"/><path d="M41.6 89.9c-.5 1.2-2.8 2.5-3.8 2.6-.9.2-.9.9-6.8-1.4-5.8-2.2-9.4-8.1-9.7-8.4-.2-.3-1.4-1.8-2-3.8-.2-.6-.3-1.2-.3-1.8 0-2.8 1.5-4.1 2-4.8.6-.6 1.2-.8 1.5-.8h1.1c.3 0 .8-.2 1.2.9.5 1.1 1.5 3.8 1.7 4.1.2.2.2.6 0 .9-.2.2-.2.5-.3.6 0 .2-.2.2-.2.3l-.9.9c-.3.2-.6.5-.3 1.1.3.5 1.4 2.3 3.1 3.8 2.2 1.8 4 2.5 4.6 2.8.6.3.9.2 1.2-.2.3-.3 1.5-1.5 1.8-2.2.3-.6.8-.5 1.2-.3.5.2 3.2 1.5 3.8 1.8.5.3.9.5 1.2 1.1.4.3.4 1.4-.1 2.8z" fill-rule="evenodd" clip-rule="evenodd" fill="#5f5f5e"/></g><g><path class="st0" d="M5.1 368.3c.8 0 1.4-.6 1.4-1.4v-6.6c0-1.6 1.3-2.9 2.9-2.9h7.4c1.6 0 2.9 1.3 2.9 2.9v5.1c0 .8.6 1.4 1.4 1.4s1.4-.6 1.4-1.4v-5.1c0-2.5-1.6-4.6-3.9-5.3.8-1 1.3-2.3 1.3-3.8 0-3.4-2.8-6.2-6.2-6.2s-6.2 2.8-6.2 6.2c0 1.3.4 2.5 1.1 3.6-2.7.4-4.7 2.7-4.7 5.5v6.6c-.2.8.4 1.4 1.2 1.4zm8.4-20.6c1.9 0 3.5 1.6 3.5 3.5s-1.6 3.5-3.5 3.5-3.5-1.6-3.5-3.5 1.6-3.5 3.5-3.5zM36.9 366.8c.8 0 1.4-.6 1.4-1.4v-5.1c0-1.6 1.3-2.9 2.9-2.9h7.4c1.6 0 2.9 1.3 2.9 2.9v5.1c0 .8.6 1.4 1.4 1.4.8 0 1.4-.6 1.4-1.4v-5.1c0-2.5-1.6-4.6-3.9-5.3.8-1 1.3-2.3 1.3-3.8 0-3.4-2.8-6.2-6.2-6.2s-6.2 2.8-6.2 6.2c0 1.3.4 2.5 1.1 3.6-2.7.4-4.7 2.7-4.7 5.5v5.1c-.2.7.4 1.4 1.2 1.4zm8.5-19.1c1.9 0 3.5 1.6 3.5 3.5s-1.6 3.5-3.5 3.5-3.5-1.6-3.5-3.5 1.5-3.5 3.5-3.5zM82.1 355c.8-1 1.3-2.3 1.3-3.8 0-3.4-2.8-6.2-6.2-6.2-3.4 0-6.2 2.8-6.2 6.2 0 1.3.4 2.5 1.1 3.6-2.7.4-4.7 2.7-4.7 5.5v5.1c0 .8.6 1.4 1.4 1.4s1.4-.6 1.4-1.4v-5.1c0-1.6 1.3-2.9 2.9-2.9h7.4c1.6 0 2.9 1.3 2.9 2.9v6.6c0 .8.6 1.4 1.4 1.4s1.4-.6 1.4-1.4v-6.6c-.2-2.5-1.8-4.6-4.1-5.3zm-4.9-7.3c1.9 0 3.5 1.6 3.5 3.5s-1.6 3.5-3.5 3.5-3.5-1.6-3.5-3.5 1.6-3.5 3.5-3.5zM18.5 393.2c.8-1 1.3-2.3 1.3-3.8 0-3.4-2.8-6.2-6.2-6.2s-6.2 2.8-6.2 6.2c0 1.3.4 2.5 1.1 3.6-2.7.4-4.7 2.7-4.7 5.5v5.1c0 .8.6 1.4 1.4 1.4s1.4-.6 1.4-1.4v-5.1c0-1.6 1.3-2.9 2.9-2.9h7.4c1.6 0 2.9 1.3 2.9 2.9v5.1c0 .8.6 1.4 1.4 1.4s1.4-.6 1.4-1.4v-5.1c-.3-2.5-1.9-4.6-4.1-5.3zm-5-7.3c1.9 0 3.5 1.6 3.5 3.5s-1.6 3.5-3.5 3.5-3.5-1.6-3.5-3.5 1.6-3.5 3.5-3.5zM50.3 393.2c.8-1 1.3-2.3 1.3-3.8 0-3.4-2.8-6.2-6.2-6.2s-6.2 2.8-6.2 6.2c0 1.3.4 2.5 1.1 3.6-2.7.4-4.7 2.7-4.7 5.5v5.1c0 .8.6 1.4 1.4 1.4.8 0 1.4-.6 1.4-1.4v-5.1c0-1.6 1.3-2.9 2.9-2.9h7.4c1.6 0 2.9 1.3 2.9 2.9v5.1c0 .8.6 1.4 1.4 1.4.8 0 1.4-.6 1.4-1.4v-5.1c-.2-2.5-1.9-4.6-4.1-5.3zm-4.9-7.3c1.9 0 3.5 1.6 3.5 3.5s-1.6 3.5-3.5 3.5-3.5-1.6-3.5-3.5 1.5-3.5 3.5-3.5zM82.1 393.2c.8-1 1.3-2.3 1.3-3.8 0-3.4-2.8-6.2-6.2-6.2-3.4 0-6.2 2.8-6.2 6.2 0 1.3.4 2.5 1.1 3.6-2.7.4-4.7 2.7-4.7 5.5v5.1c0 .8.6 1.4 1.4 1.4s1.4-.6 1.4-1.4v-5.1c0-1.6 1.3-2.9 2.9-2.9h7.4c1.6 0 2.9 1.3 2.9 2.9v5.1c0 .8.6 1.4 1.4 1.4s1.4-.6 1.4-1.4v-5.1c-.2-2.5-1.8-4.6-4.1-5.3zm-4.9-7.3c1.9 0 3.5 1.6 3.5 3.5s-1.6 3.5-3.5 3.5-3.5-1.6-3.5-3.5 1.6-3.5 3.5-3.5zM35.9 384.7c0 .8.6 1.4 1.4 1.4.8 0 1.4-.6 1.4-1.4v-5.4c0-2.5-1.6-4.6-3.9-5.3.8-1 1.3-2.3 1.3-3.8 0-3.4-2.8-6.2-6.2-6.2s-6.2 2.8-6.2 6.2c0 1.3.4 2.5 1.1 3.6-2.7.4-4.7 2.7-4.7 5.5v5.5c0 .8.6 1.4 1.4 1.4s1.4-.6 1.4-1.4v-5.5c0-1.6 1.3-2.9 2.9-2.9H33c1.6 0 2.9 1.3 2.9 2.9v5.4zm-6.1-17.9c1.9 0 3.5 1.6 3.5 3.5s-1.6 3.5-3.5 3.5-3.5-1.6-3.5-3.5c0-2 1.6-3.5 3.5-3.5zM68.3 386.2c.8 0 1.4-.6 1.4-1.4v-5.5c0-2.5-1.6-4.6-3.9-5.3.8-1 1.3-2.3 1.3-3.8 0-3.4-2.8-6.2-6.2-6.2-3.4 0-6.2 2.8-6.2 6.2 0 1.3.4 2.5 1.1 3.6-2.7.4-4.7 2.7-4.7 5.5v5.4c0 .8.6 1.4 1.4 1.4.8 0 1.4-.6 1.4-1.4v-5.4c0-1.6 1.3-2.9 2.9-2.9h7.4c1.6 0 2.9 1.3 2.9 2.9v5.5c-.1.8.5 1.4 1.2 1.4zm-7.4-19.5c1.9 0 3.5 1.6 3.5 3.5s-1.6 3.5-3.5 3.5-3.5-1.6-3.5-3.5 1.6-3.5 3.5-3.5z"/></g><g><path class="st0" d="M86.1 272.7l-14.8-14.8c2.7-3.1 4.3-7.1 4.3-11.4 0-4.2-1.5-8-3.9-10.9l6.5-6c.7.4 1.4.6 2.2.6 2.6 0 4.7-2.1 4.7-4.7s-2.1-4.7-4.7-4.7-4.7 2.1-4.7 4.7c0 .8.2 1.6.6 2.3l-6.4 5.9c-3.1-2.8-7.1-4.5-11.6-4.5-6 0-11.2 3-14.3 7.6l-5.4-2.8c.1-.3.1-.6.1-.9 0-2.6-2.1-4.7-4.7-4.7s-4.7 2.1-4.7 4.7c0 1.2.5 2.4 1.3 3.2l-16.5 25.3c-.2 0-.5-.1-.8-.1-2.6 0-4.7 2.1-4.7 4.7s2.1 4.7 4.7 4.7 4.7-2.1 4.7-4.7c0-1.4-.6-2.6-1.5-3.5l16.4-25.1c.4.1.7.2 1.1.2 1.3 0 2.5-.6 3.4-1.5l5.3 2.8c-1.1 2.2-1.7 4.7-1.7 7.4 0 9.6 7.8 17.3 17.3 17.3 4.2 0 8.1-1.5 11.1-4l14.8 14.8c.3.3.6.4.9.4s.7-.1.9-.4c.6-.5.6-1.4.1-1.9zm-72.8-4.5c-1.1 0-2-.9-2-2s.9-2 2-2 2 .9 2 2-.9 2-2 2zM34 235.1c-1.1 0-2-.9-2-2s.9-2 2-2 2 .9 2 2-.9 2-2 2zm46.4-11.8c1.1 0 2 .9 2 2s-.9 2-2 2-2-.9-2-2c-.1-1 .9-2 2-2zm-22.1 8.5c3.7 0 7 1.4 9.6 3.6l-6.7 6.3c-.8-.6-1.8-1-2.9-1-1.5 0-2.8.7-3.6 1.7l-8.3-4.4c2.6-3.7 7-6.2 11.9-6.2zm-14.6 14.7c0-2.2.5-4.3 1.4-6.1l8.6 4.6c0 .2-.1.3-.1.5 0 2.6 2.1 4.7 4.7 4.7s4.7-2.1 4.7-4.7c0-.5-.1-1-.3-1.5l7-6.5c2 2.5 3.2 5.7 3.2 9.1 0 8.1-6.6 14.7-14.7 14.7-8-.2-14.5-6.7-14.5-14.8zM25.3 225.9c0-6-4.9-10.9-10.9-10.9s-10.9 4.9-10.9 10.9 4.9 10.9 10.9 10.9 10.9-4.9 10.9-10.9zm-19.2 0c0-4.6 3.7-8.3 8.3-8.3s8.3 3.7 8.3 8.3-3.7 8.3-8.3 8.3-8.3-3.7-8.3-8.3z"/><path class="st0" d="M15.6 231.6v-1.2c.6-.2 1.1-.5 1.5-.9.5-.5.7-1.2.7-2 0-.3 0-.6-.1-.9-.1-.3-.2-.6-.4-.8-.2-.2-.3-.4-.5-.5-.2-.2-.4-.3-.7-.4-.3-.1-.5-.2-.6-.3s-.3-.1-.6-.3c-.2-.1-.4-.1-.5-.2-.1 0-.2-.1-.4-.2s-.3-.1-.3-.2c-.1 0-.1-.1-.1-.2v-.2c0-.2.1-.4.2-.4.1-.1.3-.2.6-.2.5 0 .9.2 1.1.7l.1.3 2-.7-.1-.3c-.1-.5-.4-1-.8-1.3-.3-.3-.7-.5-1.1-.7v-1.1h-2.1v1.1c-.6.2-1.1.4-1.4.9-.4.5-.6 1-.6 1.7 0 .4.1.7.2 1 .1.3.3.5.4.7.2.2.4.4.7.5.3.2.5.3.7.4.2.1.4.2.7.3s.5.2.7.3c.1.1.3.1.5.3.1.1.3.2.3.3.1.1.1.2.1.4 0 .3-.1.5-.3.6-.4.3-1.1.3-1.6-.1-.3-.2-.5-.5-.6-.8l-.1-.3-2 .7.1.3c.2.6.5 1.1 1 1.6.4.4.8.6 1.4.8v1.2l1.9.1z"/></g><g><path class="st0" d="M59.6 285.8H29.9c-1.6 0-2.9 1.3-2.9 2.9v14.8c0 1.6 1.3 2.9 2.9 2.9h29.6c1.6 0 2.9-1.3 2.9-2.9v-14.8c.1-1.6-1.2-2.9-2.8-2.9zm.2 17.6c0 .1-.1.2-.2.2H29.9c-.1 0-.2-.1-.2-.2v-14.8c0-.1.1-.2.2-.2h29.6c.1 0 .2.1.2.2l.1 14.8zM32.8 313.1h23.3c.7 0 1.3-.6 1.3-1.3s-.6-1.3-1.3-1.3H32.8c-.7 0-1.3.6-1.3 1.3s.5 1.3 1.3 1.3zM32.8 319.2h18.4c.7 0 1.3-.6 1.3-1.3s-.6-1.3-1.3-1.3H32.8c-.7 0-1.3.6-1.3 1.3s.5 1.3 1.3 1.3z"/><path class="st0" d="M84.6 285.8H71.1c-.1 0-.3 0-.4.1V283c0-1.6-1.3-2.9-2.9-2.9H21.9c-1.6 0-2.9 1.3-2.9 2.9v2.9H5.4c-1.8 0-3.3 1.3-3.3 2.9v42.7c0 1.6 1.5 2.9 3.3 2.9h13.7v2.9c0 1.6 1.3 2.9 2.9 2.9h45.8c1.6 0 2.9-1.3 2.9-2.9v-2.9c.1 0 .3.1.4.1h13.6c1.8 0 3.3-1.3 3.3-2.9v-42.7c-.1-1.8-1.5-3.1-3.4-3.1zm-65.7 45.8H5.4c-.4 0-.6-.2-.6-.2v-42.6c0-.1.3-.3.6-.3h13.7v10.9H9.7c-.7 0-1.3.6-1.3 1.3 0 .7.6 1.3 1.3 1.3H19v1.7H11.6c-.7 0-1.3.6-1.3 1.3s.6 1.3 1.3 1.3H19v25.2c0 .1 0 .1-.1.1zm49.1 5.5c0 .1-.1.2-.2.2H21.9c-.1 0-.2-.1-.2-.2v-54.2c0-.1.1-.2.2-.2h45.8c.1 0 .2.1.2.2v54.2h.1zm16.6-5.5H71.1c-.1 0-.3 0-.4.1v-25.4c.1 0 .3.1.4.1h7.3c.7 0 1.3-.6 1.3-1.3s-.6-1.3-1.3-1.3h-7.3c-.1 0-.3 0-.4.1V302c.1 0 .3.1.4.1h9.2c.7 0 1.3-.6 1.3-1.3 0-.7-.6-1.3-1.3-1.3h-9.2c-.1 0-.3 0-.4.1v-11c.1 0 .3.1.4.1h13.6c.4 0 .6.2.6.2v42.6c0-.1-.3.1-.7.1z"/><path class="st0" d="M56.1 324.6l-23.3-.2c-.7 0-1.3.6-1.3 1.3 0 .7.6 1.3 1.3 1.3l23.3.2c.7 0 1.3-.6 1.3-1.3 0-.7-.6-1.3-1.3-1.3zM51.2 330.7l-18.4-.1c-.7 0-1.3.6-1.3 1.3 0 .7.6 1.3 1.3 1.3l18.4.1c.7 0 1.3-.6 1.3-1.3 0-.7-.6-1.3-1.3-1.3zM48.1 295l-5.6-3.4c-.5-.2-1.1-.2-1.5.1-.4.2-.6.6-.6 1v6.8c0 .4.2.8.6 1 .3.2.5.2.8.2.2 0 .5-.1.7-.2l5.5-3.4c.5-.2.8-.6.8-1.1 0-.4-.3-.8-.7-1zM28.3 319.7c1 0 1.7-.8 1.7-1.7 0-1-.8-1.7-1.7-1.7-1 0-1.7.8-1.7 1.7 0 .9.8 1.7 1.7 1.7zM28.3 313.3c1 0 1.7-.8 1.7-1.7 0-1-.8-1.7-1.7-1.7-1 0-1.7.8-1.7 1.7 0 .9.8 1.7 1.7 1.7zM28.3 330.4c-1 0-1.7.8-1.7 1.7 0 1 .8 1.7 1.7 1.7.5 0 .9-.2 1.2-.5.3-.3.5-.8.5-1.2 0-.5-.2-.9-.5-1.2s-.7-.5-1.2-.5zM28.4 324s-.1 0 0 0c-1 0-1.7.8-1.7 1.7 0 1 .8 1.7 1.7 1.7.5 0 .9-.2 1.2-.5.3-.3.5-.8.5-1.2 0-.5-.2-.9-.5-1.2-.3-.3-.8-.5-1.2-.5z"/></g><g><path class="st5" d="M154.8 179.3H138l-.1-.3c-.3-1-1.3-1.8-2.3-1.8h-1.4c-.5 0-.9.4-.9.9s.4.9.9.9h1.4c.3 0 .6.2.6.5l3.2 10.9-1.5 1.9c-.3.4-.4.8-.4 1.3 0 1.1.9 2 2 2H154c.5 0 .9-.4.9-.9s-.4-.9-.9-.9h-14.5c-.1 0-.3-.1-.3-.3 0-.1 0-.1.1-.2l1.6-2h10c.9 0 1.8-.6 2.2-1.4l3.6-7.7c.1-.3.2-.6.2-.9v-.1c-.1-1-1-1.9-2.1-1.9zm0 1.7c.1 0 .3.1.3.3V181.6l-3.6 7.7c-.1.2-.4.4-.6.4H141l-2.5-8.6 16.3-.1zM139.8 195.9c-1.4 0-2.5 1.1-2.5 2.5s1.1 2.5 2.5 2.5 2.5-1.1 2.5-2.5-1.2-2.5-2.5-2.5zm0 1.8c.4 0 .7.3.7.7s-.3.7-.7.7-.7-.3-.7-.7.3-.7.7-.7zM152.3 195.9c-1.4 0-2.5 1.1-2.5 2.5s1.1 2.5 2.5 2.5 2.5-1.1 2.5-2.5-1.2-2.5-2.5-2.5zm0 1.8c.4 0 .7.3.7.7s-.3.7-.7.7-.7-.3-.7-.7.3-.7.7-.7z"/></g><g><path class="st5" d="M134 389.1v-5.3-5.3c0-5.6.8-9.9 2.4-13.1 1.4-2.9 4-4.5 7.5-4.8.5 0 .9.2 1.2.7l1 2.1c.3.6 0 1.4-.7 1.6-1.5.5-2.6 1.4-3.2 2.9-.8 1.7-1.2 4.3-1.2 7.8 0 .7.5 1.2 1.2 1.2h3.4c.7 0 1.2.5 1.2 1.2v9.7c0 .7-.5 1.2-1.2 1.2l-11.6.1zm19 0v-5.3-5.3c0-5.6.8-9.9 2.4-13.1 1.4-2.9 4-4.5 7.5-4.8.5 0 .9.2 1.2.7l1 2.1c.3.6 0 1.4-.7 1.6-1.5.5-2.6 1.4-3.2 2.9-.8 1.7-1.2 4.3-1.2 7.8 0 .7.5 1.2 1.2 1.2h3.4c.7 0 1.2.5 1.2 1.2v9.7c0 .7-.5 1.2-1.2 1.2l-11.6.1z"/></g><g><path class="st5" d="M150.3 26.6c-.5 0-1-.2-1.4-.6-.8-.8-.8-2 0-2.8l8.9-8.9c1.2-1.2 3.1-1.2 4.3 0l8.9 8.9c.8.8.8 2 0 2.8s-2 .8-2.8 0l-8.2-8.2-8.2 8.2c-.4.4-.9.6-1.5.6z"/></g><g><path class="st5" d="M161.5 250.7c-.1-1.5-.9-2.8-2-3.7-.1-.1-.2-.1-.3-.2.2-1.9-.7-3.9-2.4-5.1l-1.2-.8c-.5-.3-1.1-.2-1.4.3-.3.5-.2 1.1.3 1.4l1.2.8c.9.6 1.4 1.5 1.5 2.5-.6-.1-1.1-.2-1.7-.1-1.5.1-2.8.9-3.7 2-.3.3-.5.6-.6 1l-1-.6c-.5-.3-1.1-.2-1.4.3-.3.5-.2 1.1.3 1.4l1.5 1v1l.7 7.5c.1 1.5.9 2.8 2 3.7 1 .8 2.2 1.3 3.5 1.3h.5c1.5-.1 2.8-.9 3.7-2s1.4-2.6 1.2-4.1l-.7-7.6zm-5.8-3h.3c.3 0 .6 0 .8.1-.1.1-.1.3-.2.4-.8 1.2-2.3 1.7-3.7 1.4.1-.2.2-.4.4-.6.6-.7 1.4-1.2 2.4-1.3zm3.7 13.2c-.6.7-1.4 1.2-2.4 1.3-.9.1-1.8-.2-2.6-.8-.7-.6-1.2-1.4-1.3-2.4l-.7-7.4c.4.1.8.1 1.2.1 1.8 0 3.5-.8 4.6-2.4.1-.2.2-.3.3-.5.5.6.8 1.2.9 2l.7 7.5c.2 1-.1 1.9-.7 2.6zM151.1 239.9c.3-.5.2-1.1-.3-1.4l-1.8-1.2c-.7-.5-1.4-.7-2.2-.9l-2.2-6.8c-.9-2.9-4.1-4.5-7-3.6-1.4.4-2.6 1.4-3.2 2.7-.7 1.3-.8 2.8-.4 4.2l2.3 7.2c.7 2 2.4 3.4 4.4 3.8.4 1 1.1 1.8 2 2.4l1.9 1.3c.2.1.4.2.6.2.3 0 .6-.2.8-.4.3-.5.2-1.1-.3-1.4l-1.9-1.3c-.3-.2-.6-.5-.9-.9.1 0 .2 0 .3-.1 1.4-.4 2.6-1.4 3.2-2.7.4-.8.6-1.6.6-2.4.2.1.4.2.7.4l1.8 1.2c.6.3 1.3.2 1.6-.3zm-12.8-.4l-2.3-7.2c-.3-.9-.2-1.8.2-2.7.4-.8 1.2-1.4 2-1.7.4-.1.7-.2 1.1-.2 1.5 0 2.9.9 3.3 2.4l2 6.2c-1.3.3-2.6 1.1-3.4 2.3-.6.9-.9 1.9-1 3-.8-.3-1.5-1.1-1.9-2.1zm6.5.6c-.4.8-1.2 1.4-2 1.7-.1 0-.2 0-.3.1 0-.7.2-1.4.6-2 .5-.8 1.3-1.3 2.2-1.4-.1.5-.2 1-.5 1.6zM156.3 235.4c.1.1.3.1.4.1.4 0 .7-.2.9-.6l1.9-3.9c.2-.5 0-1.1-.5-1.4-.5-.2-1.1 0-1.4.5l-1.9 3.9c-.1.5.1 1.1.6 1.4zM151.7 234c.1.4.5.7 1 .7.1 0 .2 0 .3-.1.5-.2.8-.8.6-1.3l-1.6-4.6c-.2-.5-.8-.8-1.3-.6s-.8.8-.6 1.3l1.6 4.6zM142.3 251.8L140 255c-.3.5-.2 1.1.3 1.4.2.1.4.2.6.2.3 0 .6-.2.8-.4l2.2-3.2c.3-.5.2-1.1-.3-1.4-.4-.4-1-.3-1.3.2zM146 253.2c-.6 0-1 .5-.9 1.1l.3 4.8c0 .5.5 1 1 1h.1c.6 0 1-.5.9-1.1l-.3-4.8c0-.6-.5-1-1.1-1z"/></g><g><path class="st5" d="M165.4 309.2l-17-9.3c-1.3-.7-2.9-.7-4.2.1-1.3.8-2 2.1-2 3.6l.4 19.4c0 1.5.8 2.8 2.2 3.6 1.3.7 2.9.7 4.2-.1l4.2-2.5 2.7 4.5c.5.8 1.3 1.4 2.3 1.7.3.1.6.1.9.1.7 0 1.3-.2 1.9-.5l2-1.2c.8-.5 1.4-1.3 1.7-2.3.2-1 .1-2-.4-2.8l-2.7-4.5 4.1-2.5c1.3-.8 2-2.1 2-3.6-.2-1.6-1-2.9-2.3-3.7zm-1.1 5.3l-4.7 2.9c-.7.4-.9 1.3-.6 2.1.1.1.1.3.2.4l2.9 4.8c.2.3.3.7.2 1.1s-.3.7-.6.9l-2 1.2c-.3.2-.7.3-1.1.2-.4-.1-.7-.3-.9-.6l-3-4.9c-.1-.1-.1-.2-.2-.3-.3-.4-.8-.7-1.3-.7-.3 0-.6.1-.8.2l-4.8 2.8c-.6.4-1.3.4-1.9 0-.6-.3-1-.9-1-1.6l-.4-19.4c0-.7.3-1.3.9-1.6.6-.4 1.3-.4 1.9 0l17 9.3c.6.3 1 .9 1 1.6s-.2 1.2-.8 1.6zM145.8 297.3h.2c.5 0 1-.4 1.1-.9l.8-4.5c.1-.6-.3-1.2-.9-1.3-.6-.1-1.2.3-1.3.9l-.8 4.5c-.1.6.3 1.2.9 1.3zM143.1 296.5l-2.8-4c-.4-.5-1.1-.6-1.6-.3-.5.4-.6 1.1-.3 1.6l2.8 4c.2.3.6.5.9.5.2 0 .5-.1.7-.2.5-.4.7-1.1.3-1.6zM139.3 299.5l-5.4-1c-.6-.1-1.2.3-1.3.9s.3 1.2.9 1.3l5.4 1h.2c.5 0 1-.4 1.1-.9.2-.5-.2-1.1-.9-1.3z"/></g><g><path class="st5" d="M49 8.1c-.7 0-1.4.2-2.1.6s-1.2 1-1.6 1.7c-.3-.7-.7-1.3-1.3-1.7-.6-.4-1.3-.6-2-.6-1.4 0-2.5.6-3.4 1.8V8.4H37V19h1.6v-4.5c0-1.3.1-2.3.4-2.9.2-.6.6-1 1.1-1.4s1.1-.5 1.6-.5c.6 0 1 .1 1.4.4.4.3.6.7.7 1.1.1.5.2 1.2.2 2.3V19h1.6v-4.2c0-1.3.1-2.3.3-3s.6-1.2 1.1-1.6c.5-.4 1.1-.6 1.7-.6.6 0 1.1.1 1.5.4.4.3.6.7.7 1.1.1.4.2 1.1.2 2V19h1.6v-5.8c0-2-.4-3.3-1.1-4S50 8.1 49 8.1zM59.8 8.1c-1.5 0-2.8.6-3.9 1.9V8.4h-1.6v14.3h1.6v-5.3c1.2 1.3 2.5 1.9 4 1.9s2.8-.5 3.8-1.6c1.1-1.1 1.6-2.4 1.6-4 0-1.5-.5-2.9-1.6-4-1.1-1-2.4-1.6-3.9-1.6zm2.8 8.6c-.8.8-1.7 1.2-2.8 1.2s-2-.4-2.8-1.2c-.8-.8-1.2-1.8-1.2-2.9 0-1.2.4-2.1 1.1-2.9.8-.8 1.7-1.2 2.8-1.2s2.1.4 2.8 1.2c.8.8 1.2 1.8 1.2 2.9s-.4 2.1-1.1 2.9zM72.7 8.5c-.3.2-.7.6-1 1.1V8.4h-1.6V19h1.6v-3.6c0-1.7.1-2.8.2-3.5.2-.6.4-1.2.7-1.6.3-.4.7-.6 1.1-.6.2 0 .4.1.6.2l.8-1.4c-.5-.3-1-.4-1.4-.4-.3 0-.6.2-1 .4zM85.9 9.7c1.5 0 2.8.6 3.7 1.8l1.3-.8c-.5-.8-1.2-1.4-2-1.9-1-.4-1.9-.7-2.9-.7-1.7 0-3.2.6-4.3 1.7-1.1 1.1-1.6 2.4-1.6 4s.5 2.9 1.6 3.9c1.1 1.1 2.5 1.6 4.1 1.6 1 0 2-.2 2.9-.6s1.6-1 2.2-1.9l-1.3-.8c-1 1.2-2.3 1.9-3.7 1.9-1.2 0-2.2-.4-3-1.2-.8-.8-1.2-1.8-1.2-2.9s.4-2.1 1.2-2.9 1.8-1.2 3-1.2zM100.1 12.3c0 1.4-.1 2.3-.2 2.8s-.3.9-.7 1.3c-.3.4-.7.7-1.2 1-.5.2-.9.3-1.4.3s-.9-.1-1.2-.2c-.3-.1-.6-.4-.8-.7s-.4-.6-.5-1.1c-.1-.4-.2-1.2-.2-2.4v-5h-1.6v5.4c0 1.4.2 2.5.5 3.2s.8 1.2 1.4 1.6 1.3.6 2.1.6c1.4 0 2.7-.6 3.7-1.9V19h1.6V8.4H100l.1 3.9zM107.4 13c-.8-.4-1.3-.8-1.6-1-.3-.3-.5-.6-.5-1s.1-.7.4-.9.6-.4 1-.4c.6 0 1.3.4 2.1 1.1l1-1.1c-1-1-2-1.5-2.9-1.5s-1.7.3-2.2.8c-.6.5-.8 1.2-.8 2s.2 1.4.6 1.9 1 .9 1.7 1.3c.8.4 1.3.7 1.6 1 .3.3.5.7.5 1.1s-.2.8-.5 1.1c-.3.3-.8.5-1.3.5-.7 0-1.4-.4-2.1-1.2l-1 1.1c.9 1.1 1.9 1.6 3.2 1.6.9 0 1.7-.3 2.3-.9.6-.6.9-1.4.9-2.3 0-.7-.2-1.3-.6-1.8-.4-.6-1-1-1.8-1.4zM66.6 8.4h1.6V19h-1.6zM67.4 5.3c-.3 0-.5.1-.6.3-.2.2-.3.4-.3.6s.1.5.3.6c.2.2.4.3.7.3.3 0 .5-.1.7-.3.2-.2.3-.4.3-.7 0-.3-.1-.5-.3-.7-.3 0-.5-.1-.8-.1zM76.8 8.4h1.6V19h-1.6zM77.6 5.3c-.3 0-.5.1-.6.3-.2.2-.3.4-.3.6s.1.5.3.6c.2.2.4.3.7.3.3 0 .5-.1.7-.3.2-.2.3-.4.3-.7 0-.3-.1-.5-.3-.7-.3 0-.5-.1-.8-.1zM.3 4.6v18.7c0 .6.5 1 1 1H20c.6 0 1-.5 1-1V4.6c0-.6-.5-1-1-1H1.3c-.5 0-1 .5-1 1z"/><path class="st6" d="M7.7 12.9h9.9v2.2H7.7z"/><path class="st6" d="M15.9 16.7c-.9 1.7-2.7 2.8-4.8 2.8-3 0-5.5-2.5-5.5-5.5s2.5-5.5 5.5-5.5c2.1 0 3.9 1.2 4.9 2.9l1.6-1.6c-1.4-2.1-3.7-3.5-6.4-3.5C7 6.3 3.5 9.7 3.5 14s3.4 7.7 7.7 7.7c2.7 0 5-1.4 6.4-3.4l-1.7-1.6z"/></g><path class="st5" d="M29.9 8.1c-3 0-5.5 2.5-5.5 5.6s2.4 5.6 5.5 5.6c2.2 0 4.2-1.4 5-3.4l-1.4-.7c-.6 1.5-2 2.6-3.6 2.6-2.2 0-3.9-1.8-3.9-4s1.8-4 3.9-4c1.8 0 3.2 1.2 3.7 2.9h-6V14h7.6v-.2c.2-3.1-2.3-5.7-5.3-5.7z"/></svg>