<svg xmlns="http://www.w3.org/2000/svg" xmlns:xlink="http://www.w3.org/1999/xlink" width="700" zoomAndPan="magnify" viewBox="0 0 525 150.749998" height="201" preserveAspectRatio="xMidYMid meet" version="1.0"><defs><g/><clipPath id="a6aaf67894"><path d="M 76 108 L 107 108 L 107 147.625 L 76 147.625 Z M 76 108 " clip-rule="nonzero"/></clipPath><clipPath id="687d989cff"><path d="M 10.148438 90 L 45 90 L 45 133 L 10.148438 133 Z M 10.148438 90 " clip-rule="nonzero"/></clipPath><clipPath id="5ea293f172"><path d="M 81 55 L 133.695312 55 L 133.695312 91 L 81 91 Z M 81 55 " clip-rule="nonzero"/></clipPath><clipPath id="239569e6fb"><path d="M 22 3.117188 L 126 3.117188 L 126 147 L 22 147 Z M 22 3.117188 " clip-rule="nonzero"/></clipPath><clipPath id="1122d17801"><path d="M 21 3.117188 L 127 3.117188 L 127 147.625 L 21 147.625 Z M 21 3.117188 " clip-rule="nonzero"/></clipPath></defs><g fill="#d9d9d9" fill-opacity="1"><g transform="translate(166.203889, 114.078709)"><g><path d="M 31.71875 1.59375 C 25.757812 1.59375 20.515625 0.492188 15.984375 -1.703125 C 11.453125 -3.910156 7.941406 -7.078125 5.453125 -11.203125 C 2.960938 -15.328125 1.71875 -20.25 1.71875 -25.96875 C 1.71875 -28.414062 1.960938 -31.023438 2.453125 -33.796875 L 12.609375 -33.796875 C 12.453125 -32.660156 12.3125 -31.5625 12.1875 -30.5 C 12.0625 -29.4375 12 -28.375 12 -27.3125 C 12 -21.351562 13.773438 -16.632812 17.328125 -13.15625 C 20.878906 -9.6875 26.082031 -7.953125 32.9375 -7.953125 C 38.082031 -7.953125 42.738281 -9.054688 46.90625 -11.265625 C 51.070312 -13.472656 54.539062 -16.554688 57.3125 -20.515625 C 60.09375 -24.472656 61.929688 -29.066406 62.828125 -34.296875 L 70.296875 -75.9375 L 40.296875 -75.9375 L 41.890625 -85.734375 L 82.421875 -85.734375 L 73.359375 -34.296875 C 72.210938 -27.109375 69.78125 -20.816406 66.0625 -15.421875 C 62.351562 -10.035156 57.597656 -5.851562 51.796875 -2.875 C 46.003906 0.101562 39.3125 1.59375 31.71875 1.59375 Z M 31.71875 1.59375 "/></g></g></g><g fill="#d9d9d9" fill-opacity="1"><g transform="translate(254.994036, 114.078709)"><g><path d="M 43.234375 1.59375 C 36.617188 1.59375 30.984375 0.59375 26.328125 -1.40625 C 21.671875 -3.40625 17.894531 -6.117188 15 -9.546875 C 12.101562 -12.984375 9.976562 -16.90625 8.625 -21.3125 C 7.28125 -25.71875 6.609375 -30.332031 6.609375 -35.15625 C 6.609375 -42.175781 7.894531 -48.804688 10.46875 -55.046875 C 13.039062 -61.296875 16.65625 -66.828125 21.3125 -71.640625 C 25.96875 -76.460938 31.5 -80.257812 37.90625 -83.03125 C 44.3125 -85.8125 51.351562 -87.203125 59.03125 -87.203125 C 67.28125 -87.203125 74.097656 -85.566406 79.484375 -82.296875 C 84.867188 -79.035156 88.867188 -74.726562 91.484375 -69.375 C 94.097656 -64.03125 95.40625 -58.171875 95.40625 -51.796875 C 95.40625 -50.328125 95.34375 -48.816406 95.21875 -47.265625 C 95.09375 -45.722656 94.867188 -44.175781 94.546875 -42.625 C 93.566406 -36.988281 91.707031 -31.535156 88.96875 -26.265625 C 86.238281 -21.003906 82.707031 -16.269531 78.375 -12.0625 C 74.050781 -7.851562 68.945312 -4.523438 63.0625 -2.078125 C 57.1875 0.367188 50.578125 1.59375 43.234375 1.59375 Z M 44.328125 -8.203125 C 49.960938 -8.203125 55.023438 -9.179688 59.515625 -11.140625 C 64.003906 -13.097656 67.898438 -15.726562 71.203125 -19.03125 C 74.515625 -22.34375 77.234375 -26.039062 79.359375 -30.125 C 81.484375 -34.207031 82.953125 -38.375 83.765625 -42.625 C 84.097656 -44.09375 84.34375 -45.5625 84.5 -47.03125 C 84.664062 -48.5 84.75 -49.925781 84.75 -51.3125 C 84.75 -56.050781 83.828125 -60.398438 81.984375 -64.359375 C 80.148438 -68.316406 77.273438 -71.519531 73.359375 -73.96875 C 69.441406 -76.414062 64.335938 -77.640625 58.046875 -77.640625 C 51.679688 -77.640625 45.988281 -76.457031 40.96875 -74.09375 C 35.945312 -71.726562 31.660156 -68.546875 28.109375 -64.546875 C 24.554688 -60.546875 21.835938 -56.03125 19.953125 -51 C 18.078125 -45.976562 17.140625 -40.816406 17.140625 -35.515625 C 17.140625 -30.773438 18.015625 -26.320312 19.765625 -22.15625 C 21.523438 -18 24.40625 -14.632812 28.40625 -12.0625 C 32.40625 -9.488281 37.710938 -8.203125 44.328125 -8.203125 Z M 44.328125 -8.203125 "/></g></g></g><g fill="#d9d9d9" fill-opacity="1"><g transform="translate(358.970318, 114.078709)"><g><path d="M 24.859375 0 L 38.328125 -76.171875 L 9.0625 -76.171875 L 10.78125 -85.734375 L 79.84375 -85.734375 L 78.140625 -76.171875 L 48.859375 -76.171875 L 35.390625 0 Z M 24.859375 0 "/></g></g></g><g fill="#d9d9d9" fill-opacity="1"><g transform="translate(436.615802, 114.078709)"><g><path d="M -3.796875 0 L 49.71875 -85.734375 L 61.71875 -85.734375 L 85.109375 0 L 74.34375 0 L 69.078125 -18.859375 L 19.71875 -18.859375 L 8.078125 0 Z M 25.59375 -28.65625 L 66.625 -28.65625 L 54.375 -75.6875 Z M 25.59375 -28.65625 "/></g></g></g><path fill="#919191" d="M 96.453125 109.808594 L 96.441406 109.808594 C 93.339844 109.425781 89.164062 108.957031 85.90625 110.101562 C 90.492188 113.558594 94.132812 118.210938 92.378906 123.195312 C 89.148438 132.367188 82.59375 134.5625 85.953125 136.371094 C 85.953125 136.371094 76.910156 140.503906 76.910156 146.964844 L 91.898438 146.964844 C 91.898438 146.964844 93.707031 143.605469 91.898438 139.214844 C 91.898438 139.214844 95.515625 139.472656 96.03125 136.113281 C 96.546875 132.753906 95.332031 124.8125 102.710938 122.675781 C 105.339844 121.917969 105.785156 120.5625 105.945312 118.992188 C 102.007812 117.117188 98.609375 113.65625 96.453125 109.808594 " fill-opacity="1" fill-rule="nonzero"/><g clip-path="url(#a6aaf67894)"><path fill="#ffffff" d="M 96.453125 109.808594 L 96.488281 109.398438 L 96.480469 109.394531 L 96.441406 109.808594 L 96.492188 109.398438 C 94.855469 109.195312 92.90625 108.96875 90.933594 108.96875 C 89.164062 108.96875 87.375 109.148438 85.769531 109.710938 C 85.625 109.761719 85.519531 109.886719 85.496094 110.039062 C 85.472656 110.1875 85.535156 110.339844 85.65625 110.433594 C 87.523438 111.839844 89.226562 113.445312 90.445312 115.167969 C 91.671875 116.890625 92.414062 118.722656 92.414062 120.609375 C 92.414062 121.410156 92.277344 122.226562 91.988281 123.054688 C 90.707031 126.691406 88.902344 129.203125 87.402344 131.046875 C 86.652344 131.972656 85.976562 132.722656 85.476562 133.378906 C 85.226562 133.707031 85.015625 134.007812 84.863281 134.308594 C 84.710938 134.605469 84.609375 134.90625 84.609375 135.222656 C 84.605469 135.527344 84.714844 135.835938 84.917969 136.085938 C 85.121094 136.335938 85.398438 136.542969 85.757812 136.734375 L 85.953125 136.371094 L 85.78125 135.996094 C 85.761719 136.003906 83.476562 137.046875 81.171875 138.925781 C 80.019531 139.863281 78.859375 141.011719 77.976562 142.359375 C 77.097656 143.703125 76.496094 145.25 76.496094 146.964844 C 76.496094 147.074219 76.542969 147.179688 76.617188 147.257812 C 76.695312 147.335938 76.800781 147.378906 76.910156 147.378906 L 91.898438 147.378906 C 92.046875 147.378906 92.1875 147.292969 92.261719 147.160156 C 92.28125 147.121094 93.113281 145.570312 93.113281 143.175781 C 93.113281 141.980469 92.902344 140.574219 92.28125 139.054688 L 91.898438 139.214844 L 91.867188 139.625 C 91.875 139.628906 91.949219 139.632812 92.074219 139.632812 C 92.476562 139.628906 93.40625 139.582031 94.339844 139.128906 C 94.808594 138.898438 95.273438 138.566406 95.652344 138.082031 C 96.03125 137.597656 96.320312 136.964844 96.441406 136.175781 C 96.574219 135.289062 96.59375 134.164062 96.667969 132.921875 C 96.777344 131.0625 97.011719 128.957031 97.867188 127.15625 C 98.292969 126.257812 98.871094 125.433594 99.671875 124.734375 C 100.472656 124.035156 101.496094 123.460938 102.828125 123.074219 C 103.511719 122.875 104.070312 122.636719 104.523438 122.351562 C 105.203125 121.929688 105.648438 121.398438 105.917969 120.824219 C 106.191406 120.25 106.292969 119.644531 106.359375 119.035156 C 106.375 118.859375 106.28125 118.695312 106.125 118.621094 C 102.28125 116.789062 98.929688 113.382812 96.8125 109.605469 C 96.746094 109.488281 96.625 109.410156 96.488281 109.398438 L 96.453125 109.808594 L 96.089844 110.011719 C 98.289062 113.925781 101.738281 117.441406 105.769531 119.367188 L 105.945312 118.992188 L 105.535156 118.949219 C 105.457031 119.710938 105.3125 120.359375 104.921875 120.894531 C 104.722656 121.164062 104.457031 121.417969 104.085938 121.648438 C 103.710938 121.882812 103.226562 122.097656 102.597656 122.277344 C 100.683594 122.832031 99.296875 123.777344 98.3125 124.9375 C 96.835938 126.679688 96.273438 128.859375 96.015625 130.898438 C 95.886719 131.917969 95.835938 132.902344 95.792969 133.789062 C 95.75 134.671875 95.714844 135.453125 95.621094 136.050781 C 95.519531 136.714844 95.289062 137.199219 95 137.570312 C 94.566406 138.125 93.976562 138.433594 93.410156 138.605469 C 92.847656 138.777344 92.320312 138.804688 92.074219 138.804688 C 92.023438 138.804688 91.984375 138.804688 91.957031 138.800781 L 91.925781 138.800781 C 91.78125 138.789062 91.644531 138.855469 91.5625 138.972656 C 91.476562 139.085938 91.460938 139.238281 91.515625 139.371094 C 92.09375 140.78125 92.285156 142.074219 92.289062 143.175781 C 92.289062 144.273438 92.09375 145.183594 91.902344 145.8125 C 91.808594 146.125 91.710938 146.371094 91.640625 146.53125 C 91.605469 146.613281 91.578125 146.675781 91.558594 146.714844 L 91.539062 146.757812 L 91.53125 146.765625 L 91.53125 146.769531 L 91.898438 146.964844 L 91.898438 146.550781 L 76.910156 146.550781 L 76.910156 146.964844 L 77.324219 146.964844 C 77.324219 145.449219 77.855469 144.058594 78.671875 142.8125 C 79.890625 140.941406 81.761719 139.410156 83.324219 138.363281 C 84.105469 137.839844 84.808594 137.433594 85.316406 137.160156 C 85.570312 137.023438 85.773438 136.917969 85.914062 136.851562 C 85.984375 136.816406 86.039062 136.789062 86.074219 136.773438 L 86.125 136.746094 C 86.269531 136.683594 86.363281 136.542969 86.367188 136.386719 C 86.371094 136.226562 86.289062 136.082031 86.148438 136.007812 C 85.851562 135.847656 85.667969 135.695312 85.566406 135.566406 C 85.464844 135.4375 85.4375 135.347656 85.4375 135.222656 C 85.433594 135.09375 85.480469 134.914062 85.597656 134.6875 C 85.800781 134.285156 86.210938 133.761719 86.742188 133.128906 C 88.347656 131.214844 91.035156 128.253906 92.765625 123.332031 C 93.089844 122.414062 93.238281 121.503906 93.238281 120.609375 C 93.238281 118.503906 92.414062 116.507812 91.121094 114.6875 C 89.828125 112.867188 88.070312 111.214844 86.15625 109.769531 L 85.90625 110.101562 L 86.042969 110.492188 C 87.519531 109.972656 89.222656 109.792969 90.933594 109.792969 C 92.84375 109.792969 94.761719 110.015625 96.390625 110.21875 L 96.414062 110.21875 L 96.453125 109.808594 L 96.089844 110.011719 L 96.453125 109.808594 " fill-opacity="1" fill-rule="nonzero"/></g><path fill="#919191" d="M 36.566406 106.398438 C 39.464844 106.398438 41.984375 105.296875 43.714844 104.265625 C 42.699219 103.835938 41.714844 103.34375 40.734375 102.707031 C 38.835938 101.460938 36.929688 100.191406 35.230469 98.671875 C 32.757812 96.460938 30.722656 93.925781 29.273438 91.007812 C 21.746094 91.128906 12.316406 96.054688 11.375 98.777344 C 10.210938 102.136719 14.863281 107.046875 17.1875 111.4375 C 19.515625 115.828125 17.316406 117.121094 17.835938 119.707031 C 18.351562 122.289062 20.933594 121.902344 20.933594 121.902344 C 19.125 129.265625 24.292969 132.367188 24.292969 132.367188 C 28.945312 130.171875 31.527344 123.324219 31.527344 123.324219 C 29.96875 120.957031 25.585938 118.671875 25.585938 118.671875 C 27.007812 116.734375 26.359375 114.28125 26.359375 114.28125 C 23.003906 112.859375 20.933594 105.753906 20.933594 105.753906 C 20.933594 105.753906 22.484375 105.238281 25.457031 104.847656 C 28.429688 104.460938 31.140625 106.398438 36.566406 106.398438 " fill-opacity="1" fill-rule="nonzero"/><g clip-path="url(#687d989cff)"><path fill="#ffffff" d="M 36.566406 106.398438 L 36.566406 106.8125 C 39.570312 106.8125 42.15625 105.671875 43.925781 104.621094 C 44.058594 104.539062 44.136719 104.390625 44.125 104.238281 C 44.113281 104.082031 44.019531 103.945312 43.875 103.882812 C 42.875 103.460938 41.914062 102.984375 40.960938 102.359375 C 39.0625 101.117188 37.175781 99.855469 35.507812 98.363281 C 33.066406 96.179688 31.066406 93.6875 29.644531 90.824219 C 29.574219 90.679688 29.425781 90.589844 29.265625 90.59375 C 25.417969 90.65625 21.140625 91.9375 17.679688 93.542969 C 15.949219 94.34375 14.425781 95.230469 13.261719 96.097656 C 12.679688 96.535156 12.1875 96.964844 11.800781 97.386719 C 11.414062 97.808594 11.132812 98.21875 10.984375 98.640625 C 10.839844 99.050781 10.777344 99.480469 10.777344 99.917969 C 10.777344 100.820312 11.042969 101.753906 11.457031 102.710938 C 12.078125 104.148438 13.039062 105.652344 14.035156 107.164062 C 15.03125 108.671875 16.0625 110.191406 16.824219 111.628906 C 17.640625 113.179688 17.863281 114.28125 17.867188 115.195312 C 17.867188 115.863281 17.742188 116.4375 17.613281 117.019531 C 17.480469 117.605469 17.339844 118.203125 17.339844 118.878906 C 17.339844 119.167969 17.367188 119.46875 17.429688 119.785156 C 17.539062 120.335938 17.738281 120.78125 17.996094 121.132812 C 18.378906 121.664062 18.886719 121.96875 19.359375 122.136719 C 19.832031 122.300781 20.273438 122.335938 20.578125 122.335938 C 20.824219 122.335938 20.980469 122.3125 20.996094 122.3125 L 20.933594 121.902344 L 20.53125 121.804688 C 20.257812 122.929688 20.136719 123.964844 20.136719 124.910156 C 20.136719 127.617188 21.113281 129.578125 22.09375 130.84375 C 23.074219 132.113281 24.050781 132.703125 24.082031 132.722656 C 24.199219 132.792969 24.34375 132.800781 24.46875 132.742188 C 26.917969 131.578125 28.757812 129.257812 30.007812 127.238281 C 31.257812 125.21875 31.910156 123.484375 31.914062 123.46875 C 31.960938 123.34375 31.949219 123.207031 31.875 123.097656 C 31.03125 121.820312 29.515625 120.652344 28.203125 119.765625 C 26.894531 118.886719 25.785156 118.308594 25.777344 118.304688 L 25.585938 118.671875 L 25.917969 118.917969 C 26.734375 117.800781 26.921875 116.554688 26.921875 115.628906 C 26.921875 114.785156 26.765625 114.199219 26.761719 114.175781 C 26.730469 114.050781 26.640625 113.949219 26.523438 113.898438 C 25.78125 113.585938 25.0625 112.929688 24.425781 112.09375 C 23.460938 110.847656 22.679688 109.222656 22.148438 107.917969 C 21.882812 107.269531 21.679688 106.695312 21.539062 106.285156 C 21.472656 106.082031 21.417969 105.917969 21.382812 105.804688 C 21.367188 105.75 21.355469 105.707031 21.34375 105.679688 L 21.332031 105.636719 L 20.933594 105.753906 L 21.066406 106.144531 L 21.078125 106.140625 C 21.238281 106.089844 22.75 105.621094 25.511719 105.257812 C 25.761719 105.226562 26.011719 105.210938 26.261719 105.210938 C 27.519531 105.210938 28.835938 105.59375 30.472656 106 C 32.105469 106.402344 34.054688 106.8125 36.566406 106.8125 L 36.566406 105.984375 C 34.144531 105.984375 32.28125 105.59375 30.667969 105.195312 C 29.058594 104.800781 27.6875 104.386719 26.261719 104.382812 C 25.980469 104.382812 25.691406 104.402344 25.402344 104.4375 C 22.402344 104.828125 20.828125 105.351562 20.804688 105.359375 C 20.59375 105.429688 20.476562 105.65625 20.539062 105.867188 C 20.542969 105.882812 21.0625 107.675781 22.015625 109.664062 C 22.492188 110.65625 23.078125 111.699219 23.769531 112.601562 C 24.460938 113.5 25.261719 114.261719 26.199219 114.660156 L 26.359375 114.28125 L 25.960938 114.386719 C 25.972656 114.429688 26.09375 114.933594 26.09375 115.628906 C 26.09375 116.445312 25.925781 117.511719 25.253906 118.425781 C 25.179688 118.523438 25.15625 118.648438 25.183594 118.765625 C 25.210938 118.882812 25.289062 118.984375 25.394531 119.039062 L 25.441406 119.0625 C 25.675781 119.1875 26.773438 119.785156 27.984375 120.617188 C 29.191406 121.445312 30.515625 122.527344 31.183594 123.550781 L 31.527344 123.324219 L 31.140625 123.175781 L 31.136719 123.195312 C 31.0625 123.378906 30.390625 125.082031 29.1875 126.988281 C 27.988281 128.894531 26.25 130.988281 24.117188 131.992188 L 24.292969 132.367188 L 24.507812 132.011719 L 24.496094 132.03125 L 24.507812 132.011719 L 24.496094 132.03125 L 24.507812 132.011719 C 24.480469 131.996094 23.585938 131.441406 22.707031 130.285156 C 21.832031 129.125 20.964844 127.375 20.964844 124.910156 C 20.964844 124.035156 21.074219 123.066406 21.335938 122 C 21.371094 121.867188 21.335938 121.726562 21.242188 121.625 C 21.148438 121.519531 21.011719 121.472656 20.875 121.492188 C 20.859375 121.496094 20.746094 121.507812 20.578125 121.507812 C 20.257812 121.511719 19.738281 121.453125 19.285156 121.199219 C 19.058594 121.070312 18.84375 120.894531 18.664062 120.648438 C 18.480469 120.398438 18.328125 120.070312 18.242188 119.625 C 18.1875 119.363281 18.167969 119.117188 18.167969 118.878906 C 18.167969 118.320312 18.285156 117.792969 18.421875 117.203125 C 18.550781 116.613281 18.691406 115.964844 18.691406 115.195312 C 18.695312 114.136719 18.421875 112.875 17.554688 111.246094 C 16.496094 109.246094 14.992188 107.183594 13.761719 105.21875 C 13.148438 104.234375 12.601562 103.28125 12.21875 102.382812 C 11.828125 101.488281 11.605469 100.652344 11.605469 99.917969 C 11.605469 99.5625 11.65625 99.226562 11.765625 98.914062 C 11.855469 98.65625 12.070312 98.316406 12.410156 97.945312 C 13.003906 97.296875 13.957031 96.554688 15.148438 95.824219 C 18.726562 93.625 24.453125 91.492188 29.28125 91.421875 L 29.273438 91.007812 L 28.902344 91.191406 C 30.378906 94.160156 32.449219 96.738281 34.957031 98.980469 C 36.679688 100.527344 38.605469 101.808594 40.507812 103.050781 C 41.511719 103.707031 42.523438 104.210938 43.550781 104.644531 L 43.714844 104.265625 L 43.5 103.910156 C 41.8125 104.917969 39.355469 105.988281 36.566406 105.984375 L 36.566406 106.398438 " fill-opacity="1" fill-rule="nonzero"/></g><g clip-path="url(#5ea293f172)"><path fill="#919191" d="M 120.539062 62.992188 C 111.367188 62.992188 110.464844 65.574219 102.324219 65.574219 C 97.472656 65.574219 94.457031 64.886719 92.8125 64.328125 C 93.328125 62.328125 92.46875 59.796875 89.675781 58.582031 C 86.96875 57.402344 82.953125 58.878906 81.527344 55.496094 C 81.597656 58.144531 82.558594 60.835938 84.539062 62.675781 C 83.578125 62.277344 82.746094 61.554688 82.105469 60.75 C 82.105469 60.808594 83.332031 64.703125 86.566406 66.414062 C 88.667969 67.527344 90.378906 67.296875 91.5 66.40625 C 94.066406 67.785156 98.539062 69.0625 102.839844 69.0625 C 108.140625 69.0625 114.726562 66.867188 119.894531 66.867188 C 125.0625 66.867188 127.257812 69.96875 127.257812 72.421875 C 127.257812 74.875 126.09375 84.308594 113.046875 84.308594 C 110.707031 84.308594 108.417969 84.046875 106.230469 83.625 C 108.082031 84.53125 109.976562 85.347656 111.953125 86.027344 C 115.089844 87.105469 118.125 88.285156 120.671875 90.359375 C 129.871094 88.523438 133.199219 77.949219 133.199219 73.648438 C 133.199219 68.933594 129.710938 62.992188 120.539062 62.992188 " fill-opacity="1" fill-rule="nonzero"/><path fill="#ffffff" d="M 120.539062 62.992188 L 120.539062 62.578125 C 115.917969 62.574219 113.332031 63.234375 110.9375 63.882812 C 108.542969 64.53125 106.351562 65.160156 102.324219 65.160156 C 97.507812 65.160156 94.539062 64.476562 92.945312 63.9375 L 92.8125 64.332031 L 93.210938 64.433594 C 93.3125 64.035156 93.367188 63.621094 93.367188 63.203125 C 93.367188 62.25 93.097656 61.265625 92.515625 60.382812 C 91.941406 59.503906 91.054688 58.730469 89.84375 58.203125 C 89.101562 57.882812 88.300781 57.75 87.503906 57.667969 C 86.308594 57.546875 85.109375 57.53125 84.128906 57.25 C 83.640625 57.113281 83.207031 56.914062 82.835938 56.613281 C 82.464844 56.316406 82.152344 55.914062 81.90625 55.335938 C 81.828125 55.152344 81.632812 55.050781 81.4375 55.09375 C 81.242188 55.136719 81.105469 55.308594 81.113281 55.507812 C 81.1875 58.242188 82.175781 61.042969 84.257812 62.976562 L 84.539062 62.675781 L 84.695312 62.292969 C 83.824219 61.929688 83.035156 61.253906 82.425781 60.492188 C 82.3125 60.351562 82.125 60.300781 81.957031 60.363281 C 81.789062 60.425781 81.679688 60.59375 81.691406 60.773438 L 81.695312 60.828125 L 81.710938 60.886719 C 81.742188 60.996094 81.84375 61.296875 82.027344 61.726562 C 82.308594 62.375 82.777344 63.304688 83.484375 64.242188 C 84.191406 65.179688 85.136719 66.125 86.371094 66.78125 C 87.40625 67.328125 88.375 67.578125 89.25 67.578125 C 90.234375 67.582031 91.09375 67.257812 91.757812 66.730469 L 91.5 66.40625 L 91.304688 66.769531 C 92.625 67.480469 94.414062 68.152344 96.417969 68.652344 C 98.425781 69.152344 100.648438 69.476562 102.839844 69.476562 C 105.546875 69.476562 108.535156 68.921875 111.492188 68.375 C 114.445312 67.820312 117.367188 67.28125 119.894531 67.28125 C 122.394531 67.285156 124.125 68.027344 125.234375 69.03125 C 126.347656 70.035156 126.84375 71.316406 126.84375 72.421875 C 126.847656 73.589844 126.558594 76.488281 124.710938 79.042969 C 123.785156 80.324219 122.472656 81.527344 120.59375 82.421875 C 118.714844 83.3125 116.261719 83.894531 113.046875 83.894531 C 110.738281 83.894531 108.472656 83.636719 106.308594 83.21875 C 106.105469 83.179688 105.90625 83.300781 105.835938 83.496094 C 105.773438 83.691406 105.863281 83.90625 106.046875 84 C 107.910156 84.910156 109.824219 85.734375 111.820312 86.417969 C 114.945312 87.496094 117.929688 88.65625 120.410156 90.679688 C 120.503906 90.757812 120.628906 90.789062 120.753906 90.765625 C 123.121094 90.292969 125.121094 89.253906 126.773438 87.898438 C 129.25 85.863281 130.953125 83.128906 132.042969 80.5 C 133.132812 77.863281 133.613281 75.335938 133.613281 73.648438 C 133.613281 71.191406 132.707031 68.425781 130.605469 66.265625 C 128.507812 64.101562 125.214844 62.574219 120.539062 62.578125 L 120.539062 63.40625 C 125.039062 63.40625 128.078125 64.851562 130.011719 66.839844 C 131.949219 68.828125 132.785156 71.390625 132.785156 73.648438 C 132.789062 74.671875 132.585938 76.113281 132.136719 77.703125 C 131.46875 80.09375 130.246094 82.839844 128.359375 85.136719 C 126.46875 87.433594 123.929688 89.285156 120.589844 89.953125 L 120.671875 90.359375 L 120.933594 90.039062 C 118.316406 87.910156 115.234375 86.71875 112.085938 85.636719 C 110.132812 84.964844 108.25 84.15625 106.414062 83.253906 L 106.230469 83.625 L 106.152344 84.035156 C 108.359375 84.460938 110.675781 84.722656 113.046875 84.722656 C 116.359375 84.722656 118.941406 84.121094 120.949219 83.171875 C 123.964844 81.742188 125.660156 79.515625 126.578125 77.429688 C 127.503906 75.339844 127.671875 73.390625 127.671875 72.421875 C 127.671875 71.074219 127.070312 69.578125 125.792969 68.417969 C 124.511719 67.257812 122.558594 66.453125 119.894531 66.453125 C 117.25 66.453125 114.296875 67.011719 111.339844 67.558594 C 108.386719 68.109375 105.433594 68.652344 102.839844 68.648438 C 100.730469 68.648438 98.566406 68.335938 96.617188 67.851562 C 94.671875 67.367188 92.9375 66.707031 91.695312 66.039062 C 91.546875 65.960938 91.371094 65.976562 91.242188 66.082031 C 90.71875 66.496094 90.054688 66.75 89.25 66.75 C 88.535156 66.75 87.699219 66.546875 86.757812 66.050781 C 85.238281 65.246094 84.164062 63.90625 83.480469 62.75 C 83.136719 62.171875 82.890625 61.644531 82.730469 61.261719 C 82.648438 61.066406 82.59375 60.910156 82.554688 60.804688 C 82.535156 60.75 82.523438 60.707031 82.515625 60.683594 L 82.507812 60.65625 L 82.402344 60.6875 L 82.507812 60.660156 L 82.507812 60.65625 L 82.402344 60.6875 L 82.507812 60.660156 L 82.183594 60.738281 L 82.511719 60.675781 L 82.507812 60.660156 L 82.183594 60.738281 L 82.511719 60.675781 L 82.117188 60.75 L 82.515625 60.726562 L 82.511719 60.675781 L 82.117188 60.75 L 82.515625 60.726562 L 82.101562 60.75 L 81.78125 61.007812 C 82.457031 61.855469 83.335938 62.621094 84.378906 63.058594 C 84.5625 63.132812 84.777344 63.066406 84.886719 62.898438 C 84.996094 62.730469 84.964844 62.507812 84.820312 62.371094 C 82.9375 60.628906 82.007812 58.042969 81.9375 55.484375 L 81.527344 55.496094 L 81.144531 55.65625 C 81.53125 56.578125 82.121094 57.203125 82.8125 57.597656 C 83.855469 58.191406 85.070312 58.296875 86.253906 58.394531 C 87.4375 58.484375 88.59375 58.558594 89.511719 58.960938 C 90.585938 59.429688 91.339844 60.09375 91.828125 60.835938 C 92.3125 61.582031 92.539062 62.40625 92.539062 63.203125 C 92.539062 63.554688 92.496094 63.898438 92.410156 64.226562 C 92.355469 64.4375 92.472656 64.652344 92.679688 64.722656 C 94.367188 65.292969 97.429688 65.988281 102.324219 65.988281 C 106.4375 65.992188 108.769531 65.328125 111.152344 64.683594 C 113.539062 64.039062 115.992188 63.40625 120.539062 63.40625 L 120.539062 62.992188 " fill-opacity="1" fill-rule="nonzero"/></g><g clip-path="url(#239569e6fb)"><path fill="#919191" d="M 122.738281 127.566406 C 125.0625 124.484375 129.195312 116.992188 119.636719 110.273438 C 119.636719 110.273438 126.355469 95.546875 117.828125 90.636719 C 109.300781 85.730469 76.488281 78.753906 68.21875 49.296875 C 68.21875 49.296875 70.359375 49.296875 73.941406 44.386719 C 77.519531 39.476562 79.328125 37.410156 82.171875 37.410156 C 85.011719 37.410156 85.789062 40.253906 87.597656 37.410156 C 89.40625 34.570312 89.40625 31.46875 88.371094 29.402344 C 87.339844 27.335938 86.304688 24.75 79.585938 24.75 C 73.515625 24.75 67.445312 19.6875 62.519531 20.238281 C 62.144531 19.765625 61.753906 19.335938 61.367188 19.011719 C 61.367188 19.011719 59.226562 12.679688 66.359375 3.566406 C 66.359375 3.566406 57.277344 7.355469 54.71875 11.449219 C 52.417969 15.136719 52.316406 20.371094 55.441406 24.191406 C 55.09375 24.464844 54.738281 24.75 54.375 25.050781 C 53.476562 25.175781 52.484375 25.332031 51.394531 25.539062 C 48.53125 26.089844 45.71875 28.449219 43.9375 30.355469 L 43.921875 30.367188 L 43.878906 30.417969 L 43.867188 30.429688 L 43.871094 30.425781 C 42.164062 32.367188 41.179688 34.125 41.179688 34.125 C 41.773438 33.914062 43.320312 34 45.234375 34.273438 C 37.0625 44.191406 28.945312 59.359375 28.945312 79.527344 C 28.945312 95.394531 44.449219 103.816406 44.449219 103.816406 C 44.449219 103.816406 46.515625 112.082031 39.796875 117.507812 C 33.078125 122.9375 27.910156 134.5625 31.269531 136.371094 C 31.269531 136.371094 22.226562 140.503906 22.226562 146.964844 L 37.214844 146.964844 C 37.214844 146.964844 39.023438 143.605469 37.214844 139.214844 C 37.214844 139.214844 40.832031 139.472656 41.347656 136.113281 C 41.863281 132.753906 37.214844 130.429688 42.898438 125.261719 C 48.582031 120.09375 51.164062 118.542969 53.234375 115.441406 C 53.414062 115.171875 53.59375 114.921875 53.773438 114.679688 L 53.773438 114.683594 C 54.484375 113.375 55.675781 112.386719 56.820312 111.449219 C 58.375 110.179688 59.9375 108.917969 61.554688 107.726562 C 64.335938 105.675781 67.417969 104.226562 70.578125 102.890625 C 66.28125 105.390625 61.664062 108.035156 59.25 112.351562 C 59.25 112.351562 61.398438 113.632812 67.960938 113.632812 C 76.105469 113.632812 82.5 106.871094 95.535156 108.398438 C 93.644531 104.839844 92.050781 101 92.398438 96.949219 C 92.691406 98.074219 92.828125 99.238281 93.09375 100.371094 C 93.433594 101.824219 94.148438 103.21875 94.839844 104.527344 C 96.3125 107.3125 98.054688 110.023438 100.101562 112.421875 C 101.152344 113.652344 102.300781 114.8125 103.488281 115.914062 C 103.917969 116.316406 104.339844 116.742188 104.820312 117.085938 C 105.546875 117.605469 106.441406 117.847656 107.132812 118.40625 C 107.675781 118.839844 108.085938 119.449219 108.621094 119.90625 C 109.261719 120.453125 109.902344 120.996094 110.5625 121.515625 C 110.5625 121.515625 113.246094 123.226562 114.984375 122.9375 C 114.984375 122.9375 119.894531 129.910156 114.984375 136.886719 C 114.984375 136.886719 108.007812 140.761719 108.785156 146.964844 L 120.925781 146.964844 L 120.925781 139.214844 C 120.925781 139.214844 124.027344 139.988281 124.027344 136.371094 C 124.027344 132.753906 120.410156 130.644531 122.738281 127.566406 " fill-opacity="1" fill-rule="nonzero"/></g><g clip-path="url(#1122d17801)"><path fill="#ffffff" d="M 122.738281 127.566406 L 123.066406 127.816406 C 124.304688 126.175781 126.0625 123.304688 126.066406 119.890625 C 126.066406 118.320312 125.6875 116.644531 124.71875 114.957031 C 123.75 113.265625 122.203125 111.570312 119.875 109.9375 L 119.636719 110.273438 L 120.011719 110.445312 C 120.015625 110.433594 120.652344 109.042969 121.289062 106.964844 C 121.925781 104.886719 122.5625 102.125 122.566406 99.359375 C 122.566406 97.605469 122.304688 95.84375 121.609375 94.261719 C 120.914062 92.675781 119.765625 91.273438 118.035156 90.28125 C 115.84375 89.019531 112.199219 87.671875 107.796875 85.867188 C 101.203125 83.164062 92.933594 79.460938 85.554688 73.703125 C 78.175781 67.9375 71.691406 60.132812 68.617188 49.183594 L 68.21875 49.296875 L 68.21875 49.710938 C 68.296875 49.710938 68.917969 49.683594 69.957031 49.035156 C 70.996094 48.386719 72.460938 47.117188 74.273438 44.632812 C 76.058594 42.179688 77.402344 40.453125 78.609375 39.367188 C 79.214844 38.820312 79.78125 38.4375 80.355469 38.191406 C 80.929688 37.945312 81.511719 37.828125 82.171875 37.824219 C 83.023438 37.828125 83.660156 38.105469 84.246094 38.410156 C 84.539062 38.5625 84.816406 38.722656 85.097656 38.855469 C 85.382812 38.984375 85.683594 39.085938 86.019531 39.089844 C 86.355469 39.089844 86.703125 38.96875 87.015625 38.726562 C 87.332031 38.484375 87.628906 38.132812 87.945312 37.632812 C 89.019531 35.949219 89.484375 34.167969 89.484375 32.542969 C 89.484375 31.3125 89.21875 30.167969 88.742188 29.21875 C 88.488281 28.707031 88.222656 28.140625 87.855469 27.578125 C 87.308594 26.730469 86.515625 25.898438 85.21875 25.300781 C 83.925781 24.707031 82.144531 24.335938 79.585938 24.335938 C 76.820312 24.339844 73.984375 23.230469 71.230469 22.089844 C 68.476562 20.957031 65.8125 19.789062 63.289062 19.78125 C 63.015625 19.78125 62.742188 19.796875 62.472656 19.828125 L 62.519531 20.238281 L 62.84375 19.980469 C 62.457031 19.496094 62.054688 19.046875 61.632812 18.695312 L 61.367188 19.011719 L 61.757812 18.878906 L 61.671875 18.90625 L 61.757812 18.878906 L 61.671875 18.90625 L 61.757812 18.878906 C 61.753906 18.859375 61.480469 18.019531 61.480469 16.527344 C 61.480469 13.957031 62.28125 9.453125 66.683594 3.820312 C 66.800781 3.671875 66.800781 3.464844 66.6875 3.316406 C 66.574219 3.167969 66.375 3.113281 66.199219 3.183594 C 66.191406 3.1875 63.90625 4.140625 61.292969 5.613281 C 59.988281 6.347656 58.597656 7.214844 57.363281 8.160156 C 56.132812 9.113281 55.050781 10.136719 54.367188 11.230469 C 53.242188 13.035156 52.625 15.191406 52.625 17.382812 C 52.625 19.84375 53.402344 22.355469 55.121094 24.453125 L 55.441406 24.191406 L 55.1875 23.867188 C 54.835938 24.140625 54.476562 24.429688 54.109375 24.734375 L 54.375 25.050781 L 54.316406 24.644531 C 53.414062 24.765625 52.414062 24.921875 51.316406 25.132812 C 49.800781 25.425781 48.339844 26.179688 47.023438 27.097656 C 45.710938 28.019531 44.542969 29.101562 43.636719 30.074219 L 43.9375 30.355469 L 43.679688 30.03125 L 43.664062 30.042969 L 43.609375 30.097656 L 43.570312 30.140625 L 43.566406 30.144531 C 43.417969 30.304688 43.414062 30.554688 43.566406 30.714844 C 43.71875 30.875 43.964844 30.886719 44.132812 30.746094 L 44.136719 30.742188 L 43.871094 30.425781 L 43.5625 30.152344 C 41.824219 32.125 40.828125 33.90625 40.820312 33.921875 C 40.734375 34.074219 40.753906 34.261719 40.863281 34.390625 C 40.976562 34.523438 41.15625 34.574219 41.320312 34.515625 C 41.457031 34.464844 41.796875 34.417969 42.246094 34.421875 C 42.976562 34.421875 44.003906 34.515625 45.175781 34.683594 L 45.234375 34.277344 L 44.914062 34.011719 C 36.699219 43.980469 28.53125 59.246094 28.53125 79.527344 C 28.53125 87.601562 32.476562 93.773438 36.394531 97.90625 C 40.316406 102.042969 44.226562 104.164062 44.25 104.179688 L 44.449219 103.816406 L 44.046875 103.914062 L 44.046875 103.925781 C 44.074219 104.039062 44.335938 105.167969 44.332031 106.800781 C 44.335938 108.214844 44.140625 110 43.445312 111.835938 C 42.75 113.671875 41.554688 115.554688 39.535156 117.1875 C 36.847656 119.359375 34.429688 122.472656 32.671875 125.578125 C 31.792969 127.132812 31.078125 128.683594 30.582031 130.121094 C 30.085938 131.554688 29.804688 132.875 29.804688 133.984375 C 29.804688 134.597656 29.890625 135.148438 30.089844 135.625 C 30.289062 136.097656 30.621094 136.492188 31.074219 136.734375 L 31.269531 136.371094 L 31.097656 135.996094 C 31.078125 136.003906 28.792969 137.046875 26.488281 138.925781 C 25.335938 139.863281 24.175781 141.011719 23.292969 142.359375 C 22.414062 143.703125 21.8125 145.25 21.8125 146.964844 C 21.8125 147.074219 21.855469 147.179688 21.933594 147.257812 C 22.011719 147.335938 22.117188 147.378906 22.226562 147.378906 L 37.214844 147.378906 C 37.363281 147.378906 37.503906 147.292969 37.578125 147.160156 C 37.597656 147.121094 38.429688 145.570312 38.429688 143.175781 C 38.429688 141.980469 38.21875 140.574219 37.597656 139.054688 L 37.214844 139.214844 L 37.183594 139.625 C 37.191406 139.628906 37.265625 139.632812 37.390625 139.632812 C 37.792969 139.628906 38.722656 139.582031 39.65625 139.128906 C 40.121094 138.898438 40.589844 138.566406 40.96875 138.082031 C 41.347656 137.597656 41.636719 136.964844 41.757812 136.175781 C 41.789062 135.972656 41.800781 135.769531 41.800781 135.574219 C 41.800781 134.558594 41.433594 133.667969 41.101562 132.804688 C 40.765625 131.941406 40.457031 131.109375 40.457031 130.214844 C 40.457031 129.59375 40.601562 128.933594 41.007812 128.171875 C 41.417969 127.40625 42.097656 126.546875 43.175781 125.566406 C 46.011719 122.988281 48.070312 121.316406 49.695312 119.886719 C 51.320312 118.457031 52.515625 117.265625 53.578125 115.671875 C 53.753906 115.410156 53.929688 115.164062 54.105469 114.929688 C 54.238281 114.75 54.207031 114.5 54.035156 114.359375 C 53.859375 114.21875 53.609375 114.242188 53.460938 114.40625 L 53.460938 114.410156 L 53.773438 114.683594 L 54.136719 114.878906 C 54.796875 113.664062 55.9375 112.703125 57.082031 111.769531 C 58.636719 110.5 60.195312 109.246094 61.800781 108.0625 C 64.539062 106.042969 67.589844 104.601562 70.738281 103.269531 L 70.578125 102.890625 L 70.367188 102.53125 C 68.222656 103.78125 65.980469 105.074219 63.957031 106.609375 C 61.9375 108.144531 60.132812 109.921875 58.886719 112.148438 C 58.777344 112.347656 58.84375 112.59375 59.035156 112.707031 C 59.117188 112.757812 61.34375 114.046875 67.960938 114.046875 C 71.726562 114.046875 75.078125 112.648438 78.78125 111.292969 C 82.488281 109.929688 86.546875 108.585938 91.761719 108.585938 C 92.941406 108.585938 94.179688 108.65625 95.484375 108.808594 C 95.640625 108.828125 95.789062 108.757812 95.875 108.632812 C 95.960938 108.503906 95.972656 108.339844 95.898438 108.203125 C 94.195312 105 92.761719 101.601562 92.765625 98.082031 C 92.765625 97.71875 92.78125 97.351562 92.8125 96.984375 L 92.398438 96.949219 L 92 97.050781 C 92.28125 98.140625 92.417969 99.300781 92.691406 100.464844 C 93.046875 101.984375 93.78125 103.410156 94.472656 104.722656 C 95.957031 107.527344 97.714844 110.265625 99.789062 112.691406 C 100.851562 113.9375 102.011719 115.109375 103.203125 116.214844 C 103.628906 116.609375 104.0625 117.050781 104.578125 117.421875 C 104.984375 117.710938 105.410156 117.910156 105.808594 118.101562 C 106.207031 118.296875 106.574219 118.484375 106.875 118.726562 C 107.351562 119.109375 107.765625 119.710938 108.355469 120.21875 C 108.996094 120.765625 109.636719 121.3125 110.304688 121.839844 L 110.339844 121.863281 C 110.351562 121.871094 110.933594 122.242188 111.742188 122.617188 C 112.554688 122.992188 113.585938 123.378906 114.5625 123.382812 C 114.726562 123.382812 114.890625 123.371094 115.054688 123.34375 L 114.984375 122.9375 L 114.648438 123.171875 L 114.648438 123.179688 C 114.757812 123.328125 116.757812 126.308594 116.753906 130.171875 C 116.753906 132.164062 116.230469 134.394531 114.648438 136.648438 L 114.984375 136.886719 L 114.785156 136.527344 C 114.761719 136.539062 113.171875 137.421875 111.5625 139.039062 C 110.757812 139.847656 109.949219 140.84375 109.335938 142.007812 C 108.722656 143.175781 108.308594 144.519531 108.308594 146.003906 C 108.308594 146.335938 108.332031 146.671875 108.371094 147.015625 C 108.398438 147.222656 108.574219 147.378906 108.785156 147.378906 L 120.925781 147.378906 C 121.039062 147.378906 121.144531 147.335938 121.21875 147.257812 C 121.296875 147.179688 121.34375 147.074219 121.34375 146.964844 L 121.34375 139.214844 L 120.925781 139.214844 L 120.828125 139.613281 C 120.851562 139.621094 121.160156 139.695312 121.597656 139.699219 C 122.105469 139.695312 122.816406 139.59375 123.421875 139.09375 C 123.71875 138.847656 123.980469 138.5 124.160156 138.046875 C 124.339844 137.597656 124.441406 137.046875 124.441406 136.371094 C 124.441406 134.894531 123.882812 133.675781 123.367188 132.597656 C 123.105469 132.058594 122.851562 131.554688 122.667969 131.070312 C 122.484375 130.585938 122.371094 130.128906 122.371094 129.675781 C 122.371094 129.097656 122.546875 128.507812 123.066406 127.816406 L 122.738281 127.566406 L 122.40625 127.316406 C 121.796875 128.121094 121.539062 128.917969 121.542969 129.675781 C 121.542969 130.265625 121.6875 130.824219 121.894531 131.363281 C 122.203125 132.171875 122.640625 132.949219 122.992188 133.765625 C 123.347656 134.582031 123.613281 135.425781 123.613281 136.371094 C 123.613281 136.964844 123.527344 137.410156 123.394531 137.742188 C 123.191406 138.238281 122.902344 138.496094 122.582031 138.660156 C 122.261719 138.820312 121.898438 138.871094 121.597656 138.867188 C 121.425781 138.871094 121.277344 138.855469 121.175781 138.839844 C 121.125 138.832031 121.085938 138.824219 121.058594 138.820312 L 121.03125 138.8125 L 121.027344 138.8125 L 121.003906 138.90625 L 121.027344 138.8125 L 121.003906 138.90625 L 121.027344 138.8125 C 120.90625 138.78125 120.773438 138.808594 120.671875 138.886719 C 120.574219 138.964844 120.515625 139.085938 120.515625 139.214844 L 120.515625 146.550781 L 108.785156 146.550781 L 108.785156 146.964844 L 109.195312 146.914062 C 109.15625 146.605469 109.136719 146.300781 109.136719 146.003906 C 109.136719 144.671875 109.507812 143.464844 110.066406 142.394531 C 110.910156 140.785156 112.195312 139.492188 113.265625 138.605469 C 113.804688 138.160156 114.289062 137.820312 114.636719 137.589844 C 114.808594 137.476562 114.949219 137.390625 115.042969 137.332031 C 115.089844 137.304688 115.128906 137.28125 115.152344 137.269531 L 115.179688 137.253906 L 115.1875 137.25 C 115.242188 137.21875 115.285156 137.175781 115.324219 137.125 C 117.011719 134.730469 117.582031 132.308594 117.582031 130.171875 C 117.574219 125.886719 115.34375 122.734375 115.324219 122.699219 C 115.234375 122.566406 115.074219 122.5 114.917969 122.527344 C 114.804688 122.546875 114.6875 122.554688 114.5625 122.554688 C 113.816406 122.558594 112.847656 122.21875 112.089844 121.867188 C 111.710938 121.691406 111.382812 121.515625 111.148438 121.382812 C 111.03125 121.316406 110.941406 121.261719 110.878906 121.222656 L 110.804688 121.179688 L 110.785156 121.167969 L 110.5625 121.515625 L 110.816406 121.191406 C 110.164062 120.675781 109.53125 120.136719 108.890625 119.589844 C 108.410156 119.1875 107.996094 118.578125 107.394531 118.082031 C 107 117.769531 106.574219 117.554688 106.167969 117.359375 C 105.765625 117.164062 105.382812 116.980469 105.0625 116.75 C 104.621094 116.433594 104.207031 116.019531 103.769531 115.609375 C 102.589844 114.519531 101.457031 113.371094 100.417969 112.152344 C 98.394531 109.785156 96.664062 107.101562 95.207031 104.335938 C 94.515625 103.03125 93.816406 101.660156 93.496094 100.277344 C 93.238281 99.171875 93.101562 98.007812 92.800781 96.84375 C 92.75 96.652344 92.566406 96.519531 92.363281 96.535156 C 92.164062 96.554688 92.003906 96.710938 91.988281 96.914062 C 91.953125 97.304688 91.9375 97.695312 91.9375 98.082031 C 91.941406 101.832031 93.445312 105.347656 95.167969 108.59375 L 95.535156 108.398438 L 95.582031 107.988281 C 94.242188 107.828125 92.972656 107.757812 91.761719 107.757812 C 86.402344 107.757812 82.21875 109.144531 78.496094 110.515625 C 74.769531 111.886719 71.511719 113.222656 67.960938 113.21875 C 64.707031 113.21875 62.558594 112.902344 61.238281 112.589844 C 60.578125 112.433594 60.125 112.28125 59.839844 112.167969 C 59.695312 112.113281 59.597656 112.066406 59.535156 112.035156 L 59.472656 112.003906 L 59.460938 111.996094 L 59.457031 111.996094 L 59.339844 112.199219 L 59.460938 111.996094 L 59.457031 111.996094 L 59.339844 112.199219 L 59.460938 111.996094 L 59.25 112.351562 L 59.609375 112.554688 C 60.78125 110.464844 62.492188 108.761719 64.460938 107.269531 C 66.425781 105.777344 68.636719 104.496094 70.785156 103.246094 C 70.972656 103.136719 71.042969 102.898438 70.949219 102.703125 C 70.851562 102.507812 70.617188 102.421875 70.417969 102.507812 C 67.25 103.847656 64.132812 105.3125 61.308594 107.394531 C 59.683594 108.59375 58.113281 109.859375 56.558594 111.128906 C 55.414062 112.066406 54.175781 113.082031 53.410156 114.484375 C 53.308594 114.667969 53.363281 114.902344 53.535156 115.023438 C 53.707031 115.144531 53.945312 115.113281 54.082031 114.953125 L 54.085938 114.953125 L 53.773438 114.679688 L 53.441406 114.433594 C 53.257812 114.675781 53.074219 114.933594 52.886719 115.210938 C 51.882812 116.722656 50.753906 117.851562 49.148438 119.265625 C 47.542969 120.679688 45.46875 122.363281 42.617188 124.953125 C 41.492188 125.980469 40.746094 126.90625 40.277344 127.777344 C 39.8125 128.648438 39.628906 129.460938 39.628906 130.214844 C 39.628906 131.300781 39.996094 132.238281 40.328125 133.105469 C 40.667969 133.972656 40.976562 134.769531 40.972656 135.574219 C 40.972656 135.730469 40.960938 135.886719 40.9375 136.050781 C 40.835938 136.714844 40.605469 137.199219 40.316406 137.570312 C 39.882812 138.125 39.289062 138.433594 38.726562 138.605469 C 38.164062 138.777344 37.636719 138.804688 37.390625 138.804688 C 37.339844 138.804688 37.300781 138.804688 37.273438 138.800781 L 37.242188 138.800781 C 37.097656 138.789062 36.960938 138.855469 36.878906 138.972656 C 36.792969 139.085938 36.777344 139.238281 36.832031 139.371094 C 37.410156 140.78125 37.601562 142.074219 37.601562 143.175781 C 37.601562 144.273438 37.410156 145.183594 37.21875 145.8125 C 37.125 146.125 37.027344 146.367188 36.957031 146.53125 C 36.921875 146.613281 36.894531 146.675781 36.875 146.714844 L 36.855469 146.757812 L 36.847656 146.765625 L 36.847656 146.769531 L 37.214844 146.964844 L 37.214844 146.550781 L 22.226562 146.550781 L 22.226562 146.964844 L 22.640625 146.964844 C 22.640625 145.449219 23.171875 144.058594 23.984375 142.8125 C 25.207031 140.941406 27.078125 139.410156 28.640625 138.363281 C 29.421875 137.839844 30.125 137.433594 30.632812 137.160156 C 30.886719 137.023438 31.089844 136.917969 31.230469 136.851562 C 31.300781 136.816406 31.355469 136.789062 31.390625 136.773438 L 31.441406 136.746094 C 31.585938 136.683594 31.679688 136.542969 31.683594 136.386719 C 31.6875 136.226562 31.605469 136.082031 31.464844 136.007812 C 31.195312 135.859375 30.996094 135.632812 30.851562 135.296875 C 30.707031 134.964844 30.628906 134.519531 30.628906 133.984375 C 30.628906 133.015625 30.886719 131.769531 31.363281 130.390625 C 32.792969 126.25 36.1875 120.949219 40.058594 117.832031 C 42.195312 116.105469 43.480469 114.082031 44.21875 112.128906 C 44.960938 110.175781 45.160156 108.289062 45.160156 106.800781 C 45.160156 104.96875 44.855469 103.738281 44.847656 103.714844 C 44.820312 103.601562 44.746094 103.507812 44.644531 103.453125 L 44.605469 103.429688 C 44.175781 103.1875 40.34375 100.984375 36.636719 96.953125 C 32.929688 92.914062 29.359375 87.078125 29.359375 79.527344 C 29.359375 59.476562 37.425781 44.402344 45.550781 34.539062 C 45.648438 34.421875 45.671875 34.265625 45.617188 34.125 C 45.566406 33.988281 45.441406 33.886719 45.292969 33.867188 C 44.097656 33.695312 43.042969 33.59375 42.246094 33.59375 C 41.75 33.597656 41.359375 33.625 41.042969 33.734375 L 41.179688 34.125 L 41.542969 34.328125 L 41.550781 34.308594 C 41.65625 34.125 42.609375 32.484375 44.183594 30.699219 C 44.324219 30.539062 44.316406 30.292969 44.167969 30.136719 C 44.015625 29.984375 43.769531 29.972656 43.605469 30.109375 L 43.601562 30.113281 L 43.867188 30.429688 L 44.167969 30.714844 L 44.191406 30.691406 L 44.234375 30.640625 L 43.921875 30.367188 L 44.179688 30.691406 L 44.195312 30.679688 L 44.238281 30.636719 C 45.113281 29.703125 46.246094 28.652344 47.496094 27.777344 C 48.75 26.902344 50.125 26.203125 51.472656 25.945312 C 52.554688 25.738281 53.539062 25.582031 54.429688 25.460938 C 54.503906 25.453125 54.578125 25.421875 54.636719 25.371094 C 55 25.070312 55.351562 24.789062 55.699219 24.515625 C 55.785156 24.449219 55.839844 24.347656 55.851562 24.238281 C 55.867188 24.128906 55.832031 24.015625 55.761719 23.929688 C 54.175781 21.988281 53.453125 19.671875 53.453125 17.382812 C 53.453125 15.347656 54.027344 13.335938 55.070312 11.667969 C 55.664062 10.710938 56.679688 9.730469 57.867188 8.820312 C 59.652344 7.449219 61.820312 6.226562 63.539062 5.351562 C 64.398438 4.914062 65.144531 4.5625 65.675781 4.320312 C 65.941406 4.199219 66.152344 4.105469 66.296875 4.042969 C 66.441406 3.980469 66.515625 3.949219 66.519531 3.949219 L 66.359375 3.566406 L 66.03125 3.3125 C 61.523438 9.070312 60.648438 13.78125 60.652344 16.527344 C 60.652344 18.171875 60.960938 19.109375 60.972656 19.144531 C 61 19.214844 61.042969 19.277344 61.101562 19.328125 C 61.457031 19.625 61.832031 20.035156 62.195312 20.496094 C 62.28125 20.605469 62.421875 20.667969 62.5625 20.652344 C 62.800781 20.625 63.042969 20.609375 63.289062 20.609375 C 65.546875 20.605469 68.15625 21.710938 70.914062 22.855469 C 73.675781 23.992188 76.597656 25.160156 79.585938 25.164062 C 81.238281 25.164062 82.53125 25.324219 83.542969 25.585938 C 85.066406 25.984375 85.964844 26.601562 86.601562 27.300781 C 87.238281 28 87.609375 28.800781 88.003906 29.585938 C 88.414062 30.414062 88.65625 31.433594 88.65625 32.542969 C 88.65625 34.011719 88.238281 35.636719 87.246094 37.191406 C 86.960938 37.640625 86.714844 37.917969 86.515625 38.070312 C 86.308594 38.222656 86.171875 38.257812 86.019531 38.261719 C 85.863281 38.261719 85.675781 38.210938 85.445312 38.101562 C 84.742188 37.789062 83.734375 37 82.171875 37 C 81.410156 36.996094 80.703125 37.136719 80.027344 37.429688 C 79.007812 37.871094 78.074219 38.640625 77.0625 39.742188 C 76.050781 40.851562 74.949219 42.300781 73.605469 44.144531 C 71.839844 46.566406 70.441406 47.757812 69.515625 48.332031 C 69.054688 48.621094 68.707031 48.757812 68.488281 48.824219 C 68.378906 48.855469 68.304688 48.871094 68.257812 48.878906 L 68.214844 48.882812 L 68.210938 48.882812 L 68.21875 49.125 L 68.21875 48.882812 L 68.210938 48.882812 L 68.21875 49.125 L 68.21875 48.882812 C 68.089844 48.882812 67.96875 48.945312 67.890625 49.046875 C 67.8125 49.148438 67.785156 49.285156 67.820312 49.410156 C 69.90625 56.835938 73.542969 62.855469 77.953125 67.769531 C 84.566406 75.140625 92.910156 80.03125 100.386719 83.542969 C 104.128906 85.296875 107.652344 86.707031 110.636719 87.90625 C 113.621094 89.105469 116.066406 90.101562 117.621094 90.996094 C 119.199219 91.90625 120.210938 93.152344 120.851562 94.59375 C 121.488281 96.039062 121.738281 97.683594 121.734375 99.359375 C 121.738281 101.996094 121.121094 104.695312 120.496094 106.722656 C 120.1875 107.734375 119.875 108.585938 119.644531 109.179688 C 119.527344 109.476562 119.429688 109.707031 119.363281 109.863281 C 119.332031 109.945312 119.304688 110.003906 119.285156 110.042969 C 119.269531 110.085938 119.257812 110.101562 119.257812 110.101562 C 119.175781 110.285156 119.234375 110.5 119.398438 110.613281 C 121.648438 112.195312 123.105469 113.804688 124 115.367188 C 124.898438 116.933594 125.238281 118.453125 125.238281 119.890625 C 125.242188 123.007812 123.59375 125.746094 122.40625 127.316406 L 122.738281 127.566406 " fill-opacity="1" fill-rule="nonzero"/></g><path fill="#ffffff" d="M 59.871094 28.007812 C 59.753906 28.222656 59.605469 28.492188 59.375 28.753906 C 59.15625 29.027344 58.871094 29.308594 58.515625 29.5625 C 58.164062 29.820312 57.738281 30.050781 57.265625 30.21875 C 57.027344 30.308594 56.777344 30.371094 56.523438 30.441406 C 56.265625 30.488281 55.996094 30.542969 55.726562 30.5625 C 55.171875 30.605469 54.636719 30.617188 54.085938 30.589844 C 53.539062 30.5625 52.988281 30.527344 52.4375 30.484375 C 51.890625 30.425781 51.34375 30.371094 50.804688 30.3125 C 50.269531 30.261719 49.746094 30.183594 49.238281 30.128906 C 48.226562 30.011719 47.285156 29.914062 46.480469 29.878906 C 45.679688 29.847656 45.007812 29.886719 44.566406 30.027344 C 44.34375 30.09375 44.183594 30.183594 44.074219 30.25 L 44.039062 30.277344 C 44.203125 30.128906 44.433594 29.921875 44.492188 29.890625 C 44.921875 29.625 45.621094 29.375 46.457031 29.285156 C 47.296875 29.183594 48.277344 29.175781 49.3125 29.222656 C 49.828125 29.25 50.363281 29.269531 50.898438 29.320312 C 51.4375 29.367188 51.980469 29.410156 52.527344 29.457031 C 53.070312 29.507812 53.609375 29.558594 54.140625 29.589844 C 54.667969 29.625 55.195312 29.667969 55.667969 29.65625 C 55.910156 29.660156 56.140625 29.613281 56.375 29.609375 C 56.601562 29.566406 56.828125 29.539062 57.039062 29.488281 C 57.464844 29.375 57.859375 29.238281 58.203125 29.058594 C 58.546875 28.878906 58.851562 28.683594 59.097656 28.476562 C 59.347656 28.277344 59.542969 28.070312 59.703125 27.894531 C 60.011719 27.535156 60.148438 27.289062 60.148438 27.289062 C 60.148438 27.289062 60.09375 27.566406 59.871094 28.007812 " fill-opacity="1" fill-rule="nonzero"/><path fill="#ffffff" d="M 48.507812 98.300781 C 48.125 98.316406 47.5625 98.257812 46.828125 98.128906 C 46.476562 98.03125 46.078125 97.941406 45.652344 97.808594 C 45.242188 97.648438 44.773438 97.507812 44.320312 97.265625 C 43.375 96.847656 42.390625 96.21875 41.378906 95.453125 C 40.363281 94.6875 39.359375 93.75 38.390625 92.679688 C 37.417969 91.609375 36.460938 90.417969 35.589844 89.105469 C 35.375 88.773438 35.144531 88.449219 34.941406 88.101562 L 34.628906 87.585938 L 34.328125 87.027344 C 34.140625 86.679688 33.949219 86.347656 33.769531 85.976562 C 33.59375 85.582031 33.421875 85.183594 33.246094 84.785156 C 32.609375 83.199219 32.136719 81.550781 31.839844 79.867188 C 31.570312 78.179688 31.441406 76.480469 31.453125 74.816406 C 31.476562 73.15625 31.625 71.535156 31.84375 69.984375 C 32.082031 68.4375 32.390625 66.960938 32.742188 65.582031 C 32.914062 64.890625 33.097656 64.230469 33.28125 63.585938 C 33.488281 62.945312 33.652344 62.347656 33.875 61.734375 C 34.082031 61.15625 34.28125 60.605469 34.46875 60.082031 C 34.703125 59.558594 34.925781 59.0625 35.132812 58.59375 C 35.535156 57.664062 36.003906 56.917969 36.332031 56.277344 C 36.703125 55.660156 37.027344 55.191406 37.230469 54.867188 C 37.445312 54.550781 37.558594 54.378906 37.558594 54.378906 C 37.558594 54.378906 37.289062 55.160156 36.800781 56.492188 C 36.695312 56.832031 36.578125 57.207031 36.453125 57.617188 C 36.328125 58.023438 36.171875 58.453125 36.0625 58.929688 C 35.9375 59.398438 35.808594 59.898438 35.671875 60.425781 C 35.554688 60.972656 35.429688 61.542969 35.300781 62.140625 C 35.070312 63.292969 34.851562 64.613281 34.632812 65.964844 C 34.417969 67.328125 34.265625 68.769531 34.121094 70.25 C 34.003906 71.734375 33.945312 73.261719 33.960938 74.804688 C 34.007812 76.347656 34.128906 77.902344 34.386719 79.429688 C 34.636719 80.953125 35.0625 82.449219 35.570312 83.855469 C 35.707031 84.195312 35.839844 84.535156 35.972656 84.871094 C 36.125 85.222656 36.308594 85.585938 36.476562 85.9375 L 36.710938 86.421875 L 36.980469 86.917969 C 37.15625 87.25 37.34375 87.570312 37.527344 87.890625 C 38.273438 89.164062 39.050781 90.367188 39.867188 91.449219 C 40.691406 92.519531 41.507812 93.515625 42.347656 94.339844 C 42.550781 94.558594 42.773438 94.738281 42.976562 94.933594 C 43.183594 95.125 43.390625 95.3125 43.597656 95.480469 C 43.804688 95.652344 44.007812 95.820312 44.203125 95.980469 C 44.410156 96.128906 44.613281 96.273438 44.808594 96.410156 C 45.191406 96.710938 45.597656 96.890625 45.949219 97.125 C 46.316406 97.328125 46.667969 97.480469 46.980469 97.640625 C 47.308594 97.761719 47.597656 97.871094 47.851562 97.964844 C 48.101562 98.074219 48.34375 98.101562 48.527344 98.15625 C 48.902344 98.253906 49.097656 98.304688 49.097656 98.304688 C 49.097656 98.304688 48.894531 98.304688 48.507812 98.300781 " fill-opacity="1" fill-rule="nonzero"/><path fill="#ffffff" d="M 70.09375 27.265625 C 70.09375 27.265625 69.492188 27.078125 69.117188 27.320312 C 69.117188 27.320312 67.085938 29.988281 63.65625 25.855469 C 63.65625 25.855469 66.804688 24.175781 70.09375 27.265625 " fill-opacity="1" fill-rule="nonzero"/><path fill="#ffffff" d="M 64.515625 43.652344 C 64.191406 43.570312 63.90625 43.398438 63.628906 43.257812 C 63.378906 43.066406 63.117188 42.914062 62.933594 42.695312 C 62.839844 42.59375 62.746094 42.496094 62.652344 42.398438 C 62.574219 42.292969 62.507812 42.183594 62.4375 42.082031 C 62.371094 41.980469 62.296875 41.882812 62.242188 41.785156 C 62.195312 41.679688 62.148438 41.582031 62.101562 41.484375 C 61.917969 41.105469 61.839844 40.734375 61.761719 40.453125 C 61.710938 40.171875 61.695312 39.957031 61.683594 39.804688 C 61.667969 39.65625 61.667969 39.574219 61.667969 39.574219 C 61.664062 39.488281 61.734375 39.417969 61.820312 39.417969 C 61.863281 39.417969 61.90625 39.4375 61.9375 39.46875 C 61.9375 39.46875 61.992188 39.53125 62.082031 39.652344 C 62.179688 39.765625 62.300781 39.953125 62.46875 40.164062 C 62.652344 40.355469 62.8125 40.597656 63.078125 40.828125 C 63.195312 40.949219 63.324219 41.070312 63.46875 41.175781 C 63.539062 41.230469 63.609375 41.289062 63.683594 41.34375 C 63.757812 41.390625 63.839844 41.4375 63.917969 41.484375 C 64.234375 41.675781 64.585938 41.808594 64.976562 41.863281 C 65.363281 41.9375 65.796875 41.929688 66.273438 41.855469 C 66.742188 41.785156 67.25 41.664062 67.761719 41.460938 C 68.277344 41.277344 68.796875 41.039062 69.3125 40.769531 C 69.832031 40.511719 70.339844 40.207031 70.835938 39.902344 C 71.324219 39.578125 71.820312 39.277344 72.28125 38.953125 C 72.75 38.636719 73.1875 38.304688 73.613281 38.003906 C 74.035156 37.691406 74.433594 37.394531 74.796875 37.121094 C 75.527344 36.558594 76.136719 36.09375 76.566406 35.765625 C 76.996094 35.433594 77.242188 35.246094 77.242188 35.246094 C 77.304688 35.195312 77.398438 35.210938 77.449219 35.273438 C 77.488281 35.324219 77.488281 35.390625 77.453125 35.441406 C 77.453125 35.441406 77.285156 35.707031 76.964844 36.152344 C 76.640625 36.59375 76.160156 37.210938 75.535156 37.917969 C 74.910156 38.617188 74.152344 39.417969 73.257812 40.199219 C 72.378906 40.996094 71.355469 41.757812 70.238281 42.433594 C 69.679688 42.765625 69.085938 43.066406 68.464844 43.308594 C 67.851562 43.550781 67.195312 43.746094 66.523438 43.820312 C 65.855469 43.910156 65.148438 43.859375 64.515625 43.652344 " fill-opacity="1" fill-rule="nonzero"/><path fill="#919191" d="M 77.304688 9.671875 C 76.929688 18.492188 72.550781 21.101562 72.550781 21.101562 C 72.195312 21.101562 71.796875 21.144531 71.386719 21.222656 C 72.550781 21.78125 73.703125 22.371094 74.917969 22.832031 C 76.199219 23.324219 77.453125 23.476562 78.738281 23.554688 C 79.472656 22.484375 79.964844 21.261719 80.152344 20.007812 C 80.699219 16.367188 77.304688 9.671875 77.304688 9.671875 " fill-opacity="1" fill-rule="nonzero"/><path fill="#ffffff" d="M 77.304688 9.667969 L 76.890625 9.652344 C 76.707031 13.996094 75.539062 16.773438 74.441406 18.46875 C 73.890625 19.316406 73.355469 19.890625 72.960938 20.25 C 72.765625 20.433594 72.601562 20.558594 72.496094 20.640625 C 72.441406 20.679688 72.398438 20.707031 72.371094 20.726562 L 72.34375 20.742188 L 72.335938 20.746094 L 72.382812 20.824219 L 72.339844 20.746094 L 72.335938 20.746094 L 72.382812 20.824219 L 72.339844 20.746094 L 72.550781 21.101562 L 72.554688 20.6875 L 72.519531 20.6875 C 72.136719 20.6875 71.726562 20.738281 71.308594 20.8125 C 71.132812 20.847656 71 20.988281 70.972656 21.167969 C 70.949219 21.34375 71.042969 21.515625 71.207031 21.59375 C 72.363281 22.152344 73.527344 22.746094 74.769531 23.21875 C 76.109375 23.730469 77.410156 23.890625 78.714844 23.96875 C 78.859375 23.976562 79 23.910156 79.082031 23.789062 C 79.851562 22.664062 80.363281 21.386719 80.5625 20.070312 C 80.605469 19.773438 80.625 19.464844 80.625 19.148438 C 80.621094 17.175781 79.878906 14.785156 79.144531 12.859375 C 78.414062 10.9375 77.679688 9.492188 77.675781 9.484375 C 77.589844 9.3125 77.402344 9.226562 77.21875 9.265625 C 77.035156 9.304688 76.902344 9.464844 76.890625 9.652344 L 77.304688 9.667969 L 76.9375 9.855469 C 76.9375 9.855469 76.945312 9.878906 76.96875 9.917969 C 77.125 10.230469 77.835938 11.699219 78.507812 13.511719 C 79.179688 15.324219 79.800781 17.492188 79.796875 19.148438 C 79.796875 19.433594 79.78125 19.699219 79.742188 19.945312 C 79.566406 21.132812 79.097656 22.296875 78.398438 23.320312 L 78.738281 23.554688 L 78.765625 23.140625 C 77.492188 23.066406 76.289062 22.914062 75.0625 22.445312 C 73.878906 21.996094 72.734375 21.410156 71.5625 20.847656 L 71.386719 21.21875 L 71.457031 21.628906 C 71.84375 21.558594 72.207031 21.515625 72.519531 21.515625 L 72.546875 21.515625 C 72.621094 21.515625 72.695312 21.496094 72.761719 21.457031 C 72.804688 21.433594 73.949219 20.738281 75.132812 18.917969 C 76.316406 17.101562 77.53125 14.164062 77.71875 9.6875 L 77.304688 9.667969 L 76.9375 9.855469 L 77.304688 9.667969 " fill-opacity="1" fill-rule="nonzero"/></svg>