<svg xmlns="http://www.w3.org/2000/svg" xmlns:xlink="http://www.w3.org/1999/xlink" width="200" zoomAndPan="magnify" viewBox="0 0 150 44.999999" height="60" preserveAspectRatio="xMidYMid meet" version="1.0"><defs><g/><clipPath id="b6e2905654"><path d="M 42.847656 11.199219 L 43.597656 11.199219 L 43.597656 33.699219 L 42.847656 33.699219 Z M 42.847656 11.199219 " clip-rule="nonzero"/></clipPath></defs><path fill="#d9d9d9" d="M 13.390625 6.089844 C 13.390625 6.746094 13.554688 7.394531 13.929688 7.898438 C 13.976562 7.964844 14.03125 8.027344 14.074219 8.089844 C 13.707031 8.335938 13.933594 8.292969 13.492188 8.367188 C 12.644531 8.511719 12.351562 8.5625 11.632812 9.089844 C 11.460938 9.210938 11.199219 9.429688 11.050781 9.578125 C 11.011719 9.617188 10.984375 9.644531 10.945312 9.683594 C 10.90625 9.722656 10.878906 9.75 10.839844 9.789062 L 10.832031 9.796875 C 10.957031 9.730469 11.136719 9.671875 11.347656 9.648438 C 11.589844 9.621094 11.871094 9.621094 12.164062 9.632812 C 12.3125 9.640625 12.464844 9.644531 12.617188 9.660156 C 12.769531 9.671875 12.925781 9.683594 13.082031 9.699219 C 13.238281 9.710938 13.394531 9.726562 13.542969 9.734375 C 13.695312 9.75 13.84375 9.761719 13.980469 9.757812 C 14.050781 9.757812 14.113281 9.746094 14.179688 9.742188 C 14.246094 9.726562 14.308594 9.722656 14.371094 9.707031 C 14.492188 9.675781 14.605469 9.636719 14.703125 9.582031 C 14.800781 9.535156 14.890625 9.480469 14.957031 9.417969 C 15.03125 9.363281 15.085938 9.300781 15.128906 9.253906 C 15.21875 9.148438 15.257812 9.082031 15.257812 9.082031 C 15.257812 9.082031 15.242188 9.15625 15.179688 9.285156 C 15.144531 9.347656 15.101562 9.421875 15.039062 9.5 C 14.972656 9.574219 14.894531 9.65625 14.792969 9.726562 C 14.691406 9.804688 14.570312 9.867188 14.433594 9.917969 C 14.367188 9.941406 14.292969 9.957031 14.222656 9.980469 C 14.148438 9.992188 14.074219 10.007812 13.996094 10.011719 C 13.835938 10.027344 13.683594 10.03125 13.527344 10.023438 C 13.371094 10.011719 13.210938 10.003906 13.054688 9.992188 C 12.898438 9.972656 12.746094 9.957031 12.589844 9.941406 C 12.4375 9.929688 12.289062 9.90625 12.144531 9.890625 C 11.855469 9.855469 11.585938 9.828125 11.355469 9.816406 C 11.125 9.808594 10.9375 9.820312 10.808594 9.859375 C 10.792969 9.867188 10.777344 9.871094 10.765625 9.875 C 10.757812 9.886719 10.746094 9.898438 10.734375 9.910156 C 10.691406 9.953125 10.679688 9.980469 10.636719 10.027344 C 10.601562 10.066406 10.578125 10.105469 10.546875 10.144531 C 10.421875 10.304688 10.054688 10.757812 10.019531 10.917969 L 10.476562 10.898438 C 10.679688 10.898438 10.972656 10.929688 11.140625 10.96875 C 11.125 11.03125 11.074219 11.074219 11.03125 11.121094 C 10.746094 11.472656 10.488281 11.839844 10.21875 12.203125 C 9.90625 12.617188 9.632812 13.066406 9.367188 13.511719 C 9.199219 13.789062 9.027344 14.070312 8.882812 14.363281 C 8.53125 15.066406 8.238281 15.644531 7.933594 16.414062 C 7.566406 17.332031 7.261719 18.320312 7.03125 19.300781 C 7 19.445312 6.972656 19.59375 6.9375 19.75 C 6.644531 21.015625 6.527344 22.648438 6.527344 23.957031 C 6.527344 25.472656 7.097656 26.945312 7.96875 28.097656 L 8.644531 28.914062 C 8.703125 28.992188 8.761719 29.042969 8.828125 29.113281 C 9.421875 29.707031 10.070312 30.257812 10.792969 30.691406 C 10.898438 30.757812 10.945312 30.765625 10.964844 30.890625 C 11.164062 32.148438 10.851562 33.46875 9.953125 34.367188 L 8.925781 35.324219 C 8.496094 35.769531 8.101562 36.351562 7.78125 36.882812 C 7.402344 37.507812 6.894531 38.570312 6.894531 39.261719 C 6.894531 39.511719 6.894531 39.765625 7.058594 39.957031 C 7.101562 40.007812 7.144531 40.027344 7.175781 40.070312 C 7.117188 40.082031 7.015625 40.136719 6.960938 40.167969 C 6.886719 40.210938 6.820312 40.246094 6.746094 40.289062 C 6.539062 40.414062 6.34375 40.53125 6.152344 40.679688 L 5.777344 40.972656 C 5.640625 41.078125 5.40625 41.316406 5.285156 41.460938 C 5.179688 41.585938 5.089844 41.703125 5.003906 41.84375 C 4.832031 42.117188 4.660156 42.441406 4.632812 42.789062 L 9 42.789062 C 9.066406 42.652344 9.125 42.210938 9.125 42 C 9.125 41.664062 9.039062 41.175781 8.894531 40.875 C 9.496094 40.875 10.070312 40.539062 10.070312 39.894531 C 10.070312 39.21875 9.703125 38.945312 9.703125 38.242188 C 9.703125 37.640625 10.214844 37.171875 10.558594 36.851562 L 11.085938 36.378906 C 11.140625 36.324219 11.175781 36.308594 11.226562 36.253906 L 11.761719 35.792969 C 12.125 35.484375 12.496094 35.179688 12.832031 34.84375 C 13.144531 34.53125 13.253906 34.351562 13.515625 34 C 13.664062 33.804688 13.769531 33.609375 13.945312 33.429688 C 14.453125 32.921875 15.042969 32.496094 15.609375 32.054688 C 15.800781 31.902344 15.988281 31.777344 16.195312 31.640625 C 16.402344 31.5 16.613281 31.382812 16.828125 31.257812 C 17.039062 31.136719 17.269531 31.011719 17.492188 30.921875 C 17.550781 30.898438 17.597656 30.875 17.660156 30.84375 L 18.011719 30.683594 C 18.0625 30.660156 18.152344 30.621094 18.199219 30.609375 C 18.148438 30.671875 17.460938 31.058594 17.332031 31.144531 C 17.253906 31.199219 17.195312 31.230469 17.117188 31.28125 C 16.90625 31.425781 16.6875 31.566406 16.492188 31.726562 C 16.046875 32.09375 15.597656 32.484375 15.292969 32.984375 C 15.246094 33.058594 15.179688 33.144531 15.160156 33.222656 L 15.378906 33.304688 C 15.46875 33.335938 15.535156 33.355469 15.621094 33.378906 C 15.789062 33.421875 15.972656 33.460938 16.148438 33.484375 C 16.671875 33.558594 17.257812 33.574219 17.8125 33.574219 C 18.371094 33.574219 19.039062 33.386719 19.464844 33.242188 C 21.050781 32.714844 22.453125 32.03125 24.199219 32.03125 L 25.078125 32.046875 C 25.21875 32.046875 25.347656 32.082031 25.5 32.082031 C 25.132812 31.390625 24.789062 30.636719 24.65625 29.835938 C 24.632812 29.703125 24.601562 29.535156 24.605469 29.378906 C 24.605469 29.21875 24.585938 29.167969 24.601562 29.027344 C 24.605469 28.980469 24.605469 28.933594 24.605469 28.886719 C 24.660156 28.976562 24.671875 29.136719 24.6875 29.226562 C 24.847656 30.160156 24.976562 30.324219 25.371094 31.125 L 26.015625 32.199219 L 26.960938 33.429688 C 26.996094 33.46875 27.027344 33.496094 27.066406 33.535156 L 27.382812 33.867188 C 27.457031 33.941406 27.515625 34.007812 27.59375 34.078125 L 28.042969 34.488281 C 28.28125 34.683594 28.632812 34.769531 28.847656 34.984375 L 29.152344 35.308594 C 29.261719 35.414062 29.390625 35.503906 29.503906 35.605469 C 29.921875 35.976562 30.457031 36.242188 31.046875 36.242188 C 31.085938 36.316406 31.128906 36.378906 31.167969 36.453125 C 31.207031 36.527344 31.238281 36.59375 31.28125 36.675781 C 31.632812 37.375 31.757812 38.277344 31.566406 39.042969 C 31.496094 39.316406 31.21875 40.058594 31.011719 40.210938 C 30.933594 40.269531 30.84375 40.316406 30.757812 40.378906 C 30.664062 40.441406 30.597656 40.5 30.507812 40.566406 C 29.835938 41.09375 29.253906 41.878906 29.253906 42.789062 L 32.730469 42.789062 L 32.730469 40.875 C 32.972656 40.875 33.066406 40.945312 33.320312 40.78125 C 33.679688 40.546875 33.652344 39.992188 33.558594 39.625 C 33.496094 39.378906 33.382812 39.140625 33.269531 38.917969 C 32.71875 37.824219 33.246094 37.746094 33.671875 36.886719 C 33.78125 36.664062 33.875 36.476562 33.949219 36.214844 C 34.238281 35.199219 34.035156 34.363281 33.390625 33.546875 C 33.167969 33.265625 32.675781 32.792969 32.363281 32.628906 C 32.414062 32.527344 32.453125 32.417969 32.496094 32.304688 C 33.027344 30.992188 33.476562 28.871094 32.546875 27.632812 C 32.210938 27.183594 31.699219 26.902344 31.1875 26.691406 L 28.257812 25.480469 C 27.828125 25.304688 27.410156 25.089844 26.980469 24.914062 C 26.601562 24.757812 26.121094 24.484375 25.75 24.300781 C 24.953125 23.90625 23.871094 23.25 23.171875 22.722656 L 22.519531 22.234375 C 22.25 22.011719 21.886719 21.738281 21.640625 21.496094 L 20.28125 20.082031 C 20.242188 20.039062 20.214844 20 20.179688 19.957031 C 19.625 19.261719 19.117188 18.535156 18.707031 17.742188 L 18.480469 17.285156 C 18.457031 17.222656 18.4375 17.183594 18.410156 17.128906 C 18.382812 17.078125 18.363281 17.023438 18.339844 16.972656 C 18.132812 16.546875 17.828125 15.703125 17.722656 15.25 C 17.816406 15.207031 17.941406 15.195312 18.042969 15.132812 C 18.1875 15.042969 18.320312 14.960938 18.449219 14.851562 L 19.011719 14.277344 C 19.050781 14.226562 19.078125 14.199219 19.117188 14.152344 C 19.152344 14.105469 19.183594 14.070312 19.21875 14.023438 C 19.285156 13.941406 19.351562 13.851562 19.414062 13.761719 C 19.746094 13.269531 20.433594 12.382812 20.925781 12.082031 C 21.339844 11.828125 21.839844 11.785156 22.28125 12.011719 C 22.828125 12.285156 22.976562 12.40625 23.40625 11.558594 C 23.65625 11.058594 23.738281 10.351562 23.554688 9.789062 C 23.5 9.628906 23.410156 9.476562 23.335938 9.324219 C 22.988281 8.628906 22.414062 8.382812 21.644531 8.277344 C 21.453125 8.253906 21.203125 8.253906 21.003906 8.234375 C 20.894531 8.222656 20.765625 8.242188 20.65625 8.226562 C 19.625 8.117188 18.742188 7.664062 17.800781 7.296875 C 17.628906 7.230469 17.472656 7.179688 17.292969 7.117188 C 17.117188 7.058594 16.9375 7.015625 16.742188 6.984375 C 16.523438 6.949219 16.332031 6.949219 16.074219 6.949219 C 16.042969 6.890625 16.054688 6.90625 16.007812 6.855469 C 15.972656 6.820312 15.96875 6.804688 15.9375 6.769531 C 15.894531 6.71875 15.804688 6.648438 15.773438 6.601562 C 15.675781 6.453125 15.6875 6.003906 15.6875 5.792969 C 15.6875 5.101562 15.972656 4.253906 16.207031 3.785156 L 16.65625 2.96875 C 16.785156 2.757812 17.113281 2.339844 17.179688 2.210938 C 16.964844 2.261719 15.816406 2.875 15.59375 3.011719 C 14.941406 3.402344 14.160156 3.898438 13.796875 4.570312 C 13.582031 4.96875 13.390625 5.484375 13.390625 6.089844 Z M 11.933594 29.351562 C 11.824219 29.359375 11.664062 29.335938 11.457031 29.300781 C 11.355469 29.273438 11.242188 29.25 11.117188 29.210938 C 11 29.164062 10.867188 29.125 10.742188 29.054688 C 10.46875 28.933594 10.191406 28.757812 9.898438 28.539062 C 9.609375 28.320312 9.320312 28.050781 9.046875 27.746094 C 8.769531 27.441406 8.496094 27.101562 8.25 26.722656 C 8.183594 26.632812 8.121094 26.539062 8.0625 26.4375 L 7.976562 26.292969 L 7.886719 26.132812 C 7.835938 26.03125 7.777344 25.941406 7.726562 25.832031 C 7.675781 25.71875 7.628906 25.605469 7.578125 25.496094 C 7.394531 25.039062 7.261719 24.570312 7.179688 24.085938 C 7.097656 23.609375 7.0625 23.121094 7.066406 22.648438 C 7.074219 22.171875 7.113281 21.710938 7.179688 21.269531 C 7.246094 20.828125 7.335938 20.40625 7.4375 20.011719 C 7.484375 19.8125 7.535156 19.625 7.589844 19.441406 C 7.644531 19.257812 7.695312 19.085938 7.757812 18.914062 C 7.816406 18.75 7.875 18.59375 7.925781 18.441406 C 7.996094 18.289062 8.054688 18.148438 8.117188 18.015625 C 8.230469 17.75 8.363281 17.539062 8.460938 17.355469 C 8.566406 17.175781 8.65625 17.042969 8.714844 16.953125 C 8.773438 16.863281 8.8125 16.8125 8.8125 16.8125 C 8.8125 16.8125 8.730469 17.035156 8.59375 17.417969 C 8.5625 17.515625 8.53125 17.621094 8.492188 17.734375 C 8.457031 17.851562 8.414062 17.976562 8.378906 18.113281 C 8.34375 18.246094 8.308594 18.386719 8.273438 18.539062 C 8.234375 18.695312 8.199219 18.859375 8.164062 19.03125 C 8.097656 19.359375 8.035156 19.734375 7.976562 20.121094 C 7.910156 20.507812 7.871094 20.917969 7.824219 21.347656 C 7.792969 21.769531 7.777344 22.203125 7.78125 22.644531 C 7.792969 23.085938 7.828125 23.527344 7.902344 23.960938 C 7.976562 24.402344 8.09375 24.828125 8.238281 25.230469 C 8.28125 25.324219 8.320312 25.421875 8.355469 25.519531 C 8.402344 25.617188 8.453125 25.722656 8.5 25.820312 L 8.566406 25.960938 L 8.640625 26.101562 C 8.695312 26.199219 8.746094 26.289062 8.800781 26.378906 C 9.011719 26.746094 9.238281 27.085938 9.46875 27.394531 C 9.703125 27.703125 9.9375 27.988281 10.175781 28.21875 C 10.234375 28.285156 10.296875 28.335938 10.355469 28.390625 C 10.414062 28.445312 10.476562 28.496094 10.53125 28.546875 C 10.59375 28.59375 10.652344 28.640625 10.703125 28.691406 C 10.765625 28.730469 10.820312 28.773438 10.878906 28.8125 C 10.988281 28.898438 11.105469 28.949219 11.203125 29.015625 C 11.308594 29.070312 11.40625 29.117188 11.5 29.164062 C 11.59375 29.195312 11.671875 29.230469 11.746094 29.257812 C 11.816406 29.285156 11.890625 29.292969 11.941406 29.308594 C 12.046875 29.335938 12.101562 29.351562 12.101562 29.351562 C 12.101562 29.351562 12.046875 29.351562 11.933594 29.351562 Z M 18.097656 9.074219 C 18.097656 9.074219 17.925781 9.019531 17.820312 9.089844 C 17.820312 9.089844 17.238281 9.847656 16.261719 8.671875 C 16.261719 8.671875 17.160156 8.191406 18.097656 9.074219 Z M 16.503906 13.753906 C 16.414062 13.726562 16.332031 13.679688 16.25 13.640625 C 16.179688 13.582031 16.105469 13.539062 16.054688 13.480469 C 16.027344 13.449219 16 13.417969 15.972656 13.394531 C 15.949219 13.363281 15.929688 13.332031 15.910156 13.300781 C 15.894531 13.273438 15.871094 13.246094 15.859375 13.21875 C 15.84375 13.1875 15.828125 13.160156 15.816406 13.132812 C 15.761719 13.023438 15.742188 12.914062 15.71875 12.839844 C 15.703125 12.757812 15.699219 12.695312 15.695312 12.65625 C 15.691406 12.609375 15.691406 12.585938 15.691406 12.585938 C 15.691406 12.5625 15.710938 12.542969 15.734375 12.542969 C 15.75 12.542969 15.761719 12.546875 15.769531 12.558594 C 15.769531 12.558594 15.785156 12.574219 15.808594 12.605469 C 15.835938 12.644531 15.875 12.695312 15.921875 12.753906 C 15.972656 12.8125 16.019531 12.878906 16.09375 12.945312 C 16.128906 12.980469 16.164062 13.011719 16.207031 13.042969 C 16.226562 13.0625 16.246094 13.078125 16.269531 13.09375 C 16.289062 13.105469 16.3125 13.117188 16.335938 13.132812 C 16.425781 13.183594 16.523438 13.226562 16.636719 13.242188 C 16.746094 13.261719 16.871094 13.257812 17.007812 13.238281 C 17.140625 13.21875 17.285156 13.183594 17.433594 13.125 C 17.578125 13.074219 17.726562 13.003906 17.875 12.929688 C 18.023438 12.855469 18.167969 12.765625 18.308594 12.679688 C 18.449219 12.585938 18.589844 12.503906 18.722656 12.410156 C 18.855469 12.316406 18.980469 12.222656 19.101562 12.140625 C 19.222656 12.046875 19.335938 11.964844 19.441406 11.886719 C 19.648438 11.726562 19.820312 11.59375 19.945312 11.5 C 20.066406 11.40625 20.140625 11.351562 20.140625 11.351562 C 20.15625 11.335938 20.183594 11.339844 20.195312 11.359375 C 20.207031 11.371094 20.207031 11.394531 20.199219 11.410156 C 20.199219 11.410156 20.152344 11.480469 20.058594 11.609375 C 19.964844 11.734375 19.828125 11.910156 19.652344 12.113281 C 19.472656 12.3125 19.253906 12.542969 19 12.761719 C 18.75 12.992188 18.457031 13.210938 18.136719 13.402344 C 17.980469 13.5 17.8125 13.582031 17.628906 13.652344 C 17.457031 13.722656 17.269531 13.777344 17.074219 13.800781 C 16.886719 13.824219 16.6875 13.808594 16.503906 13.753906 Z M 16.503906 13.753906 " fill-opacity="1" fill-rule="evenodd"/><path fill="#d9d9d9" d="M 1.472656 29.644531 C 1.472656 30.203125 1.777344 30.707031 2.027344 31.125 C 2.515625 31.941406 3.488281 33.125 3.488281 34.011719 C 3.488281 34.265625 3.414062 34.542969 3.367188 34.785156 C 3.320312 35.011719 3.320312 35.222656 3.398438 35.441406 C 3.539062 35.84375 3.847656 35.945312 4.246094 35.945312 C 4.152344 36.136719 4.140625 36.664062 4.140625 36.925781 C 4.140625 37.429688 4.355469 37.988281 4.609375 38.332031 C 4.734375 38.5 4.820312 38.609375 4.976562 38.738281 C 5.226562 38.953125 5.148438 38.984375 5.566406 38.707031 L 5.890625 38.449219 C 6.0625 38.273438 6.152344 38.203125 6.304688 38.003906 C 6.355469 37.941406 6.390625 37.898438 6.4375 37.835938 C 6.703125 37.480469 6.890625 37.148438 7.089844 36.75 C 7.113281 36.703125 7.261719 36.390625 7.261719 36.347656 C 7.261719 36.238281 6.855469 35.871094 6.722656 35.765625 C 6.484375 35.570312 6.316406 35.460938 6.054688 35.292969 L 5.578125 35.015625 C 5.8125 34.664062 5.871094 34.355469 5.824219 33.890625 C 5.8125 33.777344 5.808594 33.757812 5.71875 33.714844 C 5.648438 33.679688 5.621094 33.664062 5.554688 33.613281 C 5.253906 33.390625 4.996094 33.027344 4.824219 32.699219 C 4.789062 32.628906 4.757812 32.585938 4.722656 32.515625 C 4.691406 32.449219 4.675781 32.402344 4.644531 32.335938 C 4.5625 32.164062 4.277344 31.496094 4.261719 31.328125 C 4.5 31.273438 4.722656 31.210938 4.980469 31.167969 C 5.683594 31.050781 5.796875 31.007812 6.503906 31.175781 C 7.601562 31.433594 8.65625 31.722656 9.816406 31.335938 C 10.160156 31.21875 10.222656 31.183594 10.515625 31.035156 C 10.617188 30.984375 10.703125 30.953125 10.722656 30.890625 C 10.578125 30.855469 10.195312 30.644531 10.0625 30.566406 C 9.652344 30.320312 9.015625 29.875 8.617188 29.554688 C 8.3125 29.304688 7.980469 29.015625 7.730469 28.71875 C 7.691406 28.667969 7.652344 28.640625 7.613281 28.59375 C 7.570312 28.539062 7.539062 28.511719 7.5 28.460938 L 7.179688 28.042969 C 7.109375 27.953125 7.042969 27.851562 6.980469 27.75 L 6.613281 27.117188 C 6.519531 27.136719 6.28125 27.144531 6.175781 27.152344 C 5.792969 27.175781 5.3125 27.289062 4.960938 27.375 C 4.445312 27.503906 4 27.6875 3.546875 27.875 C 2.96875 28.109375 1.832031 28.757812 1.566406 29.246094 C 1.507812 29.351562 1.472656 29.488281 1.472656 29.644531 Z M 1.472656 29.644531 " fill-opacity="1" fill-rule="evenodd"/><path fill="#d9d9d9" d="M 21.390625 17.007812 C 21.390625 17.535156 21.527344 18.015625 21.726562 18.394531 C 21.269531 18.285156 21.878906 19.238281 21.945312 19.332031 C 22.082031 19.542969 22.066406 19.507812 22.207031 19.683594 C 22.449219 19.996094 22.933594 20.308594 23.34375 20.40625 C 23.515625 20.449219 23.691406 20.464844 23.882812 20.445312 C 23.992188 20.433594 24.144531 20.378906 24.242188 20.328125 C 24.398438 20.25 24.296875 20.238281 24.539062 20.351562 C 24.828125 20.488281 25.09375 20.566406 25.386719 20.664062 C 26.160156 20.921875 27.453125 21.078125 28.246094 20.964844 C 28.625 20.910156 28.859375 20.902344 29.28125 20.824219 C 29.933594 20.699219 30.636719 20.566406 31.28125 20.472656 C 31.988281 20.367188 32.890625 20.269531 33.554688 20.605469 C 34.015625 20.835938 34.414062 21.269531 34.414062 21.832031 C 34.414062 22.246094 34.324219 22.589844 34.203125 22.953125 C 34.074219 23.339844 33.710938 23.921875 33.398438 24.171875 C 33.347656 24.210938 33.324219 24.238281 33.277344 24.277344 C 32.140625 25.199219 30.503906 25.1875 29.007812 24.976562 C 28.921875 24.964844 28.855469 24.957031 28.78125 24.941406 C 28.707031 24.925781 28.617188 24.90625 28.535156 24.90625 C 28.421875 24.90625 28.378906 25.046875 28.472656 25.125 C 28.523438 25.167969 29.203125 25.464844 29.304688 25.507812 C 29.695312 25.675781 30.074219 25.804688 30.492188 25.949219 C 31 26.128906 31.707031 26.433594 32.152344 26.730469 C 32.234375 26.785156 32.304688 26.832031 32.390625 26.894531 C 32.4375 26.929688 32.59375 27.0625 32.644531 27.0625 C 32.949219 27.0625 33.507812 26.8125 33.808594 26.648438 C 34.089844 26.492188 34.476562 26.199219 34.710938 25.972656 L 34.960938 25.695312 C 35.414062 25.105469 35.613281 24.855469 35.941406 24.042969 C 36.234375 23.304688 36.328125 22.832031 36.328125 22.027344 C 36.328125 20.703125 35.320312 19.648438 34.179688 19.257812 C 33.125 18.898438 31.574219 18.988281 30.503906 19.238281 C 30.308594 19.285156 30.128906 19.332031 29.929688 19.382812 C 29.230469 19.558594 28.539062 19.746094 27.796875 19.742188 C 27.507812 19.742188 27.511719 19.777344 27.113281 19.746094 C 26.996094 19.734375 26.863281 19.753906 26.746094 19.742188 C 26.199219 19.699219 26 19.679688 25.460938 19.589844 C 25.246094 19.554688 25.066406 19.492188 24.867188 19.445312 L 24.886719 19.183594 C 24.886719 18.421875 24.285156 17.855469 23.566406 17.675781 C 23.183594 17.582031 22.675781 17.609375 22.300781 17.519531 C 22.109375 17.472656 21.957031 17.398438 21.835938 17.285156 C 21.613281 17.082031 21.648438 16.882812 21.515625 16.882812 C 21.433594 16.882812 21.390625 16.925781 21.390625 17.007812 Z M 21.390625 17.007812 " fill-opacity="1" fill-rule="evenodd"/><path fill="#d9d9d9" d="M 22.761719 32.558594 C 22.777344 32.597656 22.773438 32.582031 22.796875 32.605469 C 22.859375 32.664062 23.207031 32.925781 23.328125 33.042969 L 23.84375 33.578125 C 24.019531 33.777344 24.011719 33.78125 24.164062 33.980469 C 24.367188 34.253906 24.535156 34.601562 24.628906 34.9375 C 24.871094 35.777344 24.582031 36.445312 24.21875 37.171875 C 24.058594 37.492188 23.992188 37.578125 23.832031 37.839844 C 23.6875 38.085938 23.257812 38.640625 23.0625 38.863281 C 22.890625 39.0625 22.496094 39.476562 22.496094 39.753906 C 22.496094 39.925781 22.703125 40.003906 22.742188 40.070312 C 22.617188 40.097656 22.019531 40.476562 21.910156 40.550781 C 21.796875 40.625 21.449219 40.878906 21.351562 40.976562 C 21.183594 41.144531 21.09375 41.191406 20.859375 41.46875 C 20.652344 41.714844 20.472656 41.96875 20.347656 42.273438 C 20.273438 42.464844 20.207031 42.777344 20.199219 42.789062 L 24.585938 42.789062 C 24.59375 42.699219 24.636719 42.570312 24.65625 42.472656 C 24.808594 41.574219 24.492188 41.003906 24.480469 40.875 C 25.300781 40.875 25.667969 40.398438 25.675781 39.628906 L 25.757812 38.503906 C 25.804688 38.128906 25.878906 37.816406 26 37.515625 C 26.265625 36.855469 26.761719 36.414062 27.417969 36.195312 C 27.503906 36.167969 27.566406 36.15625 27.648438 36.125 C 28.117188 35.960938 28.464844 35.652344 28.464844 35.101562 C 27.964844 34.835938 27.878906 34.785156 27.421875 34.441406 C 27.335938 34.378906 27.277344 34.3125 27.195312 34.25 C 26.894531 34.015625 26.402344 33.445312 26.171875 33.128906 L 26.003906 32.878906 C 25.945312 32.78125 25.886719 32.703125 25.832031 32.609375 C 25.742188 32.449219 25.773438 32.480469 25.5625 32.457031 C 24.851562 32.367188 24.078125 32.316406 23.359375 32.417969 C 23.140625 32.449219 22.960938 32.511719 22.761719 32.558594 Z M 22.761719 32.558594 " fill-opacity="1" fill-rule="evenodd"/><path fill="#d9d9d9" d="M 18.621094 7.230469 C 18.667969 7.296875 19.472656 7.648438 19.558594 7.679688 C 19.871094 7.800781 20.070312 7.839844 20.402344 7.886719 C 20.46875 7.894531 20.652344 7.914062 20.726562 7.914062 L 20.859375 7.679688 C 20.972656 7.492188 21.128906 7.019531 21.128906 6.792969 C 21.128906 6.058594 21.019531 5.777344 20.8125 5.144531 C 20.648438 4.652344 20.523438 4.4375 20.351562 4.027344 L 20.304688 3.949219 L 20.253906 4.511719 C 20.207031 5.007812 20.054688 5.5625 19.871094 5.988281 C 19.703125 6.375 19.355469 6.914062 19.019531 7.15625 C 18.96875 7.191406 18.976562 7.1875 18.90625 7.203125 C 18.859375 7.210938 18.675781 7.230469 18.621094 7.230469 Z M 18.621094 7.230469 " fill-opacity="1" fill-rule="evenodd"/><g clip-path="url(#b6e2905654)"><path fill="#d9d9d9" d="M 42.847656 11.828125 L 43.117188 11.828125 C 43.117188 19.015625 43.117188 26.207031 43.117188 33.394531 C 43.027344 33.394531 42.9375 33.394531 42.847656 33.394531 C 42.847656 26.207031 42.847656 19.015625 42.847656 11.828125 " fill-opacity="1" fill-rule="nonzero"/></g><g fill="#d9d9d9" fill-opacity="1"><g transform="translate(48.092876, 12.536333)"><g><path d="M 2.8125 0.140625 C 2.28125 0.140625 1.8125 0.0351562 1.40625 -0.171875 C 1 -0.390625 0.664062 -0.675781 0.40625 -1.03125 L 1.28125 -1.84375 C 1.457031 -1.59375 1.671875 -1.398438 1.921875 -1.265625 C 2.179688 -1.140625 2.46875 -1.078125 2.78125 -1.078125 C 3.09375 -1.078125 3.367188 -1.140625 3.609375 -1.265625 C 3.847656 -1.398438 4.035156 -1.597656 4.171875 -1.859375 C 4.316406 -2.128906 4.390625 -2.457031 4.390625 -2.84375 L 4.390625 -9.296875 L 5.640625 -9.296875 L 5.640625 -2.90625 C 5.640625 -2.289062 5.515625 -1.753906 5.265625 -1.296875 C 5.023438 -0.835938 4.691406 -0.484375 4.265625 -0.234375 C 3.847656 0.0117188 3.363281 0.140625 2.8125 0.140625 Z M 2.8125 0.140625 "/></g></g></g><g fill="#d9d9d9" fill-opacity="1"><g transform="translate(54.723205, 12.536333)"><g><path d="M 5.328125 0.140625 C 4.671875 0.140625 4.054688 0.0117188 3.484375 -0.234375 C 2.910156 -0.484375 2.410156 -0.828125 1.984375 -1.265625 C 1.554688 -1.710938 1.222656 -2.222656 0.984375 -2.796875 C 0.742188 -3.378906 0.625 -4.003906 0.625 -4.671875 C 0.625 -5.335938 0.742188 -5.957031 0.984375 -6.53125 C 1.222656 -7.113281 1.550781 -7.625 1.96875 -8.0625 C 2.394531 -8.5 2.890625 -8.835938 3.453125 -9.078125 C 4.023438 -9.316406 4.644531 -9.4375 5.3125 -9.4375 C 5.96875 -9.4375 6.578125 -9.316406 7.140625 -9.078125 C 7.710938 -8.835938 8.210938 -8.5 8.640625 -8.0625 C 9.078125 -7.625 9.414062 -7.113281 9.65625 -6.53125 C 9.894531 -5.945312 10.015625 -5.320312 10.015625 -4.65625 C 10.015625 -3.988281 9.894531 -3.363281 9.65625 -2.78125 C 9.414062 -2.207031 9.082031 -1.703125 8.65625 -1.265625 C 8.226562 -0.828125 7.726562 -0.484375 7.15625 -0.234375 C 6.59375 0.0117188 5.984375 0.140625 5.328125 0.140625 Z M 5.3125 -1.078125 C 5.976562 -1.078125 6.5625 -1.226562 7.0625 -1.53125 C 7.570312 -1.84375 7.972656 -2.269531 8.265625 -2.8125 C 8.566406 -3.351562 8.71875 -3.972656 8.71875 -4.671875 C 8.71875 -5.179688 8.628906 -5.65625 8.453125 -6.09375 C 8.285156 -6.53125 8.050781 -6.90625 7.75 -7.21875 C 7.445312 -7.539062 7.085938 -7.789062 6.671875 -7.96875 C 6.265625 -8.144531 5.8125 -8.234375 5.3125 -8.234375 C 4.644531 -8.234375 4.054688 -8.078125 3.546875 -7.765625 C 3.046875 -7.460938 2.648438 -7.046875 2.359375 -6.515625 C 2.078125 -5.984375 1.9375 -5.367188 1.9375 -4.671875 C 1.9375 -4.148438 2.015625 -3.664062 2.171875 -3.21875 C 2.335938 -2.78125 2.570312 -2.398438 2.875 -2.078125 C 3.175781 -1.765625 3.535156 -1.519531 3.953125 -1.34375 C 4.367188 -1.164062 4.820312 -1.078125 5.3125 -1.078125 Z M 5.3125 -1.078125 "/></g></g></g><g fill="#d9d9d9" fill-opacity="1"><g transform="translate(64.688387, 12.536333)"><g><path d="M 3.5625 0 L 3.5625 -9.03125 L 4.828125 -9.03125 L 4.828125 0 Z M 0.40625 -8.15625 L 0.40625 -9.296875 L 7.984375 -9.296875 L 7.984375 -8.15625 Z M 0.40625 -8.15625 "/></g></g></g><g fill="#d9d9d9" fill-opacity="1"><g transform="translate(71.70635, 12.536333)"><g><path d="M 0.421875 0 L 4.21875 -9.296875 L 5.140625 -9.296875 L 8.921875 0 L 7.5625 0 L 4.4375 -7.875 L 4.90625 -7.875 L 1.75 0 Z M 2.21875 -2.109375 L 2.21875 -3.203125 L 7.125 -3.203125 L 7.125 -2.109375 Z M 2.21875 -2.109375 "/></g></g></g><g fill="#d9d9d9" fill-opacity="1"><g transform="translate(48.092876, 27.536332)"><g><path d="M 1.328125 -9.058594 L 1.753906 -9.058594 L 1.753906 0 L 1.328125 0 Z M 1.328125 -9.058594 "/></g></g></g><g fill="#d9d9d9" fill-opacity="1"><g transform="translate(51.173637, 27.536332)"><g><path d="M 1.328125 0 L 1.328125 -9.058594 L 1.648438 -9.058594 L 1.753906 -8.496094 L 1.753906 0 Z M 7.585938 0 L 1.554688 -8.484375 L 1.648438 -9.058594 L 7.679688 -0.578125 Z M 7.585938 0 L 7.480469 -0.5625 L 7.480469 -9.058594 L 7.90625 -9.058594 L 7.90625 0 Z M 7.585938 0 "/></g></g></g><g fill="#d9d9d9" fill-opacity="1"><g transform="translate(60.402507, 27.536332)"><g><path d="M 4.222656 0 L 0.671875 -9.058594 L 1.140625 -9.058594 L 4.53125 -0.390625 L 4.328125 -0.390625 L 7.746094 -9.058594 L 8.203125 -9.058594 L 4.625 0 Z M 4.222656 0 "/></g></g></g><g fill="#d9d9d9" fill-opacity="1"><g transform="translate(69.269732, 27.536332)"><g><path d="M 1.328125 0 L 1.328125 -9.058594 L 1.753906 -9.058594 L 1.753906 0 Z M 1.566406 0 L 1.566406 -0.390625 L 7.15625 -0.390625 L 7.15625 0 Z M 1.566406 -4.464844 L 1.566406 -4.839844 L 6.753906 -4.839844 L 6.753906 -4.464844 Z M 1.566406 -8.671875 L 1.566406 -9.058594 L 7.078125 -9.058594 L 7.078125 -8.671875 Z M 1.566406 -8.671875 "/></g></g></g><g fill="#d9d9d9" fill-opacity="1"><g transform="translate(76.904508, 27.536332)"><g><path d="M 3.820312 0.132812 C 3.121094 0.132812 2.515625 -0.00390625 1.996094 -0.273438 C 1.480469 -0.546875 1.035156 -0.921875 0.671875 -1.394531 L 0.976562 -1.6875 C 1.355469 -1.179688 1.777344 -0.816406 2.25 -0.597656 C 2.726562 -0.378906 3.257812 -0.269531 3.847656 -0.269531 C 4.507812 -0.269531 5.046875 -0.429688 5.46875 -0.75 C 5.886719 -1.070312 6.097656 -1.519531 6.097656 -2.089844 C 6.097656 -2.519531 6.011719 -2.871094 5.835938 -3.144531 C 5.664062 -3.414062 5.433594 -3.636719 5.148438 -3.804688 C 4.859375 -3.976562 4.546875 -4.125 4.207031 -4.253906 C 3.867188 -4.386719 3.53125 -4.515625 3.191406 -4.644531 C 2.851562 -4.773438 2.539062 -4.933594 2.25 -5.125 C 1.964844 -5.320312 1.734375 -5.5625 1.5625 -5.863281 C 1.386719 -6.164062 1.300781 -6.542969 1.300781 -7.007812 C 1.300781 -7.449219 1.40625 -7.828125 1.613281 -8.15625 C 1.824219 -8.480469 2.117188 -8.734375 2.492188 -8.917969 C 2.867188 -9.101562 3.304688 -9.195312 3.804688 -9.195312 C 4.386719 -9.195312 4.90625 -9.082031 5.359375 -8.859375 C 5.816406 -8.636719 6.207031 -8.3125 6.527344 -7.894531 L 6.21875 -7.597656 C 5.914062 -7.984375 5.570312 -8.277344 5.179688 -8.484375 C 4.792969 -8.6875 4.332031 -8.792969 3.804688 -8.792969 C 3.199219 -8.792969 2.703125 -8.636719 2.320312 -8.324219 C 1.933594 -8.011719 1.742188 -7.578125 1.742188 -7.023438 C 1.742188 -6.621094 1.828125 -6.292969 2.003906 -6.039062 C 2.179688 -5.78125 2.40625 -5.574219 2.695312 -5.40625 C 2.980469 -5.242188 3.292969 -5.101562 3.632812 -4.980469 C 3.972656 -4.859375 4.3125 -4.730469 4.652344 -4.597656 C 4.988281 -4.464844 5.304688 -4.296875 5.589844 -4.101562 C 5.875 -3.90625 6.105469 -3.652344 6.277344 -3.34375 C 6.453125 -3.035156 6.539062 -2.644531 6.539062 -2.171875 C 6.539062 -1.410156 6.296875 -0.835938 5.808594 -0.449219 C 5.324219 -0.0585938 4.660156 0.132812 3.820312 0.132812 Z M 3.820312 0.132812 "/></g></g></g><g fill="#d9d9d9" fill-opacity="1"><g transform="translate(83.762231, 27.536332)"><g><path d="M 4.101562 0 L 4.101562 -8.804688 L 4.53125 -8.804688 L 4.53125 0 Z M 0.65625 -8.671875 L 0.65625 -9.058594 L 7.972656 -9.058594 L 7.972656 -8.671875 Z M 0.65625 -8.671875 "/></g></g></g><g fill="#d9d9d9" fill-opacity="1"><g transform="translate(92.388352, 27.536332)"><g><path d="M 1.328125 -9.058594 L 1.753906 -9.058594 L 1.753906 0 L 1.328125 0 Z M 1.328125 -9.058594 "/></g></g></g><g fill="#d9d9d9" fill-opacity="1"><g transform="translate(95.469113, 27.536332)"><g><path d="M 1.328125 0 L 1.328125 -9.058594 L 1.648438 -9.058594 L 5.710938 -2.414062 L 5.414062 -2.414062 L 9.476562 -9.058594 L 9.796875 -9.058594 L 9.796875 0 L 9.367188 0 L 9.367188 -8.335938 L 9.476562 -8.308594 L 5.722656 -2.15625 L 5.402344 -2.15625 L 1.648438 -8.308594 L 1.753906 -8.335938 L 1.753906 0 Z M 1.328125 0 "/></g></g></g><g fill="#d9d9d9" fill-opacity="1"><g transform="translate(106.586624, 27.536332)"><g><path d="M 1.328125 0 L 1.328125 -9.058594 L 1.753906 -9.058594 L 1.753906 0 Z M 1.566406 0 L 1.566406 -0.390625 L 7.15625 -0.390625 L 7.15625 0 Z M 1.566406 -4.464844 L 1.566406 -4.839844 L 6.753906 -4.839844 L 6.753906 -4.464844 Z M 1.566406 -8.671875 L 1.566406 -9.058594 L 7.078125 -9.058594 L 7.078125 -8.671875 Z M 1.566406 -8.671875 "/></g></g></g><g fill="#d9d9d9" fill-opacity="1"><g transform="translate(114.462642, 27.536332)"><g><path d="M 1.328125 0 L 1.328125 -9.058594 L 1.648438 -9.058594 L 1.753906 -8.496094 L 1.753906 0 Z M 7.585938 0 L 1.554688 -8.484375 L 1.648438 -9.058594 L 7.679688 -0.578125 Z M 7.585938 0 L 7.480469 -0.5625 L 7.480469 -9.058594 L 7.90625 -9.058594 L 7.90625 0 Z M 7.585938 0 "/></g></g></g><g fill="#d9d9d9" fill-opacity="1"><g transform="translate(123.691512, 27.536332)"><g><path d="M 4.101562 0 L 4.101562 -8.804688 L 4.53125 -8.804688 L 4.53125 0 Z M 0.65625 -8.671875 L 0.65625 -9.058594 L 7.972656 -9.058594 L 7.972656 -8.671875 Z M 0.65625 -8.671875 "/></g></g></g><g fill="#d9d9d9" fill-opacity="1"><g transform="translate(131.459875, 27.536332)"><g><path d="M 5.335938 0.132812 C 4.699219 0.132812 4.113281 0.015625 3.570312 -0.222656 C 3.03125 -0.457031 2.558594 -0.789062 2.15625 -1.21875 C 1.753906 -1.648438 1.441406 -2.148438 1.21875 -2.714844 C 0.996094 -3.28125 0.882812 -3.890625 0.882812 -4.542969 C 0.882812 -5.203125 0.992188 -5.816406 1.214844 -6.378906 C 1.433594 -6.941406 1.742188 -7.433594 2.144531 -7.855469 C 2.546875 -8.273438 3.015625 -8.601562 3.550781 -8.839844 C 4.085938 -9.074219 4.671875 -9.195312 5.308594 -9.195312 C 5.941406 -9.195312 6.527344 -9.074219 7.070312 -8.839844 C 7.609375 -8.601562 8.078125 -8.273438 8.476562 -7.855469 C 8.875 -7.433594 9.183594 -6.941406 9.410156 -6.371094 C 9.632812 -5.804688 9.742188 -5.191406 9.742188 -4.53125 C 9.742188 -3.878906 9.632812 -3.269531 9.414062 -2.699219 C 9.195312 -2.132812 8.886719 -1.636719 8.484375 -1.214844 C 8.082031 -0.789062 7.613281 -0.457031 7.082031 -0.222656 C 6.550781 0.015625 5.96875 0.132812 5.335938 0.132812 Z M 5.308594 -0.28125 C 6.066406 -0.28125 6.746094 -0.46875 7.34375 -0.84375 C 7.941406 -1.21875 8.417969 -1.730469 8.765625 -2.371094 C 9.113281 -3.015625 9.289062 -3.738281 9.289062 -4.542969 C 9.289062 -5.140625 9.1875 -5.699219 8.988281 -6.210938 C 8.785156 -6.726562 8.507812 -7.175781 8.148438 -7.558594 C 7.792969 -7.941406 7.371094 -8.242188 6.890625 -8.457031 C 6.40625 -8.671875 5.878906 -8.777344 5.308594 -8.777344 C 4.546875 -8.777344 3.867188 -8.59375 3.269531 -8.222656 C 2.671875 -7.851562 2.199219 -7.347656 1.855469 -6.707031 C 1.511719 -6.070312 1.339844 -5.347656 1.339844 -4.542969 C 1.339844 -3.945312 1.441406 -3.386719 1.640625 -2.867188 C 1.84375 -2.351562 2.121094 -1.894531 2.480469 -1.507812 C 2.835938 -1.117188 3.257812 -0.816406 3.738281 -0.601562 C 4.222656 -0.390625 4.746094 -0.28125 5.308594 -0.28125 Z M 5.308594 -0.28125 "/></g></g></g><g fill="#d9d9d9" fill-opacity="1"><g transform="translate(141.760129, 27.536332)"><g><path d="M 3.820312 0.132812 C 3.121094 0.132812 2.515625 -0.00390625 1.996094 -0.273438 C 1.480469 -0.546875 1.035156 -0.921875 0.671875 -1.394531 L 0.976562 -1.6875 C 1.355469 -1.179688 1.777344 -0.816406 2.25 -0.597656 C 2.726562 -0.378906 3.257812 -0.269531 3.847656 -0.269531 C 4.507812 -0.269531 5.046875 -0.429688 5.46875 -0.75 C 5.886719 -1.070312 6.097656 -1.519531 6.097656 -2.089844 C 6.097656 -2.519531 6.011719 -2.871094 5.835938 -3.144531 C 5.664062 -3.414062 5.433594 -3.636719 5.148438 -3.804688 C 4.859375 -3.976562 4.546875 -4.125 4.207031 -4.253906 C 3.867188 -4.386719 3.53125 -4.515625 3.191406 -4.644531 C 2.851562 -4.773438 2.539062 -4.933594 2.25 -5.125 C 1.964844 -5.320312 1.734375 -5.5625 1.5625 -5.863281 C 1.386719 -6.164062 1.300781 -6.542969 1.300781 -7.007812 C 1.300781 -7.449219 1.40625 -7.828125 1.613281 -8.15625 C 1.824219 -8.480469 2.117188 -8.734375 2.492188 -8.917969 C 2.867188 -9.101562 3.304688 -9.195312 3.804688 -9.195312 C 4.386719 -9.195312 4.90625 -9.082031 5.359375 -8.859375 C 5.816406 -8.636719 6.207031 -8.3125 6.527344 -7.894531 L 6.21875 -7.597656 C 5.914062 -7.984375 5.570312 -8.277344 5.179688 -8.484375 C 4.792969 -8.6875 4.332031 -8.792969 3.804688 -8.792969 C 3.199219 -8.792969 2.703125 -8.636719 2.320312 -8.324219 C 1.933594 -8.011719 1.742188 -7.578125 1.742188 -7.023438 C 1.742188 -6.621094 1.828125 -6.292969 2.003906 -6.039062 C 2.179688 -5.78125 2.40625 -5.574219 2.695312 -5.40625 C 2.980469 -5.242188 3.292969 -5.101562 3.632812 -4.980469 C 3.972656 -4.859375 4.3125 -4.730469 4.652344 -4.597656 C 4.988281 -4.464844 5.304688 -4.296875 5.589844 -4.101562 C 5.875 -3.90625 6.105469 -3.652344 6.277344 -3.34375 C 6.453125 -3.035156 6.539062 -2.644531 6.539062 -2.171875 C 6.539062 -1.410156 6.296875 -0.835938 5.808594 -0.449219 C 5.324219 -0.0585938 4.660156 0.132812 3.820312 0.132812 Z M 3.820312 0.132812 "/></g></g></g><g fill="#d9d9d9" fill-opacity="1"><g transform="translate(48.092876, 42.536331)"><g><path d="M 7.574219 0 L 3.121094 -4.488281 C 2.730469 -4.882812 2.441406 -5.265625 2.257812 -5.640625 C 2.074219 -6.019531 1.984375 -6.410156 1.984375 -6.820312 C 1.984375 -7.296875 2.085938 -7.707031 2.285156 -8.0625 C 2.484375 -8.414062 2.769531 -8.691406 3.136719 -8.890625 C 3.503906 -9.09375 3.921875 -9.195312 4.394531 -9.195312 C 4.707031 -9.195312 5 -9.148438 5.265625 -9.058594 C 5.535156 -8.972656 5.777344 -8.84375 5.996094 -8.679688 C 6.214844 -8.511719 6.402344 -8.304688 6.554688 -8.054688 L 6.246094 -7.746094 C 6.023438 -8.085938 5.757812 -8.34375 5.449219 -8.515625 C 5.140625 -8.691406 4.792969 -8.777344 4.410156 -8.777344 C 3.8125 -8.777344 3.328125 -8.597656 2.960938 -8.234375 C 2.59375 -7.875 2.414062 -7.390625 2.414062 -6.78125 C 2.414062 -6.414062 2.492188 -6.074219 2.652344 -5.761719 C 2.816406 -5.449219 3.097656 -5.09375 3.5 -4.691406 L 8.175781 0 Z M 3.859375 0.132812 C 3.324219 0.132812 2.847656 0.0195312 2.425781 -0.207031 C 2.007812 -0.4375 1.675781 -0.746094 1.433594 -1.140625 C 1.191406 -1.53125 1.070312 -1.984375 1.070312 -2.492188 C 1.070312 -3.066406 1.222656 -3.59375 1.527344 -4.082031 C 1.832031 -4.566406 2.234375 -4.933594 2.734375 -5.171875 L 2.988281 -4.878906 C 2.550781 -4.683594 2.195312 -4.363281 1.917969 -3.921875 C 1.640625 -3.476562 1.5 -3.003906 1.5 -2.492188 C 1.5 -2.0625 1.605469 -1.683594 1.808594 -1.347656 C 2.015625 -1.011719 2.296875 -0.75 2.652344 -0.554688 C 3.011719 -0.363281 3.417969 -0.269531 3.875 -0.269531 C 4.375 -0.269531 4.839844 -0.386719 5.265625 -0.625 C 5.695312 -0.859375 6.023438 -1.183594 6.246094 -1.59375 L 6.527344 -1.3125 C 6.355469 -1.019531 6.136719 -0.761719 5.863281 -0.542969 C 5.589844 -0.324219 5.285156 -0.15625 4.945312 -0.0390625 C 4.605469 0.0742188 4.242188 0.132812 3.859375 0.132812 Z M 3.859375 0.132812 "/></g></g></g><g fill="#d9d9d9" fill-opacity="1"><g transform="translate(55.981986, 42.536331)"><g/></g></g><g fill="#d9d9d9" fill-opacity="1"><g transform="translate(59.062747, 42.536331)"><g><path d="M 5.429688 0.132812 C 4.785156 0.132812 4.1875 0.015625 3.632812 -0.222656 C 3.078125 -0.457031 2.59375 -0.789062 2.183594 -1.21875 C 1.773438 -1.648438 1.453125 -2.148438 1.226562 -2.714844 C 1 -3.28125 0.882812 -3.890625 0.882812 -4.542969 C 0.882812 -5.203125 0.996094 -5.816406 1.21875 -6.378906 C 1.441406 -6.941406 1.757812 -7.433594 2.164062 -7.855469 C 2.570312 -8.273438 3.046875 -8.601562 3.59375 -8.839844 C 4.136719 -9.074219 4.726562 -9.195312 5.359375 -9.195312 C 6.011719 -9.195312 6.621094 -9.070312 7.183594 -8.820312 C 7.746094 -8.570312 8.234375 -8.21875 8.644531 -7.773438 L 8.335938 -7.464844 C 7.980469 -7.875 7.542969 -8.199219 7.03125 -8.429688 C 6.515625 -8.664062 5.960938 -8.777344 5.359375 -8.777344 C 4.789062 -8.777344 4.257812 -8.671875 3.773438 -8.457031 C 3.285156 -8.242188 2.859375 -7.941406 2.492188 -7.558594 C 2.125 -7.175781 1.84375 -6.726562 1.640625 -6.210938 C 1.441406 -5.699219 1.339844 -5.140625 1.339844 -4.542969 C 1.339844 -3.945312 1.441406 -3.386719 1.648438 -2.867188 C 1.855469 -2.351562 2.136719 -1.894531 2.5 -1.507812 C 2.863281 -1.117188 3.289062 -0.816406 3.785156 -0.601562 C 4.28125 -0.390625 4.816406 -0.28125 5.386719 -0.28125 C 5.996094 -0.28125 6.558594 -0.398438 7.082031 -0.636719 C 7.605469 -0.875 8.046875 -1.199219 8.402344 -1.609375 L 8.710938 -1.300781 C 8.308594 -0.851562 7.828125 -0.503906 7.265625 -0.246094 C 6.703125 0.0078125 6.089844 0.132812 5.429688 0.132812 Z M 5.429688 0.132812 "/></g></g></g><g fill="#d9d9d9" fill-opacity="1"><g transform="translate(68.103877, 42.536331)"><g><path d="M 5.335938 0.132812 C 4.699219 0.132812 4.113281 0.015625 3.570312 -0.222656 C 3.03125 -0.457031 2.558594 -0.789062 2.15625 -1.21875 C 1.753906 -1.648438 1.441406 -2.148438 1.21875 -2.714844 C 0.996094 -3.28125 0.882812 -3.890625 0.882812 -4.542969 C 0.882812 -5.203125 0.992188 -5.816406 1.214844 -6.378906 C 1.433594 -6.941406 1.742188 -7.433594 2.144531 -7.855469 C 2.546875 -8.273438 3.015625 -8.601562 3.550781 -8.839844 C 4.085938 -9.074219 4.671875 -9.195312 5.308594 -9.195312 C 5.941406 -9.195312 6.527344 -9.074219 7.070312 -8.839844 C 7.609375 -8.601562 8.078125 -8.273438 8.476562 -7.855469 C 8.875 -7.433594 9.183594 -6.941406 9.410156 -6.371094 C 9.632812 -5.804688 9.742188 -5.191406 9.742188 -4.53125 C 9.742188 -3.878906 9.632812 -3.269531 9.414062 -2.699219 C 9.195312 -2.132812 8.886719 -1.636719 8.484375 -1.214844 C 8.082031 -0.789062 7.613281 -0.457031 7.082031 -0.222656 C 6.550781 0.015625 5.96875 0.132812 5.335938 0.132812 Z M 5.308594 -0.28125 C 6.066406 -0.28125 6.746094 -0.46875 7.34375 -0.84375 C 7.941406 -1.21875 8.417969 -1.730469 8.765625 -2.371094 C 9.113281 -3.015625 9.289062 -3.738281 9.289062 -4.542969 C 9.289062 -5.140625 9.1875 -5.699219 8.988281 -6.210938 C 8.785156 -6.726562 8.507812 -7.175781 8.148438 -7.558594 C 7.792969 -7.941406 7.371094 -8.242188 6.890625 -8.457031 C 6.40625 -8.671875 5.878906 -8.777344 5.308594 -8.777344 C 4.546875 -8.777344 3.867188 -8.59375 3.269531 -8.222656 C 2.671875 -7.851562 2.199219 -7.347656 1.855469 -6.707031 C 1.511719 -6.070312 1.339844 -5.347656 1.339844 -4.542969 C 1.339844 -3.945312 1.441406 -3.386719 1.640625 -2.867188 C 1.84375 -2.351562 2.121094 -1.894531 2.480469 -1.507812 C 2.835938 -1.117188 3.257812 -0.816406 3.738281 -0.601562 C 4.222656 -0.390625 4.746094 -0.28125 5.308594 -0.28125 Z M 5.308594 -0.28125 "/></g></g></g><g fill="#d9d9d9" fill-opacity="1"><g transform="translate(78.72579, 42.536331)"><g><path d="M 1.328125 0 L 1.328125 -9.058594 L 1.648438 -9.058594 L 1.753906 -8.496094 L 1.753906 0 Z M 7.585938 0 L 1.554688 -8.484375 L 1.648438 -9.058594 L 7.679688 -0.578125 Z M 7.585938 0 L 7.480469 -0.5625 L 7.480469 -9.058594 L 7.90625 -9.058594 L 7.90625 0 Z M 7.585938 0 "/></g></g></g><g fill="#d9d9d9" fill-opacity="1"><g transform="translate(87.767022, 42.536331)"><g><path d="M 3.820312 0.132812 C 3.121094 0.132812 2.515625 -0.00390625 1.996094 -0.273438 C 1.480469 -0.546875 1.035156 -0.921875 0.671875 -1.394531 L 0.976562 -1.6875 C 1.355469 -1.179688 1.777344 -0.816406 2.25 -0.597656 C 2.726562 -0.378906 3.257812 -0.269531 3.847656 -0.269531 C 4.507812 -0.269531 5.046875 -0.429688 5.46875 -0.75 C 5.886719 -1.070312 6.097656 -1.519531 6.097656 -2.089844 C 6.097656 -2.519531 6.011719 -2.871094 5.835938 -3.144531 C 5.664062 -3.414062 5.433594 -3.636719 5.148438 -3.804688 C 4.859375 -3.976562 4.546875 -4.125 4.207031 -4.253906 C 3.867188 -4.386719 3.53125 -4.515625 3.191406 -4.644531 C 2.851562 -4.773438 2.539062 -4.933594 2.25 -5.125 C 1.964844 -5.320312 1.734375 -5.5625 1.5625 -5.863281 C 1.386719 -6.164062 1.300781 -6.542969 1.300781 -7.007812 C 1.300781 -7.449219 1.40625 -7.828125 1.613281 -8.15625 C 1.824219 -8.480469 2.117188 -8.734375 2.492188 -8.917969 C 2.867188 -9.101562 3.304688 -9.195312 3.804688 -9.195312 C 4.386719 -9.195312 4.90625 -9.082031 5.359375 -8.859375 C 5.816406 -8.636719 6.207031 -8.3125 6.527344 -7.894531 L 6.21875 -7.597656 C 5.914062 -7.984375 5.570312 -8.277344 5.179688 -8.484375 C 4.792969 -8.6875 4.332031 -8.792969 3.804688 -8.792969 C 3.199219 -8.792969 2.703125 -8.636719 2.320312 -8.324219 C 1.933594 -8.011719 1.742188 -7.578125 1.742188 -7.023438 C 1.742188 -6.621094 1.828125 -6.292969 2.003906 -6.039062 C 2.179688 -5.78125 2.40625 -5.574219 2.695312 -5.40625 C 2.980469 -5.242188 3.292969 -5.101562 3.632812 -4.980469 C 3.972656 -4.859375 4.3125 -4.730469 4.652344 -4.597656 C 4.988281 -4.464844 5.304688 -4.296875 5.589844 -4.101562 C 5.875 -3.90625 6.105469 -3.652344 6.277344 -3.34375 C 6.453125 -3.035156 6.539062 -2.644531 6.539062 -2.171875 C 6.539062 -1.410156 6.296875 -0.835938 5.808594 -0.449219 C 5.324219 -0.0585938 4.660156 0.132812 3.820312 0.132812 Z M 3.820312 0.132812 "/></g></g></g><g fill="#d9d9d9" fill-opacity="1"><g transform="translate(95.321679, 42.536331)"><g><path d="M 4.4375 0.132812 C 3.820312 0.132812 3.269531 -0.00390625 2.78125 -0.28125 C 2.292969 -0.558594 1.910156 -0.9375 1.628906 -1.421875 C 1.347656 -1.902344 1.207031 -2.449219 1.207031 -3.054688 L 1.207031 -9.058594 L 1.636719 -9.058594 L 1.636719 -3.136719 C 1.636719 -2.554688 1.757812 -2.050781 2.003906 -1.621094 C 2.25 -1.191406 2.585938 -0.863281 3.007812 -0.628906 C 3.433594 -0.398438 3.910156 -0.28125 4.4375 -0.28125 C 4.972656 -0.28125 5.449219 -0.398438 5.871094 -0.628906 C 6.289062 -0.863281 6.625 -1.191406 6.867188 -1.621094 C 7.113281 -2.050781 7.238281 -2.550781 7.238281 -3.121094 L 7.238281 -9.058594 L 7.667969 -9.058594 L 7.667969 -3.042969 C 7.667969 -2.433594 7.527344 -1.890625 7.242188 -1.414062 C 6.960938 -0.9375 6.578125 -0.558594 6.089844 -0.28125 C 5.605469 -0.00390625 5.054688 0.132812 4.4375 0.132812 Z M 4.4375 0.132812 "/></g></g></g><g fill="#d9d9d9" fill-opacity="1"><g transform="translate(104.188904, 42.536331)"><g><path d="M 1.328125 0 L 1.328125 -9.058594 L 1.753906 -9.058594 L 1.753906 0 Z M 1.566406 0 L 1.566406 -0.390625 L 6.820312 -0.390625 L 6.820312 0 Z M 1.566406 0 "/></g></g></g><g fill="#d9d9d9" fill-opacity="1"><g transform="translate(110.215614, 42.536331)"><g><path d="M 4.101562 0 L 4.101562 -8.804688 L 4.53125 -8.804688 L 4.53125 0 Z M 0.65625 -8.671875 L 0.65625 -9.058594 L 7.972656 -9.058594 L 7.972656 -8.671875 Z M 0.65625 -8.671875 "/></g></g></g><g fill="#d9d9d9" fill-opacity="1"><g transform="translate(117.983977, 42.536331)"><g><path d="M 5.335938 0.132812 C 4.699219 0.132812 4.113281 0.015625 3.570312 -0.222656 C 3.03125 -0.457031 2.558594 -0.789062 2.15625 -1.21875 C 1.753906 -1.648438 1.441406 -2.148438 1.21875 -2.714844 C 0.996094 -3.28125 0.882812 -3.890625 0.882812 -4.542969 C 0.882812 -5.203125 0.992188 -5.816406 1.214844 -6.378906 C 1.433594 -6.941406 1.742188 -7.433594 2.144531 -7.855469 C 2.546875 -8.273438 3.015625 -8.601562 3.550781 -8.839844 C 4.085938 -9.074219 4.671875 -9.195312 5.308594 -9.195312 C 5.941406 -9.195312 6.527344 -9.074219 7.070312 -8.839844 C 7.609375 -8.601562 8.078125 -8.273438 8.476562 -7.855469 C 8.875 -7.433594 9.183594 -6.941406 9.410156 -6.371094 C 9.632812 -5.804688 9.742188 -5.191406 9.742188 -4.53125 C 9.742188 -3.878906 9.632812 -3.269531 9.414062 -2.699219 C 9.195312 -2.132812 8.886719 -1.636719 8.484375 -1.214844 C 8.082031 -0.789062 7.613281 -0.457031 7.082031 -0.222656 C 6.550781 0.015625 5.96875 0.132812 5.335938 0.132812 Z M 5.308594 -0.28125 C 6.066406 -0.28125 6.746094 -0.46875 7.34375 -0.84375 C 7.941406 -1.21875 8.417969 -1.730469 8.765625 -2.371094 C 9.113281 -3.015625 9.289062 -3.738281 9.289062 -4.542969 C 9.289062 -5.140625 9.1875 -5.699219 8.988281 -6.210938 C 8.785156 -6.726562 8.507812 -7.175781 8.148438 -7.558594 C 7.792969 -7.941406 7.371094 -8.242188 6.890625 -8.457031 C 6.40625 -8.671875 5.878906 -8.777344 5.308594 -8.777344 C 4.546875 -8.777344 3.867188 -8.59375 3.269531 -8.222656 C 2.671875 -7.851562 2.199219 -7.347656 1.855469 -6.707031 C 1.511719 -6.070312 1.339844 -5.347656 1.339844 -4.542969 C 1.339844 -3.945312 1.441406 -3.386719 1.640625 -2.867188 C 1.84375 -2.351562 2.121094 -1.894531 2.480469 -1.507812 C 2.835938 -1.117188 3.257812 -0.816406 3.738281 -0.601562 C 4.222656 -0.390625 4.746094 -0.28125 5.308594 -0.28125 Z M 5.308594 -0.28125 "/></g></g></g><g fill="#d9d9d9" fill-opacity="1"><g transform="translate(128.605891, 42.536331)"><g><path d="M 1.542969 -4.261719 L 1.542969 -4.652344 L 4.515625 -4.652344 C 5.257812 -4.652344 5.820312 -4.835938 6.207031 -5.207031 C 6.589844 -5.578125 6.78125 -6.0625 6.78125 -6.660156 C 6.78125 -7.269531 6.589844 -7.753906 6.207031 -8.121094 C 5.820312 -8.488281 5.257812 -8.671875 4.515625 -8.671875 L 1.542969 -8.671875 L 1.542969 -9.058594 L 4.449219 -9.058594 C 5.046875 -9.058594 5.554688 -8.960938 5.964844 -8.757812 C 6.375 -8.558594 6.6875 -8.277344 6.902344 -7.914062 C 7.117188 -7.550781 7.222656 -7.132812 7.222656 -6.660156 C 7.222656 -6.1875 7.117188 -5.769531 6.902344 -5.40625 C 6.6875 -5.046875 6.375 -4.765625 5.964844 -4.5625 C 5.554688 -4.363281 5.046875 -4.261719 4.449219 -4.261719 Z M 1.328125 0 L 1.328125 -9.058594 L 1.753906 -9.058594 L 1.753906 0 Z M 7.332031 0 L 3.699219 -4.449219 L 4.167969 -4.53125 L 7.90625 0 Z M 7.332031 0 "/></g></g></g><g fill="#d9d9d9" fill-opacity="1"><g transform="translate(136.950613, 42.536331)"><g><path d="M 1.328125 -9.058594 L 1.753906 -9.058594 L 1.753906 0 L 1.328125 0 Z M 1.328125 -9.058594 "/></g></g></g><g fill="#d9d9d9" fill-opacity="1"><g transform="translate(140.031374, 42.536331)"><g><path d="M 0.671875 0 L 4.355469 -9.058594 L 4.757812 -9.058594 L 8.417969 0 L 7.949219 0 L 4.449219 -8.683594 L 4.652344 -8.683594 L 1.125 0 Z M 2.210938 -2.988281 L 2.210938 -3.378906 L 6.890625 -3.378906 L 6.890625 -2.988281 Z M 2.210938 -2.988281 "/></g></g></g></svg>